<svg xmlns="http://www.w3.org/2000/svg" width="24" height="24" fill="currentColor" viewBox="0 0 24 24">
  <path  d="M20 12a8 8 0 1 0-16 0 8 8 0 0 0 16 0Zm2 0c0 5.523-4.477 10-10 10S2 17.523 2 12 6.477 2 12 2s10 4.477 10 10Z"/>
  <path  d="M12.02 10.5a1 1 0 0 1 .981 1.02c-.016.865.129 1.49.39 2.034.271.561.694 1.096 1.328 1.75a1 1 0 0 1-1.438 1.391c-.687-.71-1.283-1.426-1.691-2.273-.417-.865-.61-1.808-.588-2.942a1 1 0 0 1 1.018-.98Z"/>
  <path  d="M11.977 10.5a1 1 0 0 1 1.021.98c.023 1.115-.142 2.06-.549 2.935-.402.864-1.008 1.589-1.757 2.307a1 1 0 0 1-1.384-1.444c.66-.632 1.073-1.158 1.328-1.707.25-.537.38-1.166.362-2.05a1 1 0 0 1 .98-1.021Z"/>
  <path  d="M14.864 9.76a1 1 0 1 1 .272 1.98l-.006.001-.018.003-.062.008-.23.03c-.194.023-.465.056-.774.088-.609.063-1.401.13-2.046.13-.644 0-1.437-.067-2.046-.13a38.55 38.55 0 0 1-1.004-.118l-.062-.008c-.008 0-.014-.002-.018-.003h-.006a1 1 0 0 1 .272-1.981h.004c.003 0 .008 0 .014.002l.057.008a30.734 30.734 0 0 0 .95.11A19.6 19.6 0 0 0 12 10c.536 0 1.244-.058 1.84-.12a38.17 38.17 0 0 0 .95-.11l.056-.008.014-.002h.004ZM12 6.5a1.5 1.5 0 1 1 0 3 1.5 1.5 0 0 1 0-3Z"/>
</svg>
