<svg xmlns="http://www.w3.org/2000/svg" width="24" height="24" fill="currentColor" viewBox="0 0 24 24">
  <path d="m16.127 11.604-.991.136-.006.001-.018.003-.062.008-.23.03c-.194.023-.465.056-.774.088a29.95 29.95 0 0 1-1.037.09c.032.645.167 1.147.383 1.594.27.561.693 1.096 1.327 1.75l.695.72-1.437 1.39-.696-.719c-.475-.49-.904-.985-1.26-1.522-.361.548-.81 1.05-1.329 1.549l-.722.692-1.384-1.444.722-.692c.66-.632 1.073-1.158 1.328-1.707.206-.444.33-.95.356-1.611a29.976 29.976 0 0 1-1.812-.179 31.423 31.423 0 0 1-.23-.029l-.062-.008c-.008 0-.014-.002-.018-.003h-.006l-.991-.136.273-1.982.99.137h.004c.003 0 .008 0 .014.002l.057.008a31.236 31.236 0 0 0 .95.11A19.6 19.6 0 0 0 12 10c.536 0 1.244-.058 1.84-.12a38.262 38.262 0 0 0 .95-.11l.056-.008.014-.002h.004l.99-.137.273 1.982ZM12 6.5a1.5 1.5 0 1 1 0 3 1.5 1.5 0 0 1 0-3Z"/>
  <path fill-rule="evenodd" d="M12 2c5.523 0 10 4.477 10 10s-4.477 10-10 10S2 17.523 2 12 6.477 2 12 2Zm0 2a8 8 0 1 0 0 16 8 8 0 0 0 0-16Z" clip-rule="evenodd"/>
</svg>
