<svg xmlns="http://www.w3.org/2000/svg" width="24" height="24" fill="currentColor" viewBox="0 0 24 24">
  <path  fill-rule="evenodd" d="M2.293 2.293a1 1 0 0 1 1.414 0l6.26 6.26a4 4 0 0 1 5.478 5.478l6.262 6.262a1 1 0 1 1-1.414 1.414l-3.09-3.09c-2.63 1.465-5.576 1.772-8.351.892-2.93-.93-5.589-3.156-7.482-6.568a1.941 1.941 0 0 1 0-1.882l.232-.407c.996-1.69 2.187-3.07 3.507-4.129L2.293 3.707a1 1 0 0 1 0-1.414Zm1.794 8.208a15.06 15.06 0 0 0-.952 1.498c1.685 3.022 3.961 4.854 6.322 5.604.695.22 1.403.346 2.115.383l-7.485-7.485Zm2.446-2.554c-.394.303-.78.642-1.153 1.019l8.752 8.752a8.897 8.897 0 0 0 1.587-.585L6.533 7.947Zm6.882 2.639a2 2 0 0 0-1.931-.517l2.446 2.447a1.997 1.997 0 0 0-.515-1.93Z" clip-rule="evenodd"/>
  <path  d="M10.607 4.095c4.554-.623 9.165 1.814 12.023 6.964a1.94 1.94 0 0 1 0 1.882c-.471.85-.99 1.625-1.548 2.326a1 1 0 0 1-1.564-1.246c.48-.603.93-1.277 1.345-2.022-2.538-4.552-6.41-6.412-9.985-5.923a1 1 0 1 1-.271-1.981Z"/>
</svg>
