<svg xmlns="http://www.w3.org/2000/svg" width="24" height="24" fill="currentColor" viewBox="0 0 24 24">
  <path  d="M17.065 20.883V18.91h-1.974a.987.987 0 0 1 0-1.974h1.974v-1.974a.987.987 0 0 1 1.974 0v1.974h1.974a.987.987 0 0 1 0 1.974h-1.974v1.974a.987.987 0 0 1-1.974 0ZM12.13 12c.776 0 1.52.096 2.222.279a.988.988 0 0 1-.497 1.91 6.845 6.845 0 0 0-1.725-.215c-3.2 0-5.538 2.071-6.238 4.935h5.25a.987.987 0 0 1 0 1.974h-5.33c-1.12 0-2.164-1.001-1.878-2.274l.086-.35c.955-3.588 4-6.259 8.11-6.259Zm2.467-5.429a2.468 2.468 0 1 0-4.935.001 2.468 2.468 0 0 0 4.935 0Zm1.975 0a4.442 4.442 0 1 1-8.885 0 4.442 4.442 0 0 1 8.884 0Z"/>
</svg>
