<svg xmlns="http://www.w3.org/2000/svg" width="24" height="24" fill="currentColor" viewBox="0 0 24 24">
  <path d="m21.372 14.657-4.085 6.808L13.6 18.7l1.2-1.6 1.912 1.434 2.945-4.906 1.715 1.03ZM12 12a8.69 8.69 0 0 1 3.388.666l.922.389-.777 1.843-.92-.388A6.692 6.692 0 0 0 12 14c-3.23 0-5.611 2.091-6.32 5H12v2H3.401l.103-1.094C3.916 15.521 7.242 12 12 12Z"/>
  <path fill-rule="evenodd" d="M12 2a4.5 4.5 0 1 1 0 9 4.5 4.5 0 0 1 0-9Zm0 2a2.5 2.5 0 1 0 0 5 2.5 2.5 0 0 0 0-5Z" clip-rule="evenodd"/>
</svg>
