<svg xmlns="http://www.w3.org/2000/svg" width="36" height="36" viewBox="0 0 36 36" fill="none">
  <path d="M3,27C3,26.724 3.224,26.5 3.5,26.5L4,26.5C4.276,26.5 4.5,26.724 4.5,27C4.5,27.276 4.276,27.5 4,27.5L3.5,27.5C3.224,27.5 3,27.276 3,27ZM5.5,27C5.5,26.724 5.724,26.5 6,26.5L7,26.5C7.276,26.5 7.5,26.724 7.5,27C7.5,27.276 7.276,27.5 7,27.5L6,27.5C5.724,27.5 5.5,27.276 5.5,27ZM8.5,27C8.5,26.724 8.724,26.5 9,26.5L10,26.5C10.276,26.5 10.5,26.724 10.5,27C10.5,27.276 10.276,27.5 10,27.5L9,27.5C8.724,27.5 8.5,27.276 8.5,27ZM11.5,27C11.5,26.724 11.724,26.5 12,26.5L13,26.5C13.276,26.5 13.5,26.724 13.5,27C13.5,27.276 13.276,27.5 13,27.5L12,27.5C11.724,27.5 11.5,27.276 11.5,27ZM14.5,27C14.5,26.724 14.724,26.5 15,26.5L16,26.5C16.276,26.5 16.5,26.724 16.5,27C16.5,27.276 16.276,27.5 16,27.5L15,27.5C14.724,27.5 14.5,27.276 14.5,27ZM17.5,27C17.5,26.724 17.724,26.5 18,26.5L19,26.5C19.276,26.5 19.5,26.724 19.5,27C19.5,27.276 19.276,27.5 19,27.5L18,27.5C17.724,27.5 17.5,27.276 17.5,27ZM20.5,27C20.5,26.724 20.724,26.5 21,26.5L22,26.5C22.276,26.5 22.5,26.724 22.5,27C22.5,27.276 22.276,27.5 22,27.5L21,27.5C20.724,27.5 20.5,27.276 20.5,27ZM23.5,27C23.5,26.724 23.724,26.5 24,26.5L25,26.5C25.276,26.5 25.5,26.724 25.5,27C25.5,27.276 25.276,27.5 25,27.5L24,27.5C23.724,27.5 23.5,27.276 23.5,27ZM26.5,27C26.5,26.724 26.724,26.5 27,26.5L28,26.5C28.276,26.5 28.5,26.724 28.5,27C28.5,27.276 28.276,27.5 28,27.5L27,27.5C26.724,27.5 26.5,27.276 26.5,27ZM29.5,27C29.5,26.724 29.724,26.5 30,26.5L31,26.5C31.276,26.5 31.5,26.724 31.5,27C31.5,27.276 31.276,27.5 31,27.5L30,27.5C29.724,27.5 29.5,27.276 29.5,27ZM32.5,27C32.5,26.724 32.724,26.5 33,26.5L33.5,26.5C33.776,26.5 34,26.724 34,27C34,27.276 33.776,27.5 33.5,27.5L33,27.5C32.724,27.5 32.5,27.276 32.5,27Z" fill="currentColor" fill-opacity="0.4" fill-rule="evenodd" clip-rule="evenodd"/>
  <path d="M3 15.5H14" fill="#00000000" stroke="currentColor" stroke-opacity="0.4" stroke-width="1" stroke-linecap="round"/>
  <path d="M24 15.5H34" fill="#00000000" stroke="currentColor" stroke-opacity="0.4" stroke-width="1" stroke-linecap="round"/>
  <path d="M23.303,7.52C23.587,7.463 23.881,7.531 24.11,7.707L25.735,8.957C26.173,9.294 26.254,9.922 25.918,10.36C25.581,10.797 24.953,10.879 24.515,10.543L23.799,9.992L23.368,10.746C23.094,11.226 22.483,11.392 22.004,11.118C21.524,10.844 21.358,10.233 21.632,9.754L22.632,8.004C22.775,7.753 23.02,7.576 23.303,7.52ZM27.582,11.64C27.919,11.203 28.547,11.121 28.985,11.457L30.61,12.707C31.048,13.044 31.129,13.672 30.793,14.11C30.456,14.547 29.828,14.629 29.39,14.293L27.765,13.043C27.327,12.706 27.246,12.078 27.582,11.64ZM20.996,12.882C21.476,13.156 21.642,13.767 21.368,14.246L20.368,15.996C20.094,16.476 19.483,16.642 19.004,16.368C18.524,16.094 18.358,15.483 18.632,15.004L19.632,13.254C19.906,12.774 20.517,12.608 20.996,12.882Z" fill="currentColor" fill-rule="evenodd" clip-rule="evenodd"/>
  <path d="M7.1 28L11 22.2L14.5 24.5L17.8 18" stroke="currentColor" stroke-width="2" stroke-linecap="round" stroke-linejoin="round"/>
  <path d="M19,15.5m-3.6,0a3.6,3.6 0,1 1,7.2 0a3.6,3.6 0,1 1,-7.2 0" fill="currentColor"/>
</svg>
