<svg xmlns="http://www.w3.org/2000/svg" width="24" height="24" fill="currentColor" viewBox="0 0 24 24">
  <path  d="M14 22c0-2.308-.51-3.743-1.384-4.616C11.743 16.51 10.31 16 8 16a1 1 0 0 1-.103-1.995L8 14l.423-.006c2.063-.06 3.374-.559 4.193-1.378C13.49 11.743 14 10.31 14 8a1 1 0 1 1 2 0c0 2.309.51 3.743 1.384 4.616C18.257 13.49 19.692 14 22 14a1 1 0 1 1 0 2c-2.308 0-3.743.51-4.616 1.384C16.51 18.257 16 19.692 16 22a1 1 0 1 1-2 0Zm1-9.271c-.264.48-.584.916-.97 1.301a5.742 5.742 0 0 1-1.301.97c.48.264.916.584 1.301.97.386.385.706.82.97 1.3.264-.48.584-.915.97-1.3a5.744 5.744 0 0 1 1.3-.97 5.744 5.744 0 0 1-1.3-.97 5.742 5.742 0 0 1-.97-1.3ZM5.5 11c0-1.44-.32-2.25-.785-2.715C4.249 7.82 3.44 7.5 2 7.5a1 1 0 0 1 0-2c1.44 0 2.25-.32 2.715-.785C5.18 4.249 5.5 3.44 5.5 2a1 1 0 0 1 2 0c0 1.44.32 2.25.785 2.715C8.751 5.18 9.56 5.5 11 5.5a1 1 0 1 1 0 2c-1.44 0-2.25.32-2.715.785C7.82 8.751 7.5 9.56 7.5 11a1 1 0 1 1-2 0Zm1-5.302a3.971 3.971 0 0 1-.801.802 3.973 3.973 0 0 1 .801.8 3.973 3.973 0 0 1 .8-.8 3.973 3.973 0 0 1-.8-.802Z"/>
</svg>
