<svg xmlns="http://www.w3.org/2000/svg" width="24" height="24" fill="currentColor" viewBox="0 0 24 24">
  <path fill-rule="evenodd" d="M16 7c0 2.656.587 4.34 1.624 5.376C18.661 13.413 20.344 14 23 14v2c-2.656 0-4.34.587-5.376 1.624C16.587 18.661 16 20.344 16 23h-2c0-2.656-.588-4.34-1.624-5.376C11.339 16.587 9.656 16 7 16v-2c2.656 0 4.34-.588 5.376-1.624C13.413 11.339 14 9.656 14 7h2Zm-1 5.102a6.485 6.485 0 0 1-1.21 1.688A6.485 6.485 0 0 1 12.102 15a6.485 6.485 0 0 1 1.688 1.21A6.484 6.484 0 0 1 15 17.896a6.484 6.484 0 0 1 1.21-1.686A6.484 6.484 0 0 1 17.896 15a6.484 6.484 0 0 1-1.686-1.21A6.485 6.485 0 0 1 15 12.102ZM7.5 1c0 1.788.396 2.847 1.024 3.476C9.153 5.104 10.212 5.5 12 5.5v2c-1.788 0-2.847.396-3.476 1.024C7.896 9.153 7.5 10.212 7.5 12h-2c0-1.788-.396-2.847-1.024-3.476C3.847 7.896 2.788 7.5 1 7.5v-2c1.788 0 2.847-.396 3.476-1.024C5.104 3.847 5.5 2.788 5.5 1h2Zm-1 4.133a4.663 4.663 0 0 1-.61.757 4.663 4.663 0 0 1-.757.61c.271.177.525.379.757.61.231.232.433.485.61.756.177-.271.379-.524.61-.756.232-.231.485-.433.756-.61a4.664 4.664 0 0 1-.756-.61 4.663 4.663 0 0 1-.61-.757Z" clip-rule="evenodd"/>
</svg>
