<svg xmlns="http://www.w3.org/2000/svg" width="24" height="24" fill="currentColor" viewBox="0 0 24 24">
  <path  d="M11 22c0-3.188-.669-5.256-1.882-6.536C7.917 14.195 5.99 13.5 3 13.5a1 1 0 1 1 0-2c2.99 0 4.917-.695 6.118-1.964C10.331 8.256 11 6.188 11 3a1 1 0 1 1 2 0c0 3.188.669 5.256 1.882 6.536C16.084 10.805 18.01 11.5 21 11.5a1 1 0 1 1 0 2c-2.99 0-4.916.695-6.118 1.964C13.669 16.744 13 18.812 13 22a1 1 0 1 1-2 0Zm1-13.274a7.612 7.612 0 0 1-1.43 2.186A7.283 7.283 0 0 1 8.344 12.5a7.27 7.27 0 0 1 2.224 1.588A7.614 7.614 0 0 1 12 16.273a7.614 7.614 0 0 1 1.43-2.185 7.283 7.283 0 0 1 2.224-1.588 7.283 7.283 0 0 1-2.223-1.588A7.612 7.612 0 0 1 12 8.726Z"/>
</svg>
