<svg xmlns="http://www.w3.org/2000/svg" width="24" height="24" fill="currentColor" viewBox="0 0 24 24">
  <path fill-rule="evenodd" d="M13 2c0 3.35.74 5.535 2.102 6.897C16.465 10.26 18.65 11 22 11v2c-3.35 0-5.535.74-6.898 2.102C13.74 16.465 13 18.65 13 22h-2c0-3.35-.74-5.535-2.103-6.898C7.535 13.74 5.35 13 2 13v-2c3.35 0 5.535-.74 6.897-2.103C10.26 7.535 11 5.35 11 2h2Zm-1 5.786a8.02 8.02 0 0 1-1.688 2.526A8.02 8.02 0 0 1 7.786 12a8.02 8.02 0 0 1 2.526 1.688A8.021 8.021 0 0 1 12 16.213a8.021 8.021 0 0 1 1.688-2.525A8.021 8.021 0 0 1 16.213 12a8.021 8.021 0 0 1-2.525-1.688A8.02 8.02 0 0 1 12 7.786Z" clip-rule="evenodd"/>
</svg>
