<svg xmlns="http://www.w3.org/2000/svg" width="24" height="24" fill="currentColor" viewBox="0 0 24 24">
  <path fill-rule="evenodd" d="M12 2a9 9 0 0 1 9 9v1.108l-.701-.072L15.255 16H17v6H7v-6h1.745L3.7 12.036l-.7.072V11a9 9 0 0 1 9-9ZM9 20h6v-2H9v2Zm2-8.484a85.516 85.516 0 0 0-4.097.231l-.301.026L11 15.227v-3.711Zm2 3.711 4.398-3.454-.301-.026A85.515 85.515 0 0 0 13 11.516v3.711ZM12 4a7.001 7.001 0 0 0-6.912 5.894c.462-.042 1.032-.092 1.661-.141C8.362 9.628 10.394 9.5 12 9.5c1.606 0 3.637.128 5.251.253.629.049 1.199.1 1.66.14A7 7 0 0 0 12 4Z" clip-rule="evenodd"/>
</svg>
