<svg xmlns="http://www.w3.org/2000/svg" width="24" height="24" fill="currentColor" viewBox="0 0 24 24">
  <path  d="M11.182 16.91v1.636h1.636v-1.637h-1.636Zm3.273 1.636c0 .903-.733 1.636-1.637 1.636h-1.636a1.636 1.636 0 0 1-1.637-1.636v-1.637c0-.904.733-1.636 1.637-1.636h1.636c.904 0 1.637.732 1.637 1.636v1.637Z"/>
  <path  d="M11.182 16.09v-5.329c-1.916.152-3.871.836-5.926 2.096l5.183 3.801a.819.819 0 0 1-.969 1.32l-6.136-4.5a.818.818 0 0 1-.334-.66 9 9 0 1 1 18 0 .82.82 0 0 1-.334.66l-6.136 4.5a.819.819 0 0 1-.969-1.32l5.183-3.8c-2.055-1.261-4.01-1.945-5.926-2.097v5.33a.818.818 0 1 1-1.636 0ZM12 5.455a7.365 7.365 0 0 0-7.188 5.763C7.216 9.817 9.59 9.09 12 9.09s4.784.727 7.187 2.126A7.365 7.365 0 0 0 12 5.454Z"/>
</svg>
