<svg xmlns="http://www.w3.org/2000/svg" width="24" height="24" fill="currentColor" viewBox="0 0 24 24">
  <path fill-rule="evenodd" d="M12 13a1.25 1.25 0 1 1 0 2.5 1.25 1.25 0 0 1 0-2.5Zm0 .75a.5.5 0 1 0 0 1 .5.5 0 0 0 0-1Z" clip-rule="evenodd"/>
  <path fill-rule="evenodd" d="M16.5 3A4.5 4.5 0 0 1 21 7.5v9a4.5 4.5 0 0 1-4.5 4.5h-9A4.5 4.5 0 0 1 3 16.5v-9A4.5 4.5 0 0 1 7.5 3h9ZM5 16.5A2.5 2.5 0 0 0 7.5 19h9a2.5 2.5 0 0 0 2.5-2.5V11H5v5.5ZM7.5 5A2.5 2.5 0 0 0 5 7.5V9h14V7.5A2.5 2.5 0 0 0 16.5 5h-9Z" clip-rule="evenodd"/>
</svg>
