<svg xmlns="http://www.w3.org/2000/svg" width="24" height="24" fill="currentColor" viewBox="0 0 24 24">
  <path  d="M5 5v14h14V5H5Zm11 2a1 1 0 0 1 0 2h-.05c-.573 0-1.054.272-1.561.887-.532.645-.981 1.532-1.494 2.56-.486.972-1.035 2.085-1.74 2.94C10.424 16.272 9.428 17 8.05 17H8a1 1 0 1 1 0-2h.05c.573 0 1.054-.271 1.561-.886.532-.644.981-1.532 1.494-2.56.486-.972 1.035-2.085 1.74-2.94C13.576 7.73 14.572 7 15.95 7H16Zm5 12a2 2 0 0 1-2 2H5a2 2 0 0 1-2-2V5a2 2 0 0 1 2-2h14a2 2 0 0 1 2 2v14Z"/>
</svg>
