<svg xmlns="http://www.w3.org/2000/svg" width="24" height="24" fill="currentColor" viewBox="0 0 24 24">
  <path  d="M14.71 18.725a2 2 0 0 1 1.83.258L18 20.026V9.97a6 6 0 0 0-12 0v10.056l1.46-1.043a2 2 0 0 1 1.951-.21L12 19.882l2.589-1.11.121-.047ZM9.5 8.97a1.5 1.5 0 1 1 0 3 1.5 1.5 0 0 1 0-3Zm5 0a1.5 1.5 0 1 1 0 3 1.5 1.5 0 0 1 0-3ZM20 20.026c0 1.627-1.838 2.574-3.162 1.628l-1.461-1.044-2.589 1.11a2 2 0 0 1-1.576 0l-2.589-1.11-1.46 1.044C5.837 22.6 4 21.654 4 20.026V9.97a8 8 0 0 1 16 0v10.056Z"/>
</svg>
