<svg xmlns="http://www.w3.org/2000/svg" width="24" height="24" fill="currentColor" viewBox="0 0 24 24">
  <path  fill-rule="evenodd" d="M8.148 2.034a1 1 0 0 1 1.35-.418c1.054.555 1.874 1.265 2.46 2.173.37.571.63 1.197.808 1.873 1.142-.349 2.193-.459 3.148-.341a5.122 5.122 0 0 1 3.135 1.555c1.564 1.63 2.087 4.183 1.922 6.58-.166 2.414-1.043 4.938-2.607 6.62-.791.85-1.779 1.505-2.95 1.781-1.063.251-2.213.176-3.415-.262-1.202.438-2.35.513-3.413.262-1.172-.276-2.159-.93-2.95-1.782-1.564-1.681-2.441-4.205-2.607-6.62-.164-2.396.358-4.949 1.922-6.579a5.121 5.121 0 0 1 3.134-1.555c.777-.096 1.617-.04 2.518.17a4.01 4.01 0 0 0-.325-.617c-.372-.575-.912-1.068-1.712-1.49a1 1 0 0 1-.418-1.35Zm.898 17.877c.709.167 1.557.118 2.561-.31a1 1 0 0 1 .784 0c1.005.428 1.853.477 2.563.31.716-.17 1.37-.579 1.946-1.198 1.171-1.26 1.932-3.303 2.076-5.394.145-2.109-.353-3.998-1.37-5.058a3.124 3.124 0 0 0-1.936-.955c-.83-.103-1.911.043-3.282.62a1 1 0 0 1-.777 0c-1.37-.577-2.451-.723-3.282-.62-.815.1-1.445.444-1.935.955-1.017 1.06-1.514 2.95-1.37 5.058.144 2.091.905 4.135 2.076 5.394.576.62 1.23 1.029 1.946 1.198Z" clip-rule="evenodd"/>
</svg>
