<svg xmlns="http://www.w3.org/2000/svg" width="24" height="24" fill="currentColor" viewBox="0 0 24 24">
  <path fill-rule="evenodd" d="M9.5 1.615c1.758.927 2.796 2.254 3.265 4.051 1.143-.35 2.194-.464 3.149-.347a5.124 5.124 0 0 1 3.135 1.556c1.563 1.63 2.086 4.184 1.922 6.58-.166 2.414-1.043 4.938-2.607 6.62-.792.85-1.78 1.505-2.951 1.781-1.063.252-2.212.175-3.414-.263-1.202.438-2.351.515-3.414.263-1.171-.276-2.159-.93-2.95-1.782-1.564-1.681-2.44-4.205-2.606-6.619-.164-2.396.358-4.95 1.921-6.58a5.123 5.123 0 0 1 3.135-1.556c.777-.095 1.617-.036 2.518.176-.377-.895-1.01-1.57-2.036-2.11l-.885-.467.933-1.769.885.466Zm6.17 5.69c-.831-.102-1.912.043-3.283.62L12 8.09l-.389-.164c-1.37-.578-2.45-.723-3.281-.621-.815.1-1.446.444-1.936.955-1.016 1.06-1.513 2.95-1.369 5.058.144 2.09.905 4.135 2.075 5.394.576.619 1.23 1.029 1.946 1.198.709.168 1.557.118 2.561-.31l.393-.167.391.167c1.005.428 1.853.478 2.563.31.716-.169 1.37-.58 1.946-1.198 1.171-1.26 1.933-3.303 2.076-5.394.145-2.108-.353-3.998-1.37-5.058a3.125 3.125 0 0 0-1.935-.955Z" clip-rule="evenodd"/>
</svg>
