<svg xmlns="http://www.w3.org/2000/svg" width="24" height="24" fill="currentColor" viewBox="0 0 24 24">
  <path  d="M11.121 14.948a1.5 1.5 0 0 1 1.866.087L16.376 18H21V7H3v11h4.624l3.389-2.965.108-.087ZM8.25 11.5a.75.75 0 1 0-1.5 0 .75.75 0 0 0 1.5 0Zm9 0a.75.75 0 1 0-1.5 0 .75.75 0 0 0 1.5 0Zm-7 0a2.75 2.75 0 1 1-5.5 0 2.75 2.75 0 0 1 5.5 0Zm9 0a2.75 2.75 0 1 1-5.5 0 2.75 2.75 0 0 1 5.5 0ZM23 18a2 2 0 0 1-2 2h-4.624c-.485 0-.953-.176-1.317-.495L12 16.828l-3.059 2.677A2.001 2.001 0 0 1 7.624 20H3a2 2 0 0 1-2-2V7a2 2 0 0 1 2-2h18a2 2 0 0 1 2 2v11Z"/>
</svg>
