<svg xmlns="http://www.w3.org/2000/svg" width="24" height="24" fill="currentColor" viewBox="0 0 24 24">
  <path fill-rule="evenodd" d="M12 3c2.536 0 4.862.227 6.581.61.851.189 1.608.427 2.177.726.283.149.569.338.795.584.23.25.447.616.447 1.08v12c0 .662-.427 1.11-.762 1.363-.355.268-.811.479-1.296.649-.98.344-2.314.606-3.833.774L15 20.908V17.12a37.376 37.376 0 0 0-3-.12c-1.057 0-2.067.044-3 .12v3.788l-1.11-.122c-1.518-.168-2.852-.43-3.832-.774-.485-.17-.941-.38-1.296-.649C2.427 19.11 2 18.662 2 18V6c0-.464.216-.83.447-1.08.226-.246.512-.435.795-.584.569-.299 1.326-.537 2.177-.727C7.138 3.227 9.464 3 12 3ZM4 17.788c.128.088.357.208.72.336.568.2 1.342.38 2.28.526V8.672c-1.15-.164-2.159-.385-2.942-.66L4 7.989v9.8Zm15.942-9.776c-.783.275-1.793.496-2.942.66v9.978c.938-.145 1.712-.326 2.28-.526.363-.128.592-.247.72-.336V7.99l-.058.023ZM12 5c-2.435 0-4.609.22-6.147.562-.624.138-1.109.29-1.453.437.093.04.199.083.32.125.779.274 1.945.514 3.39.674l.89.098v8.216A39.649 39.649 0 0 1 12 15c1.048 0 2.057.04 3 .112V6.896l.89-.098c1.445-.16 2.611-.4 3.39-.674.12-.042.226-.085.319-.125-.344-.147-.828-.299-1.451-.437C16.608 5.22 14.434 5 12 5Z" clip-rule="evenodd"/>
</svg>
