<svg xmlns="http://www.w3.org/2000/svg" width="24" height="24" fill="currentColor" viewBox="0 0 24 24">
  <path  d="M7.047 8.632s0-.002-.003-.005a.046.046 0 0 0-.028-.013c-1.14-.165-2.154-.39-2.94-.673v9.71c.083.058.224.137.442.227.56.231 1.421.45 2.53.622V8.632Zm12.878-.695c-.787.283-1.8.51-2.941.676a.046.046 0 0 0-.028.014c-.003.003-.003.005-.003.005V18.5c1.108-.172 1.969-.39 2.53-.622.217-.09.358-.169.442-.226V7.937ZM9.028 18.524c0 1.168-1.027 2.129-2.24 1.943-1.197-.184-2.249-.436-3.026-.757-.385-.159-.76-.356-1.053-.613-.29-.253-.615-.667-.615-1.238V5.972c0-.46.216-.822.444-1.07.224-.243.506-.43.787-.577.563-.295 1.313-.532 2.156-.72C7.184 3.228 9.488 3 12 3c2.512 0 4.816.227 6.519.606.843.187 1.593.424 2.156.72.28.146.563.333.787.576.228.248.444.61.444 1.07v11.887c0 .57-.324.985-.614 1.238-.295.257-.67.454-1.054.613-.777.32-1.83.573-3.027.757-1.212.186-2.24-.775-2.24-1.943v-1.539A36.297 36.297 0 0 0 12 16.868a36.91 36.91 0 0 0-2.972.12v1.536Zm0-3.523a39.008 39.008 0 0 1 5.944-.004V8.631a2.01 2.01 0 0 1 1.727-1.98c1.19-.172 2.121-.4 2.73-.643.032-.012.062-.026.09-.038-.34-.145-.817-.294-1.43-.43-1.524-.34-3.679-.56-6.089-.56-2.411 0-4.564.22-6.089.558-.616.138-1.095.287-1.436.433.03.013.061.027.095.04.608.243 1.54.469 2.73.64.965.14 1.728.961 1.728 1.979V15Z"/>
</svg>
