<svg xmlns="http://www.w3.org/2000/svg" width="24" height="24" fill="currentColor" viewBox="0 0 24 24">
  <path  d="m8.4 6-4.286 6 4.287 6h11.485V6H8.4Zm6.03 3.293a1 1 0 0 1 1.414 1.414l-1.295 1.294 1.294 1.294a1 1 0 0 1-1.414 1.414l-1.294-1.294-1.292 1.294a1 1 0 0 1-1.414-1.414L11.72 12l-1.294-1.294a1 1 0 1 1 1.414-1.414l1.294 1.294 1.295-1.294ZM21.886 18a2 2 0 0 1-2 2H8.4a2.001 2.001 0 0 1-1.628-.838l-4.287-6a2 2 0 0 1 0-2.324l4.287-6A2.001 2.001 0 0 1 8.4 4h11.485a2 2 0 0 1 2 2v12Z"/>
</svg>
