<svg xmlns="http://www.w3.org/2000/svg" width="24" height="24" fill="currentColor" viewBox="0 0 24 24">
  <path d="M8.824 16.714c-.221.413-.47.81-.746 1.185l-1.613-1.18c.22-.301.42-.619.597-.95l1.762.945Zm8.12-.944c.177.33.377.648.597.949l-1.614 1.18a10.003 10.003 0 0 1-.745-1.185l1.762-.944Zm-7.16-1.683a9.934 9.934 0 0 1-.387 1.348l-1.877-.687c.127-.348.23-.707.308-1.076l1.956.415Zm6.394-.415c.078.369.182.728.31 1.076l-1.88.687a9.945 9.945 0 0 1-.386-1.348l1.956-.415ZM9.979 11.3a10.125 10.125 0 0 1 0 1.4l-1.996-.138a8.133 8.133 0 0 0 0-1.123L9.98 11.3Zm6.044.138a8.15 8.15 0 0 0 0 1.123l-1.996.14a10.15 10.15 0 0 1 0-1.4l1.996.137ZM9.397 8.566c.16.436.29.886.387 1.347l-1.956.416a7.932 7.932 0 0 0-.308-1.076l1.877-.687Zm7.09.687a7.922 7.922 0 0 0-.31 1.076l-1.955-.416a10 10 0 0 1 .386-1.347l1.88.687ZM8.078 6.102c.275.376.525.772.746 1.185l-1.762.943a8.005 8.005 0 0 0-.597-.948l1.613-1.18Zm9.463 1.18a8.08 8.08 0 0 0-.597.948l-1.762-.943c.221-.413.47-.81.745-1.185l1.614 1.18Z"/>
  <path fill-rule="evenodd" d="M12 2c5.523 0 10 4.477 10 10s-4.477 10-10 10S2 17.523 2 12 6.477 2 12 2Zm0 2a8 8 0 1 0 0 16 8 8 0 0 0 0-16Z" clip-rule="evenodd"/>
</svg>
