<svg xmlns="http://www.w3.org/2000/svg" width="24" height="24" fill="currentColor" viewBox="0 0 24 24">
  <path d="m15.164 10.25-4.914 4.914-1.414-1.414 4.914-4.914 1.414 1.414Z"/>
  <path fill-rule="evenodd" d="M20 2a2 2 0 0 1 2 2v5c0 .507-.03 1.007-.087 1.499l.001.001-.002.001c-.688 5.98-5.431 10.723-11.411 11.411l-.001.002h-.001A13.13 13.13 0 0 1 9 22H4a2 2 0 0 1-2-2v-5c0-.507.03-1.008.087-1.5v-.002c.689-5.98 5.432-10.722 11.411-11.41l.002-.002C13.992 2.029 14.493 2 15 2h5ZM4 20h4.586L4 15.414V20Zm8.805-15.781a11.014 11.014 0 0 0-8.586 8.586l6.975 6.975a11.011 11.011 0 0 0 8.586-8.586L12.805 4.22ZM20 8.586V4h-4.586L20 8.586Z" clip-rule="evenodd"/>
</svg>
