<svg xmlns="http://www.w3.org/2000/svg" width="24" height="24" fill="currentColor" viewBox="0 0 24 24">
  <path  fill-rule="evenodd" d="M12 2c5.523 0 10 4.477 10 10a9.949 9.949 0 0 1-1.35 5.016A9.993 9.993 0 0 1 12 22a9.994 9.994 0 0 1-8.7-5.07A9.952 9.952 0 0 1 2 12C2 6.477 6.477 2 12 2ZM7.219 14.804c-.723.517-1.348 1.106-1.818 1.719a7.99 7.99 0 0 0 7.73 3.396c-2.338-1.34-4.459-3.116-5.912-5.115Zm4.275-1.765c-.805.096-1.678.358-2.534.753 1.589 2.108 4.104 4.01 6.84 5.249a8.028 8.028 0 0 0 2.223-1.78 11.845 11.845 0 0 1-3.132-1.268c-1.323-.763-2.544-1.786-3.397-2.954ZM18.3 7.072c.005 2.692-.476 5.41-1.479 7.665.81.367 1.633.613 2.398.713.5-1.044.781-2.214.781-3.45 0-1.86-.636-3.57-1.7-4.928Zm-6.336 1.396c-2.61.316-5.5 1.512-7.956 3.226-.004.102-.008.204-.008.306 0 .905.152 1.774.429 2.585a11.835 11.835 0 0 1 2.665-2.078c1.322-.764 2.817-1.31 4.255-1.465.32-.746.529-1.634.615-2.574Zm1.575-4.32a11.84 11.84 0 0 1 .47 3.352c0 1.526-.275 3.093-.859 4.414.487.651 1.152 1.276 1.924 1.821 1.03-2.428 1.424-5.552 1.135-8.539a7.95 7.95 0 0 0-2.67-1.048Zm-2.162-.122A8.002 8.002 0 0 0 4.6 8.96c2.33-1.326 4.912-2.249 7.355-2.504-.087-.883-.283-1.717-.578-2.429Z" clip-rule="evenodd"/>
</svg>
