<svg xmlns="http://www.w3.org/2000/svg" width="24" height="24" fill="currentColor" viewBox="0 0 24 24">
  <path fill-rule="evenodd" d="M12 2c2.56 0 4.898.964 6.667 2.547A9.978 9.978 0 0 1 22 12a9.977 9.977 0 0 1-3.333 7.453A9.967 9.967 0 0 1 12 22a9.967 9.967 0 0 1-6.667-2.547A9.977 9.977 0 0 1 2 12a9.977 9.977 0 0 1 3.333-7.453A9.967 9.967 0 0 1 12 2Zm0 2c-1.67 0-3.22.51-4.503 1.386A9.963 9.963 0 0 1 10 12a9.962 9.962 0 0 1-2.503 6.613A7.959 7.959 0 0 0 12 20c1.67 0 3.22-.512 4.502-1.387A9.963 9.963 0 0 1 14 12c0-2.536.947-4.852 2.502-6.614A7.96 7.96 0 0 0 12 4ZM6 6.712A7.964 7.964 0 0 0 4 12c0 2.028.756 3.877 2 5.287 1.244-1.41 2-3.26 2-5.287a7.964 7.964 0 0 0-2-5.288Zm12 0A7.964 7.964 0 0 0 16 12c0 2.028.756 3.877 2 5.287 1.244-1.41 2-3.26 2-5.287a7.964 7.964 0 0 0-2-5.288Z" clip-rule="evenodd"/>
</svg>
