<svg xmlns="http://www.w3.org/2000/svg" width="24" height="24" fill="currentColor" viewBox="0 0 24 24">
  <path  d="M15.414 4 20 8.586V4h-4.586Zm-2.61.219a11.014 11.014 0 0 0-8.585 8.586l6.975 6.975a11.013 11.013 0 0 0 8.586-8.586L12.805 4.22Zm.239 5.324a1 1 0 1 1 1.414 1.414l-3.5 3.5a1 1 0 1 1-1.414-1.414l3.5-3.5ZM8.586 20 4 15.414V20h4.586ZM22 9c0 .683-.052 1.355-.154 2.01A13.01 13.01 0 0 1 11.01 21.847 13.09 13.09 0 0 1 9 22H4a2 2 0 0 1-2-2v-5c0-.683.052-1.355.154-2.01A13.01 13.01 0 0 1 12.99 2.153 13.092 13.092 0 0 1 15 2h5a2 2 0 0 1 2 2v5Z"/>
</svg>
