<svg xmlns="http://www.w3.org/2000/svg" width="24" height="24" fill="currentColor" viewBox="0 0 24 24">
  <path fill-rule="evenodd" d="M12 2c2.305 0 4.426.782 6.117 2.092h.002A9.983 9.983 0 0 1 22 12c0 5.523-4.477 10-10 10S2 17.523 2 12 6.477 2 12 2ZM7.223 14.807c-.72.515-1.349 1.103-1.82 1.718a7.99 7.99 0 0 0 7.725 3.394c-2.335-1.337-4.451-3.114-5.905-5.112Zm4.272-1.767c-.804.096-1.677.359-2.535.755 1.56 2.07 4.015 3.944 6.7 5.185l.136.063a8.03 8.03 0 0 0 2.227-1.782c-1.163-.277-2.329-.776-3.378-1.414-1.225-.744-2.35-1.71-3.15-2.807Zm6.808-5.963c.005 2.687-.48 5.403-1.483 7.658.808.366 1.63.616 2.398.716.5-1.045.782-2.215.782-3.451a7.962 7.962 0 0 0-1.697-4.923ZM11.968 8.47c-2.587.312-5.452 1.486-7.899 3.18l-.061.042a7.98 7.98 0 0 0 .422 2.897c.84-.89 1.885-1.665 2.993-2.263 1.236-.667 2.607-1.14 3.93-1.283.32-.745.528-1.632.615-2.574Zm1.578-4.32c.347 1.164.497 2.446.464 3.694-.038 1.415-.314 2.85-.857 4.076.486.649 1.15 1.272 1.922 1.817 1.021-2.405 1.42-5.496 1.145-8.464l-.007-.073a7.95 7.95 0 0 0-2.667-1.05Zm-2.164-.124A8.003 8.003 0 0 0 4.6 8.956c2.33-1.325 4.915-2.243 7.36-2.498-.087-.88-.281-1.717-.578-2.433Z" clip-rule="evenodd"/>
</svg>
