<svg xmlns="http://www.w3.org/2000/svg" width="24" height="24" fill="currentColor" viewBox="0 0 24 24">
  <path fill-rule="evenodd" d="M12 2c5.185 0 9.448 3.947 9.95 9H22v2h-.05c-.502 5.053-4.765 9-9.95 9s-9.448-3.947-9.95-9H2v-2h.05C2.552 5.947 6.815 2 12 2ZM8.948 13a9.952 9.952 0 0 1-2.065 5.146A7.956 7.956 0 0 0 11 19.936V13H8.948ZM13 19.936a7.956 7.956 0 0 0 4.115-1.788A9.953 9.953 0 0 1 15.051 13H13v6.936ZM17.064 13a7.947 7.947 0 0 0 1.436 3.661A7.958 7.958 0 0 0 19.936 13h-2.872Zm-13 0A7.96 7.96 0 0 0 5.5 16.66 7.946 7.946 0 0 0 6.936 13H4.064ZM5.5 7.34A7.952 7.952 0 0 0 4.064 11h2.872a7.947 7.947 0 0 0-1.437-3.66ZM11 4.063a7.963 7.963 0 0 0-4.118 1.789A9.952 9.952 0 0 1 8.948 11H11V4.063Zm7.5 3.276A7.947 7.947 0 0 0 17.064 11h2.872A7.951 7.951 0 0 0 18.5 7.339ZM13 11h2.05c.193-1.93.934-3.7 2.066-5.15A7.963 7.963 0 0 0 13 4.064V11Z" clip-rule="evenodd"/>
</svg>
