<svg xmlns="http://www.w3.org/2000/svg" width="24" height="24" fill="currentColor" viewBox="0 0 24 24">
  <path fill-rule="evenodd" d="m16.03 10.69-1.539 4.737h-4.98L7.974 10.69l4.029-2.927 4.028 2.926Zm-5.707.764.642 1.973h2.073l.64-1.973-1.677-1.219-1.678 1.22Z" clip-rule="evenodd"/>
  <path fill-rule="evenodd" d="M12 2a9.98 9.98 0 0 1 7.807 3.75 9.962 9.962 0 0 1 2.182 6.716 9.955 9.955 0 0 1-1.633 5.028 10.016 10.016 0 0 1-5.714 4.154c-.843.23-1.73.352-2.642.352-.913 0-1.798-.122-2.64-.352a10.018 10.018 0 0 1-5.716-4.154A9.951 9.951 0 0 1 2 12c0-2.364.821-4.538 2.193-6.25A9.98 9.98 0 0 1 12 2ZM8.686 4.716A8.028 8.028 0 0 0 6.096 6.6l1.265 3.892-3.311 2.405a7.944 7.944 0 0 0 .988 3.046h4.099l.223.692 1.041 3.203a8.037 8.037 0 0 0 3.2 0l1.266-3.895h4.095c.52-.917.864-1.946.987-3.044l-3.312-2.407L17.9 6.6a8.025 8.025 0 0 0-2.588-1.882l-2.725 1.98-.587.428-3.315-2.41ZM6.647 17.944c.415.374.87.704 1.356.985l-.32-.985H6.648Zm9.354.983c.485-.28.938-.61 1.351-.983H16.32l-.319.983Zm2.986-9.198.84.609a7.935 7.935 0 0 0-.52-1.596l-.32.987ZM4.69 8.746a7.93 7.93 0 0 0-.516 1.59l.836-.607-.32-.983ZM12 4c-.283 0-.562.015-.837.044l.837.608.837-.608A8.093 8.093 0 0 0 12 4Z" clip-rule="evenodd"/>
</svg>
