<svg xmlns="http://www.w3.org/2000/svg" width="24" height="24" fill="currentColor" viewBox="0 0 24 24">
  <path  d="M12 2a9.98 9.98 0 0 1 7.807 3.75 9.962 9.962 0 0 1 2.182 6.717 9.95 9.95 0 0 1-1.633 5.027 10.018 10.018 0 0 1-5.715 4.154c-.843.23-1.728.352-2.641.352s-1.798-.122-2.64-.352a10.018 10.018 0 0 1-5.716-4.154A9.95 9.95 0 0 1 2 12c0-2.364.821-4.538 2.193-6.25A9.98 9.98 0 0 1 12 2Zm1.176 4.27a2 2 0 0 1-2.352 0L8.686 4.717A8.026 8.026 0 0 0 6.098 6.6l.816 2.512a2 2 0 0 1-.726 2.237L4.05 12.9a7.942 7.942 0 0 0 .988 3.044h2.644a2 2 0 0 1 1.901 1.382l.816 2.514a8.034 8.034 0 0 0 3.2 0l.818-2.514a2 2 0 0 1 1.901-1.382h2.644a7.94 7.94 0 0 0 .987-3.044l-2.137-1.552a2 2 0 0 1-.726-2.237L17.9 6.6a8.025 8.025 0 0 0-2.588-1.883L13.176 6.27ZM6.648 17.945a8.02 8.02 0 0 0 1.353.984l-.32-.984H6.649Zm9.35.984c.486-.281.94-.61 1.354-.984h-1.034l-.32.984Zm-5.174-10.31a2 2 0 0 1 2.352 0l1.678 1.219a2 2 0 0 1 .726 2.236l-.642 1.972a2 2 0 0 1-1.9 1.382h-2.075a2 2 0 0 1-1.901-1.382l-.642-1.972a2 2 0 0 1 .726-2.236l1.678-1.219Zm-.502 2.837.64 1.972h2.075l.64-1.972L12 10.236l-1.678 1.22Zm-5.63-2.712a7.931 7.931 0 0 0-.52 1.595l.84-.609-.32-.986Zm14.296.986.838.609a7.934 7.934 0 0 0-.518-1.595l-.32.986ZM12 4c-.283 0-.562.015-.837.044l.837.608.836-.608A8.099 8.099 0 0 0 12 4Z"/>
</svg>
