<svg xmlns="http://www.w3.org/2000/svg" width="24" height="24" fill="currentColor" viewBox="0 0 24 24">
  <path  d="M12 2c5.523 0 10 4.477 10 10s-4.477 10-10 10S2 17.523 2 12 6.477 2 12 2ZM8.95 13a9.95 9.95 0 0 1-2.067 5.148A7.96 7.96 0 0 0 11 19.936V13H8.95ZM13 19.936a7.96 7.96 0 0 0 4.116-1.788A9.951 9.951 0 0 1 15.051 13H13v6.936ZM4.064 13A7.952 7.952 0 0 0 5.5 16.661 7.947 7.947 0 0 0 6.937 13H4.064Zm13 0a7.948 7.948 0 0 0 1.435 3.661A7.95 7.95 0 0 0 19.936 13h-2.872Zm1.435-5.662A7.949 7.949 0 0 0 17.064 11h2.872a7.95 7.95 0 0 0-1.437-3.662ZM13 11h2.05a9.953 9.953 0 0 1 2.066-5.15A7.963 7.963 0 0 0 13 4.064V11Zm-2-6.937a7.963 7.963 0 0 0-4.117 1.788A9.952 9.952 0 0 1 8.949 11H11V4.063ZM5.5 7.338A7.953 7.953 0 0 0 4.064 11h2.873A7.948 7.948 0 0 0 5.5 7.338Z"/>
</svg>
