<svg xmlns="http://www.w3.org/2000/svg" width="24" height="24" fill="currentColor" viewBox="0 0 24 24">
  <path  d="M11 20h2v-2h-2v2Zm7-7h2v-2h-2v2ZM4 13h2v-2H4v2Zm7-7h2V4h-2v2Zm-3 7.5-.008.153a1.5 1.5 0 0 1-1.206 1.319 6.034 6.034 0 0 0 2.241 2.24A1.5 1.5 0 0 1 10.5 16h3a1.5 1.5 0 0 1 1.472 1.213 6.033 6.033 0 0 0 2.24-2.241A1.5 1.5 0 0 1 16 13.5v-3a1.5 1.5 0 0 1 1.213-1.473 6.034 6.034 0 0 0-2.241-2.24A1.5 1.5 0 0 1 13.5 8h-3a1.5 1.5 0 0 1-1.473-1.214 6.035 6.035 0 0 0-2.24 2.241A1.5 1.5 0 0 1 8 10.5v3Zm7-8.916A8.02 8.02 0 0 1 19.416 9H20.5a1.5 1.5 0 0 1 1.5 1.5v3l-.008.153A1.5 1.5 0 0 1 20.5 15h-1.084A8.018 8.018 0 0 1 15 19.415V20.5l-.008.153A1.5 1.5 0 0 1 13.5 22h-3A1.5 1.5 0 0 1 9 20.5v-1.085A8.018 8.018 0 0 1 4.584 15H3.5A1.5 1.5 0 0 1 2 13.5v-3A1.5 1.5 0 0 1 3.5 9h1.084A8.02 8.02 0 0 1 9 4.584V3.5A1.5 1.5 0 0 1 10.5 2h3A1.5 1.5 0 0 1 15 3.5v1.084Z"/>
</svg>
