<svg xmlns="http://www.w3.org/2000/svg" width="24" height="24" fill="currentColor" viewBox="0 0 24 24">
  <path fill-rule="evenodd" d="M15 4.585A8.019 8.019 0 0 1 19.415 9H22v6h-2.584A8.019 8.019 0 0 1 15 19.415V22H9v-2.585A8.02 8.02 0 0 1 4.584 15H2V9h2.585A8.018 8.018 0 0 1 9 4.585V2h6v2.585ZM11 20h2v-2h-2v2ZM9 6.802A6.036 6.036 0 0 0 6.8 9H8v6H6.802A6.035 6.035 0 0 0 9 17.197V16h6v1.197A6.035 6.035 0 0 0 17.197 15H16V9h1.198A6.035 6.035 0 0 0 15 6.803V8H9V6.802ZM4 13h2v-2H4v2Zm14 0h2v-2h-2v2Zm-7-7h2V4h-2v2Z" clip-rule="evenodd"/>
</svg>
