<svg xmlns="http://www.w3.org/2000/svg" width="24" height="24" fill="currentColor" viewBox="0 0 24 24">
  <path  d="M17 19h2v-2h-2v2ZM5 19h2v-2H5v2ZM17 7h2V5h-2v2ZM5 7h2V5H5v2Zm4 .5A1.5 1.5 0 0 1 7.5 9H7v6h.5A1.5 1.5 0 0 1 9 16.5v.5h6v-.5a1.5 1.5 0 0 1 1.5-1.5h.5V9h-.5A1.5 1.5 0 0 1 15 7.5V7H9v.5Zm12 0A1.5 1.5 0 0 1 19.5 9H19v6h.5a1.5 1.5 0 0 1 1.5 1.5v3a1.5 1.5 0 0 1-1.5 1.5h-3a1.5 1.5 0 0 1-1.5-1.5V19H9v.5A1.5 1.5 0 0 1 7.5 21h-3A1.5 1.5 0 0 1 3 19.5v-3A1.5 1.5 0 0 1 4.5 15H5V9h-.5A1.5 1.5 0 0 1 3 7.5v-3A1.5 1.5 0 0 1 4.5 3h3A1.5 1.5 0 0 1 9 4.5V5h6v-.5A1.5 1.5 0 0 1 16.5 3h3A1.5 1.5 0 0 1 21 4.5v3Z"/>
</svg>
