<svg xmlns="http://www.w3.org/2000/svg" width="24" height="24" fill="currentColor" viewBox="0 0 24 24">
  <path  d="M6 4v14.826l.683-.585.072-.056a1 1 0 0 1 1.23.056l1.681 1.442 1.684-1.442.072-.056a1 1 0 0 1 1.228.056l1.683 1.442 1.683-1.442.072-.056a1 1 0 0 1 1.23.056l.682.585V4H6Zm5 7a1 1 0 1 1 0 2H9a1 1 0 1 1 0-2h2Zm4-4a1 1 0 1 1 0 2H9a1 1 0 1 1 0-2h6Zm5 14a1 1 0 0 1-1.65.759l-1.684-1.442-1.682 1.442a1 1 0 0 1-1.301 0L12 20.316l-1.683 1.443a1 1 0 0 1-1.301 0l-1.683-1.442-1.683 1.442A1 1 0 0 1 4 21V4a2 2 0 0 1 2-2h12a2 2 0 0 1 2 2v17Z"/>
</svg>
