<svg xmlns="http://www.w3.org/2000/svg" width="24" height="24" fill="currentColor" viewBox="0 0 24 24">
  <path fill-rule="evenodd" d="M13 7.5h.25a2.75 2.75 0 0 1 2.121 4.5 2.75 2.75 0 0 1-2.121 4.5H13V18h-2v-1.5H7.5v-2H9v-5H7.5v-2H11V6h2v1.5Zm-2 7h2.25a.75.75 0 0 0 0-1.5H11v1.5Zm0-3.5h2.25a.75.75 0 0 0 0-1.5H11V11Z" clip-rule="evenodd"/>
  <path fill-rule="evenodd" d="M12 2c5.523 0 10 4.477 10 10s-4.477 10-10 10S2 17.523 2 12 6.477 2 12 2Zm0 2a8 8 0 1 0 0 16 8 8 0 0 0 0-16Z" clip-rule="evenodd"/>
</svg>
