<svg xmlns="http://www.w3.org/2000/svg" width="24" height="24" fill="currentColor" viewBox="0 0 24 24">
  <path  d="M9.174 18a2.998 2.998 0 0 0 5.652 0H9.174ZM12 4a5.307 5.307 0 0 0-5.3 5.042l-.191 3.799a2 2 0 0 1-.208.794L5.118 16h13.764l-1.183-2.365a2.001 2.001 0 0 1-.208-.794l-.19-3.799A5.307 5.307 0 0 0 12 4Zm1.5 3.5a1 1 0 0 1 .8 1.6l-1.801 2.4H13.5a1 1 0 1 1 0 2h-3a1 1 0 0 1-.8-1.6l1.801-2.4H10.5a1 1 0 0 1 0-2h3Zm7.5 8.691c0 1-.81 1.809-1.809 1.809H16.9a5.001 5.001 0 0 1-9.798 0H4.809a1.809 1.809 0 0 1-1.8-1.624L3 16.191l.012-.21c.024-.208.085-.41.18-.6l1.32-2.64.19-3.799a7.308 7.308 0 0 1 14.597 0l.19 3.798 1.32 2.642c.125.251.191.529.191.81Z"/>
</svg>
