<svg xmlns="http://www.w3.org/2000/svg" width="24" height="24" fill="currentColor" viewBox="0 0 24 24">
  <path d="M14.5 9.414 12.414 11.5H14.5v2h-5v-1.914L11.586 9.5H9.5v-2h5v1.914Z"/>
  <path fill-rule="evenodd" d="M12 2a7.308 7.308 0 0 1 7.299 6.942l.19 3.798L21 15.764V18h-4.102a5 5 0 0 1-9.796 0H3v-2.236l1.51-3.024.191-3.798A7.308 7.308 0 0 1 12 2ZM9.174 18A3 3 0 0 0 12 20a3 3 0 0 0 2.827-2H9.174ZM12 4a5.307 5.307 0 0 0-5.3 5.042l-.201 4.008-.01.21L5.118 16h13.763l-1.37-2.74-.011-.21-.2-4.008A5.307 5.307 0 0 0 12 4Z" clip-rule="evenodd"/>
</svg>
