<svg xmlns="http://www.w3.org/2000/svg" width="24" height="24" fill="currentColor" viewBox="0 0 24 24">
  <path  d="M11.509 16.29c.282-.071.575-.08.86-.026l.122.026.15.046c.344.123.637.349.87.515l3.54 2.528c.425.303.689.49.887.606l.034.018c.001-.012.005-.025.007-.04.02-.228.021-.55.021-1.072V4.6c0-.297-.001-.459-.01-.576l-.003-.012-.011-.001A8.1 8.1 0 0 0 17.4 4H6.6a8.1 8.1 0 0 0-.575.01l-.013.002-.001.012C6 4.141 6 4.304 6 4.6v14.29c0 .523 0 .845.02 1.074l.006.039c.011-.006.024-.01.036-.018.198-.116.461-.302.886-.606l3.54-2.528c.266-.19.611-.457 1.02-.56Zm2.284-8.747a1 1 0 1 1 1.414 1.414l-3.5 3.5a1 1 0 0 1-1.414 0l-1.5-1.5a1 1 0 1 1 1.414-1.414l.793.793 2.793-2.793ZM20 18.891c0 .482.001.913-.03 1.255-.03.328-.101.763-.387 1.132a2 2 0 0 1-1.509.778c-.466.017-.862-.178-1.146-.344-.296-.173-.647-.425-1.04-.705l-3.54-2.53a7.037 7.037 0 0 0-.341-.236L12 18.237l-.007.004c-.07.044-.164.11-.341.237l-3.54 2.529c-.393.28-.744.532-1.04.705-.284.166-.68.361-1.146.344a2 2 0 0 1-1.509-.778c-.285-.37-.357-.804-.387-1.133-.03-.34-.03-.772-.03-1.254V4.6c0-.264-.001-.522.017-.739.018-.228.063-.498.2-.77a2 2 0 0 1 .875-.873c.271-.138.541-.183.77-.201C6.077 1.999 6.335 2 6.6 2h10.8c.264 0 .522-.001.739.017.228.018.498.063.77.2a2 2 0 0 1 .796.737l.077.138.087.203c.072.2.1.395.114.566.018.217.017.475.017.739v14.29Z"/>
</svg>
