<svg xmlns="http://www.w3.org/2000/svg" width="24" height="24" fill="currentColor" viewBox="0 0 24 24">
  <path  d="M20 9.5a2.5 2.5 0 0 0-2.227-2.485 1 1 0 0 1-.864-.75A3.002 3.002 0 0 0 13 4.17V7a2 2 0 0 0 2 2 1 1 0 1 1 0 2 3.98 3.98 0 0 1-2-.537v9.2a3.502 3.502 0 0 0 4.865-2.198l.038-.108a1 1 0 0 1 .544-.543 2.502 2.502 0 0 0 .803-4.1 1 1 0 0 1 0-1.428A2.49 2.49 0 0 0 20 9.5Zm-16 0c0 .7.286 1.331.75 1.786a1 1 0 0 1 0 1.428 2.5 2.5 0 0 0 .635 4.024l.168.076.102.05a1 1 0 0 1 .48.6 3.502 3.502 0 0 0 4.865 2.2V17a2 2 0 0 0-2-2 1 1 0 1 1 0-2 3.98 3.98 0 0 1 2 .536V4.171a3.002 3.002 0 0 0-3.91 2.094 1 1 0 0 1-.862.75A2.5 2.5 0 0 0 4 9.5Zm18 0a4.48 4.48 0 0 1-.76 2.5 4.495 4.495 0 0 1-1.599 6.454A5.5 5.5 0 0 1 14.5 22c-.9 0-1.749-.22-2.5-.605-.751.385-1.6.605-2.5.605a5.502 5.502 0 0 1-5.143-3.546A4.495 4.495 0 0 1 2.76 12a4.5 4.5 0 0 1 2.595-6.852A5 5 0 0 1 12 2.42a5 5 0 0 1 6.645 2.73A4.5 4.5 0 0 1 22 9.5Z"/>
</svg>
