<svg xmlns="http://www.w3.org/2000/svg" width="24" height="24" fill="currentColor" viewBox="0 0 24 24">
  <path fill-rule="evenodd" d="M14 1.75a5 5 0 0 1 4.645 3.148 4.5 4.5 0 0 1 2.595 6.852 4.495 4.495 0 0 1-1.599 6.454A5.5 5.5 0 0 1 14.5 21.75c-.9 0-1.749-.22-2.5-.605-.751.385-1.6.605-2.5.605a5.501 5.501 0 0 1-5.143-3.546A4.495 4.495 0 0 1 2.76 11.75a4.5 4.5 0 0 1 2.595-6.852A5 5 0 0 1 12 2.17a4.983 4.983 0 0 1 2-.419Zm-4 2a3.002 3.002 0 0 0-2.91 2.265l-.17.675-.692.075a2.5 2.5 0 0 0-1.478 4.271l.73.714-.73.714a2.5 2.5 0 0 0 .635 4.024l.168.076.448.184.134.467A3.502 3.502 0 0 0 11 19.413V16.75a2 2 0 0 0-2-2H8v-2h1a3.98 3.98 0 0 1 2 .536V3.921a2.995 2.995 0 0 0-1-.171Zm4 0a3 3 0 0 0-1 .17v2.83a2 2 0 0 0 2 2h1v2h-1a3.98 3.98 0 0 1-2-.537v9.2a3.502 3.502 0 0 0 4.865-2.198l.134-.467.448-.184a2.502 2.502 0 0 0 .803-4.1l-.73-.714.73-.714a2.5 2.5 0 0 0-1.477-4.271l-.694-.075-.17-.675A3.002 3.002 0 0 0 14 3.75Z" clip-rule="evenodd"/>
</svg>
