<svg xmlns="http://www.w3.org/2000/svg" width="24" height="24" fill="currentColor" viewBox="0 0 24 24">
  <path  d="M14 22v-1a1 1 0 1 1 2 0v1a1 1 0 1 1-2 0ZM5.293 10.293a1 1 0 1 1 1.414 1.414L3.914 14.5 9.5 20.086l2.793-2.793a1 1 0 1 1 1.414 1.414L10.914 21.5a2 2 0 0 1-2.828 0L2.5 15.914a2 2 0 0 1 0-2.828l2.793-2.793Zm13.5 8.5a1 1 0 0 1 1.414 0l1 1a1 1 0 1 1-1.414 1.414l-1-1a1 1 0 0 1 0-1.414ZM22 14a1 1 0 1 1 0 2h-1a1 1 0 1 1 0-2h1ZM13.086 2.5a2 2 0 0 1 2.828 0L21.5 8.086a2 2 0 0 1 0 2.828l-2.793 2.793a1 1 0 1 1-1.414-1.414L20.086 9.5 14.5 3.914l-2.793 2.793a1 1 0 1 1-1.414-1.414L13.086 2.5ZM3 8a1 1 0 0 1 0 2H2a1 1 0 1 1 0-2h1Zm-.207-5.207a1 1 0 0 1 1.414 0l1 1a1 1 0 1 1-1.414 1.414l-1-1a1 1 0 0 1 0-1.414ZM8 3V2a1 1 0 0 1 2 0v1a1 1 0 1 1-2 0Z"/>
</svg>
