<svg width="24" height="24" viewBox="0 0 24 24" fill="currentColor" xmlns="http://www.w3.org/2000/svg">
<path fill-rule="evenodd" clip-rule="evenodd" d="M18 15C19.6569 15 21 16.3431 21 18C21 19.6569 19.6569 21 18 21C16.6941 21 15.5859 20.1647 15.1738 19H8.82617C8.41406 20.1647 7.30585 21 6 21C4.34315 21 3 19.6569 3 18C3 16.3431 4.34315 15 6 15C7.30585 15 8.41406 15.8353 8.82617 17H15.1738C15.5859 15.8353 16.6941 15 18 15ZM6 17C5.44772 17 5 17.4477 5 18C5 18.5523 5.44772 19 6 19C6.55228 19 7 18.5523 7 18C7 17.4477 6.55228 17 6 17ZM18 17C17.4477 17 17 17.4477 17 18C17 18.5523 17.4477 19 18 19C18.5523 19 19 18.5523 19 18C19 17.4477 18.5523 17 18 17Z" fill="currentColor"/>
<path fill-rule="evenodd" clip-rule="evenodd" d="M18 3C19.6569 3 21 4.34315 21 6C21 7.65685 19.6569 9 18 9C16.6941 9 15.5859 8.16468 15.1738 7H8.82617C8.41406 8.16468 7.30585 9 6 9C4.34315 9 3 7.65685 3 6C3 4.34315 4.34315 3 6 3C7.30585 3 8.41406 3.83532 8.82617 5H15.1738C15.5859 3.83532 16.6941 3 18 3ZM6 5C5.44772 5 5 5.44772 5 6C5 6.55228 5.44772 7 6 7C6.55228 7 7 6.55228 7 6C7 5.44772 6.55228 5 6 5ZM18 5C17.4477 5 17 5.44772 17 6C17 6.55228 17.4477 7 18 7C18.5523 7 19 6.55228 19 6C19 5.44772 18.5523 5 18 5Z" fill="currentColor"/>
</svg>
