<svg width="24" height="24" viewBox="0 0 24 24" fill="currentColor" xmlns="http://www.w3.org/2000/svg">
<path fill-rule="evenodd" clip-rule="evenodd" d="M3 6C2.99953 5.2925 3.2493 4.60763 3.70512 4.06653C4.16094 3.52543 4.79344 3.16297 5.49074 3.04326C6.18804 2.92355 6.90521 3.05431 7.5154 3.4124C8.12559 3.7705 8.58947 4.33285 8.825 5H13L13 11H15.174C15.409 10.3321 15.8728 9.76901 16.4833 9.41034C17.0937 9.05168 17.8114 8.92063 18.5092 9.0404C19.207 9.16017 19.8399 9.52304 20.2958 10.0647C20.7517 10.6064 21.0011 11.292 21 12C20.9984 12.7065 20.7475 13.3897 20.2916 13.9294C19.8356 14.469 19.2038 14.8304 18.5075 14.9499C17.8112 15.0695 17.0951 14.9394 16.4853 14.5827C15.8755 14.226 15.4111 13.6655 15.174 13H13V19H8.825C8.58947 19.6671 8.12559 20.2295 7.5154 20.5876C6.90521 20.9457 6.18804 21.0765 5.49074 20.9567C4.79344 20.837 4.16094 20.4746 3.70512 19.9335C3.2493 19.3924 2.99953 18.7075 3 18C2.99953 17.2925 3.2493 16.6076 3.70512 16.0665C4.16094 15.5254 4.79344 15.163 5.49074 15.0433C6.18804 14.9236 6.90521 15.0543 7.5154 15.4124C8.12559 15.7705 8.58947 16.3329 8.825 17H11V7H8.825C8.58947 7.66715 8.12559 8.2295 7.5154 8.5876C6.90521 8.94569 6.18804 9.07645 5.49074 8.95674C4.79344 8.83703 4.16094 8.47457 3.70512 7.93347C3.2493 7.39237 2.99953 6.7075 3 6ZM17 12C17 12.2652 17.1054 12.5196 17.2929 12.7071C17.4804 12.8946 17.7348 13 18 13C18.2652 13 18.5196 12.8946 18.7071 12.7071C18.8946 12.5196 19 12.2652 19 12C19 11.7348 18.8946 11.4804 18.7071 11.2929C18.5196 11.1054 18.2652 11 18 11C17.7348 11 17.4804 11.1054 17.2929 11.2929C17.1054 11.4804 17 11.7348 17 12ZM5 18C5 18.2652 5.10535 18.5196 5.29289 18.7071C5.48043 18.8946 5.73478 19 6 19C6.26521 19 6.51957 18.8946 6.7071 18.7071C6.89464 18.5196 7 18.2652 7 18C7 17.7348 6.89464 17.4804 6.7071 17.2929C6.51957 17.1054 6.26521 17 6 17C5.73478 17 5.48043 17.1054 5.29289 17.2929C5.10535 17.4804 5 17.7348 5 18ZM5 6C5 6.26522 5.10535 6.51957 5.29289 6.70711C5.48043 6.89464 5.73478 7 6 7C6.26521 7 6.51957 6.89464 6.7071 6.70711C6.89464 6.51957 7 6.26522 7 6C7 5.73478 6.89464 5.48043 6.7071 5.29289C6.51957 5.10536 6.26521 5 6 5C5.73478 5 5.48043 5.10536 5.29289 5.29289C5.10535 5.48043 5 5.73478 5 6Z" fill="currentColor"/>
</svg>
