<svg width="24" height="24" viewBox="0 0 24 24" fill="currentColor" xmlns="http://www.w3.org/2000/svg">
<path fill-rule="evenodd" clip-rule="evenodd" d="M21 6C21.0005 5.2925 20.7507 4.60763 20.2949 4.06653C19.8391 3.52543 19.2066 3.16297 18.5093 3.04326C17.812 2.92355 17.0948 3.05431 16.4846 3.4124C15.8744 3.77049 15.4105 4.33285 15.175 5H11V11H8.826C8.59098 10.3321 8.12718 9.76901 7.51674 9.41034C6.9063 9.05168 6.18863 8.92063 5.49083 9.0404C4.79302 9.16017 4.16013 9.52304 3.70423 10.0647C3.24834 10.6064 2.99887 11.292 3 12C3.00161 12.7065 3.25249 13.3897 3.70845 13.9294C4.16441 14.469 4.79619 14.8304 5.49248 14.9499C6.18878 15.0695 6.90492 14.9394 7.51473 14.5827C8.12454 14.226 8.5889 13.6655 8.826 13H11V19H15.175C15.4105 19.6671 15.8744 20.2295 16.4846 20.5876C17.0948 20.9457 17.812 21.0764 18.5093 20.9567C19.2066 20.837 19.8391 20.4746 20.2949 19.9335C20.7507 19.3924 21.0005 18.7075 21 18C21.0005 17.2925 20.7507 16.6076 20.2949 16.0665C19.8391 15.5254 19.2066 15.163 18.5093 15.0433C17.812 14.9236 17.0948 15.0543 16.4846 15.4124C15.8744 15.7705 15.4105 16.3329 15.175 17H13V7H15.175C15.4105 7.66715 15.8744 8.2295 16.4846 8.5876C17.0948 8.94569 17.812 9.07645 18.5093 8.95674C19.2066 8.83703 19.8391 8.47457 20.2949 7.93347C20.7507 7.39237 21.0005 6.7075 21 6ZM7 12C7 12.2652 6.89465 12.5196 6.70711 12.7071C6.51957 12.8946 6.26522 13 6 13C5.73479 13 5.48043 12.8946 5.2929 12.7071C5.10536 12.5196 5 12.2652 5 12C5 11.7348 5.10536 11.4804 5.2929 11.2929C5.48043 11.1054 5.73479 11 6 11C6.26522 11 6.51957 11.1054 6.70711 11.2929C6.89465 11.4804 7 11.7348 7 12ZM19 18C19 18.2652 18.8946 18.5196 18.7071 18.7071C18.5196 18.8946 18.2652 19 18 19C17.7348 19 17.4804 18.8946 17.2929 18.7071C17.1054 18.5196 17 18.2652 17 18C17 17.7348 17.1054 17.4804 17.2929 17.2929C17.4804 17.1054 17.7348 17 18 17C18.2652 17 18.5196 17.1054 18.7071 17.2929C18.8946 17.4804 19 17.7348 19 18ZM19 6C19 6.26522 18.8946 6.51957 18.7071 6.70711C18.5196 6.89464 18.2652 7 18 7C17.7348 7 17.4804 6.89464 17.2929 6.70711C17.1054 6.51957 17 6.26522 17 6C17 5.73478 17.1054 5.48043 17.2929 5.29289C17.4804 5.10536 17.7348 5 18 5C18.2652 5 18.5196 5.10536 18.7071 5.29289C18.8946 5.48043 19 5.73478 19 6Z" fill="currentColor"/>
</svg>
