<svg xmlns="http://www.w3.org/2000/svg" width="24" height="24" fill="currentColor" viewBox="0 0 24 24">
  <path fill-rule="evenodd" d="m7.993 1.338.002.002.003.004.009.009.027.031.093.108a14.6 14.6 0 0 1 1.289 1.839c.728 1.227 1.544 2.99 1.843 5.087.127.895.2 1.765.227 2.583h1.019c.016-2.949.174-5.346 2.287-7.459.82-.82 1.827-.893 2.705-.623.814.251 1.568.8 2.167 1.333a14.577 14.577 0 0 1 1.53 1.614 16.833 16.833 0 0 1 .576.743l.044.061.002.004.002.002.833 1.192-3.799.949A11.532 11.532 0 0 1 18.175 11H22v2h-2v9H4v-9H2v-2h3.49a24.718 24.718 0 0 1-.246-1.42c-.298-2.094-.02-4.085.321-5.53.172-.728.362-1.329.51-1.75a12.787 12.787 0 0 1 .241-.634l.017-.038.005-.011.002-.004V1.61L6.959.209l1.035 1.13ZM6 13.001v7h12v-7H6Zm1.512-8.49c-.308 1.302-.54 3.025-.288 4.788.084.595.19 1.165.31 1.702h1.951a22.229 22.229 0 0 0-.207-2.3c-.25-1.76-.942-3.27-1.583-4.35-.033-.058-.068-.112-.101-.166-.027.105-.056.213-.082.325Zm9.396.32c-.34-.105-.522-.054-.702.127-1.494 1.493-1.68 3.107-1.7 6.043h1.438c.664-1.152.886-2.21 1.075-3.19l.12-.626 2.1-.526c-.27-.301-.577-.62-.904-.911-.526-.468-1.022-.793-1.427-.917Z" clip-rule="evenodd"/>
</svg>
