<svg xmlns="http://www.w3.org/2000/svg" width="24" height="24" fill="currentColor" viewBox="0 0 24 24">
  <path  d="M18 13H6v7h12v-7Zm-.838-7.972c-.677-.274-.896-.13-.956-.071-1.499 1.498-1.678 3.11-1.701 6.043h1.438c.665-1.152.888-2.215 1.076-3.19l.022-.094a1 1 0 0 1 1.083-.708l1.674.209a5.856 5.856 0 0 0-.693-.823c-.593-.593-1.313-1.11-1.943-1.366ZM7.452 3.16c-.13.279-.256.727-.342 1.348-.169 1.23-.153 2.93.113 4.79.085.596.19 1.166.31 1.702h1.953a22.246 22.246 0 0 0-.209-2.3c-.265-1.863-.719-3.461-1.212-4.534-.225-.487-.439-.817-.61-1.014l-.003.007ZM20 20a2 2 0 0 1-2 2H6a2 2 0 0 1-2-2v-7H3a1 1 0 1 1 0-2h2.487a24.75 24.75 0 0 1-.244-1.419c-.284-1.996-.315-3.888-.114-5.346.1-.723.263-1.393.514-1.926.232-.495.655-1.11 1.398-1.272.783-.17 1.411.262 1.795.658.403.416.75.995 1.045 1.636.596 1.296 1.092 3.093 1.376 5.088.127.894.203 1.764.23 2.58h1.016c.015-2.95.181-5.35 2.29-7.456.94-.94 2.221-.734 3.122-.368.948.385 1.884 1.086 2.604 1.805.364.365.693.754.952 1.14.248.369.475.799.563 1.238.09.45.059 1.13-.539 1.58-.497.376-1.132.374-1.637.302l-1.068-.134A11.03 11.03 0 0 1 18.178 11H21a1 1 0 0 1 0 2h-1v7Z"/>
</svg>
