<svg xmlns="http://www.w3.org/2000/svg" width="24" height="24" fill="currentColor" viewBox="0 0 24 24">
  <path  d="M19 12.887c-.3.073-.615.113-.942.113a3.893 3.893 0 0 1-2.985-1.393A4.072 4.072 0 0 1 12 13a4.072 4.072 0 0 1-3.074-1.393A3.893 3.893 0 0 1 5.942 13 3.97 3.97 0 0 1 5 12.887V19h14v-6.113ZM4.13 8.537a1.898 1.898 0 1 0 3.695.8L8.367 5H5.235L4.13 8.536ZM10.382 5l-.457 3.65.001.001a2.09 2.09 0 1 0 4.148.01L13.617 5h-3.235Zm5.676 3.403.001.019.115.916a1.898 1.898 0 1 0 3.696-.802L18.764 5h-3.132l.426 3.403ZM21 19a2 2 0 0 1-2 2H5a2 2 0 0 1-2-2v-7.343a3.878 3.878 0 0 1-.78-3.717l1.105-3.536A2 2 0 0 1 5.235 3h13.53a2 2 0 0 1 1.908 1.403L21.78 7.94a3.879 3.879 0 0 1-.78 3.718V19Z"/>
</svg>
