<svg xmlns="http://www.w3.org/2000/svg" width="24" height="24" fill="currentColor" viewBox="0 0 24 24">
  <path fill-rule="evenodd" d="M21.779 7.94a3.879 3.879 0 0 1-.78 3.718V21H3v-9.345a3.878 3.878 0 0 1-.778-3.716L3.764 3h16.47l1.545 4.94Zm-6.706 3.667A4.073 4.073 0 0 1 12 13a4.073 4.073 0 0 1-3.074-1.393A3.893 3.893 0 0 1 5 12.886V19h14v-6.113c-.3.073-.615.113-.942.113a3.894 3.894 0 0 1-2.985-1.393ZM4.13 8.537a1.898 1.898 0 1 0 3.695.8L8.367 5H5.235L4.13 8.536Zm5.795.113.001.001a2.09 2.09 0 1 0 4.148.01L13.617 5h-3.235l-.457 3.65Zm6.133-.247.001.019.115.916a1.899 1.899 0 1 0 3.696-.802L18.765 5h-3.133l.426 3.403Z" clip-rule="evenodd"/>
</svg>
