<svg xmlns="http://www.w3.org/2000/svg" width="24" height="24" fill="currentColor" viewBox="0 0 24 24">
  <path  d="m18 16.677-.257.103c-.477.19-1.01.19-1.486 0l-1.757-.703-1.757.703c-.477.19-1.01.19-1.486 0L9.5 16.077l-1.757.703c-.477.19-1.01.19-1.486 0L6 16.676V20h12v-3.323ZM11.293 4.293a1 1 0 1 0 1.414 0L12 3.586l-.707.707ZM5.5 11v3.323l1.5.6 1.757-.703c.477-.19 1.01-.19 1.486 0l1.757.703 1.757-.703c.477-.19 1.01-.19 1.486 0l1.757.703 1.5-.6V11h-13Zm15 3.323c0 .497-.185.963-.5 1.321V20a2 2 0 0 1-2 2H6a2 2 0 0 1-2-2v-4.356a1.998 1.998 0 0 1-.5-1.321V11a2 2 0 0 1 2-2H11V7.825a2.983 2.983 0 0 1-1.121-.703 3 3 0 0 1 0-4.243L12 .758l2.122 2.12a3 3 0 0 1 0 4.244A2.983 2.983 0 0 1 13 7.825V9h5.5a2 2 0 0 1 2 2v3.323Z"/>
</svg>
