<svg xmlns="http://www.w3.org/2000/svg" width="24" height="24" fill="currentColor" viewBox="0 0 24 24">
  <path fill-rule="evenodd" d="M14.121 2.879a3 3 0 0 1 0 4.243A2.984 2.984 0 0 1 13 7.825V9h7.5v6.677l-.5.199V22H4v-6.124l-.5-.2V9H11V7.825a2.984 2.984 0 0 1-1.121-.703 3 3 0 0 1 0-4.243L12 .758l2.121 2.12ZM12 17.077l-2.5-1-2.5 1-1-.4V20h12v-3.323l-1 .4-2.5-1-2.5 1Zm-6.5-2.755 1.5.6 2.5-1 2.5 1 2.5-1 2.5 1 1.5-.6V11h-13v3.322Zm5.793-10.029a1 1 0 1 0 1.414 0L12 3.586l-.707.707Z" clip-rule="evenodd"/>
</svg>
