<svg xmlns="http://www.w3.org/2000/svg" width="24" height="24" fill="currentColor" viewBox="0 0 24 24">
  <path fill-rule="evenodd" d="M9.75 15.5a1.25 1.25 0 1 1 0 2.5 1.25 1.25 0 0 1 0-2.5Zm0 .75a.5.5 0 1 0 0 1 .5.5 0 0 0 0-1Zm4.5-.75a1.25 1.25 0 1 1 0 2.5 1.25 1.25 0 0 1 0-2.5Zm0 .75a.5.5 0 1 0 0 1 .5.5 0 0 0 0-1ZM9.75 11a1.25 1.25 0 1 1 0 2.5 1.25 1.25 0 0 1 0-2.5Zm0 .75a.5.5 0 1 0 0 1 .5.5 0 0 0 0-1Zm4.5-.75a1.25 1.25 0 1 1 0 2.5 1.25 1.25 0 0 1 0-2.5Zm0 .75a.5.5 0 1 0 0 1 .5.5 0 0 0 0-1Z" clip-rule="evenodd"/>
  <path fill-rule="evenodd" d="M20 22H4V2h16v20ZM6 20h12V9H6v11ZM6 7h12V4H6v3Z" clip-rule="evenodd"/>
</svg>
