<svg xmlns="http://www.w3.org/2000/svg" width="24" height="24" fill="currentColor" viewBox="0 0 24 24">
  <path  d="M18 9H6v11h12V9ZM6 4v3h12V4H6Zm14 16a2 2 0 0 1-2 2H6a2 2 0 0 1-2-2V4a2 2 0 0 1 2-2h12a2 2 0 0 1 2 2v16Z"/>
  <path  d="M10.25 16.75a.5.5 0 1 0-1 0 .5.5 0 0 0 1 0Zm4.5 0a.5.5 0 1 0-1 0 .5.5 0 0 0 1 0Zm-4.5-4.5a.5.5 0 1 0-1 0 .5.5 0 0 0 1 0Zm4.5 0a.5.5 0 1 0-1 0 .5.5 0 0 0 1 0ZM11 16.75a1.25 1.25 0 1 1-2.5 0 1.25 1.25 0 0 1 2.5 0Zm4.5 0a1.25 1.25 0 1 1-2.5 0 1.25 1.25 0 0 1 2.5 0Zm-4.5-4.5a1.25 1.25 0 1 1-2.5 0 1.25 1.25 0 0 1 2.5 0Zm4.5 0a1.25 1.25 0 1 1-2.5 0 1.25 1.25 0 0 1 2.5 0Z"/>
</svg>
