<svg xmlns="http://www.w3.org/2000/svg" width="24" height="24" fill="currentColor" viewBox="0 0 24 24">
  <path  d="M19 9H5v10h14V9ZM8.062 14.752c.016 0 .033.002.05.004.008 0 .018 0 .027.002l.046.007.035.005.042.007.05.013.028.008.038.01.042.015a1.48 1.48 0 0 1 .078.031l.013.005.037.018.022.012.042.022.013.007.007.004.048.03.039.027.02.014.033.026a1.124 1.124 0 0 1 .155.145l.02.021.033.042c.009.01.018.02.026.032l.012.016a1.21 1.21 0 0 1 .055.085l.01.015.006.012c.008.013.015.028.022.042.009.016.016.033.024.05l.01.02.013.035.018.045.014.042.011.037.008.03.013.051c0 .004.002.007.003.011 0 .005 0 .01.002.014l.007.042a1.242 1.242 0 0 1 .015.183L9.25 16l-.001.01c0 .019 0 .037-.002.056v.027a1.242 1.242 0 0 1-.02.138l-.005.029a1.272 1.272 0 0 1-.011.047l-.004.016-.006.018c-.003.011-.005.023-.009.034-.004.015-.01.03-.015.044l-.019.046-.012.033-.011.022c-.008.017-.015.034-.024.05a1.185 1.185 0 0 1-.022.042l-.006.013-.01.014a1.267 1.267 0 0 1-.021.035l-.03.044-.011.016-.03.038-.034.042-.02.022a1.232 1.232 0 0 1-.091.092l-.023.02-.04.032a1.493 1.493 0 0 1-.034.026l-.021.015a1.248 1.248 0 0 1-.08.052l-.013.01-.013.006a1.103 1.103 0 0 1-.042.022c-.016.009-.033.016-.05.024l-.02.01-.035.013-.045.018-.042.014-.037.011-.03.008c-.017.004-.034.01-.051.013l-.029.005a1.283 1.283 0 0 1-.103.015l-.003.001-.016.001a1.231 1.231 0 0 1-.1.005L8 17.25l-.01-.001a1.191 1.191 0 0 1-.1-.005h-.016l-.003-.002a1.314 1.314 0 0 1-.103-.015l-.029-.005-.05-.013a1.45 1.45 0 0 1-.03-.008l-.038-.01-.042-.015-.045-.018c-.012-.005-.023-.008-.035-.014a.075.075 0 0 1-.02-.01c-.017-.007-.034-.014-.05-.023a1.276 1.276 0 0 1-.042-.022l-.012-.006-.015-.01a1.085 1.085 0 0 1-.079-.052l-.021-.015a1.47 1.47 0 0 1-.033-.026.423.423 0 0 1-.041-.033l-.023-.02a1.073 1.073 0 0 1-.092-.091l-.02-.022-.032-.041-.03-.039-.01-.015a1.21 1.21 0 0 1-.03-.045l-.028-.044a1.253 1.253 0 0 1-.038-.071l-.006-.011-.018-.037-.005-.013a1.172 1.172 0 0 1-.018-.046l-.013-.033-.015-.044-.01-.034-.003-.012a1.33 1.33 0 0 1-.006-.022l-.012-.045-.006-.042a1.259 1.259 0 0 1-.006-.035l-.007-.046-.002-.028a1.255 1.255 0 0 1-.004-.06l-.002-.018v-.066l.002-.03c0-.016.002-.033.004-.05 0-.008 0-.018.002-.027l.009-.054.004-.033.002-.01.004-.026.013-.05.008-.028.01-.038.015-.042.006-.017.025-.063.014-.03.016-.03.037-.07c.01-.018.022-.036.034-.054a1.21 1.21 0 0 1 .027-.04l.012-.016.025-.032.033-.042.02-.022a1.215 1.215 0 0 1 .114-.111l.04-.033.034-.026.02-.014c.013-.01.026-.018.04-.027l.047-.03.008-.004.012-.007.042-.022.04-.02c.011-.006.022-.01.032-.014.004-.002.008-.005.013-.006l.048-.02.017-.006.042-.014.037-.011.029-.008.05-.013.042-.006.035-.006c.016-.003.031-.006.046-.007l.028-.002.05-.004.029-.002h.066l.029.002Zm4 0c.016 0 .033.002.05.004.008 0 .018 0 .027.002l.046.007.035.005.042.007.05.013.028.008.038.01.042.015a1.444 1.444 0 0 1 .078.031l.013.005.037.018.022.012.042.022.013.007.007.004.048.03.039.027.02.014.034.026.04.033a1.042 1.042 0 0 1 .115.111l.02.022.032.042c.009.01.018.02.026.032l.012.016a1.225 1.225 0 0 1 .055.085l.01.015.006.012c.008.013.015.028.022.042.009.016.016.033.024.05l.01.02.013.035.018.045.014.042.011.037.008.03.013.051c0 .004.002.007.003.011 0 .005 0 .01.002.014l.007.042a1.367 1.367 0 0 1 .015.183l.001.011-.001.01c0 .019 0 .037-.002.056v.027a1.276 1.276 0 0 1-.02.138l-.005.029-.011.047-.004.016-.006.018c-.003.011-.005.023-.009.034-.004.015-.01.03-.015.044l-.019.046-.012.033-.011.022c-.008.017-.015.034-.024.05a1.053 1.053 0 0 1-.022.042l-.006.013-.01.014a1.264 1.264 0 0 1-.021.035l-.03.044-.011.016-.03.038-.034.042-.02.022a1.075 1.075 0 0 1-.091.092l-.023.02-.04.032a1.619 1.619 0 0 1-.034.026l-.021.015a1.348 1.348 0 0 1-.08.052l-.013.01-.013.006a1.053 1.053 0 0 1-.042.022c-.016.009-.033.016-.05.024l-.02.01-.035.013-.045.018-.042.014-.037.011-.03.008c-.017.004-.034.01-.051.013l-.029.005a1.253 1.253 0 0 1-.103.015l-.003.001-.016.001a1.225 1.225 0 0 1-.1.005L12 17.25l-.01-.001a1.193 1.193 0 0 1-.1-.005h-.016l-.003-.002a1.322 1.322 0 0 1-.103-.015l-.029-.005-.05-.013a1.4 1.4 0 0 1-.03-.008l-.038-.01-.042-.015-.045-.018c-.011-.005-.024-.008-.035-.014a.075.075 0 0 1-.02-.01c-.017-.007-.034-.014-.05-.023-.014-.007-.029-.014-.042-.022l-.012-.006-.015-.01a1.06 1.06 0 0 1-.079-.052l-.021-.015a1.21 1.21 0 0 1-.075-.059l-.022-.02a1.075 1.075 0 0 1-.111-.113l-.033-.041-.03-.039-.01-.015a1.263 1.263 0 0 1-.096-.16l-.006-.011-.018-.037-.005-.013a1.158 1.158 0 0 1-.018-.046l-.013-.033-.015-.044-.01-.034-.003-.012-.006-.022-.012-.045-.006-.042a1.427 1.427 0 0 1-.006-.035c-.003-.016-.006-.031-.007-.046l-.002-.028a1.18 1.18 0 0 1-.004-.06l-.002-.018v-.066l.002-.03c0-.016.002-.033.004-.05 0-.008 0-.018.002-.027l.009-.054.005-.033.001-.01.004-.026.013-.05.008-.028.01-.038.015-.042.006-.017.025-.063.014-.03.016-.03.037-.07c.01-.018.022-.036.034-.054l.027-.04.012-.016.025-.032.033-.042a1.358 1.358 0 0 1 .133-.133l.042-.033a.91.91 0 0 1 .033-.026l.02-.014a1.48 1.48 0 0 1 .04-.027l.047-.03.008-.004.012-.007c.013-.008.028-.015.042-.022l.04-.02c.011-.006.022-.01.032-.014.004-.002.008-.005.013-.006l.049-.02.016-.006.042-.014.037-.011.029-.008.05-.013.042-.006a1.36 1.36 0 0 1 .036-.006.35.35 0 0 1 .045-.007l.028-.002.05-.004.029-.002h.066l.029.002Zm-4-4c.016 0 .033.002.05.004.008 0 .018 0 .027.002l.046.007.035.005.042.007.05.013.028.008.038.01.042.015a1.48 1.48 0 0 1 .078.031l.013.005.037.018.022.012.042.022.013.007.007.004.048.03.039.027.02.014.033.026a1.124 1.124 0 0 1 .155.145l.02.021.033.042c.009.01.018.02.026.032l.012.016a1.21 1.21 0 0 1 .055.085l.01.015.006.012c.008.013.015.028.022.042.009.016.016.033.024.05l.01.02.013.035.018.045.014.042.011.037.008.03.013.051c0 .004.002.007.003.011 0 .005 0 .01.002.014l.007.042a1.242 1.242 0 0 1 .015.183L9.25 12l-.001.01c0 .019 0 .037-.002.056v.027a1.242 1.242 0 0 1-.02.138l-.005.029a1.272 1.272 0 0 1-.011.047l-.004.016-.006.018c-.003.011-.005.023-.009.034-.004.015-.01.03-.015.044l-.019.046-.012.033-.011.023-.024.05a1.185 1.185 0 0 1-.022.041l-.006.013-.01.014a1.267 1.267 0 0 1-.021.035l-.03.044-.011.016-.03.039-.034.04-.02.023a1.232 1.232 0 0 1-.091.092l-.023.02-.04.032a1.493 1.493 0 0 1-.034.026l-.021.015a1.248 1.248 0 0 1-.08.052l-.013.01-.013.006a1.103 1.103 0 0 1-.042.022c-.016.009-.033.016-.05.024l-.02.01-.035.013-.045.018-.042.014-.037.011-.03.008c-.017.004-.034.01-.051.013l-.029.005a1.283 1.283 0 0 1-.103.015l-.003.001-.016.001a1.231 1.231 0 0 1-.1.005L8 13.25l-.01-.001a1.191 1.191 0 0 1-.1-.005h-.016l-.003-.002a1.314 1.314 0 0 1-.103-.015l-.029-.005-.05-.013a1.45 1.45 0 0 1-.03-.008l-.038-.01-.042-.015-.045-.018-.035-.013-.02-.01c-.017-.008-.034-.015-.05-.024a1.276 1.276 0 0 1-.042-.022l-.012-.006-.015-.01a1.085 1.085 0 0 1-.079-.052l-.021-.015a1.47 1.47 0 0 1-.033-.026.423.423 0 0 1-.041-.033l-.023-.02a1.073 1.073 0 0 1-.092-.091l-.02-.023-.032-.04-.03-.039-.01-.015a1.21 1.21 0 0 1-.03-.045l-.028-.044a1.253 1.253 0 0 1-.038-.071l-.006-.011-.018-.037-.005-.013a1.172 1.172 0 0 1-.018-.046l-.013-.033-.015-.044-.01-.034-.003-.012a1.33 1.33 0 0 1-.006-.022l-.012-.045-.006-.042a1.259 1.259 0 0 1-.006-.035l-.007-.046-.002-.028a1.255 1.255 0 0 1-.004-.06l-.002-.018v-.066l.002-.03c0-.016.002-.033.004-.05 0-.008 0-.018.002-.027l.009-.054.004-.033.002-.01.004-.026.013-.05.008-.028.01-.038.015-.042.006-.017.025-.063.014-.03.016-.03.037-.07c.01-.018.022-.036.034-.054a1.21 1.21 0 0 1 .027-.04l.012-.016.025-.032.033-.042.02-.022a1.215 1.215 0 0 1 .114-.111l.04-.033.034-.026.02-.014c.013-.01.026-.018.04-.027l.047-.03.008-.004.012-.007.042-.022.04-.02c.011-.006.022-.01.032-.014.004-.002.008-.005.013-.006l.048-.02.017-.006.042-.014.037-.011.029-.008.05-.013.042-.006.035-.006c.016-.003.031-.006.046-.007l.028-.002.05-.004.029-.002h.066l.029.002Zm4 0c.016 0 .033.002.05.004.008 0 .018 0 .027.002l.046.007.035.005.042.007.05.013.028.008.038.01.042.015a1.444 1.444 0 0 1 .078.031l.013.005.037.018.022.012.042.022.013.007.007.004.048.03.039.027.02.014.034.026.04.033a1.042 1.042 0 0 1 .115.111l.02.022.032.042c.009.01.018.02.026.032l.012.016a1.225 1.225 0 0 1 .055.085l.01.015.006.012c.008.013.015.028.022.042.009.016.016.033.024.05l.01.02.013.035.018.045.014.042.011.037.008.03.013.051c0 .004.002.007.003.011 0 .005 0 .01.002.014l.007.042a1.367 1.367 0 0 1 .015.183l.001.011-.001.01c0 .019 0 .037-.002.056v.027a1.276 1.276 0 0 1-.02.138l-.005.029-.011.047-.004.016-.006.018c-.003.011-.005.023-.009.034-.004.015-.01.03-.015.044l-.019.046-.012.033-.011.023-.024.05a1.053 1.053 0 0 1-.022.041l-.006.013-.01.014a1.264 1.264 0 0 1-.021.035l-.03.044-.011.016-.03.039-.034.04-.02.023a1.075 1.075 0 0 1-.091.092l-.023.02-.04.032a1.619 1.619 0 0 1-.034.026l-.021.015a1.348 1.348 0 0 1-.08.052l-.013.01-.013.006a1.053 1.053 0 0 1-.042.022c-.016.009-.033.016-.05.024l-.02.01-.035.013-.045.018-.042.014-.037.011-.03.008c-.017.004-.034.01-.051.013l-.029.005a1.253 1.253 0 0 1-.103.015l-.003.001-.016.001a1.225 1.225 0 0 1-.1.005L12 13.25l-.01-.001a1.193 1.193 0 0 1-.1-.005h-.016l-.003-.002a1.322 1.322 0 0 1-.103-.015l-.029-.005-.05-.013a1.4 1.4 0 0 1-.03-.008l-.038-.01-.042-.015-.045-.018-.035-.013-.02-.01c-.017-.008-.034-.015-.05-.024-.014-.007-.029-.014-.042-.022l-.012-.006-.015-.01a1.06 1.06 0 0 1-.079-.052l-.021-.015a1.21 1.21 0 0 1-.075-.059l-.022-.02a1.075 1.075 0 0 1-.111-.114l-.033-.04-.03-.039-.01-.015-.03-.045-.028-.044a1.247 1.247 0 0 1-.038-.071l-.006-.011-.018-.037-.005-.013a1.158 1.158 0 0 1-.018-.046l-.013-.033-.015-.044-.01-.034-.003-.012-.006-.022-.012-.045-.006-.042a1.427 1.427 0 0 1-.006-.035c-.003-.016-.006-.031-.007-.046l-.002-.028a1.18 1.18 0 0 1-.004-.06l-.002-.018v-.066l.002-.03c0-.016.002-.033.004-.05 0-.008 0-.018.002-.027l.009-.054.005-.033.001-.01.004-.026.013-.05.008-.028.01-.038.015-.042.006-.017.025-.063.014-.03.016-.03.037-.07c.01-.018.022-.036.034-.054l.027-.04.012-.016.025-.032.033-.042a1.358 1.358 0 0 1 .133-.133l.042-.033a.91.91 0 0 1 .033-.026l.02-.014a1.48 1.48 0 0 1 .04-.027l.047-.03.008-.004.012-.007c.013-.008.028-.015.042-.022l.04-.02c.011-.006.022-.01.032-.014.004-.002.008-.005.013-.006l.049-.02.016-.006.042-.014.037-.011.029-.008.05-.013.042-.006a1.36 1.36 0 0 1 .036-.006.35.35 0 0 1 .045-.007l.028-.002.05-.004.029-.002h.066l.029.002Zm4 0c.016 0 .033.002.05.004.009 0 .018 0 .027.002l.046.007.035.005.042.007.05.013.028.008.038.01.042.015a1.444 1.444 0 0 1 .078.031l.013.005.037.018.022.012c.014.007.029.014.042.022l.013.007.007.004.048.03.039.027.02.014.034.026.04.033a1.042 1.042 0 0 1 .115.111l.02.022.032.042c.009.01.018.02.026.032l.012.016a1.225 1.225 0 0 1 .055.085l.01.015.006.012c.008.013.015.028.022.042.009.016.016.033.024.05l.01.02.013.035.018.045.014.042.011.037.008.03.013.051c0 .004.002.007.003.011 0 .005 0 .01.002.014l.007.042a1.367 1.367 0 0 1 .015.183l.001.011-.001.01c0 .019 0 .037-.002.056v.027a1.276 1.276 0 0 1-.02.138l-.005.029-.011.047-.004.016-.006.018c-.003.011-.005.023-.009.034-.004.015-.01.03-.015.044l-.019.046-.013.033-.01.023-.024.05a1.053 1.053 0 0 1-.022.041l-.006.013-.01.014a1.264 1.264 0 0 1-.021.035l-.03.044-.011.016-.03.039-.034.04-.02.023a1.075 1.075 0 0 1-.091.092l-.022.02a1.449 1.449 0 0 1-.075.058l-.021.015a1.348 1.348 0 0 1-.08.052l-.013.01-.013.006a1.053 1.053 0 0 1-.042.022c-.016.009-.033.016-.05.024l-.02.01-.035.013-.045.018-.042.014-.037.011-.03.008c-.017.004-.034.01-.051.013l-.029.005a1.253 1.253 0 0 1-.103.015l-.003.001-.016.001a1.225 1.225 0 0 1-.1.005L16 13.25l-.01-.001a1.193 1.193 0 0 1-.1-.005h-.016l-.003-.002a1.322 1.322 0 0 1-.103-.015l-.029-.005-.05-.013a1.4 1.4 0 0 1-.03-.008l-.038-.01-.042-.015-.045-.018-.035-.013-.02-.01c-.017-.008-.034-.015-.05-.024-.014-.007-.029-.014-.042-.022l-.012-.006-.015-.01a1.06 1.06 0 0 1-.079-.052l-.021-.015a1.21 1.21 0 0 1-.075-.059l-.022-.02a1.075 1.075 0 0 1-.111-.114l-.033-.04-.03-.039-.01-.015-.03-.045-.028-.044a1.247 1.247 0 0 1-.038-.071l-.006-.011-.018-.037-.005-.013a1.158 1.158 0 0 1-.018-.046l-.013-.033-.015-.044-.01-.034-.003-.012-.006-.022-.012-.045-.006-.042a1.427 1.427 0 0 1-.006-.035c-.003-.016-.006-.031-.007-.046l-.002-.028a1.18 1.18 0 0 1-.004-.06l-.002-.018v-.066l.002-.03c0-.016.002-.033.004-.05 0-.008 0-.018.002-.027l.009-.054.005-.033.001-.01.004-.026.013-.05.008-.028.01-.038.015-.042.006-.017.025-.063.014-.03.016-.03.037-.07c.01-.018.022-.036.034-.054l.027-.04.012-.016.025-.032.033-.042a1.358 1.358 0 0 1 .133-.133l.042-.033a.91.91 0 0 1 .033-.026l.02-.014a1.48 1.48 0 0 1 .04-.027l.047-.03.008-.004.012-.007c.013-.008.028-.015.042-.022l.04-.02c.011-.006.022-.01.032-.014.004-.002.008-.005.013-.006l.049-.02.016-.006.042-.014.037-.011.029-.008.05-.013.042-.006a1.36 1.36 0 0 1 .036-.006.35.35 0 0 1 .045-.007l.028-.002.05-.004.029-.002h.066l.028.002ZM5 5v2h14V5H5Zm16 14a2 2 0 0 1-2 2H5a2 2 0 0 1-2-2V5a2 2 0 0 1 2-2h14a2 2 0 0 1 2 2v14Z"/>
</svg>
