<svg xmlns="http://www.w3.org/2000/svg" width="24" height="24" fill="currentColor" viewBox="0 0 24 24">
  <path  fill-rule="evenodd" d="M11.75 8.75a3.75 3.75 0 0 1 3.262 5.598l.695.695a1 1 0 1 1-1.414 1.414l-.695-.695A3.75 3.75 0 1 1 11.75 8.75Zm0 2a1.75 1.75 0 1 0 0 3.5 1.75 1.75 0 0 0 0-3.5Z" clip-rule="evenodd"/>
  <path  fill-rule="evenodd" d="M16 2.5a1 1 0 0 1 1 1v1h2a2 2 0 0 1 2 2v13a2 2 0 0 1-2 2H5a2 2 0 0 1-2-2v-13a2 2 0 0 1 2-2h2v-1a1 1 0 0 1 2 0v1h6v-1a1 1 0 0 1 1-1Zm-11 17h14v-13H5v13Z" clip-rule="evenodd"/>
</svg>
