<svg xmlns="http://www.w3.org/2000/svg" width="24" height="24" fill="currentColor" viewBox="0 0 24 24">
  <path  d="M19.3 3.292a.996.996 0 0 1 1.408 1.407L17.43 7.978h1.577a.996.996 0 1 1 0 1.99h-3.982a.996.996 0 0 1-.995-.995V4.991a.996.996 0 0 1 1.99 0V6.57l3.28-3.278Zm-2.994 11.784-.762.76c-.591.592-1.532.779-2.32.34a14 14 0 0 1-5.4-5.4c-.439-.788-.252-1.73.34-2.321l.76-.761-.81-2.703H5.105c.49 7.453 6.45 13.413 13.903 13.903v-3.008l-2.702-.81ZM21 18.928c0 1.084-.892 2.031-2.053 1.96-8.505-.525-15.31-7.33-15.834-15.836C3.042 3.892 3.988 3 5.071 3h3.043c.88 0 1.654.577 1.906 1.42l.811 2.702a1.99 1.99 0 0 1-.498 1.98l-.746.744a12.007 12.007 0 0 0 4.565 4.566l.746-.745a1.991 1.991 0 0 1 1.98-.499l2.703.81A1.991 1.991 0 0 1 21 15.887v3.042Z"/>
</svg>
