<svg xmlns="http://www.w3.org/2000/svg" width="24" height="24" fill="currentColor" viewBox="0 0 24 24">
  <path  d="M3 19v-3a1 1 0 1 1 2 0v3h3a1 1 0 1 1 0 2H5a2 2 0 0 1-2-2Zm16 0v-3a1 1 0 1 1 2 0v3a2 2 0 0 1-2 2h-3a1 1 0 1 1 0-2h3Zm-5.586-9.828a1 1 0 1 1 1.414 1.414L13.414 12l1.414 1.414a1 1 0 1 1-1.414 1.414L12 13.414l-1.414 1.414a1 1 0 1 1-1.414-1.414L10.586 12l-1.414-1.414a1 1 0 1 1 1.414-1.414L12 10.586l1.414-1.414ZM3 8V5a2 2 0 0 1 2-2h3a1 1 0 0 1 0 2H5v3a1 1 0 0 1-2 0Zm16 0V5h-3a1 1 0 1 1 0-2h3a2 2 0 0 1 2 2v3a1 1 0 1 1-2 0Z"/>
</svg>
