<svg xmlns="http://www.w3.org/2000/svg" width="24" height="24" fill="currentColor" viewBox="0 0 24 24">
  <path  d="M3 19v-3a1 1 0 1 1 2 0v3h3a1 1 0 1 1 0 2H5a2 2 0 0 1-2-2Zm16 0v-3a1 1 0 1 1 2 0v3a2 2 0 0 1-2 2h-3a1 1 0 1 1 0-2h3Zm-5-8.734-.356.153a1 1 0 0 1-1.101-.212L12 9.664l-.543.543a1 1 0 0 1-1.1.212L10 10.266V11a2 2 0 1 0 4 0v-.734ZM3 8V5a2 2 0 0 1 2-2h3a1 1 0 0 1 0 2H5v3a1 1 0 0 1-2 0Zm16 0V5h-3a1 1 0 1 1 0-2h3a2 2 0 0 1 2 2v3a1 1 0 1 1-2 0Zm-3 3a4.002 4.002 0 0 1-3 3.874V16a1 1 0 1 1-2 0v-1.126A4.002 4.002 0 0 1 8 11V8.75a1 1 0 0 1 1.394-.919l1.127.483.772-.771.076-.068a1 1 0 0 1 1.338.068l.771.771 1.128-.483A1 1 0 0 1 16 8.75V11Z"/>
</svg>
