<svg xmlns="http://www.w3.org/2000/svg" width="24" height="24" fill="currentColor" viewBox="0 0 24 24">
  <path  d="M17.035 8a2 2 0 0 1-1.664-.89L13.965 5h-3.93L8.63 7.11A2 2 0 0 1 6.965 8H4v11h16V8h-2.965Zm-3.74 2.793a1 1 0 0 1 1.414 1.414l-1.295 1.295 1.293 1.293a1 1 0 0 1-1.414 1.414L12 14.916l-1.293 1.293a1 1 0 0 1-1.414-1.414l1.293-1.293-1.295-1.295a1 1 0 0 1 1.414-1.414L12 12.088l1.295-1.295ZM22 19a2 2 0 0 1-2 2H4a2 2 0 0 1-2-2V8a2 2 0 0 1 2-2h2.965L8.37 3.89A2 2 0 0 1 10.035 3h3.93a2 2 0 0 1 1.664.89L17.035 6H20a2 2 0 0 1 2 2v11Z"/>
</svg>
