<svg xmlns="http://www.w3.org/2000/svg" width="24" height="24" fill="currentColor" viewBox="0 0 24 24">
  <path  d="M3 19v-3a1 1 0 1 1 2 0v3h3a1 1 0 1 1 0 2H5a2 2 0 0 1-2-2Zm16 0v-3a1 1 0 1 1 2 0v3a2 2 0 0 1-2 2h-3a1 1 0 1 1 0-2h3Zm-9-5h4v-2h-4v2ZM3 8V5a2 2 0 0 1 2-2h3a1 1 0 0 1 0 2H5v3a1 1 0 0 1-2 0Zm16 0V5h-3a1 1 0 1 1 0-2h3a2 2 0 0 1 2 2v3a1 1 0 1 1-2 0Zm-6 2a1 1 0 1 0-2 0h2Zm2 .087a1.5 1.5 0 0 1 1 1.413v3a1.5 1.5 0 0 1-1.5 1.5h-5A1.5 1.5 0 0 1 8 14.5v-3a1.5 1.5 0 0 1 1-1.413V10a3 3 0 1 1 6 0v.087Z"/>
</svg>
