<svg xmlns="http://www.w3.org/2000/svg" width="24" height="24" fill="currentColor" viewBox="0 0 24 24">
  <path  d="M8 11a1 1 0 0 1 1 1v1a1 1 0 0 1-2 0v-1a1 1 0 0 1 1-1Zm4-4a1 1 0 0 1 1 1v5a1 1 0 0 1-2 0V8a1 1 0 0 1 1-1Zm4 2a1 1 0 0 1 1 1v3a1 1 0 0 1-2 0v-3a1 1 0 0 1 1-1Z"/>
  <path  fill-rule="evenodd" d="M22 3a1 1 0 1 1 0 2h-1v11a2 2 0 0 1-2 2h-5.133l.964 1.445a1 1 0 0 1-1.664 1.11l-1.168-1.751-1.167 1.75a1 1 0 1 1-1.664-1.109L10.132 18H5a2 2 0 0 1-2-2V5H2a1 1 0 1 1 0-2h20ZM5 16h14V5H5v11Z" clip-rule="evenodd"/>
</svg>
