<svg xmlns="http://www.w3.org/2000/svg" width="24" height="24" fill="currentColor" viewBox="0 0 24 24">
  <path fill-rule="evenodd" d="M7.5 9.75a1.25 1.25 0 1 1 0 2.5 1.25 1.25 0 0 1 0-2.5Zm0 .75a.5.5 0 1 0 0 1 .5.5 0 0 0 0-1Zm4.5-.75a1.25 1.25 0 1 1 0 2.5 1.25 1.25 0 0 1 0-2.5Zm0 .75a.5.5 0 1 0 0 1 .5.5 0 0 0 0-1Zm4.5-.75a1.25 1.25 0 1 1 0 2.5 1.25 1.25 0 0 1 0-2.5Zm0 .75a.5.5 0 1 0 0 1 .5.5 0 0 0 0-1Z" clip-rule="evenodd"/>
  <path fill-rule="evenodd" d="M22.002 19h-9.723l-6.277 3.767V19h-4V3h20v16Zm-18-2h4v2.233L11.725 17h8.277V5h-16v12Z" clip-rule="evenodd"/>
</svg>
