<svg xmlns="http://www.w3.org/2000/svg" width="24" height="24" fill="currentColor" viewBox="0 0 24 24">
  <path fill-rule="evenodd" d="M14.172 14.172a4 4 0 0 1 6.274 4.86L22.414 21 21 22.414l-1.968-1.968a4.001 4.001 0 0 1-4.86-6.274Zm4.242 1.414a2 2 0 1 0-2.828 2.828 2 2 0 0 0 2.828-2.828Z" clip-rule="evenodd"/>
  <path d="M21 11h-2V5H5v14h6v2H3V3h18v8Z"/>
  <path d="M11.94 13.554 8.9 17.605l-2.744-1.829 1.11-1.664 1.169.78 1.905-2.538 1.6 1.2Zm0-6.002L8.9 11.605l-2.744-1.83 1.11-1.664 1.169.78 1.905-2.538 1.6 1.199ZM17.058 10h-4V8h4v2Z"/>
</svg>
