<svg xmlns="http://www.w3.org/2000/svg" width="24" height="24" fill="currentColor" viewBox="0 0 24 24">
  <path fill-rule="evenodd" d="M18 13a4 4 0 0 1 4 4v4h-2.27a1.998 1.998 0 0 1-3.46 0H14v-4a4 4 0 0 1 4-4Zm0 2a2 2 0 0 0-2 2v2h4v-2a2 2 0 0 0-2-2Z" clip-rule="evenodd"/>
  <path d="M21 11h-2V5H5v14h7v2H3V3h18v8Z"/>
  <path d="M11.94 13.554 8.9 17.605l-2.744-1.829 1.11-1.664 1.169.78 1.905-2.538 1.6 1.2Zm0-6.002L8.9 11.605l-2.744-1.83 1.11-1.664 1.169.78 1.905-2.538 1.6 1.199ZM17.058 10h-4V8h4v2Z"/>
</svg>
