<svg xmlns="http://www.w3.org/2000/svg" width="24" height="24" fill="currentColor" viewBox="0 0 24 24">
  <path  d="m10.997 14.25-.707.707a1 1 0 0 0 1.414 0l-.707-.707Zm5.207-3.793a1 1 0 0 0-1.414-1.414l1.414 1.414Zm-6.5 1.086a1 1 0 0 0-1.414 1.414l1.414-1.414ZM19 5.6v12.8h2V5.6h-2ZM18.4 19H5.6v2h12.8v-2ZM5 18.4V5.6H3v12.8h2ZM5.6 5h12.8V3H5.6v2Zm0 14c-.297 0-.459 0-.575-.01-.105-.009-.083-.02-.025.01l-.908 1.782c.271.138.541.182.77.201.217.018.474.017.738.017v-2ZM3 18.4c0 .264 0 .521.017.738.019.229.063.499.201.77L5 19c.03.058.019.08.01-.025A8.194 8.194 0 0 1 5 18.4H3Zm2 .6-1.782.908a2 2 0 0 0 .874.874L5 19Zm14-.6c0 .297 0 .459-.01.575-.009.105-.02.082.01.025l1.782.908a2.03 2.03 0 0 0 .201-.77c.018-.217.017-.475.017-.738h-2Zm-.6 2.6c.264 0 .521 0 .738-.017a2.03 2.03 0 0 0 .77-.201L19 19c.058-.03.08-.019-.025-.01-.116.01-.279.01-.575.01v2Zm.6-2 .908 1.782a2 2 0 0 0 .874-.874L19 19Zm2-13.4c0-.264 0-.521-.017-.738a2.022 2.022 0 0 0-.201-.77L19 5c-.03-.058-.019-.08-.01.025.01.116.01.278.01.575h2ZM18.4 5c.297 0 .459 0 .575.01.105.009.082.02.025-.01l.908-1.782a2.022 2.022 0 0 0-.77-.201C18.921 2.999 18.663 3 18.4 3v2Zm2.382-.908a2 2 0 0 0-.874-.874L19 5l1.782-.908ZM5 5.6c0-.297 0-.459.01-.575.01-.105.02-.083-.01-.025l-1.782-.908a2.021 2.021 0 0 0-.201.77C2.999 5.079 3 5.336 3 5.6h2ZM5.6 3c-.264 0-.521 0-.738.017a2.021 2.021 0 0 0-.77.201L5 5c-.058.03-.08.019.025.01C5.14 5 5.303 5 5.6 5V3ZM5 5l-.908-1.782a2 2 0 0 0-.874.874L5 5Zm6.704 9.957 4.5-4.5-1.414-1.414-4.5 4.5 1.414 1.414Zm-3.414-2 2 2 1.414-1.414-2-2-1.414 1.414Z"/>
</svg>
