<svg xmlns="http://www.w3.org/2000/svg" width="24" height="24" fill="currentColor" viewBox="0 0 24 24">
  <path  d="M14.172 14.172a4 4 0 0 1 6.274 4.86l1.261 1.261a1 1 0 1 1-1.414 1.414l-1.26-1.26a4.001 4.001 0 0 1-4.861-6.275Zm4.242 1.414a2 2 0 1 0-2.828 2.828 2 2 0 0 0 2.828-2.828ZM9.74 13.153a1 1 0 0 1 1.6 1.2L9.469 16.85a1 1 0 0 1-1.355.232l-1.125-.75a1 1 0 0 1 1.11-1.664l.337.225 1.304-1.739Zm0-6a1 1 0 0 1 1.6 1.2l-1.871 2.495a1 1 0 0 1-1.355.232l-1.125-.75a1 1 0 0 1 1.11-1.664l.337.225L9.74 7.152ZM19 10V5H5v14h5a1 1 0 1 1 0 2H5a2 2 0 0 1-2-2V5a2 2 0 0 1 2-2h14a2 2 0 0 1 2 2v5a1 1 0 1 1-2 0Zm-2.942-2a1 1 0 1 1 0 2h-2a1 1 0 0 1 0-2h2Z"/>
</svg>
