<svg xmlns="http://www.w3.org/2000/svg" width="24" height="24" fill="currentColor" viewBox="0 0 24 24">
  <path fill-rule="evenodd" d="m21.664 20.25-1.414 1.414-1.92-1.92A9.963 9.963 0 0 1 12 22C6.477 22 2 17.523 2 12c0-2.4.847-4.606 2.257-6.33L2.336 3.75 3.75 2.336 21.664 20.25ZM4 12a8 8 0 0 0 12.904 6.318L5.681 7.095A7.96 7.96 0 0 0 4 12Z" clip-rule="evenodd"/>
  <path d="M20 12A8 8 0 0 0 8.445 4.831l-.89-1.791A9.964 9.964 0 0 1 12 2c5.523 0 10 4.477 10 10a9.964 9.964 0 0 1-1.04 4.445l-1.791-.89A7.963 7.963 0 0 0 20 12Z"/>
</svg>
