<svg xmlns="http://www.w3.org/2000/svg" width="24" height="24" fill="currentColor" viewBox="0 0 24 24">
  <path  fill-rule="evenodd" d="M9.004 4c1.103 0 1.999.893 1.999 1.999v7c0 2.586-1.161 4.336-2.316 5.418a8.164 8.164 0 0 1-1.568 1.15 7.08 7.08 0 0 1-.69.34l-.048.019-.017.007-.005.001-.003.001L6.004 19l.35.936a1 1 0 0 1-1.35-.935L5 14H4a2 2 0 0 1-1.99-1.797L2 11.999l.003-6a2 2 0 0 1 2-2h5ZM4 12h1.999a1 1 0 0 1 1 .999l.003 4.235c.105-.085.211-.177.317-.276.846-.793 1.684-2.043 1.684-3.958V6h-5L4 12Zm16-8a2 2 0 0 1 2 1.999v7c0 2.586-1.162 4.336-2.316 5.418a8.162 8.162 0 0 1-2.098 1.42c-.066.03-.12.053-.16.07l-.049.019-.016.007-.006.001-.002.001s-.002.001-.353-.935l.352.936A1 1 0 0 1 16 19v-5h-1a2 2 0 0 1-2-2V6a2 2 0 0 1 2-2h5Zm-5 8h2a1 1 0 0 1 1 1v4.233a5.99 5.99 0 0 0 .316-.275C19.162 16.165 20 14.915 20 13V6h-5v6Z" clip-rule="evenodd"/>
</svg>
