<svg xmlns="http://www.w3.org/2000/svg" width="24" height="24" fill="currentColor" viewBox="0 0 24 24">
  <path fill-rule="evenodd" d="M11 13c0 2.585-1.162 4.335-2.316 5.417a8.163 8.163 0 0 1-2.098 1.42 4.505 4.505 0 0 1-.21.089l-.015.007c-.002 0-.004 0-.006.002h-.001c-.001 0-.003.001-.354-.935l.352.936L5 20.444V14H2V4h9v9Zm-7-1h3v5.233c.104-.085.21-.176.316-.275C8.162 16.165 9 14.915 9 13V6H4v6Zm18.004 1c0 2.585-1.162 4.335-2.317 5.417a8.16 8.16 0 0 1-2.097 1.42 4.502 4.502 0 0 1-.21.089l-.015.007c-.002 0-.004 0-.006.002h-.002L17.004 19l.351.936-1.35.506L16 14h-3l.004-10h9v9ZM15 12h2.999l.003 5.234c.105-.085.212-.176.318-.276.846-.793 1.684-2.043 1.684-3.958V6h-5L15 12Z" clip-rule="evenodd"/>
</svg>
