<svg xmlns="http://www.w3.org/2000/svg" width="24" height="24" fill="currentColor" viewBox="0 0 24 24">
  <path  d="M18 10a3 3 0 0 0-5.75-1.2 7.028 7.028 0 0 1 2.508 2.219c.069.1.249.183.432.138a5.51 5.51 0 0 1 2.582-.008c.146-.353.228-.74.228-1.149Zm5-1.5a1 1 0 1 1 0 2h-.5a1 1 0 1 1 0-2h.5ZM8.988 3.49a1 1 0 0 1 1.414 0l.354.353a1 1 0 0 1-1.414 1.414l-.354-.354a1 1 0 0 1 0-1.414Zm10.606 0a1 1 0 0 1 1.414 1.413l-.354.354a1 1 0 1 1-1.414-1.414l.354-.354ZM14 2.5V2a1 1 0 1 1 2 0v.5a1 1 0 1 1-2 0ZM4 15a5 5 0 0 0 5 5h7.5a3.5 3.5 0 1 0-.836-6.9c-.922.226-1.972-.108-2.55-.943A4.987 4.987 0 0 0 9 10a5 5 0 0 0-5 5Zm16-5c0 .694-.143 1.357-.4 1.959A5.5 5.5 0 0 1 16.5 22H9a7 7 0 1 1 1.36-13.866A5 5 0 0 1 20 10Z"/>
</svg>
