<svg xmlns="http://www.w3.org/2000/svg" width="24" height="24" fill="currentColor" viewBox="0 0 24 24">
  <path fill-rule="evenodd" d="M22.414 21 21 22.414l-2.44-2.44-.243.016A4.75 4.75 0 0 1 18 20H7A6 6 0 0 1 5.602 8.164c.115-.261.246-.514.391-.757L1.586 3 3 1.586 22.414 21ZM7.47 8.884c-.074.158-.141.32-.199.487l-.2.583-.612.082A4.001 4.001 0 0 0 7 18h9.586L7.47 8.884Z" clip-rule="evenodd"/>
  <path d="M12 4a6.999 6.999 0 0 1 6.939 6.089 5 5 0 0 1 3.844 6.373l-.292.956-1.913-.584.292-.956A3 3 0 0 0 18 12h-1v-1a5 5 0 0 0-6.018-4.896l-.978.202-.404-1.96.978-.201A7.03 7.03 0 0 1 12 4Z"/>
</svg>
