<svg xmlns="http://www.w3.org/2000/svg" width="24" height="24" fill="currentColor" viewBox="0 0 24 24">
  <path  d="M2.293 2.293a1 1 0 0 1 1.414 0l18 18a1 1 0 0 1-1.338 1.483l-.076-.069-1.738-1.738c-.183.02-.368.031-.555.031H7A6 6 0 0 1 5.598 8.165c.116-.262.248-.515.394-.759L2.293 3.707a1 1 0 0 1 0-1.414ZM21 15a3 3 0 0 0-3-3 1 1 0 0 1-1-1 5 5 0 0 0-6.018-4.896 1 1 0 0 1-.404-1.96 6.999 6.999 0 0 1 8.36 5.944 5 5 0 0 1 3.845 6.374 1 1 0 0 1-1.913-.584c.084-.276.13-.571.13-.878ZM3 14a4 4 0 0 0 4 4h9.586L7.469 8.883a5.08 5.08 0 0 0-.198.488 1 1 0 0 1-.812.665A4.001 4.001 0 0 0 3 14Z"/>
</svg>
