<svg xmlns="http://www.w3.org/2000/svg" width="24" height="24" fill="currentColor" viewBox="0 0 24 24">
  <path fill-rule="evenodd" d="M17.5 3a3.5 3.5 0 1 1 0 7H16v4h1.5a3.5 3.5 0 1 1-3.5 3.5V16h-4v1.5A3.5 3.5 0 1 1 6.5 14H8v-4H6.5A3.5 3.5 0 1 1 10 6.5V8h4V6.5A3.5 3.5 0 0 1 17.5 3Zm-11 13A1.5 1.5 0 1 0 8 17.5V16H6.5Zm9.5 1.5a1.5 1.5 0 1 0 1.5-1.5H16v1.5ZM10 14h4v-4h-4v4ZM6.5 5a1.5 1.5 0 1 0 0 3H8V6.5A1.5 1.5 0 0 0 6.5 5Zm11 0A1.5 1.5 0 0 0 16 6.5V8h1.5a1.5 1.5 0 0 0 0-3Z" clip-rule="evenodd"/>
</svg>
