<svg xmlns="http://www.w3.org/2000/svg" width="24" height="24" fill="currentColor" viewBox="0 0 24 24">
  <path  fill-rule="evenodd" d="M14.602 7.724a1.5 1.5 0 0 1 1.632 1.883l-1.119 4.105a2 2 0 0 1-1.403 1.403l-4.105 1.12a1.5 1.5 0 0 1-1.841-1.842l1.119-4.105a2 2 0 0 1 1.403-1.403l4.105-1.12.209-.041Zm-3.787 3.09-.89 3.26 3.26-.889.89-3.26-3.26.89Z" clip-rule="evenodd"/>
  <path  fill-rule="evenodd" d="M12 2c5.523 0 10 4.477 10 10s-4.477 10-10 10S2 17.523 2 12 6.477 2 12 2Zm0 2a8 8 0 1 0 0 16 8 8 0 0 0 0-16Z" clip-rule="evenodd"/>
</svg>
