<svg xmlns="http://www.w3.org/2000/svg" width="24" height="24" fill="currentColor" viewBox="0 0 24 24">
  <path d="M11.5 15a1.5 1.5 0 1 1 0 3 1.5 1.5 0 0 1 0-3ZM7 13a1 1 0 1 1 0 2 1 1 0 0 1 0-2Zm10 0a1 1 0 1 1 0 2 1 1 0 0 1 0-2Zm-4.5-3a1.5 1.5 0 1 1 0 3 1.5 1.5 0 0 1 0-3Zm-4-3a1.5 1.5 0 1 1 0 3 1.5 1.5 0 0 1 0-3Z"/>
  <path fill-rule="evenodd" d="M12 2c.385 0 .766.022 1.14.064l1.006.115-.127 1.004a2.501 2.501 0 0 0 1.919 2.754l.226.04.757.102.102.757a2.5 2.5 0 0 0 3.351 2.007l1.045-.39.274 1.081c.2.79.307 1.616.307 2.466 0 5.523-4.477 10-10 10S2 17.523 2 12 6.477 2 12 2Zm0 2a8 8 0 1 0 7.935 6.979 4.5 4.5 0 0 1-4.741-3.173A4.502 4.502 0 0 1 12.027 4H12Z" clip-rule="evenodd"/>
</svg>
