<svg xmlns="http://www.w3.org/2000/svg" width="24" height="24" fill="currentColor" viewBox="0 0 24 24">
  <path d="m13 19.29 1.56-.878.981 1.743-.871.491L12 22.148l-3.541-1.993.981-1.743 1.56.877V17h2v2.29Zm-8-4.522 1.964-1.134 1 1.732-1.945 1.122 1.6.9-.98 1.744-3.13-1.76L3 17.084V13h2v1.768Zm16 2.317-.51.286-3.129 1.76-.981-1.742 1.6-.9-1.944-1.123 1-1.732L19 14.768V13h2v4.085Zm-5.902-5.719L13 12.577V15h-2v-2.423l-2.099-1.21 1-1.733L12 10.846l2.099-1.212 1 1.732ZM7.62 6.611l-1.601.9 1.945 1.124-1 1.731L5 9.232V11H3V6.915l2.768-1.556.87-.49.981 1.742ZM18.232 5.36 21 6.914V11h-2V9.232l-1.964 1.134-1-1.731L17.98 7.51l-1.6-.9.981-1.743.871.491ZM12.49 2.129l3.051 1.716-.98 1.743L13 4.709V7h-2V4.709l-1.56.879-.981-1.743L12 1.853l.49.276Z"/>
</svg>
