<svg xmlns="http://www.w3.org/2000/svg" width="24" height="24" fill="currentColor" viewBox="0 0 24 24">
  <path  d="M8 18v2h8v-2H8ZM19 6v2c0 .255-.015.507-.042.755A1.999 1.999 0 0 0 20 7V6h-1ZM4 7c0 .757.42 1.415 1.041 1.755A7.075 7.075 0 0 1 5 8V6H4v1Zm3-3v4a5 5 0 0 0 10 0V4H7Zm13 0a2 2 0 0 1 2 2v1a4 4 0 0 1-3.668 3.985 7.005 7.005 0 0 1-5.328 3.942V16H16a2 2 0 0 1 2 2v2a2 2 0 0 1-2 2H8a2 2 0 0 1-2-2v-2a2 2 0 0 1 2-2h3.004v-1.072a7.005 7.005 0 0 1-5.337-3.943A4 4 0 0 1 2 7V6a2 2 0 0 1 2-2h1a2 2 0 0 1 2-2h10a2 2 0 0 1 2 2h1Z"/>
</svg>
