<svg xmlns="http://www.w3.org/2000/svg" width="24" height="24" fill="currentColor"
  viewBox="0 0 24 24">
  <path fill-rule="evenodd"
    d="M13 2.807c1.871.194 3.741.912 5.006 2.245l-1.451 1.377c-.828-.872-2.144-1.425-3.555-1.61v6.588c1.258.328 2.621.701 3.696 1.31.629.356 1.213.82 1.639 1.451.434.643.665 1.405.665 2.285 0 1.603-.86 2.807-2.047 3.583-1.106.724-2.524 1.103-3.953 1.192V23.5h-2v-2.333a9.758 9.758 0 0 1-2.68-.71c-1.372-.596-2.603-1.572-3.234-2.997l1.828-.81c.37.834 1.139 1.51 2.203 1.972a7.65 7.65 0 0 0 1.883.526v-6.204c-1.126-.315-2.29-.706-3.24-1.31C6.447 10.8 5.5 9.53 5.5 7.589c0-1.421.649-2.553 1.625-3.347.952-.773 2.202-1.22 3.483-1.4.13-.017.26-.03.392-.043V.5h2v2.307Zm0 16.415c1.133-.088 2.143-.391 2.86-.86.75-.49 1.14-1.122 1.14-1.909 0-.511-.128-.878-.323-1.167-.203-.3-.517-.574-.967-.829-.72-.408-1.645-.694-2.71-.98v5.745Zm-2.116-14.4c-1.032.144-1.906.49-2.498.972-.568.462-.886 1.047-.886 1.794 0 1.141.491 1.824 1.333 2.36.59.375 1.328.657 2.167.912V4.81l-.116.013Z"
    clip-rule="evenodd" />
</svg>