<svg xmlns="http://www.w3.org/2000/svg" width="24" height="24" fill="currentColor" viewBox="0 0 24 24">
  <path  d="M9.01 4.509a1.875 1.875 0 0 1 2.223-1.443l1.833.39a1.874 1.874 0 0 1 1.444 2.222l-.39 1.833.917.196A1.874 1.874 0 0 1 16.48 9.93l-2.143 10.083a1.874 1.874 0 0 1-2.223 1.443L4.78 19.898a1.874 1.874 0 0 1-1.443-2.223L5.48 7.59a1.874 1.874 0 0 1 2.223-1.443l.917.195.39-1.834ZM5.17 18.065l7.334 1.558L14.647 9.54 7.314 7.98 5.17 18.065Zm3.146-6.716a.937.937 0 0 1 1.296.275l.572.882.882-.572a.937.937 0 1 1 1.02 1.571l-.882.572.574.883a.937.937 0 0 1-1.572 1.02l-.573-.882-.88.573a.938.938 0 0 1-1.022-1.572l.881-.573-.572-.881a.937.937 0 0 1 .276-1.296Zm2.137-4.617 1.834.39.39-1.833-1.833-.39-.391 1.833Zm10.632.454a.937.937 0 1 1 0 1.874h-.01a.937.937 0 0 1 0-1.874h.01Zm-2.343-1.172a.937.937 0 1 1 0 1.875h-.01a.937.937 0 0 1 0-1.875h.01Zm-2.343-1.171a.937.937 0 1 1 0 1.874h-.01a.937.937 0 1 1 0-1.874h.01Zm4.686 0a.937.937 0 1 1 0 1.874h-.01a.937.937 0 0 1 0-1.874h.01ZM18.742 3.67a.937.937 0 1 1 0 1.875h-.01a.937.937 0 0 1 0-1.875h.01Zm2.343-1.17a.937.937 0 1 1 0 1.874h-.01a.937.937 0 0 1 0-1.874h.01Z"/>
</svg>
