<svg xmlns="http://www.w3.org/2000/svg" width="24" height="24" fill="currentColor" viewBox="0 0 24 24">
  <path  d="M16.096 3.02c.532 0 1.042.211 1.418.587l5.013 5.013a2.005 2.005 0 0 1 0 2.836l-9.11 9.108a2.005 2.005 0 0 1-2.835 0l-9.108-9.108a2.005 2.005 0 0 1 0-2.836l5.012-5.013a2.005 2.005 0 0 1 1.418-.587h8.192ZM2.891 10.038l9.11 9.109 9.108-9.11-5.013-5.012H7.904L2.89 10.038Zm5.894-2.714a1.002 1.002 0 0 1 1.418 1.418l-1.297 1.296 1.297 1.296a1.003 1.003 0 0 1-1.418 1.418L6.78 10.747a1.002 1.002 0 0 1 0-1.418l2.005-2.005Z"/>
</svg>
