<svg xmlns="http://www.w3.org/2000/svg" width="24" height="24" fill="currentColor" viewBox="0 0 24 24">
  <path  d="M18 2a2 2 0 0 1 2 2v4a1 1 0 1 1-2 0V4H6v16h5.5a1 1 0 1 1 0 2H6a2 2 0 0 1-2-2V4a2 2 0 0 1 2-2h12Z"/>
  <path  d="M21 17a1 1 0 0 1 1 1 4 4 0 1 1-8 0 1 1 0 1 1 2 0 2 2 0 1 0 4 0 1 1 0 0 1 1-1Z"/>
  <path  d="M18 15a1 1 0 0 1 1 1v1a1 1 0 1 1-2 0v-1a1 1 0 0 1 1-1Z"/>
  <path  d="M18 11a4 4 0 0 1 4 4 1 1 0 1 1-2 0 2 2 0 1 0-4 0 1 1 0 1 1-2 0 4 4 0 0 1 4-4Zm-7-1a1 1 0 1 1 0 2H9a1 1 0 1 1 0-2h2Zm4-4a1 1 0 1 1 0 2H9a1 1 0 0 1 0-2h6Z"/>
</svg>
