<svg xmlns="http://www.w3.org/2000/svg" width="24" height="24" fill="currentColor" viewBox="0 0 24 24">
  <path  d="M14.29 14.71a3.684 3.684 0 0 1 5.779 4.478l1.161 1.16a.92.92 0 1 1-1.302 1.303l-1.161-1.161a3.686 3.686 0 0 1-4.477-5.78Zm3.907 1.303a1.842 1.842 0 1 0-2.605 2.605 1.842 1.842 0 0 0 2.605-2.605Zm-8.67-2.382a.921.921 0 0 1 0 1.843h-.922a.921.921 0 1 1 0-1.842h.921Zm1.841-3.684a.921.921 0 0 1 0 1.842H8.605a.921.921 0 1 1 0-1.842h2.763Zm6.448.921V4.421H5.842v14.737h5.066a.921.921 0 1 1 0 1.842H5.842A1.842 1.842 0 0 1 4 19.158V4.42c0-1.017.825-1.842 1.842-1.842h11.974c1.017 0 1.842.825 1.842 1.842v6.447a.921.921 0 0 1-1.842 0Zm-2.763-4.605a.921.921 0 1 1 0 1.842H8.605a.921.921 0 0 1 0-1.842h6.448Z"/>
</svg>
