<svg xmlns="http://www.w3.org/2000/svg" width="24" height="24" fill="currentColor" viewBox="0 0 24 24">
  <path d="M13 7.124c.804.203 1.513.65 1.976 1.29l.585.81-1.62 1.172-.586-.81C13.138 9.286 12.653 9 12 9h-.277c-.895 0-1.223.544-1.223.777v.077c0 .198.15.529.652.73l2.438.975c1.067.426 1.91 1.38 1.91 2.587 0 1.472-1.177 2.465-2.5 2.76V18.5h-2v-1.625c-.804-.203-1.513-.65-1.976-1.29l-.586-.81 1.62-1.171.587.81c.217.3.702.586 1.355.586h.183c.947 0 1.317-.58 1.317-.854 0-.198-.15-.529-.652-.73l-2.438-.975c-1.067-.426-1.91-1.38-1.91-2.587v-.077c0-1.463 1.19-2.435 2.5-2.7V5.5h2v1.624Z"/>
  <path fill-rule="evenodd" d="M12 2c5.523 0 10 4.477 10 10s-4.477 10-10 10S2 17.523 2 12 6.477 2 12 2Zm0 2a8 8 0 1 0 0 16 8 8 0 0 0 0-16Z" clip-rule="evenodd"/>
</svg>
