<svg xmlns="http://www.w3.org/2000/svg" width="24" height="24" fill="currentColor" viewBox="0 0 24 24">
  <path  d="M20 12a8 8 0 1 0-16 0 8 8 0 0 0 16 0Zm-9 5.5v-.625c-.804-.203-1.513-.65-1.976-1.29a1 1 0 1 1 1.62-1.17c.218.3.703.585 1.356.585h.183c.947 0 1.317-.58 1.317-.854 0-.198-.15-.529-.652-.73l-2.438-.975c-1.067-.426-1.91-1.38-1.91-2.587v-.077c0-1.463 1.19-2.435 2.5-2.7V6.5a1 1 0 1 1 2 0v.624c.804.203 1.513.65 1.976 1.29a1 1 0 1 1-1.62 1.172C13.137 9.286 12.652 9 12 9h-.277c-.895 0-1.223.544-1.223.777v.077c0 .198.15.529.652.73l2.438.975c1.067.426 1.91 1.38 1.91 2.587 0 1.472-1.177 2.465-2.5 2.76v.594a1 1 0 1 1-2 0ZM22 12c0 5.523-4.477 10-10 10S2 17.523 2 12 6.477 2 12 2s10 4.477 10 10Z"/>
</svg>
