<svg xmlns="http://www.w3.org/2000/svg" width="24" height="24" fill="currentColor" viewBox="0 0 24 24">
  <path fill-rule="evenodd" d="M12 9a3 3 0 1 1 0 6 3 3 0 0 1 0-6Zm0 2a1 1 0 1 0 0 2 1 1 0 0 0 0-2Z" clip-rule="evenodd"/>
  <path fill-rule="evenodd" d="M11.299 5.068a3 3 0 0 1 4.062.83l.425.613c.12.173.293.304.492.374l.704.246a3 3 0 0 1 1.884 3.693l-.214.714a1 1 0 0 0 .015.618l.246.703a3 3 0 0 1-1.713 3.777l-.691.277a1 1 0 0 0-.475.397l-.396.631a3 3 0 0 1-4.02 1.016l-.648-.368a1 1 0 0 0-.606-.123l-.741.083a3 3 0 0 1-3.3-2.51l-.117-.736a1.001 1.001 0 0 0-.281-.551l-.528-.526a3 3 0 0 1-.095-4.146l.503-.55a1 1 0 0 0 .256-.563l.083-.741a3 3 0 0 1 3.18-2.66l.744.05c.211.014.421-.039.6-.151l.63-.397Zm2.419 1.97a1 1 0 0 0-1.354-.277l-.632.397a3 3 0 0 1-1.796.454l-.745-.05a1 1 0 0 0-1.06.887l-.083.74a2.998 2.998 0 0 1-.766 1.689l-.503.55a1 1 0 0 0 .032 1.382l.527.527a3.01 3.01 0 0 1 .843 1.652l.117.737a1 1 0 0 0 1.1.835l.74-.082a3.001 3.001 0 0 1 1.817.37l.65.368a1 1 0 0 0 1.34-.34l.396-.63a3 3 0 0 1 1.422-1.19l.692-.278a1 1 0 0 0 .57-1.258l-.246-.704a3 3 0 0 1-.043-1.853l.214-.714a1 1 0 0 0-.628-1.231l-.704-.247a3 3 0 0 1-1.475-1.122l-.425-.612Z" clip-rule="evenodd"/>
  <path fill-rule="evenodd" d="M12 2c5.523 0 10 4.477 10 10s-4.477 10-10 10S2 17.523 2 12 6.477 2 12 2Zm0 2a8 8 0 1 0 0 16 8 8 0 0 0 0-16Z" clip-rule="evenodd"/>
</svg>
