<svg xmlns="http://www.w3.org/2000/svg" width="24" height="24" fill="currentColor" viewBox="0 0 24 24">
  <path  d="M20 12a8 8 0 1 0-16 0 8 8 0 0 0 16 0Zm-8.7-6.932a3 3 0 0 1 4.062.83l.425.613a1 1 0 0 0 .491.374l.704.246a3 3 0 0 1 1.885 3.693l-.214.714a1 1 0 0 0 .014.618l.247.703a3 3 0 0 1-1.713 3.777l-.691.277a1.001 1.001 0 0 0-.475.397l-.396.631a3 3 0 0 1-4.02 1.016l-.65-.368a1 1 0 0 0-.605-.123l-.74.083a3 3 0 0 1-3.3-2.51l-.118-.736a1 1 0 0 0-.28-.551l-.528-.526a3 3 0 0 1-.095-4.146l.503-.55a1 1 0 0 0 .255-.563l.083-.741a3 3 0 0 1 3.181-2.66l.744.05a1 1 0 0 0 .599-.151l.632-.397Zm2.419 1.97a1 1 0 0 0-1.355-.277l-.63.397a3 3 0 0 1-1.798.454l-.745-.05a1 1 0 0 0-1.06.887l-.083.74a3 3 0 0 1-.766 1.689l-.503.55a1 1 0 0 0 .033 1.382l.527.528a3 3 0 0 1 .843 1.651l.117.737a1 1 0 0 0 1.1.835l.74-.082a3 3 0 0 1 1.817.37l.649.368a1 1 0 0 0 1.34-.34l.396-.63a3.002 3.002 0 0 1 1.423-1.19l.691-.278a1 1 0 0 0 .571-1.258l-.247-.704a3 3 0 0 1-.042-1.853l.214-.714a1 1 0 0 0-.628-1.231l-.704-.247a3 3 0 0 1-1.475-1.122l-.425-.612ZM13 12a1 1 0 1 0-2 0 1 1 0 0 0 2 0Zm2 0a3 3 0 1 1-6 0 3 3 0 0 1 6 0Zm7 0c0 5.523-4.477 10-10 10S2 17.523 2 12 6.477 2 12 2s10 4.477 10 10Z"/>
</svg>
