<svg xmlns="http://www.w3.org/2000/svg" width="24" height="24" fill="currentColor" viewBox="0 0 24 24">
  <path fill-rule="evenodd" d="m11.2 11.873 1.89.12.27.018.224.15 3.599 2.418-1.643 3.286h-4.072L8.77 13.817l1.66-1.655.32-.318.45.029Zm.144 2.201 1.194 1.791h1.766l.302-.607-1.914-1.286-1.17-.074-.178.176Z" clip-rule="evenodd"/>
  <path fill-rule="evenodd" d="M12 2c5.523 0 10 4.477 10 10s-4.477 10-10 10S2 17.523 2 12 6.477 2 12 2Zm1.8 6.932L9.777 9.943l-1.31 2.6-4.064-3.05a8 8 0 1 0 10.495-4.95l-1.096 4.389ZM12 4a7.992 7.992 0 0 0-6.717 3.655L7.755 9.51l.441-.874.205-.408 3.75-.944.807-3.225A8.078 8.078 0 0 0 12 4Z" clip-rule="evenodd"/>
</svg>
