<svg xmlns="http://www.w3.org/2000/svg" width="24" height="24" fill="currentColor" viewBox="0 0 24 24">
  <path  d="M20 12a8.001 8.001 0 0 0-5.102-7.457l-.81 3.242a1.974 1.974 0 0 1-1.433 1.435l-2.88.723-.248.495a1.973 1.973 0 0 1-2.946.69L4.402 9.494A8 8 0 1 0 20 12Zm-8.362-.1 1.19.077c.305.02.6.11.863.262l.112.07 1.94 1.302a1.974 1.974 0 0 1 .663 2.52l-.321.643a1.974 1.974 0 0 1-1.765 1.091h-1.797c-.66 0-1.275-.33-1.641-.879l-1.214-1.82a1.974 1.974 0 0 1 .249-2.492l.202-.202a1.97 1.97 0 0 1 1.308-.574l.21.002Zm-.294 2.174 1.194 1.791h1.766l.302-.607-1.914-1.286-1.17-.075-.178.177ZM12 4a7.993 7.993 0 0 0-6.717 3.654L7.755 9.51l.241-.477.106-.185c.27-.417.688-.718 1.174-.84l2.874-.724.808-3.225A8.078 8.078 0 0 0 12 4Zm10 8c0 5.523-4.477 10-10 10S2 17.523 2 12 6.477 2 12 2s10 4.477 10 10Z"/>
</svg>
