<svg xmlns="http://www.w3.org/2000/svg" width="24" height="24" fill="currentColor" viewBox="0 0 24 24">
  <path  d="M11.043 2.957a1 1 0 1 1 0 2h-6v14h14v-6a1 1 0 1 1 2 0v6a2 2 0 0 1-2 2h-14a2 2 0 0 1-2-2v-14a2 2 0 0 1 2-2h6Z"/>
  <path  fill-rule="evenodd" d="M16.879 2.707a2 2 0 0 1 2.828 0l1.586 1.586a2 2 0 0 1 0 2.828l-8.25 8.25a2 2 0 0 1-1.414.586H9.043a1 1 0 0 1-1-1v-2.586a2 2 0 0 1 .586-1.414l8.25-8.25Zm-6.836 9.664v1.586h1.586l8.25-8.25-1.586-1.586-8.25 8.25Z" clip-rule="evenodd"/>
</svg>
