<svg xmlns="http://www.w3.org/2000/svg" width="24" height="24" fill="currentColor" viewBox="0 0 24 24">
  <path  d="m17.5 12.294-5.12 2.328a.918.918 0 0 1-.76 0L6.5 12.294v3.236l5.5 2.946 5.5-2.946v-3.236ZM4.131 9.204 12 12.78l7.868-3.576L12 5.627 4.131 9.204ZM23 15.62a.917.917 0 0 1-1.833 0v-4.994l-1.834.834v4.07c0 .675-.372 1.296-.967 1.615l-5.5 2.947c-.541.29-1.191.29-1.732 0l-5.5-2.947a1.833 1.833 0 0 1-.967-1.616v-4.07l-3.13-1.422a.917.917 0 0 1 0-1.668L11.62 3.786a.918.918 0 0 1 .76 0L22.463 8.37a.917.917 0 0 1 .537.834v6.417Z"/>
</svg>
