<svg xmlns="http://www.w3.org/2000/svg" width="24" height="24" fill="currentColor" viewBox="0 0 24 24">
  <path fill-rule="evenodd" d="M17 15a3 3 0 1 1 0 6H7a3 3 0 1 1 0-6h10ZM7 17a1 1 0 1 0 0 2h10a1 1 0 1 0 0-2H7Zm5-15c.766 0 1.536.293 2.121.879l5 5a2.993 2.993 0 0 1 .706 3.116c-.018.05-.034.103-.055.153a3 3 0 0 1-.122.258c-.025.048-.055.093-.083.139-.023.038-.043.077-.068.114-.03.044-.063.086-.095.128-.026.035-.05.072-.079.107a3.042 3.042 0 0 1-.194.217l-.01.01A2.992 2.992 0 0 1 17 13H7a2.992 2.992 0 0 1-2.12-.88l-.001.001a3.023 3.023 0 0 1-.204-.228c-.028-.034-.053-.07-.08-.106-.031-.042-.065-.084-.094-.128-.025-.037-.046-.076-.068-.114-.028-.046-.058-.091-.083-.139a3.005 3.005 0 0 1-.122-.258c-.021-.05-.037-.102-.055-.153a2.993 2.993 0 0 1 .706-3.116l5-5A2.993 2.993 0 0 1 12 2Zm0 2a.993.993 0 0 0-.707.293l-5 5a.994.994 0 0 0-.217 1.09c.036.086.084.17.147.246l.067.075.071.066c.174.144.396.23.639.23h10a.994.994 0 0 0 .924-.617 1.002 1.002 0 0 0-.217-1.09l-5-5A.993.993 0 0 0 12 4Z" clip-rule="evenodd"/>
</svg>
