<svg xmlns="http://www.w3.org/2000/svg" width="24" height="24" fill="currentColor" viewBox="0 0 24 24">
  <path  d="m20 7.746-6.733 5.51a2 2 0 0 1-2.534 0L4 7.746V17.4c0 .297.001.46.01.576l.002.011.012.002c.117.01.28.011.576.011h14.8c.297 0 .46-.001.576-.01l.011-.003.002-.011c.01-.117.011-.28.011-.576V7.746Zm-8 3.962L18.977 6H5.023L12 11.708ZM22 17.4c0 .264.001.522-.017.739a2.02 2.02 0 0 1-.2.77 2 2 0 0 1-.875.873 2.02 2.02 0 0 1-.77.201c-.216.018-.474.017-.738.017H4.6c-.264 0-.522.001-.739-.017a2.021 2.021 0 0 1-.77-.2 2 2 0 0 1-.873-.875 2.022 2.022 0 0 1-.201-.77C1.999 17.923 2 17.665 2 17.4V6.6c0-.264-.001-.522.017-.739.018-.228.063-.498.2-.77a2 2 0 0 1 .875-.873c.271-.138.54-.183.77-.201C4.077 3.999 4.335 4 4.6 4h14.8c.264 0 .522-.001.739.017.228.018.498.063.77.2a2 2 0 0 1 .796.737l.077.138.087.203c.072.2.1.395.114.566.018.217.017.475.017.739v10.8Z"/>
</svg>
