<svg xmlns="http://www.w3.org/2000/svg" width="24" height="24" fill="currentColor" viewBox="0 0 24 24">
  <path  d="M4.8 14.25v4.5h5.4v-4.5H4.8Zm14.4-.9v-8.1H5.7v4.5a.9.9 0 1 1-1.8 0v-4.5a1.8 1.8 0 0 1 1.8-1.8h13.5a1.8 1.8 0 0 1 1.8 1.8v8.1a1.8 1.8 0 0 1-1.8 1.8h-4.5a.9.9 0 0 1 0-1.8h4.5Zm-7.2 5.4a1.8 1.8 0 0 1-1.8 1.8H4.8a1.8 1.8 0 0 1-1.8-1.8v-4.5a1.8 1.8 0 0 1 1.8-1.8h5.4a1.8 1.8 0 0 1 1.8 1.8v4.5Zm5.4-8.1a.9.9 0 0 1-1.8 0v-.527l-1.164 1.163a.9.9 0 1 1-1.272-1.272l1.163-1.164H13.8a.9.9 0 1 1 0-1.8h2.7a.9.9 0 0 1 .9.9v2.7Z"/>
</svg>
