<svg xmlns="http://www.w3.org/2000/svg" width="24" height="24" fill="currentColor" viewBox="0 0 24 24">
  <path fill-rule="evenodd" d="M15 6a3 3 0 1 1 0 6 3 3 0 0 1 0-6Zm0 2a1 1 0 1 0 0 2 1 1 0 0 0 0-2Z" clip-rule="evenodd"/>
  <path fill-rule="evenodd" d="M21 21H3V3h18v18ZM8.687 13.065a1 1 0 0 0-1.272-.16l-2.39 1.787-.025.019V19h14v-3.646c-1.12.701-2.394 1.1-4 1.1-2.81 0-4.796-1.755-6.313-3.389ZM5 12.213l1.246-.932.022-.016.022-.015a3 3 0 0 1 3.862.455c1.468 1.581 2.942 2.75 4.848 2.75 1.657 0 2.779-.527 3.87-1.5l.13-.117V5H5v7.213Z" clip-rule="evenodd"/>
</svg>
