<svg xmlns="http://www.w3.org/2000/svg" width="24" height="24" fill="currentColor" viewBox="0 0 24 24">
  <path d="m21.413 12.896-.684.728c-1.183 1.257-2.502 2.225-3.897 2.896l1.541 2.55-1.712 1.035-1.731-2.866c-.636.177-1.28.295-1.93.356V21h-2v-3.405a10.97 10.97 0 0 1-1.93-.356l-1.731 2.866-1.712-1.035 1.54-2.55c-1.395-.67-2.713-1.639-3.896-2.896l-.684-.729 1.456-1.37.686.728c2.153 2.29 4.736 3.39 7.271 3.39s5.118-1.1 7.271-3.39l.686-.728 1.456 1.37ZM12 3c3.142 0 6.237 1.37 8.729 4.019l.684.728-1.456 1.371-.686-.728C17.119 6.1 14.535 5 12 5S6.882 6.1 4.729 8.39l-.686.728-1.456-1.37.684-.728C5.763 4.37 8.858 3 12 3Z"/>
</svg>
