<svg xmlns="http://www.w3.org/2000/svg" width="24" height="24" fill="currentColor" viewBox="0 0 24 24">
  <path  fill-rule="evenodd" d="M2.293 2.293a1 1 0 0 1 1.414 0l18 18a1 1 0 1 1-1.414 1.414L17.2 18.614c-2.681 1.495-5.69 1.786-8.51.842-2.866-.96-5.461-3.166-7.319-6.514a1.943 1.943 0 0 1 0-1.883l.217-.382c.999-1.702 2.194-3.091 3.52-4.155L2.293 3.707a1 1 0 0 1 0-1.414Zm4.24 5.654c-1.262.97-2.428 2.314-3.397 4.052 1.653 2.966 3.877 4.786 6.19 5.56 2.098.703 4.327.565 6.392-.427l-1.688-1.688a4 4 0 0 1-5.476-5.476l-2.02-2.02Zm3.535 3.535a2 2 0 0 0 2.448 2.448l-2.448-2.448Z" clip-rule="evenodd"/>
  <path  d="M10.606 4.095c4.555-.623 9.166 1.814 12.024 6.964a1.94 1.94 0 0 1 0 1.882c-.471.85-.99 1.625-1.548 2.326a1 1 0 0 1-1.565-1.246c.48-.603.93-1.277 1.346-2.022-2.538-4.552-6.41-6.412-9.985-5.923a1 1 0 0 1-.272-1.981Z"/>
</svg>
