<svg xmlns="http://www.w3.org/2000/svg" width="24" height="24" fill="currentColor" viewBox="0 0 24 24">
  <path  d="M4.929 4.929c3.905-3.905 10.237-3.905 14.142 0 3.906 3.905 3.906 10.237 0 14.142-3.905 3.906-10.237 3.906-14.142 0-3.905-3.905-3.905-10.237 0-14.142Zm12.728 1.414A8 8 0 1 0 6.343 17.658 8 8 0 0 0 17.657 6.343Zm-9.194 8.122a5 5 0 0 1 7.071 0 1 1 0 0 1-1.414 1.414 3 3 0 0 0-4.243 0 1 1 0 0 1-1.414-1.414ZM9.25 8c.652 0 .973.503 1.072.7.128.256.178.54.178.8s-.05.544-.178.801c-.099.197-.42.7-1.072.7-.652 0-.973-.503-1.071-.7a1.805 1.805 0 0 1-.179-.8c0-.26.05-.545.179-.802C8.277 8.503 8.599 8 9.25 8Zm5.5 0c.652 0 .973.503 1.072.7.128.256.178.54.178.8s-.05.544-.178.801c-.099.197-.42.7-1.072.7-.652 0-.973-.503-1.071-.7a1.805 1.805 0 0 1-.179-.8c0-.26.05-.545.179-.802.098-.196.42-.699 1.071-.699Z"/>
</svg>
