<svg xmlns="http://www.w3.org/2000/svg" width="24" height="24" fill="currentColor" viewBox="0 0 24 24">
  <path d="M12 13.6c1.64-.013 3.278.76 4.284 2.02.114.14.218.282.317.43l-1.202.9a4.47 4.47 0 0 0-3.397-1.549A4.503 4.503 0 0 0 8.6 16.95l-1.2-.9c.1-.149.204-.29.318-.429C8.728 14.364 10.36 13.59 12 13.6ZM9.25 8c.828 0 1.5.796 1.5 1.9 0 1.105-.672 1.85-1.5 1.85s-1.5-.745-1.5-1.85c0-1.104.672-1.9 1.5-1.9Zm5.5 0c.828 0 1.5.796 1.5 1.9 0 1.105-.672 1.85-1.5 1.85s-1.5-.745-1.5-1.85c0-1.104.672-1.9 1.5-1.9Z"/>
  <path fill-rule="evenodd" d="M12 2c5.523 0 10 4.477 10 10s-4.477 10-10 10S2 17.523 2 12 6.477 2 12 2Zm0 2a8 8 0 1 0 0 16 8 8 0 0 0 0-16Z" clip-rule="evenodd"/>
</svg>
