<svg xmlns="http://www.w3.org/2000/svg" width="24" height="24" fill="currentColor" viewBox="0 0 24 24">
  <path  d="M15.447 14.053c.296-.027.555.206.514.5a4 4 0 0 1-7.924 0c-.04-.294.219-.527.514-.5a38.74 38.74 0 0 0 6.896 0Zm-5.709-6.46c.493.018.954.278 1.227.706.562.88.284 2.325-1.613 3.83a.258.258 0 0 1-.242.043c-2.298-.766-3.053-2.028-2.826-3.048.11-.495.455-.897.911-1.083a1.562 1.562 0 0 1 1.326.082 1.562 1.562 0 0 1 1.217-.53Zm4.524 0a1.56 1.56 0 0 1 1.217.53 1.56 1.56 0 0 1 1.326-.081c.456.186.8.587.91 1.082.228 1.02-.527 2.282-2.825 3.048a.258.258 0 0 1-.242-.042c-1.897-1.506-2.175-2.95-1.613-3.831a1.526 1.526 0 0 1 1.227-.706Z"/>
  <path  fill-rule="evenodd" d="M12 2c5.523 0 10 4.477 10 10s-4.477 10-10 10S2 17.523 2 12 6.477 2 12 2Zm0 2a8 8 0 1 0 0 16 8 8 0 0 0 0-16Z" clip-rule="evenodd"/>
</svg>
