<svg xmlns="http://www.w3.org/2000/svg" width="24" height="24" fill="currentColor" viewBox="0 0 24 24">
  <path  d="M10.89 2.062a1 1 0 0 1 .22 1.987 8 8 0 1 0 8.84 8.84 1 1 0 1 1 1.987.221 9.961 9.961 0 0 1-2.867 5.96c-3.905 3.905-10.236 3.905-14.141 0-3.905-3.904-3.905-10.236 0-14.14a9.962 9.962 0 0 1 5.96-2.868Zm3.23 12.059a1 1 0 0 1 1.414 1.414 4.999 4.999 0 0 1-7.07 0A1 1 0 1 1 9.88 14.12a3 3 0 0 0 4.241 0ZM9.25 8c.651 0 .973.502 1.07.698.13.257.18.541.18.801s-.05.544-.18.8c-.098.197-.419.7-1.07.7-.652 0-.973-.502-1.072-.7A1.805 1.805 0 0 1 8 9.5c0-.26.05-.544.178-.8.099-.197.42-.7 1.072-.7Zm5.5 0c.651 0 .972.502 1.07.698.129.257.18.541.18.801s-.051.544-.18.8c-.098.197-.419.7-1.07.7-.653 0-.974-.502-1.072-.7a1.805 1.805 0 0 1-.179-.8c0-.26.05-.544.18-.8.097-.197.418-.7 1.07-.7Zm3.249 0V6h-2a1 1 0 1 1 0-2h2V2a1 1 0 0 1 2 0v2h2a1 1 0 1 1 0 2h-2v2a1 1 0 0 1-2 0Z"/>
</svg>
