<svg xmlns="http://www.w3.org/2000/svg" width="24" height="24" fill="currentColor" viewBox="0 0 24 24">
  <path  d="M3 19v-3a1 1 0 1 1 2 0v3h3a1 1 0 1 1 0 2H5a2 2 0 0 1-2-2Zm16 0v-3a1 1 0 1 1 2 0v3a2 2 0 0 1-2 2h-3a1 1 0 1 1 0-2h3Zm-4.501-4.168a1 1 0 0 1 1.002 1.73A6.974 6.974 0 0 1 12 17.5a6.974 6.974 0 0 1-3.501-.938 1 1 0 0 1 1.002-1.73A4.972 4.972 0 0 0 12 15.5a4.97 4.97 0 0 0 2.499-.668ZM11.5 11V8.75a1 1 0 1 1 2 0V11a3 3 0 0 1-2.251 2.905 1 1 0 1 1-.498-1.936c.431-.111.749-.505.749-.969ZM7 10V9a1 1 0 0 1 2 0v1a1 1 0 1 1-2 0Zm8 0V9a1 1 0 1 1 2 0v1a1 1 0 1 1-2 0ZM3 8V5a2 2 0 0 1 2-2h3a1 1 0 0 1 0 2H5v3a1 1 0 0 1-2 0Zm16 0V5h-3a1 1 0 1 1 0-2h3a2 2 0 0 1 2 2v3a1 1 0 1 1-2 0Z"/>
</svg>
