<svg xmlns="http://www.w3.org/2000/svg" width="24" height="24" fill="currentColor" viewBox="0 0 24 24">
  <path d="M12 4a8 8 0 1 0 8 8h2c0 5.523-4.477 10-10 10S2 17.523 2 12 6.477 2 12 2v2Z"/>
  <path d="M8.688 13.453c.067.13.137.248.214.367.683 1.058 1.875 1.658 3.1 1.655 1.225.006 2.417-.593 3.096-1.652.077-.119.145-.238.212-.367l1.38.588c-.07.188-.146.365-.237.545-.789 1.628-2.629 2.714-4.452 2.686-1.824.024-3.658-1.061-4.451-2.685a5.094 5.094 0 0 1-.238-.543l1.376-.594ZM9.25 8c.828 0 1.5.796 1.5 1.9 0 1.105-.672 1.85-1.5 1.85s-1.5-.745-1.5-1.85c0-1.104.672-1.9 1.5-1.9Zm5.5 0c.828 0 1.5.796 1.5 1.9 0 1.105-.672 1.85-1.5 1.85s-1.5-.745-1.5-1.85c0-1.104.672-1.9 1.5-1.9ZM20 4h3v2h-3v3h-2V6h-3V4h3V1h2v3Z"/>
</svg>
