<svg xmlns="http://www.w3.org/2000/svg" width="24" height="24" fill="currentColor" viewBox="0 0 24 24">
  <path  d="M4.929 4.929c3.905-3.905 10.237-3.905 14.142 0 3.906 3.905 3.906 10.237 0 14.142-3.905 3.906-10.237 3.906-14.142 0-3.905-3.905-3.905-10.237 0-14.142Zm12.728 1.414A8 8 0 1 0 6.343 17.658 8 8 0 0 0 17.657 6.343Zm-3.536 7.778a1 1 0 0 1 1.414 1.414 5 5 0 0 1-7.07 0 1 1 0 1 1 1.414-1.414 3 3 0 0 0 4.242 0Zm-4.87-6.12c.651 0 .972.502 1.07.698.129.257.18.542.18.801 0 .26-.051.544-.18.801-.098.197-.419.7-1.07.7-.653 0-.974-.503-1.072-.7a1.805 1.805 0 0 1-.179-.8c0-.26.05-.545.179-.802C8.277 8.503 8.599 8 9.25 8Zm5.5 0c.651 0 .972.502 1.07.698.129.257.18.542.18.801 0 .26-.051.544-.18.801-.098.197-.419.7-1.07.7-.653 0-.974-.503-1.072-.7a1.805 1.805 0 0 1-.179-.8c0-.26.05-.545.179-.802.098-.196.42-.699 1.071-.699Z"/>
</svg>
