<svg xmlns="http://www.w3.org/2000/svg" width="24" height="24" fill="currentColor" viewBox="0 0 24 24">
  <path d="M10.414 16 5 21.414 3.586 20 9 14.586 10.414 16Zm7 0L12 21.414 10.586 20 16 14.586 17.414 16Zm-9-5L3 16.414 1.586 15 7 9.586 8.414 11Z"/>
  <path fill-rule="evenodd" d="m18.113 4.403 4.938 1.144-3.323 3.826.439 5.05-4.667-1.978-4.667 1.978.438-5.049L7.95 5.547l4.937-1.144L15.5.061l2.613 4.342Zm-3.95 1.757-2.525.585 1.422 1.638.277.32-.036.422-.188 2.16 2.387-1.01 2.386 1.01-.223-2.582.277-.32 1.421-1.638-2.524-.585L15.5 3.938 14.163 6.16Z" clip-rule="evenodd"/>
</svg>
