<svg xmlns="http://www.w3.org/2000/svg" width="24" height="24" fill="currentColor" viewBox="0 0 24 24">
  <path  fill-rule="evenodd" d="M14.172 2c.176 0 .35.018.52.048a1 1 0 0 1 1.196.494c.143.1.28.212.405.337l3.828 3.828a3 3 0 0 1 .336.404 1 1 0 0 1 .494 1.196c.03.17.049.345.049.521V17a2 2 0 0 1-2 2h-1v1a2 2 0 0 1-2 2H6a2 2 0 0 1-2-2V7a2 2 0 0 1 2-2h1V4a2 2 0 0 1 2-2h5.172ZM6 20h10v-1H9a2 2 0 0 1-2-2V7H6v13Zm3-3h10V9h-3a2 2 0 0 1-2-2V4H9v13Zm7-10h1.586L16 5.414V7Z" clip-rule="evenodd"/>
</svg>
