<svg xmlns="http://www.w3.org/2000/svg" width="24" height="24" fill="currentColor" viewBox="0 0 24 24">
  <path d="m17.387 15.777-.832.555C14.98 17.382 13.534 18 12 18c-1.534 0-2.98-.619-4.555-1.668l-.832-.555 1.11-1.664.832.555C9.98 15.618 11.034 16 12 16c.966 0 2.02-.381 3.445-1.332l.832-.555 1.11 1.664ZM9 11H7V8h2v3Zm8 0h-2V8h2v3Z"/>
  <path fill-rule="evenodd" d="M21 21H3V3h18v18ZM5 19h14V5h-5.536a44.809 44.809 0 0 0-1.142 7h1.928v2h-4.06l.062-1.058A46.604 46.604 0 0 1 11.409 5H5v14Z" clip-rule="evenodd"/>
</svg>
