<svg xmlns="http://www.w3.org/2000/svg" width="24" height="24" fill="currentColor" viewBox="0 0 24 24">
  <path  d="M13.465 5a44.815 44.815 0 0 0-1.142 7h.927a1 1 0 1 1 0 2h-2a1 1 0 0 1-.998-1.058A46.658 46.658 0 0 1 11.407 5H5v14h14V5h-5.535Zm1.98 9.668a1 1 0 1 1 1.11 1.664C14.98 17.382 13.534 18 12 18c-1.534 0-2.98-.619-4.555-1.668a1 1 0 1 1 1.11-1.664C9.98 15.618 11.034 16 12 16c.966 0 2.02-.381 3.445-1.332ZM7 10V9a1 1 0 0 1 2 0v1a1 1 0 1 1-2 0Zm8 0V9a1 1 0 1 1 2 0v1a1 1 0 1 1-2 0Zm6 9a2 2 0 0 1-2 2H5a2 2 0 0 1-2-2V5a2 2 0 0 1 2-2h14a2 2 0 0 1 2 2v14Z"/>
</svg>
