<svg xmlns="http://www.w3.org/2000/svg" width="24" height="24" fill="currentColor" viewBox="0 0 24 24">
  <path fill-rule="evenodd" d="M12.48 1.623 12 2.5l.481-.876.003.001.007.004.022.012a7.087 7.087 0 0 1 .335.199 19.774 19.774 0 0 1 3.62 2.92c1.967 2.024 4.032 5.089 4.032 9.053 0 2.68-1.061 4.758-2.695 6.15C16.192 21.337 14.077 21.999 12 22c-.07 0-.14-.002-.21-.005-2.01-.043-4.037-.702-5.595-2.03-1.634-1.39-2.695-3.468-2.695-6.151 0-3.964 2.065-7.03 4.033-9.053a19.775 19.775 0 0 1 2.717-2.32 17.25 17.25 0 0 1 1.164-.757l.073-.042.022-.012.007-.004.002-.001c.002.004.036.062.449.815l-.447-.816.48-.264.48.264ZM12 12.969a8 8 0 0 0-1.01.931c-.781.862-1.49 2.046-1.49 3.506 0 .937.333 1.56.768 1.957.451.412 1.077.637 1.732.637s1.28-.225 1.732-.638c.436-.397.768-1.021.768-1.956 0-1.46-.709-2.644-1.49-3.506a7.944 7.944 0 0 0-1.01-.93Zm0-9.298a17.767 17.767 0 0 0-3.033 2.482C7.185 7.986 5.5 10.578 5.5 13.813c0 2.11.814 3.627 1.992 4.63.042.036.086.07.13.104a5.329 5.329 0 0 1-.122-1.14c0-2.14 1.042-3.784 2.01-4.85a9.953 9.953 0 0 1 1.788-1.546c.056-.037.101-.066.135-.086l.04-.025.012-.007.005-.003.002-.001s.001-.001.508.861l-.507-.862.507-.298.507.298-.507.862.508-.861h.002l.005.004.012.007.04.025a8.643 8.643 0 0 1 .584.406c.365.277.851.688 1.34 1.226.968 1.066 2.009 2.71 2.009 4.85 0 .4-.043.78-.121 1.136.043-.034.087-.067.129-.103 1.178-1.004 1.992-2.52 1.992-4.628 0-3.234-1.685-5.826-3.467-7.659A17.769 17.769 0 0 0 12 3.671Z" clip-rule="evenodd"/>
</svg>
