<svg xmlns="http://www.w3.org/2000/svg" width="24" height="24" fill="currentColor" viewBox="0 0 24 24">
  <path  d="M14.5 17.406c0-1.46-.709-2.644-1.49-3.506a7.951 7.951 0 0 0-1.01-.93 8 8 0 0 0-1.01.931c-.781.862-1.49 2.046-1.49 3.506 0 .936.333 1.56.768 1.957.451.412 1.077.637 1.732.637s1.28-.225 1.732-.638c.436-.397.768-1.021.768-1.956Zm2 0c0 .402-.043.78-.121 1.137.043-.034.087-.067.129-.103 1.178-1.004 1.992-2.52 1.992-4.628 0-3.234-1.685-5.826-3.467-7.659A17.768 17.768 0 0 0 12 3.671a17.767 17.767 0 0 0-3.033 2.482C7.185 7.986 5.5 10.578 5.5 13.813c0 2.11.814 3.627 1.992 4.63.042.036.086.07.13.104a5.33 5.33 0 0 1-.122-1.14c0-2.14 1.042-3.784 2.01-4.85a9.955 9.955 0 0 1 1.788-1.546c.056-.037.101-.066.135-.086l.04-.025a4.056 4.056 0 0 0 .017-.01l.002-.001s.001-.001.466.79l-.465-.791a1 1 0 0 1 1.014 0L12 11.75l.508-.861h.002a.293.293 0 0 0 .017.011l.04.025a8.63 8.63 0 0 1 .584.406c.365.277.851.688 1.34 1.226.968 1.066 2.009 2.71 2.009 4.85Zm4-3.593c0 2.68-1.061 4.758-2.695 6.15-1.512 1.288-3.466 1.95-5.415 2.03L12 22l-.205-.004h-.005c-2.009-.043-4.036-.703-5.595-2.03-1.634-1.392-2.695-3.47-2.695-6.154 0-3.963 2.065-7.028 4.033-9.052a19.775 19.775 0 0 1 2.717-2.32 17.236 17.236 0 0 1 1.164-.757l.073-.042.022-.012.007-.004.002-.001c.002.004.036.062.449.815l-.447-.816a1 1 0 0 1 .96 0L12 2.5l.481-.876h.003l.007.005.022.012a7.052 7.052 0 0 1 .335.199 19.773 19.773 0 0 1 3.62 2.92c1.967 2.024 4.032 5.089 4.032 9.053Z"/>
</svg>
