<svg xmlns="http://www.w3.org/2000/svg" width="24" height="24" fill="currentColor" viewBox="0 0 24 24">
  <path fill-rule="evenodd" d="m12.996 2.132.004.002c.002 0 .004.002.006.004l.02.01.068.041a17.485 17.485 0 0 1 1.085.723c.69.498 1.611 1.23 2.536 2.175 1.83 1.868 3.785 4.68 3.785 8.208C20.5 18.077 16.72 22 12 22c-4.72 0-8.5-3.923-8.5-8.705 0-2.29 1.109-5.318 3.293-7.502l.707-.707L8.864 6.45l3.34-4.771.792.453ZM12 14.222a7.073 7.073 0 0 0-.773.703c-.67.709-1.227 1.618-1.227 2.65C10 19.043 11.016 20 12 20s2-.957 2-2.425c0-1.032-.557-1.941-1.227-2.65a7.073 7.073 0 0 0-.773-.702ZM9.136 9.55 7.54 7.955c-1.367 1.716-2.04 3.82-2.041 5.34a6.756 6.756 0 0 0 2.629 5.386A4.832 4.832 0 0 1 8 17.575c0-1.765.943-3.144 1.773-4.023a9.157 9.157 0 0 1 1.547-1.305l.117-.075.035-.022.011-.006.006-.003.001-.001.51-.302.51.302.007.004.011.006.034.022a8.06 8.06 0 0 1 .505.349 9.16 9.16 0 0 1 1.16 1.03c.83.88 1.773 2.26 1.773 4.024 0 .377-.046.748-.13 1.106a6.755 6.755 0 0 0 2.63-5.386c0-2.768-1.544-5.103-3.215-6.809a17.816 17.816 0 0 0-2.276-1.952c-.085-.061-.168-.117-.244-.17L9.135 9.55Z" clip-rule="evenodd"/>
</svg>
