<svg xmlns="http://www.w3.org/2000/svg" width="24" height="24" fill="currentColor" viewBox="0 0 24 24">
  <path  fill-rule="evenodd" d="M12.002 3a1 1 0 0 1 1 1v2a1 1 0 1 1-2 0V4a1 1 0 0 1 1-1Zm5.79 2.106a1 1 0 0 1 .124 1.408L16.63 8.046a1 1 0 1 1-1.532-1.285l1.286-1.532a1 1 0 0 1 1.408-.123Zm-11.572 0a1 1 0 0 1 1.41.123L8.914 6.76a1 1 0 1 1-1.532 1.285L6.097 6.514a1 1 0 0 1 .123-1.408ZM4.83 9.262a3.162 3.162 0 0 1 2.52.436l.46.307a4 4 0 0 1 3.76 4.491l-.25 2A4 4 0 0 1 7.353 20H2a1 1 0 1 1 0-2h5.352a2 2 0 0 0 1.984-1.752l.25-2A2 2 0 0 0 7.602 12H7.5a1 1 0 0 1-.555-.168l-.704-.47a1.161 1.161 0 0 0-1.723.536l-.59 1.473a1 1 0 0 1-.928.63H2a1 1 0 1 1 0-2h.323l.338-.846A3.162 3.162 0 0 1 4.83 9.262Zm13.856 1.94a1.161 1.161 0 0 0-.926.16l-.705.47A1 1 0 0 1 16.5 12h-.1a2 2 0 0 0-1.985 2.248l.25 2A2 2 0 0 0 16.65 18H22a1 1 0 1 1 0 2h-5.35a4 4 0 0 1-3.97-3.504l-.25-2a4 4 0 0 1 3.76-4.49l.461-.308a3.162 3.162 0 0 1 4.69 1.457l.338.845H22a1 1 0 1 1 0 2h-1a1 1 0 0 1-.928-.629l-.59-1.473a1.162 1.162 0 0 0-.796-.696Z" clip-rule="evenodd"/>
</svg>
