<svg xmlns="http://www.w3.org/2000/svg" width="24" height="24" fill="currentColor" viewBox="0 0 24 24">
  <path  d="M18 5.477a.152.152 0 0 0-.045-.042.324.324 0 0 0-.242-.045c-2.39.561-4.572-.17-6.412-.683-1.89-.528-3.517-.874-5.301-.19v8.897c2.232-.617 4.246-.083 6.02.417 2.188.616 3.972 1.15 5.98.38V5.476Zm2 8.769c0 .74-.421 1.493-1.198 1.801-2.765 1.097-5.24.297-7.325-.29-1.954-.551-3.632-.947-5.477-.238v5.346a1 1 0 0 1-2 0V4.484c0-.741.421-1.495 1.198-1.803l.232-.088c2.388-.862 4.537-.336 6.408.187 2.002.56 3.633 1.082 5.418.663a2.322 2.322 0 0 1 1.815.333c.518.349.929.947.929 1.703v8.767Z"/>
</svg>
