<svg xmlns="http://www.w3.org/2000/svg" width="24" height="24" fill="currentColor" viewBox="0 0 24 24">
  <path  d="M7.04 16.045a4.111 4.111 0 0 0 3.962 3.964 4.111 4.111 0 0 0-3.963-3.964Zm9.92 0a4.112 4.112 0 0 0-3.963 3.964 4.11 4.11 0 0 0 3.963-3.964Zm-.988-10.7-.584.233a1.987 1.987 0 0 1-1.978-.294L12 4.157l-1.41 1.127a1.987 1.987 0 0 1-1.978.294l-.584-.234v2.754a3.972 3.972 0 0 0 7.944 0V5.344Zm1.986 2.753a5.958 5.958 0 0 1-4.965 5.874v1.68a6.077 6.077 0 0 1 4.114-1.596h.08c.97.013 1.75.793 1.763 1.763v.08a6.098 6.098 0 0 1-5.957 6.096V22h-1.986v-.005A6.098 6.098 0 0 1 5.05 15.9l.001-.08a1.785 1.785 0 0 1 1.763-1.764h.08c1.586 0 3.03.605 4.114 1.596v-1.68a5.958 5.958 0 0 1-4.965-5.874V4.432c0-.908.86-1.546 1.708-1.326l.169.056 1.43.572 1.41-1.128a1.985 1.985 0 0 1 2.481 0l1.411 1.128 1.43-.572.17-.056a1.369 1.369 0 0 1 1.707 1.326v3.666Z"/>
</svg>
