<svg xmlns="http://www.w3.org/2000/svg" width="24" height="24" fill="currentColor" viewBox="0 0 24 24">
  <path  d="M6 16c1.76 0 3.306.91 4.196 2.28a1.69 1.69 0 0 1-.024 1.906A1.928 1.928 0 0 1 8.584 21H3.416c-.644 0-1.238-.31-1.587-.814a1.689 1.689 0 0 1-.024-1.907A4.997 4.997 0 0 1 6 16Zm0 2a2.99 2.99 0 0 0-2.234 1h4.468A2.99 2.99 0 0 0 6 18Zm.75-5.5a.75.75 0 1 0-1.5 0 .75.75 0 0 0 1.5 0ZM2 7V5a2 2 0 0 1 2-2h5.465l.125.004a2 2 0 0 1 1.539.887L12.535 6H20a2 2 0 0 1 2 2v10a2 2 0 0 1-2 2h-6a1 1 0 0 1 0-2h6V8h-7.465a2 2 0 0 1-1.664-.89L9.465 5H4v2a1 1 0 1 1-2 0Zm6.75 5.5a2.75 2.75 0 1 1-5.5 0 2.75 2.75 0 0 1 5.5 0Z"/>
</svg>
