<svg xmlns="http://www.w3.org/2000/svg" width="24" height="24" fill="currentColor" viewBox="0 0 24 24">
  <path fill-rule="evenodd" d="M23.505 12 12 22.227v-5.718c-3.59.057-5.51.427-6.678 1.01-1.18.59-1.682 1.437-2.427 2.928L1 20c0-4.284.615-7.507 2.581-9.62C5.409 8.419 8.201 7.629 12 7.517V1.773L23.505 12ZM14 9.5h-1c-4.187 0-6.566.751-7.956 2.244-.973 1.045-1.577 2.574-1.857 4.809a5.99 5.99 0 0 1 1.24-.823c1.73-.864 4.315-1.23 8.573-1.23h1v3.273L20.495 12 14 6.226V9.5Z" clip-rule="evenodd"/>
</svg>
