<svg xmlns="http://www.w3.org/2000/svg" width="24" height="24" fill="currentColor" viewBox="0 0 24 24">
  <path  d="M11.994 4.639c0-1.306 1.553-1.988 2.514-1.105l8.011 7.362a1.5 1.5 0 0 1 0 2.208l-8.01 7.362c-.962.883-2.515.201-2.515-1.105v-2.853c-3.418.054-5.326.392-6.513.932-1.196.545-1.733 1.325-2.406 2.637-.558 1.088-2.09.584-2.08-.515l.016-.762c.115-3.754.808-6.612 2.664-8.525 1.83-1.886 4.589-2.649 8.319-2.76V4.64Zm2 3.861a1 1 0 0 1-1 1c-4.115 0-6.484.726-7.883 2.168-1.014 1.045-1.64 2.59-1.929 4.88a6.116 6.116 0 0 1 1.47-.928c1.722-.783 4.262-1.12 8.342-1.12a1 1 0 0 1 1 1v2.722L20.765 12l-6.771-6.223V8.5Z"/>
</svg>
