<svg xmlns="http://www.w3.org/2000/svg" width="24" height="24" fill="currentColor" viewBox="0 0 24 24">
  <path fill-rule="evenodd" d="M14.756 12.184c2.21 0 3.403 1.682 3.403 4.202v.552c0 2.342-1.136 4.221-3.447 4.221-2.202 0-3.402-1.72-3.402-4.221v-.552c0-2.501 1.257-4.202 3.446-4.202Zm-.018 1.675c-.794 0-1.327.806-1.327 2.533v.54c0 1.726.533 2.55 1.327 2.55.787 0 1.327-.837 1.327-2.55v-.54c0-1.714-.54-2.533-1.327-2.533Z" clip-rule="evenodd"/>
  <path d="M10.002 21H7.927v-6.754h-.089c-.57.374-1.333.864-1.955 1.295v-1.847a46.43 46.43 0 0 1 2.07-1.358h2.05V21Zm2-18a8.982 8.982 0 0 1 7 3.344V4h2v6h-6V8h2.745a7.004 7.004 0 0 0-12.524 2.249l-1.937-.498C4.285 5.869 7.807 3 12.002 3Z"/>
</svg>
