<svg xmlns="http://www.w3.org/2000/svg" width="24" height="24" fill="currentColor" viewBox="0 0 24 24">
  <path fill-rule="evenodd" d="m22.413 5.999-3.999 4.008c1.217 1.52 2.132 3.094 2.52 4.575.455 1.739.2 3.492-1.309 4.7-1.212.968-2.574.837-3.661.388-1.058-.437-1.997-1.219-2.64-1.84l-.72-.696 1.39-1.439.718.696c.58.56 1.304 1.136 2.016 1.43.683.282 1.2.255 1.647-.102.705-.565.948-1.396.624-2.631-.28-1.07-.97-2.328-2.008-3.654L14.433 14H10V9.586l2.317-2.318c-2.864-1.535-5.589-1.389-7.013.036-.968.967-1.35 2.495-1.007 4.326.342 1.825 1.397 3.842 3.128 5.573 2.049 2.049 3.925 2.604 4.818 2.827l.97.242-.485 1.94-.97-.241c-1.107-.277-3.357-.964-5.747-3.354-1.979-1.979-3.254-4.35-3.68-6.619C1.907 9.734 2.32 7.46 3.89 5.89c2.448-2.449 6.512-2.094 9.895-.09L18 1.587 22.413 6ZM12 10.414V12h1.603l5.983-6L18 4.414l-6 6Z" clip-rule="evenodd"/>
</svg>
