<svg xmlns="http://www.w3.org/2000/svg" width="24" height="24" fill="currentColor" viewBox="0 0 24 24">
  <path  d="M21.021 12.918a1 1 0 0 1 1.957.413c-.452 2.138-1.887 3.615-3.66 4.51-1.757.888-3.889 1.234-5.925 1.145-2.033-.089-4.069-.616-5.63-1.582C6.193 16.434 5 14.941 5 12.962c0-1.168.552-2.09 1.317-2.741.746-.635 1.706-1.032 2.647-1.243.945-.211 1.945-.252 2.822-.112.832.133 1.762.465 2.303 1.196.402.545.335 1.167.088 1.605a1.884 1.884 0 0 1-.988.82l-.921.338c.08.019.166.038.261.053.604.096 1.348.073 2.07-.089.727-.163 1.358-.449 1.787-.813.409-.349.614-.746.614-1.22 0-1.007-.568-1.886-1.676-2.573-1.12-.696-2.703-1.124-4.417-1.177-3.503-.108-6.927 1.326-7.964 4.267a1 1 0 1 1-1.886-.665c1.463-4.153 6.039-5.72 9.91-5.601 1.974.06 3.923.552 5.412 1.476 1.5.932 2.62 2.372 2.62 4.274 0 1.168-.551 2.09-1.316 2.741-.746.635-1.707 1.032-2.647 1.242-.945.212-1.945.253-2.822.112-.832-.133-1.763-.465-2.303-1.197-.402-.544-.335-1.165-.088-1.603.225-.399.6-.679.987-.82l.921-.34a3.604 3.604 0 0 0-.26-.051c-.604-.097-1.348-.073-2.07.089-.728.162-1.359.449-1.787.813-.409.348-.614.745-.614 1.219 0 1.065.619 2.001 1.815 2.741 1.205.745 2.887 1.207 4.666 1.285 1.777.078 3.551-.234 4.935-.932 1.367-.69 2.307-1.728 2.605-3.138Z"/>
</svg>
