<svg xmlns="http://www.w3.org/2000/svg" width="24" height="24" fill="currentColor" viewBox="0 0 24 24">
  <path d="M8.368 9.25c.391 0 .73.056 1.016.168a2 2 0 0 1 .713.444c.186.185.324.392.414.62.092.227.137.457.137.69H9.096a.654.654 0 0 0-.065-.225.617.617 0 0 0-.142-.195.648.648 0 0 0-.226-.14.866.866 0 0 0-.307-.052c-.268 0-.47.1-.609.297-.135.195-.203.477-.203.846v.563c0 .197.021.386.064.565a.89.89 0 0 0 .253.44c.123.112.302.168.537.168a.811.811 0 0 0 .418-.097.643.643 0 0 0 .327-.546v-.063H8.49v-1.085h2.158v1c0 .26-.041.516-.125.768-.082.25-.214.475-.395.675-.182.2-.42.36-.714.48-.291.119-.645.179-1.061.179-.44 0-.816-.067-1.127-.2a2.029 2.029 0 0 1-.756-.549 2.246 2.246 0 0 1-.422-.792 3.25 3.25 0 0 1-.134-.936v-.59c0-.465.092-.88.276-1.248.187-.366.462-.654.825-.865.365-.213.816-.32 1.353-.32Zm4.754 5.41h-1.61V9.336h1.61v5.324Zm4.792-4.045h-2.108v.976h1.905v1.232h-1.905v1.837h-1.61V9.336h3.718v1.28Z"/>
  <path fill-rule="evenodd" d="M21 21H3V3h18v18ZM5 19h14V5H5v14Z" clip-rule="evenodd"/>
</svg>
