<svg xmlns="http://www.w3.org/2000/svg" width="24" height="24" fill="currentColor" viewBox="0 0 24 24">
  <path  d="M18 13h-5v6h5v-6Zm-7 6v-6H6v6h5Zm2-10v2h6V9h-6Zm-8 2h6V9H5v2Zm11-6.333A.667.667 0 0 0 15.333 4 2.333 2.333 0 0 0 13 6.333V7h.667A2.333 2.333 0 0 0 16 4.667Zm-8 0A2.333 2.333 0 0 0 10.333 7H11v-.667A2.333 2.333 0 0 0 8.667 4 .667.667 0 0 0 8 4.667Zm10 0c0 .86-.251 1.66-.683 2.333H19a2 2 0 0 1 2 2v2c0 .74-.403 1.383-1 1.73V19a2 2 0 0 1-2 2H6a2 2 0 0 1-2-2v-6.27c-.597-.347-1-.99-1-1.73V9a2 2 0 0 1 2-2h1.683A4.312 4.312 0 0 1 6 4.667 2.667 2.667 0 0 1 8.667 2c1.34 0 2.538.609 3.333 1.564A4.324 4.324 0 0 1 15.333 2 2.667 2.667 0 0 1 18 4.667Z"/>
</svg>
