<svg xmlns="http://www.w3.org/2000/svg" width="24" height="24" fill="currentColor" viewBox="0 0 24 24">
  <path fill-rule="evenodd" d="M15.333 2A2.667 2.667 0 0 1 18 4.667c0 .86-.251 1.66-.683 2.333H21v6h-1v8H4v-8H3V7h3.683A4.312 4.312 0 0 1 6 4.667 2.667 2.667 0 0 1 8.667 2c1.34 0 2.538.609 3.333 1.564A4.324 4.324 0 0 1 15.333 2ZM6 19h5v-6H6v6Zm7 0h5v-6h-5v6Zm-8-8h6V9H5v2Zm8 0h6V9h-6v2ZM8.667 4A.667.667 0 0 0 8 4.667 2.333 2.333 0 0 0 10.333 7H11v-.667A2.333 2.333 0 0 0 8.667 4Zm6.666 0A2.333 2.333 0 0 0 13 6.333V7h.667A2.333 2.333 0 0 0 16 4.667.667.667 0 0 0 15.333 4Z" clip-rule="evenodd"/>
</svg>
