<svg xmlns="http://www.w3.org/2000/svg" width="24" height="24" fill="currentColor" viewBox="0 0 24 24">
  <path  d="M19 13h-4.98a12.068 12.068 0 0 0 2.522 2.16 1 1 0 1 1-1.084 1.68A14.111 14.111 0 0 1 13 14.838V19h6v-6Zm-8 6v-4.162a14.112 14.112 0 0 1-2.458 2.002 1 1 0 1 1-1.084-1.68A12.07 12.07 0 0 0 9.98 13H5v6h6Zm4-9.667A.333.333 0 0 0 14.667 9C13.747 9 13 9.746 13 10.667V11h.333c.92 0 1.667-.746 1.667-1.667Zm-6 0c0 .92.746 1.667 1.667 1.667H11v-.333l-.009-.17A1.667 1.667 0 0 0 9.333 9 .333.333 0 0 0 9 9.333Zm8 0c0 .6-.145 1.167-.4 1.667H19V5h-6v2.4a3.66 3.66 0 0 1 1.667-.4A2.333 2.333 0 0 1 17 9.333ZM5 11h2.4A3.66 3.66 0 0 1 7 9.333 2.333 2.333 0 0 1 9.333 7c.6 0 1.167.145 1.667.4V5H5v6Zm16 8a2 2 0 0 1-2 2H5a2 2 0 0 1-2-2V5a2 2 0 0 1 2-2h14a2 2 0 0 1 2 2v14Z"/>
</svg>
