<svg xmlns="http://www.w3.org/2000/svg" width="24" height="24" fill="currentColor" viewBox="0 0 24 24">
  <path fill-rule="evenodd" d="M6.374 3.42c1.459-.87 3.309-.34 4.13 1.132l1.508 2.7 3.47-2.07c1.94-1.158 4.405-.456 5.505 1.512l.919 1.645c2.247 4.022.926 9.18-2.999 11.522a8.009 8.009 0 0 1-8.507-.171l-5.983-3.9.275-1.868c.206-1.394 1.313-2.46 2.66-2.604L5.276 7.605c-.812-1.453-.342-3.326 1.097-4.185Zm2.385 2.107c-.289-.516-.897-.666-1.36-.389-.484.289-.674.957-.376 1.491l4.019 7.194-3.226-.508c-.518-.082-1.055.284-1.145.898l-.09.6 4.91 3.201.184.115a6.007 6.007 0 0 0 6.208.015c2.97-1.772 4.01-5.726 2.277-8.83l-.92-1.644c-.566-1.013-1.79-1.333-2.734-.77l-5.236 3.125-2.51-4.498Z" clip-rule="evenodd"/>
  <path d="m3.793 7.178-.36.933c-.577 1.492-.578 2.787 0 4.279l.36.933-1.866.72-.36-.932c-.756-1.957-.756-3.765 0-5.721l.36-.933 1.866.721Z"/>
</svg>
