<svg xmlns="http://www.w3.org/2000/svg" width="24" height="24" fill="currentColor" viewBox="0 0 24 24">
  <path fill-rule="evenodd" d="M10.25 2c.973 0 1.827.507 2.315 1.27A2.75 2.75 0 0 1 16.5 5.75v1.542A3.98 3.98 0 0 1 18 7h2v7a8 8 0 1 1-16 0V6.75a2.75 2.75 0 0 1 3.573-2.624A2.75 2.75 0 0 1 10.25 2Zm0 2a.75.75 0 0 0-.75.75V11h-2V6.75a.75.75 0 1 0-1.5 0V14a6 6 0 0 0 12 0V9a2 2 0 0 0-2 2v2.22l-1.313.438A2.469 2.469 0 0 0 13 16v1h-2v-1a4.467 4.467 0 0 1 3-4.219V11c0-.703.182-1.363.5-1.938V5.75a.75.75 0 0 0-1.5 0V10h-2V4.75a.75.75 0 0 0-.75-.75Z" clip-rule="evenodd"/>
</svg>
