<svg xmlns="http://www.w3.org/2000/svg" width="24" height="24" fill="currentColor" viewBox="0 0 24 24">
  <path fill-rule="evenodd" d="M3.553 4c1.58 0 3.017.922 3.663 2.362l.62 1.386.481-.475 1.004-.995a2.429 2.429 0 0 1 3.415 0c.24.238.418.513.537.806a2.422 2.422 0 0 1 2.508 1.492 2.422 2.422 0 0 1 2.244 1.01l.817-.808a2.447 2.447 0 0 1 3.441 0c.936.928.963 2.436.034 3.39-1.232 1.265-3.418 3.478-5.095 5.008a93.951 93.951 0 0 1-2.83 2.454c-2.486 2.085-6.168 1.737-8.282-.68l-2.233-2.553a5.95 5.95 0 0 1-1.464-3.601L1.945 4h1.608Zm.857 8.69c.047.88.388 1.722.973 2.39l2.232 2.553c1.418 1.62 3.862 1.83 5.492.465a91.949 91.949 0 0 0 2.767-2.4l.633-.586c1.52-1.428 3.3-3.233 4.378-4.34a.403.403 0 0 0-.01-.573.447.447 0 0 0-.626 0L16.04 14.37l-.015-.014a2.426 2.426 0 0 1-3.191-.192 2.392 2.392 0 0 1-.68-1.32 2.41 2.41 0 0 1-1.865-1.475 2.422 2.422 0 0 1-2.244-1.012l-.85.845L5.39 7.181a2.003 2.003 0 0 0-1.333-1.117l.352 6.626Zm11.936-2.007a.428.428 0 0 0-.599 0l-1.506 1.492a.398.398 0 0 0 0 .568.429.429 0 0 0 .6 0l.042-.042 1.463-1.449a.399.399 0 0 0 0-.57Zm-2.51-1.492a.428.428 0 0 0-.598 0l-1.004.994-.052.064a.397.397 0 0 0 .052.505.428.428 0 0 0 .599 0l1.004-.994a.398.398 0 0 0 0-.569ZM11.329 7.7a.429.429 0 0 0-.6 0l-1.002.995a.397.397 0 0 0 0 .569.428.428 0 0 0 .598 0l1.004-.995a.397.397 0 0 0 0-.569Z" clip-rule="evenodd"/>
</svg>
