<svg xmlns="http://www.w3.org/2000/svg" width="24" height="24" fill="currentColor" viewBox="0 0 24 24">
  <path d="M7.6 12.246a4 4 0 0 1 1.596-.191l4.894.408a1.445 1.445 0 0 1 1.299 1.712 4.56 4.56 0 0 1-.13.503l2.617-.784A2.427 2.427 0 0 1 21 16.218a2.38 2.38 0 0 1-1.148 2.047 47.887 47.887 0 0 1-3.894 2.108c-1.57.749-3.388 1.475-4.858 1.622-1.375.137-3.01-.146-4.229-.43A26.23 26.23 0 0 1 4.84 21H3v-2h2.168l.158.055.032.01.11.037c.096.03.24.076.419.13.36.108.864.25 1.44.384 1.179.276 2.544.492 3.573.389 1.096-.11 2.643-.695 4.197-1.437a45.945 45.945 0 0 0 3.724-2.017.38.38 0 0 0 .179-.333.427.427 0 0 0-.55-.41l-6.218 1.865-.007.004-1.896.568-.574-1.915 1.895-.57a2.552 2.552 0 0 0 1.577-1.362l-4.197-.35c-.27-.023-.541.01-.798.096l-4.865 1.622-.632-1.898L7.6 12.246Z"/>
  <path fill-rule="evenodd" d="M10 1c1.495 0 2.795.821 3.481 2.034a4 4 0 1 1-2.966 5.93c-.168.023-.34.036-.515.036a4 4 0 0 1 0-8Zm4 4a2 2 0 1 0 0 4 2 2 0 0 0 0-4Zm-4-2a2 2 0 1 0 0 4c0-1.309.628-2.47 1.6-3.2A1.998 1.998 0 0 0 10 3Z" clip-rule="evenodd"/>
</svg>
