<svg xmlns="http://www.w3.org/2000/svg" width="24" height="24" fill="currentColor" viewBox="0 0 24 24">
  <path  fill-rule="evenodd" d="M14 4a1 1 0 0 0-1 1v5a1 1 0 1 1-2 0V6a1 1 0 1 0-2 0v5a1 1 0 0 1-1.625.78l-.938-.75a1 1 0 0 0-1.406.157l-.341.427 2.679 5.09A6.17 6.17 0 0 0 19 13.828V7a1 1 0 1 0-2 0v4a1 1 0 1 1-2 0V5a1 1 0 0 0-1-1Zm2.895.21A3 3 0 0 1 21 7v6.83a8.17 8.17 0 0 1-15.401 3.805l-2.984-5.67a1 1 0 0 1 .104-1.09l.75-.938A3.001 3.001 0 0 1 7 9.055V6a3 3 0 0 1 4.471-2.615 3.001 3.001 0 0 1 5.424.825Z" clip-rule="evenodd"/>
</svg>
