<svg xmlns="http://www.w3.org/2000/svg" width="24" height="24" fill="currentColor" viewBox="0 0 24 24">
  <path fill-rule="evenodd" d="M12.501 2c.889 0 1.667.466 2.11 1.165A2.493 2.493 0 0 1 17.96 5.06a2.5 2.5 0 0 1 3.042 2.44v6.33a8.171 8.171 0 0 1-15.284 4.018l-.004.003-3.402-6.464.408-.512.75-.938A3 3 0 0 1 7 9.06V5.5a2.5 2.5 0 0 1 3.389-2.335A2.497 2.497 0 0 1 12.5 2Zm0 2a.5.5 0 0 0-.5.5V12h-2L10 5.5a.5.5 0 0 0-1 0v7.581l-2.563-2.05a1 1 0 0 0-1.406.155l-.342.427 2.68 5.09a6.171 6.171 0 0 0 11.632-2.874V7.5a.5.5 0 0 0-1 0V13h-2V5.5a.5.5 0 0 0-1 0v7h-2v-8a.5.5 0 0 0-.5-.5Z" clip-rule="evenodd"/>
</svg>
