<svg xmlns="http://www.w3.org/2000/svg" width="24" height="24" fill="currentColor" viewBox="0 0 24 24">
  <path fill-rule="evenodd" d="M4.403 3c1.158 0 2.152.826 2.364 1.965l.279 1.504a2.487 2.487 0 0 1 3.277.325 2.49 2.49 0 0 1 3 .5A2.5 2.5 0 0 1 17 9.5v.701a4.001 4.001 0 0 1 4.446.831l.874.874L17.9 17.8a8.001 8.001 0 0 1-6.4 3.2H9.6a7 7 0 0 1-6.983-6.52l-.612-8.912A2.403 2.403 0 0 1 4.403 3Zm0 2a.403.403 0 0 0-.402.43l.612 8.913A5 5 0 0 0 9.601 19H11.5c1.888 0 3.668-.89 4.8-2.4l3.341-4.456a1.999 1.999 0 0 0-2.132.052l-.857.57A2.496 2.496 0 0 1 14.5 14a2.49 2.49 0 0 1-1.5-.504 2.486 2.486 0 0 1-3 0A2.486 2.486 0 0 1 8.5 14a2.499 2.499 0 0 1-2.469-2.12l-.014.003L4.8 5.33A.404.404 0 0 0 4.403 5ZM8.5 8a.5.5 0 0 0-.5.5v3a.5.5 0 0 0 1 0v-3a.5.5 0 0 0-.5-.5Zm3 .5a.5.5 0 0 0-.5.5v2.5a.5.5 0 0 0 1 0V9a.5.5 0 0 0-.5-.5Zm3 .5a.5.5 0 0 0-.5.5v2a.5.5 0 0 0 1 0v-2a.5.5 0 0 0-.5-.5Z" clip-rule="evenodd"/>
</svg>
