<svg xmlns="http://www.w3.org/2000/svg" width="24" height="24" fill="currentColor" viewBox="0 0 24 24">
  <path fill-rule="evenodd" d="M12.5 2c.89 0 1.668.466 2.111 1.165A2.5 2.5 0 0 1 18 5.5v1.626c.32-.082.655-.126 1-.126h2v6.5a8.5 8.5 0 0 1-17 0v-6a2.5 2.5 0 0 1 3.04-2.44 2.5 2.5 0 0 1 3.348-1.895A2.497 2.497 0 0 1 12.5 2Zm0 2a.5.5 0 0 0-.5.5V11h-2V5.5a.5.5 0 0 0-1 0V12H7V7.5a.5.5 0 1 0-1 0v6a6.5 6.5 0 0 0 13 0V9c-.513 0-.979.192-1.333.509-.41.367-.667.899-.667 1.491v2.22l-1.313.438A2.469 2.469 0 0 0 14 16v1h-2v-1a4.467 4.467 0 0 1 3-4.219V11a3.99 3.99 0 0 1 1-2.645V5.5a.5.5 0 0 0-1 0V11h-2V4.5a.5.5 0 0 0-.5-.5Z" clip-rule="evenodd"/>
</svg>
