<svg xmlns="http://www.w3.org/2000/svg" width="24" height="24" fill="currentColor" viewBox="0 0 24 24">
  <path  d="M13.695 11.922c1.81-.017 3.296.404 4.137 1.246.245.245.439.536.558.858l.084-.064c1.158-.92 2.97-.883 3.98.38.764.954.812 2.372-.069 3.34-2.414 2.655-5.5 4.504-9.433 4.317-.933-.044-2.031-.326-2.843-.57a24.27 24.27 0 0 1-1.042-.34c-.097-.034-.18-.065-.245-.089H7.73c-.346.597-.99 1-1.73 1H4a2 2 0 0 1-2-2v-6a2 2 0 0 1 2-2h2c.79 0 1.47.459 1.795 1.124 2.324-.834 4.302-1.188 5.899-1.202Zm.017 2c-1.425.013-3.338.354-5.712 1.259V19h1a1 1 0 0 1 .36.067l.005.001.017.007.071.027.278.1c.238.084.572.197.954.312.785.236 1.688.455 2.363.487 3.16.15 5.708-1.3 7.857-3.664.162-.178.192-.49-.012-.745-.238-.297-.77-.386-1.176-.064-.884.702-2.158 1.578-3.45 1.936-.72.2-1.431.325-1.994.404-.31.048-.633.085-.97.112l-.166.013a13.122 13.122 0 0 1-.073.005h-.008a1 1 0 0 1-.118-1.996 15.001 15.001 0 0 0 .87-.087l.195-.028c1.241-.195 1.97-.555 2.31-.863a.875.875 0 0 0 .18-.212.192.192 0 0 0 .027-.075c0-.002 0-.009-.007-.027a.422.422 0 0 0-.095-.128c-.283-.283-1.11-.675-2.706-.66ZM17 7a2 2 0 0 0-2.736-1.86c-.928.367-1.454 1.43-1.193 2.387A2 2 0 0 0 17 7ZM4 20h2v-6H4v6ZM19 7a4 4 0 0 1-7.484 1.965 4 4 0 1 1 2.968-5.93A4 4 0 0 1 19 7ZM9 5a2 2 0 0 0 2 2l.004-.001a4.074 4.074 0 0 1 1.597-3.195A2 2 0 0 0 9 5Z"/>
</svg>
