<svg xmlns="http://www.w3.org/2000/svg" width="24" height="24" fill="currentColor" viewBox="0 0 24 24">
  <path  d="M4 6v12h16V6H4Zm18 12a2 2 0 0 1-2 2H4a2 2 0 0 1-2-2V6a2 2 0 0 1 2-2h16a2 2 0 0 1 2 2v12Z"/>
  <path  d="M6.117 15.622c-.659 0-1.035-.39-1.035-1.084V9.416c0-.693.376-1.084 1.035-1.084.66 0 1.035.39 1.035 1.084v1.714h2.48V9.416c0-.693.377-1.084 1.036-1.084.66 0 1.035.39 1.035 1.084v5.122c0 .693-.376 1.084-1.035 1.084-.66 0-1.035-.39-1.035-1.084v-1.763h-2.48v1.763c0 .693-.377 1.084-1.036 1.084Zm7.598-.122c-.66 0-1.035-.39-1.035-1.084V9.538c0-.693.376-1.084 1.035-1.084h1.977c2.14 0 3.394 1.216 3.394 3.472 0 2.256-1.26 3.574-3.394 3.574h-1.977Zm1.035-1.646h.65c1.035 0 1.577-.63 1.577-1.928 0-1.187-.586-1.826-1.578-1.826h-.649v3.755Z"/>
</svg>
