<svg xmlns="http://www.w3.org/2000/svg" width="24" height="24" fill="currentColor" viewBox="0 0 24 24">
  <path  d="M20.006 10.248c0-1.787-.554-3.03-1.293-3.819a3.698 3.698 0 0 0-2.71-1.184 5.122 5.122 0 0 0-3.113 1.053 3.072 3.072 0 0 0-.154.13l-.03.025v.001l-.002.002-.073.065a1 1 0 0 1-1.338-.068l-.029-.026a3.058 3.058 0 0 0-.154-.129 5.122 5.122 0 0 0-3.113-1.053c-.982 0-1.966.391-2.71 1.184-.739.788-1.293 2.032-1.293 3.82 0 2.406 1.754 4.65 3.859 6.39a19.73 19.73 0 0 0 2.909 1.987c.417.232.77.404 1.03.515.083.036.153.06.208.08.055-.02.125-.044.208-.08.26-.11.613-.283 1.03-.515a19.734 19.734 0 0 0 2.91-1.987c2.105-1.74 3.858-3.984 3.858-6.39Zm2.001 0c0 3.347-2.374 6.107-4.585 7.933a21.74 21.74 0 0 1-3.212 2.195c-.463.257-.878.462-1.213.606a5.346 5.346 0 0 1-.467.178 1.784 1.784 0 0 1-.53.096 1.81 1.81 0 0 1-.53-.096 5.359 5.359 0 0 1-.467-.178c-.335-.144-.75-.35-1.213-.606a21.741 21.741 0 0 1-3.212-2.195c-2.21-1.826-4.585-4.586-4.585-7.933 0-2.215.697-3.974 1.834-5.187a5.7 5.7 0 0 1 4.17-1.818A7.123 7.123 0 0 1 12 4.473a7.122 7.122 0 0 1 4.003-1.23 5.7 5.7 0 0 1 4.17 1.818c1.138 1.213 1.834 2.972 1.834 5.187Z"/>
</svg>
