<svg xmlns="http://www.w3.org/2000/svg" width="24" height="24" fill="currentColor" viewBox="0 0 24 24">
  <path fill-rule="evenodd" d="M12 2c5.523 0 10 4.477 10 10s-4.477 10-10 10S2 17.523 2 12 6.477 2 12 2Zm2.757 14.17c-.79.524-1.738.83-2.757.83a4.976 4.976 0 0 1-2.758-.83l-2.146 2.147A7.962 7.962 0 0 0 12 20c1.849 0 3.55-.63 4.904-1.683l-2.147-2.147Zm1.414-6.927A4.98 4.98 0 0 1 17 12a4.975 4.975 0 0 1-.83 2.756l2.148 2.147A7.962 7.962 0 0 0 20 12a7.96 7.96 0 0 0-1.682-4.904l-2.147 2.147ZM5.68 7.096A7.963 7.963 0 0 0 4 12a7.96 7.96 0 0 0 1.682 4.903l2.146-2.146A4.976 4.976 0 0 1 7 12c0-1.02.305-1.967.828-2.758L5.682 7.096ZM12 9a3 3 0 1 0 0 6 3 3 0 0 0 0-6Zm0-5a7.96 7.96 0 0 0-4.904 1.682l2.146 2.146A4.977 4.977 0 0 1 12 7c1.019 0 1.966.306 2.757.83l2.147-2.148A7.963 7.963 0 0 0 12 4Z" clip-rule="evenodd"/>
</svg>
