<svg xmlns="http://www.w3.org/2000/svg" width="24" height="24" fill="currentColor" viewBox="0 0 24 24">
  <path  d="M18.997 9v-.003l-.004-.003-.215-.179-6.4-5.2c-.191-.155-.293-.238-.37-.292L12 3.317l-.008.006c-.077.054-.179.137-.37.292l-6.4 5.2a6.26 6.26 0 0 0-.215.179l-.004.003V9A6.41 6.41 0 0 0 5 9.28v9.138c0 .296.001.458.01.575l.002.013.012.002c.117.01.28.01.576.01h12.8c.297 0 .46 0 .576-.01l.011-.002.002-.013c.01-.117.011-.28.011-.575V9.28c0-.15 0-.225-.003-.28ZM21 18.42c0 .263.001.521-.017.738a2.023 2.023 0 0 1-.2.77 2.003 2.003 0 0 1-.875.874 2.023 2.023 0 0 1-.77.2 9.46 9.46 0 0 1-.738.018H5.6c-.264 0-.522 0-.739-.017a2.023 2.023 0 0 1-.77-.201 2 2 0 0 1-.873-.873 2.028 2.028 0 0 1-.201-.771C2.999 18.94 3 18.682 3 18.419V9.28c0-.224-.008-.523.07-.811.063-.23.166-.446.304-.64.175-.243.413-.425.587-.567l6.4-5.2c.168-.136.335-.274.488-.38a2.01 2.01 0 0 1 .612-.3 2 2 0 0 1 1.078 0c.25.07.45.187.612.3.152.106.32.244.489.38l6.4 5.2c.174.142.41.324.585.567h.001c.104.146.187.303.249.47l.055.169c.078.288.07.587.07.812v9.139Z"/>
</svg>
