<svg xmlns="http://www.w3.org/2000/svg" width="24" height="24" fill="currentColor" viewBox="0 0 24 24">
  <path  d="M18.983 9.005v-.004l-.003-.003a6.232 6.232 0 0 0-.215-.178l-6.388-5.19a7.054 7.054 0 0 0-.37-.292L12 3.333l-.008.005c-.077.054-.179.137-.37.292L5.236 8.82a6.236 6.236 0 0 0-.214.178l-.004.003v.004c-.003.055-.003.13-.003.279v9.12c0 .296.001.458.01.575l.001.012.013.002c.116.01.278.01.574.01h12.776c.295 0 .458 0 .574-.01l.012-.002.002-.012a8.61 8.61 0 0 0 .01-.575v-9.12c0-.15 0-.224-.003-.279Zm-2.99 6.007a.998.998 0 1 1 0 1.996H8.007a.998.998 0 0 1 0-1.996h7.984Zm4.99 3.392c0 .263 0 .52-.017.737a2.019 2.019 0 0 1-.201.768 2 2 0 0 1-.872.873 2.02 2.02 0 0 1-.768.2c-.217.018-.474.018-.737.018H5.612c-.263 0-.52 0-.737-.017a2.02 2.02 0 0 1-.768-.201 1.998 1.998 0 0 1-.872-.873 2.02 2.02 0 0 1-.2-.768c-.018-.216-.017-.474-.017-.736V9.283c0-.224-.009-.522.07-.81a2 2 0 0 1 .303-.638c.174-.243.412-.424.586-.566l6.387-5.19c.168-.136.335-.273.487-.379.162-.113.362-.23.611-.3a1.996 1.996 0 0 1 1.076 0c.25.07.449.187.611.3.152.106.32.243.487.38l6.387 5.19c.174.14.412.322.586.565.103.145.187.302.249.468l.054.17.044.216c.03.216.026.426.026.594v9.12Z"/>
</svg>
