<svg xmlns="http://www.w3.org/2000/svg" width="24" height="24" fill="currentColor" viewBox="0 0 24 24">
  <path  fill-rule="evenodd" d="M10 14.02v5h4v-5h-4Zm6 5h2.4c.296 0 .459-.002.575-.011l.013-.002.002-.013c.01-.116.01-.28.01-.575V9.28c0-.15 0-.226-.003-.28l-.001-.005-.002-.002c-.04-.037-.1-.084-.216-.179l-6.4-5.2a7.237 7.237 0 0 0-.37-.29L12 3.317l-.008.006a6.86 6.86 0 0 0-.37.291l-6.4 5.2a6.23 6.23 0 0 0-.216.179l-.003.003V9C5 9.056 5 9.13 5 9.28v9.138c0 .296 0 .459.01.575l.001.013.013.002c.117.01.28.01.576.01H8v-5a2 2 0 0 1 2-2h4a2 2 0 0 1 2 2v5Zm5-.601c0 .263 0 .521-.017.738a2.026 2.026 0 0 1-.201.77 2.001 2.001 0 0 1-.874.875 2.018 2.018 0 0 1-.77.2c-.217.018-.475.017-.738.017H5.6c-.263 0-.521 0-.738-.017a2.02 2.02 0 0 1-.77-.2 2.003 2.003 0 0 1-.875-.874 2.023 2.023 0 0 1-.2-.77C3 18.94 3 18.681 3 18.417V9.282c0-.225-.008-.523.07-.812a2 2 0 0 1 .305-.64c.174-.242.411-.425.586-.566l6.399-5.2c.168-.138.337-.274.49-.38.162-.114.36-.231.61-.301.31-.087.633-.097.946-.033l.133.033.178.06c.17.068.312.156.434.24.152.106.32.244.488.38l6.4 5.2c.175.142.412.325.587.568a2 2 0 0 1 .249.469l.054.17.044.216c.031.217.027.428.027.596v9.138Z" clip-rule="evenodd"/>
</svg>
