<svg xmlns="http://www.w3.org/2000/svg" width="24" height="24" fill="currentColor" viewBox="0 0 24 24">
  <path  d="M18 8.025 12.35 3.98a6.92 6.92 0 0 0-.343-.237L12 3.739l-.007.004c-.07.043-.164.11-.342.237L6 8.025V18.4c0 .296 0 .459.01.575l.001.013.013.002c.116.01.279.01.575.01h10.8c.297 0 .46 0 .576-.01l.012-.002.002-.013c.01-.116.01-.279.01-.575V8.025ZM20 18.4c0 .263.001.521-.016.738a2.023 2.023 0 0 1-.202.77 2.001 2.001 0 0 1-.873.874 2.023 2.023 0 0 1-.77.201c-.217.018-.475.018-.738.018H6.6c-.263 0-.522 0-.738-.018a2.023 2.023 0 0 1-.77-.201 2.001 2.001 0 0 1-.874-.874 2.024 2.024 0 0 1-.201-.77C3.999 18.921 4 18.663 4 18.4V9.457l-.918.658a1 1 0 0 1-1.164-1.627l8.569-6.134c.266-.19.611-.458 1.021-.562.283-.072.577-.082.862-.028l.123.028.15.045c.344.124.638.35.871.517l8.568 6.134a1 1 0 0 1-1.164 1.627L20 9.457V18.4Z"/>
</svg>
