<svg xmlns="http://www.w3.org/2000/svg" width="24" height="24" fill="currentColor" viewBox="0 0 24 24">
  <path fill-rule="evenodd" d="M15 1a4 4 0 0 1 4 4v13h-4v2a3 3 0 1 1-6 0v-2H5V5a4 4 0 0 1 4-4h6Zm-4 19a1 1 0 1 0 2 0v-2h-2v2Zm.982-8.123c-.954-.39-1.514-.647-2.198-.56-.777.098-1.768.731-2.57 1.55L7 13.086V16h10v-4.493c-.47.3-.997.584-1.496.731-1.456.43-2.625.005-3.522-.361ZM9 3a2 2 0 0 0-2 2v5.424c.756-.54 1.633-.978 2.532-1.092 1.32-.168 2.434.378 3.206.693.83.34 1.44.52 2.199.295.557-.165 1.363-.726 1.94-1.185L17 9.037V5a2 2 0 0 0-2-2H9Z" clip-rule="evenodd"/>
</svg>
