<svg xmlns="http://www.w3.org/2000/svg" width="24" height="24" fill="currentColor" viewBox="0 0 24 24">
  <path  d="M5 15v4h4v-4H5Zm13.414-.83a1 1 0 0 1 1.414 1.415l-1.414 1.414 1.414 1.415a1 1 0 0 1-1.414 1.414L17 18.414l-1.414 1.414a1.001 1.001 0 0 1-1.415-1.414L15.585 17l-1.414-1.414a1 1 0 0 1 1.415-1.414L17 15.585l1.414-1.414ZM6 10V8H4a1 1 0 0 1 0-2h2V4a1 1 0 0 1 2 0v2h2a1 1 0 1 1 0 2H8v2a1 1 0 1 1-2 0Zm13-3a2 2 0 1 0-4 0 2 2 0 0 0 4 0Zm-8 12a2 2 0 0 1-2 2H5a2 2 0 0 1-2-2v-4a2 2 0 0 1 2-2h4a2 2 0 0 1 2 2v4ZM21 7a4 4 0 1 1-8 0 4 4 0 0 1 8 0Z"/>
</svg>
