<svg xmlns="http://www.w3.org/2000/svg" width="24" height="24" fill="currentColor" viewBox="0 0 24 24">
  <path fill-rule="evenodd" d="M16.417 9.012c1.51-.125 2.728 1.04 3.679 2.565.998 1.601 1.956 3.99 2.865 7.147L23.329 20H.716l.314-1.244.001-.003.001-.005.004-.016.015-.056.056-.205c.05-.175.122-.422.216-.717.188-.588.467-1.38.83-2.18.357-.79.82-1.641 1.39-2.31.554-.648 1.355-1.292 2.395-1.292 1.244 0 2.266.671 2.974 1.14.392.259.692.463.985.615.287.147.473.192.603.192-.024 0 .122.005.51-.413.367-.394.73-.91 1.222-1.557.88-1.151 2.197-2.772 4.185-2.937Zm.166 1.993c-.989.082-1.813.916-2.76 2.158-.421.55-.893 1.216-1.347 1.705-.432.464-1.094 1.05-1.976 1.05-.583 0-1.098-.197-1.52-.414-.414-.214-.827-.497-1.171-.725-.766-.505-1.31-.807-1.87-.807-.168 0-.463.109-.875.59-.394.462-.766 1.12-1.09 1.836A17.822 17.822 0 0 0 3.349 18h17.304c-.762-2.424-1.524-4.192-2.255-5.365-.9-1.445-1.533-1.653-1.815-1.63ZM9.5 3.5a3.5 3.5 0 1 1 0 7 3.5 3.5 0 0 1 0-7Zm0 2a1.5 1.5 0 1 0 0 3 1.5 1.5 0 0 0 0-3Z" clip-rule="evenodd"/>
</svg>
