<svg xmlns="http://www.w3.org/2000/svg" width="24" height="24" fill="currentColor" viewBox="0 0 24 24">
  <path  d="M16.606 16.002c.685-.183 1.339.037 1.461.493.123.456-.333.975-1.017 1.158-.684.184-1.339-.038-1.461-.494-.122-.456.333-.974 1.017-1.157Zm-3.982-2.475c.57-.152 1.18.28 1.364.963.183.684-.13 1.363-.7 1.516-.57.153-1.18-.279-1.364-.963-.183-.684.13-1.363.7-1.516Z"/>
  <path  fill-rule="evenodd" d="M19 3a2 2 0 0 1 2 2v14a2 2 0 0 1-2 2H5a2 2 0 0 1-2-2V5a2 2 0 0 1 2-2h14ZM5 19h3.763a5.74 5.74 0 0 1-.737-1.648 5.89 5.89 0 0 1 .065-3.221l-.836-4.626a1 1 0 0 1 1.21-1.152l3.87.898c.702-.375 1.468-.68 2.283-.898a10.754 10.754 0 0 1 2.413-.363L19 6.077V5H5v14Zm13.142-9.299a1 1 0 0 1-.703.282 8.69 8.69 0 0 0-2.303.302 8.682 8.682 0 0 0-2.145.89.997.997 0 0 1-.732.112l-2.766-.643.609 3.369c.03.167.017.34-.039.502-.265.774-.308 1.563-.105 2.319.23.856.756 1.593 1.516 2.166H19v-4.66c-.399-.107-.75-.466-.882-.957-.183-.684.13-1.362.7-1.515a.897.897 0 0 1 .182-.03V8.867l-.858.835Z" clip-rule="evenodd"/>
</svg>
