<svg xmlns="http://www.w3.org/2000/svg" width="24" height="24" fill="currentColor" viewBox="0 0 24 24">
  <path fill-rule="evenodd" d="M21 21H3V3h18v18ZM5 19h3.763a5.74 5.74 0 0 1-.737-1.648 5.89 5.89 0 0 1 .065-3.221L6.985 8.009l5.35 1.242c.702-.375 1.468-.68 2.283-.898a10.754 10.754 0 0 1 2.413-.363L19 6.077V5H5v14Zm13.142-9.299-.294.285-.41-.003a8.69 8.69 0 0 0-2.302.302 8.682 8.682 0 0 0-2.145.89l-.343.202-.39-.09-2.765-.643.609 3.369.046.256-.085.246c-.265.774-.308 1.563-.105 2.319.23.856.756 1.593 1.516 2.166H19V8.866l-.858.835Z" clip-rule="evenodd"/>
  <path d="M16.607 16.002c.684-.183 1.338.037 1.46.493.123.456-.333.975-1.017 1.158-.684.184-1.339-.038-1.461-.494-.122-.456.334-.974 1.018-1.157Zm-3.983-2.475c.57-.152 1.181.28 1.364.963.184.684-.13 1.363-.7 1.516-.57.153-1.18-.279-1.364-.963-.183-.684.13-1.363.7-1.516Zm6.194-1.659c.57-.153 1.181.278 1.365.962.183.684-.13 1.363-.7 1.516-.57.152-1.181-.279-1.365-.963-.183-.684.13-1.362.7-1.515Z"/>
</svg>
