<svg xmlns="http://www.w3.org/2000/svg" width="24" height="24" fill="currentColor" viewBox="0 0 24 24">
  <path  d="M15.5 7a1.5 1.5 0 1 1 0 3 1.5 1.5 0 0 1 0-3Z"/>
  <path  d="M20 8.5a4.5 4.5 0 1 0-8.866 1.095 1 1 0 0 1-.263.949L5 16.414V19h2.586L9 17.586V15.5a1 1 0 0 1 1-1h2.086l1.37-1.371a1 1 0 0 1 .95-.263A4.5 4.5 0 0 0 20 8.5Zm2 0a6.5 6.5 0 0 1-6.5 6.5c-.342 0-.677-.03-1.006-.081l-1.287 1.288a1 1 0 0 1-.707.293H11V18a1 1 0 0 1-.293.707L9 20.414A2 2 0 0 1 7.586 21H5a2 2 0 0 1-2-2v-2.586A2 2 0 0 1 3.586 15L9.08 9.505A6.5 6.5 0 1 1 22 8.5Z"/>
</svg>
