<svg xmlns="http://www.w3.org/2000/svg" width="24" height="24" fill="currentColor" viewBox="0 0 24 24">
  <path  d="M7 6a5.99 5.99 0 0 1 4.816 2.422c.028.037.057.06.077.07.017.01.022.008.015.008h8.112a2 2 0 0 1 1.561.751l1.2 1.5a2 2 0 0 1 0 2.498l-1.2 1.5a2 2 0 0 1-1.561.751H18a1 1 0 0 1-.447-.105L16 14.618l-1.553.777A1 1 0 0 1 14 15.5h-2.092c.007 0 .002-.002-.015.008a.255.255 0 0 0-.077.07A6 6 0 1 1 7 6Zm0 4.5a1.5 1.5 0 1 1 0 3 1.5 1.5 0 0 1 0-3ZM3 12a4 4 0 0 0 7.212 2.385c.363-.488.963-.885 1.696-.885h1.856l1.789-.895a1 1 0 0 1 .894 0l1.79.895h1.783l1.2-1.5-1.2-1.5h-8.112c-.733 0-1.333-.397-1.696-.885A4 4 0 0 0 3 12Z"/>
</svg>
