<svg xmlns="http://www.w3.org/2000/svg" width="24" height="24" fill="currentColor" viewBox="0 0 24 24">
  <path  d="M6 15.75a1.25 1.25 0 1 1 0 2.5 1.25 1.25 0 0 1 0-2.5Zm12 0a1.25 1.25 0 1 1 0 2.5 1.25 1.25 0 0 1 0-2.5ZM14 16a1 1 0 1 1 0 2h-4a1 1 0 0 1 0-2h4Zm-8-4.25a1.25 1.25 0 1 1 0 2.5 1.25 1.25 0 0 1 0-2.5Zm4 0a1.25 1.25 0 1 1 0 2.5 1.25 1.25 0 0 1 0-2.5Zm4 0a1.25 1.25 0 1 1 0 2.5 1.25 1.25 0 0 1 0-2.5Zm4 0a1.25 1.25 0 1 1 0 2.5 1.25 1.25 0 0 1 0-2.5Z"/>
  <path  fill-rule="evenodd" d="M21 8a2 2 0 0 1 2 2v10a2 2 0 0 1-2 2H3a2 2 0 0 1-2-2V10a2 2 0 0 1 2-2h18ZM3 20h18V10H3v10Z" clip-rule="evenodd"/>
  <path  d="M11.37 2.224a1 1 0 0 1 1.337.069l2 2a1 1 0 0 1-1.414 1.414L12 4.414l-1.293 1.293a1 1 0 0 1-1.414-1.414l2-2 .076-.069Z"/>
</svg>
