<svg xmlns="http://www.w3.org/2000/svg" width="24" height="24" fill="currentColor" viewBox="0 0 24 24">
  <path  d="M6 15.75a1.25 1.25 0 1 1 0 2.5 1.25 1.25 0 0 1 0-2.5Zm12 0a1.25 1.25 0 1 1 0 2.5 1.25 1.25 0 0 1 0-2.5ZM14 16a1 1 0 1 1 0 2h-4a1 1 0 1 1 0-2h4Zm-8-4.25a1.25 1.25 0 1 1 0 2.5 1.25 1.25 0 0 1 0-2.5Zm4 0a1.25 1.25 0 1 1 0 2.5 1.25 1.25 0 0 1 0-2.5Zm4 0a1.25 1.25 0 1 1 0 2.5 1.25 1.25 0 0 1 0-2.5Zm4 0a1.25 1.25 0 1 1 0 2.5 1.25 1.25 0 0 1 0-2.5Z"/>
  <path  fill-rule="evenodd" d="M18 2a1 1 0 0 1 1 1v1a2 2 0 0 1-2 2H7v2h14a2 2 0 0 1 2 2v10a2 2 0 0 1-2 2H3a2 2 0 0 1-2-2V10a2 2 0 0 1 2-2h2V6a2 2 0 0 1 2-2h10V3a1 1 0 0 1 1-1ZM3 20h18V10H3v10Z" clip-rule="evenodd"/>
</svg>
