<svg xmlns="http://www.w3.org/2000/svg" width="24" height="24" fill="currentColor" viewBox="0 0 24 24">
  <path fill-rule="evenodd" d="M17 8h-1v2.64c.277.326.597.676.95 1.063.44.482.92 1.014 1.359 1.574C19.166 14.372 20 15.74 20 17.3a4.701 4.701 0 0 1-4.701 4.7H8.7A4.702 4.702 0 0 1 4 17.299c0-1.56.834-2.927 1.691-4.022a27.97 27.97 0 0 1 1.359-1.574c.353-.387.673-.736.95-1.063V8H7V6h10v2Zm-7.526 8.499c-.993-.026-2.406.183-3.3.34l-.135.024A2.53 2.53 0 0 0 6 17.3 2.702 2.702 0 0 0 8.701 20H15.3a2.701 2.701 0 0 0 2.7-2.701c0-.047-.003-.094-.006-.14-.916.156-2.382.37-3.52.34-1.15-.03-2.021-.309-2.774-.546-.752-.236-1.385-.431-2.226-.454ZM10 11.351l-.219.274c-.372.466-.822.954-1.253 1.426-.44.483-.874.964-1.261 1.459l-.118.155c.772-.102 1.643-.185 2.377-.165 1.15.03 2.021.309 2.774.546.752.236 1.385.431 2.226.454.805.021 1.883-.114 2.74-.249a10.038 10.038 0 0 0-.533-.741 25.82 25.82 0 0 0-1.261-1.46c-.43-.471-.88-.96-1.253-1.425L14 11.351V8h-4v3.35Z" clip-rule="evenodd"/>
  <path d="M10.01 3a1 1 0 1 1 0 2H10a1 1 0 0 1 0-2h.01Zm3.49-2a1.5 1.5 0 1 1 0 3 1.5 1.5 0 0 1 0-3Z"/>
</svg>
