<svg xmlns="http://www.w3.org/2000/svg" width="24" height="24" fill="currentColor" viewBox="0 0 24 24">
  <path fill-rule="evenodd" d="m14.71 4.292 5.002 5.002 1.702 1.709-1.417 1.411-.995-.999-9.295 9.293a4.536 4.536 0 0 1-6.413-6.415l9.294-9.292-1.002-.998 1.41-1.417 1.714 1.706ZM4.708 15.707a2.536 2.536 0 0 0 3.585 3.587L13.588 14H6.415l-1.707 1.707ZM8.415 12h7.173l2-2.001-3.585-3.586L8.415 12Z" clip-rule="evenodd"/>
  <path d="M20.01 5a1 1 0 1 1 0 2H20a1 1 0 1 1 0-2h.01ZM18.5 1a1.5 1.5 0 1 1 0 3 1.5 1.5 0 0 1 0-3Z"/>
</svg>
