<svg xmlns="http://www.w3.org/2000/svg" width="24" height="24" fill="currentColor" viewBox="0 0 24 24">
  <path  d="M12.288 3.296a1 1 0 0 1 1.414-.002l1.004 1 5 5 .996 1a1 1 0 0 1-1.416 1.412l-.29-.29-9.291 9.29a4.535 4.535 0 0 1-6.412-6.414l9.292-9.29-.294-.292a1 1 0 0 1-.003-1.414Zm-7.581 12.41a2.535 2.535 0 0 0 3.584 3.586l5.294-5.293H6.748a.998.998 0 0 1-.291-.044l-1.75 1.75ZM8.414 12h6.832a1 1 0 0 1 .294.044l2.044-2.045-3.585-3.584L8.414 12Zm11.59-6.998a1 1 0 0 1 0 2h-.01a1 1 0 0 1 0-2h.01Zm-1.356-3.991a1.5 1.5 0 1 1-1.645 1.645l-.008-.153.008-.154a1.5 1.5 0 0 1 1.492-1.346l.153.008Z"/>
</svg>
