<svg xmlns="http://www.w3.org/2000/svg" width="24" height="24" fill="currentColor" viewBox="0 0 24 24">
  <path  d="M5.793 18.793a1 1 0 1 1 1.414 1.414l-1.5 1.5a1 1 0 1 1-1.414-1.414l1.5-1.5ZM14 15a1 1 0 0 1 .553-.894c1.896-.948 3.334-2.082 4.264-3.724.851-1.502 1.333-3.53 1.231-6.43-2.9-.103-4.928.38-6.43 1.23-1.642.931-2.776 2.37-3.723 4.265A1 1 0 0 1 9 10H6.46l-1.78 2.075c.258.108.542.231.84.369 1.175.54 2.689 1.351 3.687 2.35.998.997 1.808 2.511 2.35 3.687.136.296.26.58.367.837L14 17.54V15ZM3.793 16.793a1 1 0 1 1 1.414 1.414l-2.5 2.5a1 1 0 1 1-1.414-1.414l2.5-2.5ZM16 8.5a.5.5 0 1 0-1 0 .5.5 0 0 0 1 0Zm0 9.04a2 2 0 0 1-.698 1.519l-3.152 2.7a1 1 0 0 1-1.551-.325l-.046-.115h-.001l-.002-.006-.009-.028a14.167 14.167 0 0 0-.2-.543 24.43 24.43 0 0 0-.6-1.425c-.527-1.142-1.216-2.378-1.948-3.11-.732-.732-1.968-1.421-3.11-1.947a24.101 24.101 0 0 0-1.968-.8l-.027-.01-.006-.002a1.002 1.002 0 0 1-.44-1.6l2.7-3.15A2 2 0 0 1 6.46 8h1.935c1.012-1.868 2.317-3.47 4.237-4.558 1.97-1.116 4.48-1.632 7.77-1.479l.67.04.091.01a1 1 0 0 1 .834.916c.259 3.622-.249 6.338-1.44 8.44-1.087 1.92-2.69 3.223-4.557 4.236v1.935Zm2-9.04a2.5 2.5 0 1 1-5 0 2.5 2.5 0 0 1 5 0Z"/>
</svg>
