<svg xmlns="http://www.w3.org/2000/svg" width="24" height="24" fill="currentColor" viewBox="0 0 24 24">
  <path fill-rule="evenodd" d="M15.5 6a2.5 2.5 0 1 1 0 5 2.5 2.5 0 0 1 0-5Zm0 2a.5.5 0 1 0 0 1 .5.5 0 0 0 0-1Z" clip-rule="evenodd"/>
  <path fill-rule="evenodd" d="M12.632 3.442c1.97-1.116 4.48-1.632 7.77-1.48l.67.04.864.062.061.865c.259 3.622-.249 6.338-1.44 8.44-1.088 1.92-2.69 3.223-4.557 4.236v2.855l-.35.299-4.625 3.965-.472-1.405h-.001l-.002-.006-.009-.028a14.412 14.412 0 0 0-.2-.543 24.11 24.11 0 0 0-.6-1.425c-.527-1.142-1.216-2.378-1.948-3.11-.732-.732-1.968-1.421-3.11-1.947a24.156 24.156 0 0 0-1.968-.801l-.027-.009-.006-.002-1.406-.473L5.241 8.35 5.54 8h2.855c1.012-1.868 2.316-3.47 4.237-4.558Zm7.416.51c-2.9-.103-4.928.38-6.43 1.23-1.642.931-2.776 2.37-3.723 4.265L9.618 10H6.46l-1.78 2.074c.26.108.543.232.84.37 1.176.54 2.69 1.35 3.688 2.349.998.998 1.808 2.512 2.35 3.687.136.297.26.58.367.838L14 17.54v-3.157l.553-.277c1.895-.947 3.334-2.08 4.264-3.723.851-1.502 1.333-3.53 1.23-6.43Z" clip-rule="evenodd"/>
  <path d="M7.914 19.5 5 22.414 3.586 21 6.5 18.086 7.914 19.5Zm-2-2L2 21.414.586 20 4.5 16.086 5.914 17.5Z"/>
</svg>
