<svg xmlns="http://www.w3.org/2000/svg" width="24" height="24" fill="currentColor" viewBox="0 0 24 24">
  <path  d="M11.123 3.315a2 2 0 0 1 1.754 0l7.97 3.888c1.497.73 1.497 2.864 0 3.595L18.38 12l2.466 1.203c1.497.73 1.497 2.864 0 3.595l-7.97 3.887a2 2 0 0 1-1.754 0l-7.969-3.887c-1.497-.731-1.497-2.865 0-3.595L5.62 12l-2.465-1.202c-1.497-.731-1.497-2.865 0-3.595l7.97-3.888Zm1.754 11.37a2 2 0 0 1-1.754 0l-3.222-1.572-3.87 1.888 7.97 3.886 7.969-3.886-3.87-1.888-3.223 1.572ZM4.031 9.001l7.97 3.886 7.969-3.886L12 5.113 4.031 9.001Z"/>
</svg>
