<svg xmlns="http://www.w3.org/2000/svg" width="24" height="24" fill="currentColor" viewBox="0 0 24 24">
  <path  fill-rule="evenodd" d="M11.773 2.998a2 2 0 0 1 2 2V6.95a1.99 1.99 0 0 1 1.092-.746l1.932-.518a2 2 0 0 1 2.387 1.22l.063.194 2.911 10.867a2 2 0 0 1-1.414 2.45l-1.931.517a2 2 0 0 1-2.45-1.414l-2.59-9.665v9.143a2 2 0 0 1-2 2h-4c-.364 0-.705-.1-1-.27-.294.17-.635.27-1 .27h-2a2 2 0 0 1-2-2v-12a2 2 0 0 1 2-2h2a2 2 0 0 1 2-2h4Zm3.61 5.137 2.912 10.867 1.932-.517-2.913-10.867-1.931.517ZM3.773 18.998h2v-12h-2v12Zm4-2v2h4v-2h-4Zm0-2h4v-6h-4v6Zm0-8h4v-2h-4v2Z" clip-rule="evenodd"/>
</svg>
