<svg xmlns="http://www.w3.org/2000/svg" width="24" height="24" fill="currentColor" viewBox="0 0 24 24">
  <path d="M6.465 9.123a5 5 0 0 1 7.071 0l.343.342.15.156a4.984 4.984 0 0 1 1.276 2.756l.124.992-1.985.249-.124-.992a2.983 2.983 0 0 0-.68-1.557l-.175-.19-.343-.342a3 3 0 0 0-4.243 0l-3.343 3.342a3 3 0 0 0 0 4.244l.343.342a3 3 0 0 0 4.243 0l.17-.171.709-.707 1.414 1.415-.879.878a5.001 5.001 0 0 1-6.885.177l-.186-.177-.343-.343a5 5 0 0 1 0-7.072l3.343-3.342Z"/>
  <path d="M13.465 5.123a5 5 0 0 1 7.071 0l.343.342a5 5 0 0 1 0 7.072l-3.343 3.342a5 5 0 0 1-7.071 0l-.343-.342a4.985 4.985 0 0 1-1.426-2.911l-.124-.993 1.985-.249.123.993c.08.638.365 1.255.856 1.746l.343.342a3 3 0 0 0 4.243 0l3.343-3.342a3.001 3.001 0 0 0 0-4.244l-.343-.342a3 3 0 0 0-4.243 0l-.88.879L12.587 6l.707-.707.172-.171Z"/>
</svg>
