<svg xmlns="http://www.w3.org/2000/svg" width="24" height="24" fill="currentColor" viewBox="0 0 24 24">
  <path  d="M11 21v-3a1 1 0 0 1 2 0v3a1 1 0 1 1-2 0Zm-3.95-5.465a1 1 0 0 1 1.415 1.415l-2.121 2.121a1 1 0 0 1-1.414-1.414l2.12-2.122Zm8.486 0a1 1 0 0 1 1.414 0l2.121 2.122a1 1 0 0 1-1.414 1.414l-2.12-2.12a1.001 1.001 0 0 1 0-1.416ZM6 11.001a1 1 0 1 1 0 2H3a1 1 0 0 1 0-2h3Zm15 0a1 1 0 1 1 0 2h-3a1 1 0 0 1 0-2h3ZM4.93 4.929a1 1 0 0 1 1.414 0l2.12 2.12a1.001 1.001 0 0 1-1.413 1.416L4.93 6.343a1 1 0 0 1 0-1.414Zm12.727 0a1 1 0 0 1 1.414 1.414l-2.12 2.122a1 1 0 0 1-1.415-1.415l2.121-2.121ZM11 6V3a1 1 0 0 1 2 0v3a1 1 0 1 1-2 0Z"/>
</svg>
