<svg xmlns="http://www.w3.org/2000/svg" width="24" height="24" fill="currentColor" viewBox="0 0 24 24">
  <path fill-rule="evenodd" d="M8 6h3v2H8v8H5.5a1.5 1.5 0 0 0 0 3H19v-6h2v8H5.5A3.5 3.5 0 0 1 2 17.5v-11A3.5 3.5 0 0 1 5.5 3H8v3ZM5.5 5A1.5 1.5 0 0 0 4 6.5v7.836A3.488 3.488 0 0 1 5.5 14H6V5h-.5Z" clip-rule="evenodd"/>
  <path fill-rule="evenodd" d="M17 3a4 4 0 0 1 4 4c0 1.664-.993 2.913-1.824 3.675a8.597 8.597 0 0 1-1.676 1.192l-.034.018-.018.009L17 11l.447.895-.447.223-.447-.223L17 11l-.447.895-.001-.001-.018-.01-.034-.017a7.867 7.867 0 0 1-.507-.298 8.597 8.597 0 0 1-1.169-.894C13.994 9.913 13 8.665 13 7a4 4 0 0 1 4-4Zm0 2a2 2 0 0 0-2 2c0 .836.507 1.587 1.176 2.2.292.268.588.482.824.637a6.55 6.55 0 0 0 .824-.637C18.494 8.587 19 7.836 19 7a2 2 0 0 0-2-2Z" clip-rule="evenodd"/>
</svg>
