<svg xmlns="http://www.w3.org/2000/svg" width="24" height="24" fill="currentColor" viewBox="0 0 24 24">
  <path  d="M9 9a1 1 0 0 1 1 1v6a1 1 0 1 1-2 0v-6a1 1 0 0 1 1-1Zm6 0a1 1 0 0 1 1 1v6a1 1 0 1 1-2 0v-6a1 1 0 0 1 1-1Z"/>
  <path  fill-rule="evenodd" d="M14 2a2 2 0 0 1 2 2v1h3a2 2 0 0 1 2 2v12a2 2 0 0 1-2 2h-1a1 1 0 1 1-2 0H8a1 1 0 1 1-2 0H5a2 2 0 0 1-2-2V7a2 2 0 0 1 2-2h3V4a2 2 0 0 1 2-2h4Zm1.41 4.911A.995.995 0 0 1 15 7H9a.995.995 0 0 1-.411-.089A1.998 1.998 0 0 1 8 7H5v12h14V7h-3c-.205 0-.403-.031-.59-.089ZM10 5h4V4h-4v1Z" clip-rule="evenodd"/>
</svg>
