<svg xmlns="http://www.w3.org/2000/svg" width="24" height="24" fill="currentColor" viewBox="0 0 24 24">
  <path  d="M10.67 1.236a1.078 1.078 0 0 1 1.189.139l3.453 2.94 4.194-1.728a1.078 1.078 0 0 1 1.407 1.407l-1.73 4.193 2.94 3.454a1.078 1.078 0 0 1-.902 1.773l-4.523-.35-2.376 3.865a1.078 1.078 0 0 1-1.966-.311l-.769-3.183-7.016 7.017a1.078 1.078 0 0 1-1.523-1.524l7.016-7.017-3.182-.769a1.078 1.078 0 0 1-.312-1.964L10.434 6.8l-.348-4.522a1.077 1.077 0 0 1 .585-1.043Zm1.964 6.055a1.08 1.08 0 0 1-.51 1.002l-2.22 1.363 2.533.612.144.045c.322.128.568.406.65.75l.611 2.53 1.365-2.218c.211-.344.598-.54 1-.51l2.596.2-1.688-1.982a1.078 1.078 0 0 1-.175-1.109l.993-2.408-2.407.993a1.077 1.077 0 0 1-1.11-.176l-1.983-1.688.201 2.596Z"/>
</svg>
