<svg xmlns="http://www.w3.org/2000/svg" width="24" height="24" fill="currentColor" viewBox="0 0 24 24">
  <path  d="M10.224 2.92c.371-.19.82-.137 1.138.133l3.309 2.818 4.018-1.657a1.033 1.033 0 0 1 1.348 1.348L18.38 9.58l2.818 3.31a1.033 1.033 0 0 1-.866 1.698l-4.334-.334-2.276 3.703a1.033 1.033 0 0 1-1.883-.299l-.737-3.05-6.723 6.724a1.032 1.032 0 0 1-1.46-1.46l6.723-6.723-3.049-.737a1.032 1.032 0 0 1-.298-1.882l3.702-2.278-.334-4.333c-.032-.416.19-.81.56-1Zm1.88 5.802c.03.386-.158.757-.488.96L9.49 10.987l2.426.587.137.043c.31.123.545.389.624.718l.585 2.425 1.308-2.125c.203-.33.573-.518.959-.488l2.487.191-1.617-1.9a1.033 1.033 0 0 1-.169-1.062l.952-2.307-2.307.951a1.032 1.032 0 0 1-1.062-.168l-1.9-1.618.192 2.488Z"/>
</svg>
