<svg xmlns="http://www.w3.org/2000/svg" width="24" height="24" fill="currentColor" viewBox="0 0 24 24">
  <path  d="M12.553 1.894a.5.5 0 0 1 .894 0l.479.956a.5.5 0 0 0 .223.224l.957.479a.5.5 0 0 1 0 .894l-.597.298-.36.18a.5.5 0 0 0-.223.224l-.479.956-.038.065a.5.5 0 0 1-.856-.065l-.479-.956a.5.5 0 0 0-.154-.182l-.07-.041-.955-.479a.5.5 0 0 1 0-.894l.956-.479a.5.5 0 0 0 .223-.224l.479-.956Zm-4.696 5.39a.4.4 0 0 1-.684.052l-.03-.052-.24-.477.597.297.596-.297-.239.477Zm-.714-3.568a.4.4 0 0 1 .714 0l.416.832a.4.4 0 0 0 .18.178l.354.177.297.597-.297.596-.355.177a.4.4 0 0 0-.179.18l-.177.354-.596.297-.597-.297-.176-.355a.4.4 0 0 0-.18-.179l-.831-.416a.4.4 0 0 1 0-.715l.832-.416a.4.4 0 0 0 .179-.178l.416-.832Zm2.141 1.426a.4.4 0 0 1 0 .715l-.477.239.297-.596-.297-.597.477.24ZM18 11H6v9h12v-9Zm2 9a2 2 0 0 1-2 2H6a2 2 0 0 1-2-2V10a1 1 0 0 1 1-1h14a1 1 0 0 1 1 1v10Z"/>
  <path  d="M14 13a1 1 0 1 1 0 2h-4a1 1 0 1 1 0-2h4Zm4.143-8.515a1 1 0 0 1 1.714 1.03l-2.7 4.5a1 1 0 0 1-1.715-1.03l2.7-4.5Z"/>
</svg>
