<svg xmlns="http://www.w3.org/2000/svg" width="24" height="24" fill="currentColor" viewBox="0 0 24 24">
  <path fill-rule="evenodd" d="M12 8c2.266 0 4.352.228 5.9.615.766.192 1.456.436 1.98.745.457.27 1.12.792 1.12 1.64 0 .848-.663 1.37-1.12 1.64a5.566 5.566 0 0 1-.88.409v7.598l-.61.257C16.768 21.594 14.48 22 12 22c-2.48 0-4.767-.406-6.39-1.096L5 20.646V13.05a5.561 5.561 0 0 1-.88-.41C3.664 12.37 3 11.849 3 11s.664-1.37 1.12-1.64c.524-.309 1.215-.553 1.98-.745C7.649 8.228 9.735 8 12 8Zm5 5.577c-1.416.267-3.147.423-5 .423-1.853 0-3.584-.156-5-.423v5.715c1.284.428 3.034.708 5 .708 1.966 0 3.716-.28 5-.708v-5.715ZM12 10c-2.152 0-4.066.219-5.414.556-.569.142-.997.299-1.29.444.293.145.721.302 1.29.444C7.934 11.781 9.848 12 12 12c2.152 0 4.067-.219 5.414-.556.568-.142.996-.299 1.288-.444-.293-.145-.72-.302-1.288-.444C16.066 10.219 14.152 10 12 10Z" clip-rule="evenodd"/>
  <path d="m9.752 4.258 1.494.747-1.494.747-.747 1.494-.747-1.494-1.494-.747 1.494-.747.747-1.494.747 1.494Zm5.143-1.455.1.202.202.1 1.79.895-1.79.895-.202.1-.1.202L14 6.987l-.895-1.79-.1-.202-.202-.1L11.013 4l1.79-.895.202-.1.1-.202.895-1.79.895 1.79Z"/>
</svg>
