<svg xmlns="http://www.w3.org/2000/svg" width="24" height="24" fill="currentColor" viewBox="0 0 24 24">
  <path  fill-rule="evenodd" d="M3.237 12c2.253 4.04 5.57 5.93 8.763 5.93 3.193 0 6.51-1.89 8.763-5.93C18.51 7.96 15.193 6.07 12 6.07c-3.193 0-6.51 1.89-8.763 5.93ZM12 4.092c4.048 0 7.972 2.411 10.505 6.974a1.93 1.93 0 0 1 0 1.868c-2.533 4.563-6.457 6.974-10.505 6.974-4.048 0-7.972-2.411-10.505-6.974a1.93 1.93 0 0 1 0-1.868C4.028 6.503 7.952 4.092 12 4.092Z" clip-rule="evenodd"/>
  <path  d="m10.756 10.535.802-1.605a.494.494 0 0 1 .884 0l.802 1.605a.493.493 0 0 0 .221.22l1.605.803a.494.494 0 0 1 0 .884l-1.605.802a.494.494 0 0 0-.22.221l-.803 1.605a.494.494 0 0 1-.884 0l-.802-1.605a.494.494 0 0 0-.221-.22l-1.605-.803a.494.494 0 0 1 0-.884l1.605-.802a.493.493 0 0 0 .22-.221Z"/>
</svg>
