<svg xmlns="http://www.w3.org/2000/svg" width="24" height="24" fill="currentColor" viewBox="0 0 24 24">
  <path  d="M13.553 1.895a.5.5 0 0 1 .894 0l.479.956a.5.5 0 0 0 .223.223l.957.479a.5.5 0 0 1 0 .894l-.597.298-.36.18a.5.5 0 0 0-.223.224l-.479.956-.038.065a.5.5 0 0 1-.856-.065l-.479-.956a.5.5 0 0 0-.154-.182l-.07-.041-.955-.479a.5.5 0 0 1 0-.894l.956-.479a.5.5 0 0 0 .223-.223l.479-.956ZM9.357 6.784a.4.4 0 0 1-.684.052l-.03-.052-.24-.477.597.298.596-.298-.239.477Zm-.714-3.568a.4.4 0 0 1 .714 0l.416.832a.4.4 0 0 0 .18.179l.354.176.297.597-.297.596-.355.177a.4.4 0 0 0-.179.18l-.177.354L9 6.605l-.597-.298-.176-.355a.4.4 0 0 0-.18-.179l-.831-.416a.4.4 0 0 1 0-.714l.832-.416a.4.4 0 0 0 .179-.18l.416-.831Zm2.141 1.427a.4.4 0 0 1 0 .714l-.477.239.297-.596-.297-.597.477.24ZM19 19.322c0 .787-.472 1.563-1.295 1.844C16.16 21.694 14.158 22 12 22s-4.159-.306-5.705-.834C5.472 20.886 5 20.109 5 19.322V13a1 1 0 1 1 2 0v6.291c1.29.43 3.042.709 5 .709 1.958 0 3.71-.278 5-.709V13a1 1 0 1 1 2 0v6.322Z"/>
  <path  d="M12 8c2.266 0 4.352.228 5.9.615.766.192 1.456.436 1.98.745.457.27 1.12.792 1.12 1.64 0 .848-.663 1.37-1.12 1.64-.524.309-1.214.553-1.98.745-1.548.387-3.634.615-5.9.615-2.266 0-4.352-.228-5.9-.615-.765-.192-1.456-.436-1.98-.745C3.664 12.37 3 11.848 3 11c0-.848.664-1.37 1.12-1.64.524-.309 1.215-.553 1.98-.745C7.649 8.228 9.735 8 12 8Zm0 2c-2.152 0-4.066.219-5.414.556-.569.142-.997.299-1.29.444.293.145.721.302 1.29.444C7.934 11.781 9.848 12 12 12c2.152 0 4.067-.219 5.414-.556.568-.142.995-.299 1.288-.444-.293-.145-.72-.302-1.288-.444C16.066 10.219 14.152 10 12 10Z"/>
</svg>
