<svg xmlns="http://www.w3.org/2000/svg" width="24" height="24" fill="currentColor" viewBox="0 0 24 24">
  <path  d="M3.756 11.528a3.25 3.25 0 0 1 4.097 1.769 2 2 0 0 1 2.077 1.305 4 4 0 1 1-7.518 2.736l-.598-1.645a3.25 3.25 0 0 1 1.942-4.165Zm12.39 1.769a3.25 3.25 0 0 1 6.04 2.396l-.598 1.645a4 4 0 0 1-7.518-2.736 2 2 0 0 1 2.077-1.305Zm-10.104.857a1.25 1.25 0 1 0-2.348.856l.598 1.644a2 2 0 0 0 3.759-1.368l-.47.171A1.002 1.002 0 0 1 6.3 14.86l-.257-.705Zm13.518-.747a1.25 1.25 0 0 0-1.602.747l-.257.706a1 1 0 0 1-1.28.597l-.47-.17a2 2 0 0 0 3.758 1.367l.598-1.644a1.25 1.25 0 0 0-.747-1.603ZM12 6a5.998 5.998 0 0 1 5.154 2.925 1 1 0 0 1-1.717 1.026A3.997 3.997 0 0 0 12 8.001c-1.459 0-2.736.78-3.436 1.95a1 1 0 1 1-1.717-1.026A5.998 5.998 0 0 1 12 6Zm0-3a9.001 9.001 0 0 1 8.04 4.951 1 1 0 0 1-1.786.9A7 7 0 0 0 12 5.002a7 7 0 0 0-6.254 3.85 1 1 0 0 1-1.785-.9 9 9 0 0 1 8.04-4.95Z"/>
</svg>
