<svg xmlns="http://www.w3.org/2000/svg" width="24" height="24" fill="currentColor" viewBox="0 0 24 24">
  <path d="M12.573 7c0 1.32.292 2.139.791 2.638.5.499 1.319.79 2.638.79v1.143c-1.32 0-2.139.292-2.638.791-.499.5-.79 1.319-.79 2.638H11.43c0-1.32-.292-2.139-.791-2.638-.5-.499-1.319-.79-2.638-.79v-1.143c1.32 0 2.138-.292 2.638-.791.499-.5.79-1.319.79-2.638h1.143Z"/>
  <path fill-rule="evenodd" d="M21.002 19.036h-5.627l-3.38 2.802-3.343-2.802h-5.65V3h18v16.036Zm-16-2h4.377L12 19.233l2.377-1.967.278-.23h4.347V5h-14v12.036Z" clip-rule="evenodd"/>
</svg>
