<svg xmlns="http://www.w3.org/2000/svg" width="24" height="24" fill="currentColor" viewBox="0 0 24 24">
  <path  d="M12 13.25a1.25 1.25 0 1 1 0 2.5 1.25 1.25 0 0 1 0-2.5Zm.623-4.072a.507.507 0 0 0-.5-.515c-.267 0-.5.221-.5.515a1 1 0 0 1-2 0c0-1.38 1.11-2.515 2.5-2.515s2.5 1.135 2.5 2.515c0 1.128-.743 1.716-1.18 2.012a1.2 1.2 0 0 0-.293.263.76.76 0 0 0-.14.359 1 1 0 0 1-1.977-.297c.159-1.055.778-1.634 1.286-1.979a1.12 1.12 0 0 0 .267-.225.171.171 0 0 0 .026-.048.263.263 0 0 0 .011-.085Z"/>
  <path  fill-rule="evenodd" d="M21.002 17.036a2 2 0 0 1-2 2h-3.626l-2.74 2.27-.071.054a1 1 0 0 1-1.21-.058l-2.704-2.266H5.002a2 2 0 0 1-2-2V5a2 2 0 0 1 2-2h14a2 2 0 0 1 2 2v12.036ZM5.002 5v12.036h3.65a2 2 0 0 1 1.285.467L12 19.233l2.099-1.737a2 2 0 0 1 1.276-.46h3.626V5h-14Z" clip-rule="evenodd"/>
</svg>
