<svg xmlns="http://www.w3.org/2000/svg" width="24" height="24" fill="currentColor" viewBox="0 0 24 24">
  <path fill-rule="evenodd" d="M11.999 7.726a3.017 3.017 0 0 1 2.686.145c.946.54 1.566 1.575 1.566 2.797 0 1.653-1.142 2.815-2.024 3.48a8.858 8.858 0 0 1-1.806 1.04l-.036.015-.012.005a.146.146 0 0 0-.005.002h-.002l-.367.144-.366-.143-.003-.001-.004-.002-.012-.005-.037-.014a8.563 8.563 0 0 1-.542-.255 8.855 8.855 0 0 1-1.263-.786c-.882-.665-2.024-1.827-2.024-3.48 0-1.222.62-2.256 1.565-2.797a3.014 3.014 0 0 1 2.686-.145Zm1.693 1.881c-.294-.168-.707-.203-1.15.083l-.543.351-.542-.35c-.443-.287-.855-.252-1.15-.084-.304.174-.559.535-.559 1.061 0 .679.484 1.323 1.227 1.882.348.262.703.465.973.604.017.01.035.017.051.025l.052-.025a6.84 6.84 0 0 0 .972-.604c.743-.56 1.228-1.203 1.228-1.882 0-.526-.255-.887-.559-1.06Z" clip-rule="evenodd"/>
  <path fill-rule="evenodd" d="M21.002 19.036h-5.627l-3.38 2.802-3.343-2.802h-5.65V3h18v16.036Zm-16-2h4.377L12 19.233l2.377-1.967.278-.23h4.347V5h-14v12.036Z" clip-rule="evenodd"/>
</svg>
