<svg xmlns="http://www.w3.org/2000/svg" width="24" height="24" fill="currentColor" viewBox="0 0 24 24">
  <path  d="M5.002 5v12.036h3.65a2 2 0 0 1 1.285.467L12 19.233l2.099-1.737c.359-.297.81-.46 1.276-.46h3.626V5h-14Zm9.25 5.668c0-.508-.155-.794-.295-.942a.697.697 0 0 0-.512-.226 1.211 1.211 0 0 0-.73.245l-.023.02.002-.003.005-.005.001-.003a.999.999 0 0 1-1.333.062l-.066-.059.008.008-.024-.02a1.211 1.211 0 0 0-.73-.245.697.697 0 0 0-.513.226c-.14.148-.294.434-.294.942 0 .569.436 1.214 1.161 1.814a6.5 6.5 0 0 0 .954.652l.137.071c.041-.021.088-.044.137-.071.271-.151.617-.375.953-.652.726-.6 1.161-1.245 1.161-1.814Zm2 0c-.001 1.508-1.056 2.668-1.887 3.356a8.492 8.492 0 0 1-1.257.858c-.182.1-.351.185-.496.247-.072.03-.15.061-.226.086-.043.014-.2.065-.386.065s-.344-.051-.386-.065a2.558 2.558 0 0 1-.225-.086 5.583 5.583 0 0 1-.497-.247 8.496 8.496 0 0 1-1.256-.858c-.832-.688-1.888-1.848-1.888-3.356 0-.936.298-1.736.835-2.31a2.697 2.697 0 0 1 1.972-.858c.6 0 1.09.166 1.444.344a3.207 3.207 0 0 1 1.446-.344c.72 0 1.438.29 1.971.859.538.573.835 1.373.835 2.31Zm4.75 6.368a2 2 0 0 1-2 2h-3.626l-2.74 2.27a1 1 0 0 1-1.28-.004l-2.704-2.266h-3.65a2 2 0 0 1-1.99-1.796l-.01-.204V5a2 2 0 0 1 2-2h14a2 2 0 0 1 2 2v12.036Z"/>
</svg>
