<svg xmlns="http://www.w3.org/2000/svg" width="24" height="24" fill="currentColor" viewBox="0 0 24 24">
  <path  d="M7.5 9.75a1.25 1.25 0 1 1 0 2.5 1.25 1.25 0 0 1 0-2.5Zm4.5 0a1.25 1.25 0 1 1 0 2.5 1.25 1.25 0 0 1 0-2.5Zm4.5 0a1.25 1.25 0 1 1 0 2.5 1.25 1.25 0 0 1 0-2.5Z"/>
  <path  fill-rule="evenodd" d="M20.002 3a2 2 0 0 1 2 2v12.036a2 2 0 0 1-2 2h-4.626l-2.74 2.27a1 1 0 0 1-1.28-.004l-2.704-2.266h-4.65a2 2 0 0 1-2-2V5a2 2 0 0 1 2-2h16Zm-16 14.036h4.65a2 2 0 0 1 1.285.467L12 19.233l2.099-1.737c.359-.297.81-.46 1.276-.46h4.626V5h-16v12.036Z" clip-rule="evenodd"/>
</svg>
