<svg xmlns="http://www.w3.org/2000/svg" width="24" height="24" fill="currentColor" viewBox="0 0 24 24">
  <path  d="M19 5.6c0-.297-.001-.459-.01-.576l-.003-.012-.011-.001A8.1 8.1 0 0 0 18.4 5H5.6a8.1 8.1 0 0 0-.576.01l-.012.002-.001.012A8.1 8.1 0 0 0 5 5.6v12.8c0 .297.001.46.01.576l.002.011.012.002c.117.01.28.011.576.011h12.8c.297 0 .46-.001.576-.01l.011-.003.002-.011c.01-.117.011-.28.011-.576V5.6ZM15 11a1 1 0 0 1 0 2H9a1 1 0 0 1 0-2h6Zm6 7.4c0 .264.001.522-.017.739a2.02 2.02 0 0 1-.2.77 2 2 0 0 1-.875.873 2.02 2.02 0 0 1-.77.201c-.216.018-.474.017-.738.017H5.6c-.264 0-.522.001-.739-.017a2.021 2.021 0 0 1-.77-.2 2 2 0 0 1-.873-.875 2.022 2.022 0 0 1-.201-.77C2.999 18.923 3 18.665 3 18.4V5.6c0-.264-.001-.522.017-.739.018-.228.063-.498.2-.77a2 2 0 0 1 .875-.873c.271-.138.54-.183.77-.201C5.077 2.999 5.335 3 5.6 3h12.8c.264 0 .522-.001.739.017.228.018.498.063.77.2a2 2 0 0 1 .796.737l.077.138.087.203c.072.2.1.395.114.566.018.217.017.475.017.739v12.8Z"/>
</svg>
