<svg xmlns="http://www.w3.org/2000/svg" width="24" height="24" fill="currentColor" viewBox="0 0 24 24">
  <path fill-rule="evenodd" d="M12.278 1.968A6.962 6.962 0 0 0 11.001 6a7 7 0 0 0 11.032 5.723 10.076 10.076 0 0 1-.23 2.436c-.988 4.503-5 7.873-9.8 7.873-5.542 0-10.034-4.492-10.034-10.034 0-4.8 3.37-8.812 7.873-9.8a10.073 10.073 0 0 1 2.436-.23ZM9.127 4.494a8.034 8.034 0 1 0 10.38 10.38 9 9 0 0 1-10.38-10.38Z" clip-rule="evenodd"/>
  <path d="M18.668 5.333 21.001 6.5l-2.333 1.167L17.501 10l-1.167-2.333L14.001 6.5l2.333-1.167L17.501 3l1.167 2.333Z"/>
</svg>
