<svg xmlns="http://www.w3.org/2000/svg" width="24" height="24" fill="currentColor" viewBox="0 0 24 24">
  <path  d="m15.256 4 .164.007a2 2 0 0 1 1.752 1.419l2.786 9.287a1 1 0 0 1-1.916.574l-1.548-5.157-11.031 5.757a1 1 0 0 1-.926-1.774l5.155-2.69L7.2 8.1a1.009 1.009 0 0 1-.065-.1H7a1 1 0 1 1 0-2h3a1 1 0 1 1 0 2h-.376l1.864 2.485L15.91 8.18 15.256 6H14a1 1 0 1 1 0-2h1.256Z"/>
  <path  d="M22 15a3 3 0 1 0-6 0 3 3 0 0 0 6 0Zm2 0a5 5 0 1 1-10 0 5 5 0 0 1 10 0ZM8 15a3 3 0 1 0-6 0 3 3 0 0 0 6 0Zm2 0a5 5 0 1 1-10 0 5 5 0 0 1 10 0Z"/>
</svg>
