<svg xmlns="http://www.w3.org/2000/svg" width="24" height="24" fill="currentColor" viewBox="0 0 24 24">
  <path fill-rule="evenodd" d="M20.996 15.5c0 2.096-1.97 3.5-4 3.5-2.03 0-4-1.404-4-3.5s1.97-3.5 4-3.5c.7 0 1.393.166 2 .47V4.345l-8 2.4V18.5c0 2.096-1.97 3.5-4 3.5-2.03 0-4-1.404-4-3.5s1.97-3.5 4-3.5c.7 0 1.393.166 2 .47V5.257l12-3.6V15.5Zm-14 1.5c-1.283 0-2 .835-2 1.5s.717 1.5 2 1.5 2-.835 2-1.5-.717-1.5-2-1.5Zm10-3c-1.283 0-2 .835-2 1.5 0 .666.717 1.5 2 1.5s2-.835 2-1.5-.717-1.5-2-1.5Z" clip-rule="evenodd"/>
</svg>
