<svg xmlns="http://www.w3.org/2000/svg" width="24" height="24" fill="currentColor" viewBox="0 0 24 24">
  <path  d="M9 18.328c0-.665-.717-1.5-2-1.5s-2 .835-2 1.5c0 .666.717 1.5 2 1.5s2-.834 2-1.5Zm10-3c0-.665-.717-1.5-2-1.5s-2 .835-2 1.5c0 .666.717 1.5 2 1.5s2-.834 2-1.5Zm2 0c0 2.096-1.97 3.5-4 3.5-2.03 0-4-1.404-4-3.5 0-2.095 1.97-3.5 4-3.5.7 0 1.393.167 2 .471V4.173l-8 2.4v11.755c0 2.096-1.97 3.5-4 3.5-2.03 0-4-1.404-4-3.5 0-2.095 1.97-3.5 4-3.5.7 0 1.393.167 2 .471V6.573a2 2 0 0 1 1.425-1.915l8-2.4A2 2 0 0 1 21 4.172v11.155Z"/>
</svg>
