<svg xmlns="http://www.w3.org/2000/svg" width="24" height="24" fill="currentColor" viewBox="0 0 24 24">
  <path  d="M16.566 5a5.993 5.993 0 0 1 5.314 3.216 1 1 0 0 1 1.327 1.491l-.667.666c.238 1.808-.073 3.8-.952 5.417-.985 1.812-2.726 3.21-5.189 3.21H7.601c-2.463 0-4.204-1.398-5.189-3.21-.879-1.618-1.19-3.61-.952-5.417l-.667-.666a1 1 0 0 1 1.326-1.491A5.994 5.994 0 0 1 7.434 5h9.132ZM7.434 7a4.003 4.003 0 0 0-3.925 3.222c-.3 1.52-.068 3.273.66 4.613C4.882 16.143 6.019 17 7.602 17H16.4c1.583 0 2.72-.857 3.431-2.165.729-1.34.961-3.094.661-4.613A4.003 4.003 0 0 0 16.566 7H7.434ZM13 8a1 1 0 1 1 0 2h-2a1 1 0 1 1 0-2h2Z"/>
</svg>
