<svg xmlns="http://www.w3.org/2000/svg" width="24" height="24" fill="currentColor" viewBox="0 0 24 24">
  <path  d="M14.727 9.727v8.182h3.637V9.727h-3.637Zm-4.545 2.727a.91.91 0 1 1 0 1.819H8.364a.91.91 0 1 1 0-1.819h1.818Zm0-3.636a.91.91 0 1 1 0 1.818H8.364a.91.91 0 1 1 0-1.818h1.818ZM5.636 6.091v11.818h7.273V6.091H5.636Zm9.091 1.818h3.637c1.004 0 1.818.814 1.818 1.818v8.182h.909a.91.91 0 1 1 0 1.818H2.909a.91.91 0 0 1 0-1.818h.91V6.091c0-1.004.813-1.818 1.817-1.818h7.273c1.004 0 1.818.814 1.818 1.818v1.818Z"/>
</svg>
