<svg xmlns="http://www.w3.org/2000/svg" width="24" height="24" fill="currentColor" viewBox="0 0 24 24">
  <path d="M8 14.75a1.25 1.25 0 1 1 0 2.5 1.25 1.25 0 0 1 0-2.5Zm4 0a1.25 1.25 0 1 1 0 2.5 1.25 1.25 0 0 1 0-2.5Zm4 0a1.25 1.25 0 1 1 0 2.5 1.25 1.25 0 0 1 0-2.5ZM8 11a1.25 1.25 0 1 1 0 2.5A1.25 1.25 0 0 1 8 11Zm4 0a1.25 1.25 0 1 1 0 2.5 1.25 1.25 0 0 1 0-2.5Zm4 0a1.25 1.25 0 1 1 0 2.5 1.25 1.25 0 0 1 0-2.5ZM8 7a1.25 1.25 0 1 1 0 2.5A1.25 1.25 0 0 1 8 7Zm4 0a1.25 1.25 0 1 1 0 2.5A1.25 1.25 0 0 1 12 7Zm4 0a1.25 1.25 0 1 1 0 2.5A1.25 1.25 0 0 1 16 7Z"/>
  <path fill-rule="evenodd" d="M19 3a2 2 0 0 1 2 2v14a2 2 0 0 1-2 2H5a2 2 0 0 1-2-2V5a2 2 0 0 1 2-2h14ZM5 19h14V5H5v14Z" clip-rule="evenodd"/>
</svg>
