<svg xmlns="http://www.w3.org/2000/svg" width="24" height="24" fill="currentColor" viewBox="0 0 24 24">
<path d="M11 14C11.5523 14 12 14.4477 12 15C12 15.5523 11.5523 16 11 16H7C6.44772 16 6 15.5523 6 15C6 14.4477 6.44772 14 7 14H11Z" />
<path d="M8 10.5C8.55228 10.5 9 10.9477 9 11.5C9 12.0523 8.55228 12.5 8 12.5H7C6.44772 12.5 6 12.0523 6 11.5C6 10.9477 6.44772 10.5 7 10.5H8Z" />
<path fill-rule="evenodd" clip-rule="evenodd" d="M20 4C21.1046 4 22 4.89543 22 6V18C22 19.1046 21.1046 20 20 20H4C2.89543 20 2 19.1046 2 18V6C2 4.89543 2.89543 4 4 4H20ZM4 18H20V6H4V18Z" />
</svg>
