<svg xmlns="http://www.w3.org/2000/svg" width="24" height="24" fill="currentColor" viewBox="0 0 24 24">
<path fill-rule="evenodd" clip-rule="evenodd" d="M12 11.042C13.369 11.042 14.4785 12.1525 14.4785 13.5215C14.4784 14.8904 13.3689 16 12 16C10.6311 16 9.52164 14.8903 9.52148 13.5215C9.52148 12.1525 10.631 11.042 12 11.042ZM12 12.168C11.2525 12.168 10.6465 12.774 10.6465 13.5215C10.6466 14.2688 11.2526 14.875 12 14.875C12.7474 14.875 13.3534 14.2688 13.3535 13.5215C13.3535 12.774 12.7475 12.168 12 12.168Z" />
<path d="M12.7061 10.582H11.3584V8.15332H10.1514L10.5322 7H12.7061V10.582Z" />
<path fill-rule="evenodd" clip-rule="evenodd" d="M17 2C18.1046 2 19 2.89545 19 4V20C19 21.1046 18.1046 22 17 22H7C5.89545 22 5 21.1046 5 20V4C5 2.89544 5.89544 2 7 2H17ZM7 20H17V4H7V20Z" />
</svg>
