<svg xmlns="http://www.w3.org/2000/svg" width="24" height="24" fill="currentColor" viewBox="0 0 24 24">
  <path  fill-rule="evenodd" d="M6.647 4.064A1.001 1.001 0 0 1 7.999 5v5h1a2 2 0 0 1 2 2v6a2 2 0 0 1-2 2h-5a2 2 0 0 1-2-1.999V11c0-2.585 1.162-4.335 2.316-5.417a8.163 8.163 0 0 1 2.098-1.42c.066-.03.12-.053.16-.07l.049-.019.015-.007c.002 0 .004 0 .006-.002h.002s.007.01.354.935l-.352-.936Zm-.965 2.978C4.836 7.835 4 9.086 4 11v7h5v-6H7a1 1 0 0 1-1-1V6.766a5.947 5.947 0 0 0-.317.276Zm11.965-2.978a1.001 1.001 0 0 1 1.352.935L19.002 10h1a2 2 0 0 1 2 2.001l-.002 6A2 2 0 0 1 20 20h-5.002a2 2 0 0 1-2-1.999V11c0-2.585 1.163-4.335 2.317-5.417a8.165 8.165 0 0 1 1.568-1.15 7.083 7.083 0 0 1 .69-.34l.049-.019.015-.007c.002 0 .004 0 .006-.002h.002s.007.01.354.934l-.352-.935Zm-.965 2.978C15.837 7.835 15 9.086 15 11v7h5l.003-6h-2a1 1 0 0 1-1-.999L17 6.765a6.03 6.03 0 0 0-.318.277Z" clip-rule="evenodd"/>
</svg>
