<svg xmlns="http://www.w3.org/2000/svg" width="24" height="24" fill="currentColor" viewBox="0 0 24 24">
  <path fill-rule="evenodd" d="M8.003 10h3L11 20H2v-9c0-2.585 1.162-4.335 2.316-5.417a8.161 8.161 0 0 1 2.098-1.42c.066-.03.12-.053.16-.07l.05-.019.015-.007c.002 0 .004 0 .006-.002h.001c.001 0 .003-.001.354.934l-.352-.936L8 3.558 8.003 10Zm-2.32-2.958C4.839 7.835 4 9.085 4 11v7h5l.004-6h-3l-.003-5.235a6.006 6.006 0 0 0-.317.277ZM19 10h3v10h-9v-9c0-2.585 1.162-4.335 2.316-5.417a8.16 8.16 0 0 1 2.098-1.42c.066-.03.12-.053.16-.07l.049-.019.016-.007c.002 0 .004 0 .006-.002h.002s.002-.001.353.935l-.352-.937L19 3.557V10Zm-2.316-2.958C15.838 7.835 15 9.085 15 11v7h5v-6h-3V6.766c-.104.085-.21.177-.316.276Z" clip-rule="evenodd"/>
</svg>
