<svg xmlns="http://www.w3.org/2000/svg" width="24" height="24" fill="currentColor" viewBox="0 0 24 24">
  <path  d="M19 13a7 7 0 1 0-14 0 7 7 0 0 0 14 0Zm-4 0a1 1 0 0 1 2 0 5 5 0 0 1-5 5 1 1 0 0 1 0-2 3 3 0 0 0 3-3Zm1.785-10.475a3.073 3.073 0 0 0-1.52.413 3.46 3.46 0 0 0-1.176 1.114 3.458 3.458 0 0 0 1.553-.46 3.458 3.458 0 0 0 1.143-1.067ZM21 13a9 9 0 1 1-10.595-8.857 3.728 3.728 0 0 0-1.682-.996 1 1 0 0 1 .555-1.922c1.249.36 2.295 1.099 2.97 2.009a5.452 5.452 0 0 1 2.017-2.028c1.394-.804 2.769-.77 4.148-.543a1.001 1.001 0 0 1 .808 1.226 5.46 5.46 0 0 1-2.55 3.416A8.996 8.996 0 0 1 21.001 13Z"/>
</svg>
