<svg xmlns="http://www.w3.org/2000/svg" width="24" height="24" fill="currentColor" viewBox="0 0 24 24">
  <path  d="M3.043 17.993c6.095-1.81 11.82-1.81 17.914 0 .01.002.014.001.019 0a.047.047 0 0 0 .018-.007L21 17.98V6.007l-.006-.005a.044.044 0 0 0-.017-.007.04.04 0 0 0-.019.002c-6.121 1.794-11.795 1.794-17.916 0a.04.04 0 0 0-.019-.002.045.045 0 0 0-.023.012V17.98l.006.006a.048.048 0 0 0 .018.008c.005 0 .01.001.019-.001ZM23 17.979c0 1.38-1.343 2.307-2.612 1.93-5.724-1.699-11.053-1.699-16.776 0C2.342 20.287 1 19.36 1 17.98V6.009c0-1.377 1.336-2.304 2.604-1.932 5.754 1.686 11.038 1.686 16.791 0C21.665 3.705 23 4.632 23 6.008v11.97Z"/>
</svg>
