<svg xmlns="http://www.w3.org/2000/svg" width="24" height="24" fill="currentColor" viewBox="0 0 24 24">
  <path fill-rule="evenodd" d="M19.877 16.464 1.982 22.019 7.534 4.12l12.343 12.343ZM5.017 18.98l11.102-3.446-7.657-7.657L5.018 18.98Z" clip-rule="evenodd"/>
  <path d="M18.042 10.001h.007l.01.001.036.002.116.008a7.754 7.754 0 0 1 1.594.305 7.42 7.42 0 0 1 1.168.517 11.45 11.45 0 0 1 .508.289l.033.019.01.006.002.001.001.001.85.529-1.056 1.698-.848-.527-.005-.003-.023-.014a5.51 5.51 0 0 0-1.25-.61 5.119 5.119 0 0 0-1.146-.217 4.844 4.844 0 0 0-.075-.006l-.016-.001-.999-.042.084-1.998.999.042ZM17.914 7.5 15.5 9.914 14.086 8.5 16.5 6.086 17.914 7.5Zm4.428.447-2.79 1.395-.894-1.79 2.79-1.394.894 1.79Zm-7.357-6.116.001.004.001.005.002.014.007.045a8.251 8.251 0 0 1 .07.683 6.82 6.82 0 0 1-.083 1.6c-.127.69-.447 1.31-.7 1.726a7.127 7.127 0 0 1-.464.67l-.035.042-.01.014-.004.005-.002.002L13 6l.767.642-.642.766-1.533-1.283.641-.767.018-.022a5.177 5.177 0 0 0 .323-.469c.199-.325.379-.704.443-1.049.068-.37.071-.78.051-1.12a6.237 6.237 0 0 0-.05-.504l-.003-.024-.001-.003v.001l-.168-.985 1.971-.337.168.985Zm5.045 1.066L18.903 6.03l-1.881-.676 1.126-3.132 1.882.676Z"/>
</svg>
