<svg xmlns="http://www.w3.org/2000/svg" width="24" height="24" fill="currentColor" viewBox="0 0 24 24">
  <path  d="M6.58 7.115a1.992 1.992 0 0 1 3.283-.729l7.75 7.75a1.993 1.993 0 0 1-.73 3.282L4.717 21.835c-1.59.577-3.13-.963-2.553-2.552L6.581 7.115ZM4.037 19.962l12.168-4.418-7.75-7.749-4.418 12.167ZM18.063 9.97h.012l.034.003.116.008a7.729 7.729 0 0 1 1.588.304c.422.135.859.351 1.164.515a10.593 10.593 0 0 1 .506.287l.032.02.01.005.003.002v.001a.996.996 0 0 1-1.05 1.693l-.005-.003-.021-.013a8.5 8.5 0 0 0-.415-.235 5.49 5.49 0 0 0-.832-.373 5.107 5.107 0 0 0-1.142-.216l-.074-.006-.016-.001a.996.996 0 0 1 .084-1.991h.006Zm-2.247-3.196a.996.996 0 0 1 1.41 1.409l-.997.996A.996.996 0 0 1 14.82 7.77l.996-.996Zm4.743-.187a.996.996 0 0 1 .891 1.782l-.996.499a.997.997 0 0 1-.892-1.783l.997-.498Zm-6.697-5.57a.996.996 0 0 1 1.15.813v.009l.004.013.006.046a8.29 8.29 0 0 1 .068.68c.025.42.028 1.006-.081 1.594-.127.687-.446 1.306-.699 1.72a7.136 7.136 0 0 1-.46.667l-.035.042-.01.014-.005.005-.003.003a.997.997 0 0 1-1.528-1.279l.017-.022a5.145 5.145 0 0 0 .323-.467c.198-.324.378-.702.441-1.045a4.88 4.88 0 0 0 .052-1.116 6.216 6.216 0 0 0-.036-.397l-.015-.105-.004-.025-.011-.103a.996.996 0 0 1 .826-1.048Zm3.963 2.138a.996.996 0 0 1 1.875.675l-.449 1.246a.996.996 0 0 1-1.875-.676l.449-1.245Z"/>
</svg>
