<svg xmlns="http://www.w3.org/2000/svg" width="24" height="24" fill="currentColor" viewBox="0 0 24 24">
  <path  d="M20.026 17.676c0-.447-.136-.687-.248-.806a.558.558 0 0 0-.41-.181 1.025 1.025 0 0 0-.618.206l-.014.01c.002 0 .003-.002.005-.004a.987.987 0 0 1-1.38 0l.005.005-.013-.01a1.025 1.025 0 0 0-.618-.206.558.558 0 0 0-.41.18c-.112.12-.247.36-.247.806 0 .482.372 1.05 1.03 1.593.301.25.612.45.856.586.03.017.06.03.087.044.027-.015.057-.027.088-.044a5.83 5.83 0 0 0 .857-.586c.657-.543 1.03-1.11 1.03-1.593Zm-7.896-5.675c.377 0 .746.022 1.106.066a.987.987 0 0 1-.24 1.96 7.116 7.116 0 0 0-.866-.052c-3.2 0-5.538 2.07-6.238 4.935h5.744a.987.987 0 0 1 0 1.974H5.811c-1.12 0-2.164-1.001-1.878-2.274l.086-.35c.955-3.588 4-6.26 8.11-6.26Zm2.467-5.429a2.468 2.468 0 1 0-4.935 0 2.468 2.468 0 0 0 4.935 0ZM22 17.676c0 1.41-.985 2.486-1.747 3.115a7.812 7.812 0 0 1-1.155.79c-.167.093-.325.17-.46.228a2.41 2.41 0 0 1-.212.081c-.04.013-.193.063-.374.063-.182 0-.335-.05-.375-.063a2.41 2.41 0 0 1-.212-.08 5.13 5.13 0 0 1-.46-.23 7.812 7.812 0 0 1-1.155-.789c-.762-.629-1.746-1.706-1.746-3.115 0-.87.276-1.616.78-2.155a2.531 2.531 0 0 1 1.851-.806c.542 0 .988.144 1.316.304.328-.16.775-.304 1.317-.304.676 0 1.35.272 1.85.806.505.539.782 1.286.782 2.155ZM16.572 6.572a4.442 4.442 0 1 1-8.885 0 4.442 4.442 0 0 1 8.884 0Z"/>
</svg>
