<svg xmlns="http://www.w3.org/2000/svg" width="24" height="24" fill="currentColor" viewBox="0 0 24 24">
  <path d="m16.707 8.707-8 8-1.414-1.414 8-8 1.414 1.414Z"/>
  <path fill-rule="evenodd" d="M15 13.75a1.25 1.25 0 1 1 0 2.5 1.25 1.25 0 0 1 0-2.5Zm0 .75a.5.5 0 1 0 0 1 .5.5 0 0 0 0-1ZM9 7.75a1.25 1.25 0 1 1 0 2.5 1.25 1.25 0 0 1 0-2.5Zm0 .75a.5.5 0 1 0 0 1 .5.5 0 0 0 0-1Z" clip-rule="evenodd"/>
  <path fill-rule="evenodd" d="M12 2c5.523 0 10 4.477 10 10s-4.477 10-10 10S2 17.523 2 12 6.477 2 12 2Zm0 2a8 8 0 1 0 0 16 8 8 0 0 0 0-16Z" clip-rule="evenodd"/>
</svg>
