<svg xmlns="http://www.w3.org/2000/svg" width="24" height="24" fill="currentColor" viewBox="0 0 24 24">
  <path  d="M13 19h-2a2 2 0 0 1-2 2H7a2 2 0 0 1-2-2v-1.453A5.773 5.773 0 0 1 3.452 16H3a2 2 0 0 1-2-2v-3.065a2 2 0 0 1 2-2h.325c.286-.648.656-1.291 1.175-1.851V5c0-1.047.89-2.119 2.161-1.906 1.33.222 2.248.804 2.839 1.353.211.196.378.387.508.553H14a7 7 0 0 1 7 7c0 .68-.1 1.337-.282 1.958a.996.996 0 0 0 1.148-1.457 1 1 0 0 1 1.73-1.002 3 3 0 0 1-3.715 4.284A7.055 7.055 0 0 1 19 16.886V19a2 2 0 0 1-2 2h-2a2 2 0 0 1-2-2ZM8.312 9.502c.016 0 .033.002.05.004.008 0 .018 0 .027.002.015.001.03.004.046.007l.035.005.042.007.05.013.028.008.038.01.042.015a1.262 1.262 0 0 1 .078.031l.013.005.037.018.022.012.042.022.013.007.007.004.048.03.037.025.022.016c.015.01.03.022.043.033l.024.02.03.025.032.031.03.03.03.031.02.022a1.27 1.27 0 0 1 .058.074l.017.025.025.037.02.03.015.024.006.013a1.39 1.39 0 0 1 .046.09l.009.021.014.034.019.048c.005.014.01.027.013.041l.01.033.01.038.012.044.005.027.007.042a1.242 1.242 0 0 1 .015.183l.001.01-.001.01c0 .02 0 .04-.002.058v.026a1.236 1.236 0 0 1-.02.138l-.004.027-.012.049-.012.039-.007.029-.015.042a1.262 1.262 0 0 1-.02.055l-.01.024-.008.019-.03.06-.017.033-.009.017-.009.013-.027.042-.02.032a1.235 1.235 0 0 1-.053.07c-.008.008-.014.018-.022.027l-.024.028-.035.036-.016.017-.04.037a1.553 1.553 0 0 1-.067.056l-.023.018-.03.021a1.302 1.302 0 0 1-.077.05c-.005.003-.01.008-.015.01l-.012.006-.046.024-.043.022a1.221 1.221 0 0 1-.077.032l-.024.009-.013.005-.021.007a1.39 1.39 0 0 1-.092.025l-.036.01-.029.005-.048.008c-.015.003-.03.006-.044.007l-.038.003-.036.002a1.295 1.295 0 0 1-.055.002h-.023l-.055-.002-.036-.002-.038-.003-.044-.007c-.016-.002-.032-.004-.048-.008l-.029-.005-.036-.01a1.161 1.161 0 0 1-.045-.01l-.047-.015-.021-.007-.013-.005-.024-.01a1.221 1.221 0 0 1-.077-.031c-.015-.007-.03-.014-.043-.022-.02-.01-.039-.018-.057-.03l-.016-.01a1.128 1.128 0 0 1-.077-.05l-.03-.021-.023-.018a1.293 1.293 0 0 1-.123-.11l-.035-.036a1.033 1.033 0 0 1-.024-.028l-.022-.028a1.237 1.237 0 0 1-.141-.22l-.016-.032-.015-.033c-.007-.014-.011-.029-.017-.043l-.014-.036-.014-.042-.008-.03a1.293 1.293 0 0 1-.01-.038c-.005-.017-.01-.033-.013-.05a1.21 1.21 0 0 1-.006-.034l-.006-.04c-.003-.015-.006-.03-.007-.044l-.002-.028a1.257 1.257 0 0 1-.004-.058L7 10.784v-.067l.002-.03c0-.016.002-.033.004-.05 0-.008 0-.018.002-.027.002-.02.006-.041.01-.062 0-.006.001-.013.003-.019l.007-.043a1.235 1.235 0 0 1 .02-.08l.01-.034.015-.041.017-.044.015-.038.013-.03.016-.03.016-.035.018-.03.007-.01.026-.043.026-.037.016-.025a1.296 1.296 0 0 1 .059-.074l.02-.022.029-.031.03-.03.032-.03.007-.007.047-.039.043-.033.022-.016.037-.025.048-.03.008-.004.012-.007a1.24 1.24 0 0 1 .042-.022l.04-.02.032-.015.013-.005.048-.02.017-.006.042-.014.037-.011.029-.008c.016-.004.033-.01.05-.013l.042-.007.035-.005c.016-.003.031-.006.046-.007l.028-.002.05-.004.029-.002h.066l.029.002Zm.27-3.05-.002-.003-.002-.005-.002-.003.006.01Zm-.006-.013v.002l-.004-.006a1.558 1.558 0 0 0-.07-.11 2.623 2.623 0 0 0-.363-.413c-.32-.298-.841-.645-1.639-.811V7.5a1 1 0 0 1-.33.742c-.543.49-.916 1.176-1.23 2.036a1 1 0 0 1-.94.657H3V14h1l.133.009a1 1 0 0 1 .732.49c.437.756.88 1.196 1.638 1.637A1 1 0 0 1 7 17v2h2a2 2 0 0 1 2-2h2a2 2 0 0 1 2 2h2v-2.537a1 1 0 0 1 .332-.744A4.978 4.978 0 0 0 19 11.999a5 5 0 0 0-5-5H9.474a1 1 0 0 1-.828-.439l-.07-.12Z"/>
</svg>
