<svg xmlns="http://www.w3.org/2000/svg" width="24" height="24" fill="currentColor" viewBox="0 0 24 24">
  <path d="M15.136 13.209c1.821.25 3.448.72 4.65 1.37C20.921 15.19 22 16.153 22 17.5c0 .858-.45 1.566-1.03 2.099-.579.532-1.361.965-2.243 1.308C16.956 21.596 14.577 22 12 22s-4.956-.404-6.727-1.093c-.882-.343-1.664-.776-2.243-1.308C2.45 19.066 2 18.358 2 17.5c0-1.346 1.08-2.309 2.214-2.922 1.202-.65 2.829-1.119 4.65-1.369l.272 1.98c-1.674.23-3.047.65-3.971 1.149C4.174 16.874 4 17.323 4 17.5c0 .109.053.322.384.626.332.305.868.627 1.614.917C7.485 19.621 9.606 20 12 20c2.393 0 4.515-.379 6.002-.957.746-.29 1.282-.612 1.614-.917.331-.305.384-.517.384-.626 0-.177-.174-.626-1.165-1.162-.924-.5-2.297-.919-3.97-1.149l.27-1.98Z"/>
  <path fill-rule="evenodd" d="M19.984 6.5 13 10.574V17h-2V1.259L19.984 6.5ZM13 8.258 16.014 6.5 13 4.741v3.517Z" clip-rule="evenodd"/>
</svg>
