<svg xmlns="http://www.w3.org/2000/svg" width="24" height="24" fill="currentColor" viewBox="0 0 24 24">
  <path  d="M2 17.5c0-1.218.89-2.12 1.865-2.72 1.017-.624 2.394-1.097 3.946-1.397a1 1 0 1 1 .378 1.963c-1.411.273-2.535.681-3.277 1.138-.783.481-.912.86-.912 1.016 0 .11.053.323.384.627.332.306.868.626 1.614.916C7.485 19.621 9.606 20 12 20c2.393 0 4.515-.379 6.002-.957.746-.29 1.282-.61 1.614-.916.332-.304.384-.518.384-.627 0-.156-.129-.535-.912-1.016-.742-.457-1.866-.865-3.278-1.138a1 1 0 1 1 .38-1.963c1.551.3 2.928.773 3.945 1.398C21.11 15.38 22 16.282 22 17.5c0 .857-.45 1.565-1.03 2.098-.579.532-1.361.965-2.243 1.308C16.956 21.598 14.577 22 12 22s-4.956-.404-6.727-1.093c-.882-.343-1.664-.776-2.243-1.308C2.45 19.066 2 18.358 2 17.5Zm9-.5V3a1 1 0 0 1 1.504-.864l6 3.5a1 1 0 0 1 0 1.729L13 10.575V17a1 1 0 1 1-2 0Zm2-8.742L16.014 6.5 13 4.742v3.516Z"/>
</svg>
