<svg xmlns="http://www.w3.org/2000/svg" width="24" height="24" fill="currentColor" viewBox="0 0 24 24">
  <path  d="M18.269 3.477a1.953 1.953 0 0 1 2.254 2.254l-2.445 14.26c-.181 1.058-1.214 1.825-2.329 1.55a18.086 18.086 0 0 1-8.496-4.794 18.086 18.086 0 0 1-4.795-8.496c-.274-1.115.493-2.148 1.55-2.329l14.26-2.445ZM4.369 7.84a16.131 16.131 0 0 0 4.265 7.526 16.13 16.13 0 0 0 7.525 4.264l.253-1.47a14.644 14.644 0 0 1-6.728-3.844 14.663 14.663 0 0 1-3.846-6.728l-1.47.252Zm11.52 5.152a1.952 1.952 0 0 0-1.946 2.106c.894.492 1.834.869 2.8 1.13l.465-2.72a1.94 1.94 0 0 0-1.319-.516Zm-.988-6.958-1.919.33a.976.976 0 0 0 1.93-.206c0-.042-.006-.083-.01-.123Zm1.964.124a2.929 2.929 0 0 1-5.808.536l-3.288.564a12.712 12.712 0 0 0 4.361 6.63 3.906 3.906 0 0 1 5.436-2.469l1.033-6.018-1.77.304c.022.148.036.3.036.453Z"/>
</svg>
