<svg xmlns="http://www.w3.org/2000/svg" width="24" height="24" fill="currentColor" viewBox="0 0 24 24">
  <path fill-rule="evenodd" d="m17.9 22.168-.997-.185a18.527 18.527 0 0 1-9.75-5.136 18.528 18.528 0 0 1-5.136-9.75L1.832 6.1l19.393-3.325L17.9 22.168ZM4.201 7.723a16.522 16.522 0 0 0 4.367 7.709 16.522 16.522 0 0 0 7.708 4.366l.257-1.502a15.021 15.021 0 0 1-6.89-3.94 15.021 15.021 0 0 1-3.94-6.891l-1.502.258ZM16 13a2 2 0 0 0-2 2v.155c.918.506 1.882.893 2.873 1.161l.479-2.79-.019-.017A1.99 1.99 0 0 0 16 13Zm.963-7.466a3 3 0 0 1-5.913 1.014l-3.367.577a13.02 13.02 0 0 0 3.375 5.816c.35.35.713.675 1.09.977a4.001 4.001 0 0 1 5.57-2.53l1.057-6.164-1.812.31Zm-3.94.676a1 1 0 0 0 1.968-.338l-1.968.338Z" clip-rule="evenodd"/>
</svg>
