<svg xmlns="http://www.w3.org/2000/svg" width="24" height="24" fill="currentColor" viewBox="0 0 24 24">
  <path  d="M3 19v-1a1 1 0 1 1 2 0v1h1a1 1 0 1 1 0 2H5a2 2 0 0 1-2-2Zm10.5 0a1 1 0 1 1 0 2h-3a1 1 0 1 1 0-2h3Zm5.5 0v-1a1 1 0 1 1 2 0v1a2 2 0 0 1-2 2h-1a1 1 0 1 1 0-2h1ZM3 13.5v-3a1 1 0 0 1 2 0v3a1 1 0 1 1-2 0Zm16 0v-3a1 1 0 1 1 2 0v3a1 1 0 1 1-2 0ZM3 6V5a2 2 0 0 1 2-2h1a1 1 0 0 1 0 2H5v1a1 1 0 0 1-2 0Zm16 0V5h-1a1 1 0 1 1 0-2h1a2 2 0 0 1 2 2v1a1 1 0 1 1-2 0Zm-5.5-3a1 1 0 1 1 0 2h-3a1 1 0 0 1 0-2h3Z"/>
</svg>
