<svg xmlns="http://www.w3.org/2000/svg" width="24" height="24" fill="currentColor" viewBox="0 0 24 24">
  <path d="m7.842 17.553-1.895 3.789-1.789-.895 1.895-3.789 1.789.895Zm5 0-1.895 3.789-1.789-.895 1.895-3.789 1.789.895Zm5 0-1.895 3.789-1.789-.895 1.895-3.789 1.789.895Z"/>
  <path fill-rule="evenodd" d="M9.5 2a6.495 6.495 0 0 1 5.535 3.093A5 5 0 1 1 16 15H9.5a6.5 6.5 0 1 1 0-13Zm0 2a4.5 4.5 0 1 0 0 9H16a3 3 0 1 0-1.1-5.792l-.893.353-.389-.878A4.502 4.502 0 0 0 9.5 4Z" clip-rule="evenodd"/>
</svg>
