<svg xmlns="http://www.w3.org/2000/svg" width="24" height="24" fill="currentColor" viewBox="0 0 24 24">
  <path  d="M6.333 3.89v14.003l.644-.552.069-.054a.945.945 0 0 1 1.161.054l1.588 1.361 1.59-1.361.069-.054a.944.944 0 0 1 1.16.054l1.59 1.361 1.589-1.361.068-.054a.944.944 0 0 1 1.162.054l.644.552V3.89H6.333Zm4.722 6.61a.945.945 0 1 1 0 1.89H9.166a.945.945 0 1 1 0-1.89h1.89Zm3.779-3.777a.945.945 0 1 1 0 1.889H9.166a.945.945 0 0 1 0-1.89h5.668Zm4.722 13.223a.944.944 0 0 1-1.559.717l-1.59-1.362-1.588 1.362a.945.945 0 0 1-1.23 0L12 19.3l-1.59 1.363a.945.945 0 0 1-1.229 0l-1.59-1.362-1.589 1.362a.944.944 0 0 1-1.558-.717V3.89A1.89 1.89 0 0 1 6.333 2h11.334a1.89 1.89 0 0 1 1.89 1.89v16.056Z"/>
</svg>
