<svg xmlns="http://www.w3.org/2000/svg" width="24" height="24" fill="currentColor" viewBox="0 0 24 24">
  <path  d="M12.124 11.993c.376 0 .745.022 1.105.067a.987.987 0 0 1-.24 1.958 7.126 7.126 0 0 0-.865-.052c-3.198 0-5.534 2.07-6.234 4.931h6.234a.987.987 0 0 1 0 1.973H5.809c-1.12 0-2.162-1-1.876-2.272l.086-.35c.954-3.586 3.997-6.255 8.105-6.255Zm7.192 3.248a.987.987 0 0 1 1.395 1.395l-1.275 1.275 1.275 1.275a.987.987 0 0 1-1.395 1.395l-1.275-1.276-1.275 1.276a.987.987 0 0 1-1.395-1.395l1.275-1.275-1.275-1.275a.987.987 0 0 1 1.395-1.395l1.275 1.274 1.275-1.274ZM14.59 6.569a2.466 2.466 0 1 0-4.933 0 2.466 2.466 0 0 0 4.932 0Zm1.972 0a4.439 4.439 0 1 1-8.877-.001 4.439 4.439 0 0 1 8.877 0Z"/>
</svg>
