<svg xmlns="http://www.w3.org/2000/svg" width="24" height="24" fill="currentColor" viewBox="0 0 24 24">
  <path d="M18.4 3c.264 0 .522-.001.739.017.228.018.498.063.77.2a2 2 0 0 1 .796.737l.077.138.087.203c.072.2.1.395.114.566.018.217.017.475.017.739V9a1 1 0 1 1-2 0V5.6c0-.297-.001-.459-.01-.576l-.003-.012-.011-.001A8.1 8.1 0 0 0 18.4 5H5.6a8.1 8.1 0 0 0-.576.01l-.012.002-.001.012A8.1 8.1 0 0 0 5 5.6v12.8c0 .297.001.46.01.576l.002.011.012.002c.117.01.28.011.576.011H9a1 1 0 1 1 0 2H5.6c-.264 0-.522.001-.739-.017a2.021 2.021 0 0 1-.77-.2 2 2 0 0 1-.873-.875 2.022 2.022 0 0 1-.201-.77C2.999 18.923 3 18.665 3 18.4V5.6c0-.264-.001-.522.017-.739.018-.228.063-.498.2-.77a2 2 0 0 1 .875-.873c.271-.138.54-.183.77-.201C5.077 2.999 5.335 3 5.6 3h12.8Z"/>
  <path d="M10.293 10.293a1 1 0 0 1 1.414 0L19 17.586V14a1 1 0 1 1 2 0v6a1 1 0 0 1-1 1h-6a1 1 0 1 1 0-2h3.586l-7.293-7.293a1 1 0 0 1 0-1.414Z"/>
</svg>
