<svg xmlns="http://www.w3.org/2000/svg" width="24" height="24" fill="currentColor" viewBox="0 0 24 24">
  <path  d="M19.957 17.021H4.043v1.99h15.914v-1.99ZM5.696 15.032h12.25l-2.011-1.894-3.37.793a1.99 1.99 0 0 1-1.302-.136l-3.225-1.518-2.342 2.755Zm-.16-6.617.66 2.957.326-.384a1.99 1.99 0 0 1 2.363-.51l1.637.769-.22-3.501-4.765.67Zm1.967-3.289a.995.995 0 0 0-.847 1.123l1.97-.277a.994.994 0 0 0-1.123-.846Zm8.329.096 1.395.799 1.56-.384.183-1.302-2.955-.416-.183 1.303Zm6.115 13.789A1.99 1.99 0 0 1 19.957 21H4.043a1.99 1.99 0 0 1-1.99-1.99v-2.983c0-.55.446-.995.995-.995h.037l1.495-1.76-.985-4.424a1.99 1.99 0 0 1 1.102-2.236l-.011-.086a2.984 2.984 0 0 1 5.91-.83l.012.086a1.99 1.99 0 0 1 1.679 1.84l.268 4.268 2.939-.692.504-3.588-1.155-.662a1.99 1.99 0 0 1-.98-2.002l.182-1.304a1.99 1.99 0 0 1 2.246-1.693l2.956.416A1.99 1.99 0 0 1 20.94 4.61l-.183 1.303a1.99 1.99 0 0 1-1.495 1.655l-1.294.317-.55 3.916 3.432 3.23h.102c.55 0 .995.445.995.995v2.984Z"/>
</svg>
