<svg xmlns="http://www.w3.org/2000/svg" width="24" height="24" fill="currentColor" viewBox="0 0 24 24">
  <path  d="M11.987 4.639c0-1.306 1.553-1.988 2.515-1.105l8.01 7.362a1.5 1.5 0 0 1 0 2.208l-8.01 7.362c-.962.883-2.515.201-2.515-1.105v-2.853c-3.418.054-5.326.392-6.512.932-1.197.545-1.734 1.325-2.407 2.637-.557 1.088-2.09.584-2.079-.515l.016-.762c.114-3.754.808-6.612 2.664-8.525 1.83-1.886 4.588-2.649 8.318-2.76V4.64Zm2 3.861a1 1 0 0 1-1 1c-4.115 0-6.484.726-7.883 2.168-1.013 1.045-1.64 2.59-1.928 4.88a6.096 6.096 0 0 1 1.47-.928c1.721-.783 4.262-1.12 8.341-1.12a1 1 0 0 1 1 1v2.722L20.76 12l-6.772-6.223V8.5Z"/>
</svg>
