<svg xmlns="http://www.w3.org/2000/svg" width="24" height="24" fill="currentColor" viewBox="0 0 24 24">
  <path d="M12 13.25a1.25 1.25 0 1 1 0 2.5 1.25 1.25 0 0 1 0-2.5Zm.124-6.587c1.39 0 2.5 1.135 2.5 2.515 0 1.128-.745 1.716-1.18 2.013a1.15 1.15 0 0 0-.294.262.761.761 0 0 0-.14.359 1 1 0 0 1-1.977-.297c.159-1.054.778-1.633 1.286-1.979.157-.106.23-.175.267-.225a.173.173 0 0 0 .026-.048.256.256 0 0 0 .012-.085.508.508 0 0 0-.5-.515c-.268 0-.5.221-.5.515a1 1 0 0 1-2 0c0-1.38 1.11-2.515 2.5-2.515Z"/>
  <path fill-rule="evenodd" d="M11.352 2.223c.42-.144.877-.144 1.296 0l6.98 2.4a1.996 1.996 0 0 1 1.347 1.886v5.433c0 2.798-1.146 4.816-2.805 6.386-1.61 1.525-3.735 2.652-5.696 3.71a.997.997 0 0 1-.947 0c-1.961-1.058-4.086-2.185-5.697-3.71-1.659-1.57-2.805-3.588-2.805-6.386V6.509c0-.851.542-1.61 1.347-1.887l6.98-2.4ZM5.02 6.509v5.433c0 2.159.848 3.676 2.18 4.937 1.272 1.204 2.957 2.15 4.799 3.146 1.842-.997 3.527-1.941 4.799-3.146 1.332-1.261 2.181-2.778 2.181-4.937V6.509L12 4.109l-6.98 2.4Z" clip-rule="evenodd"/>
</svg>
