<svg xmlns="http://www.w3.org/2000/svg" width="24" height="24" fill="currentColor" viewBox="0 0 24 24">
  <path  d="M1.219 3.58a1 1 0 0 1 1.406-.156l16.55 13.24a1.019 1.019 0 0 1 .307.245l3.143 2.515a1 1 0 1 1-1.25 1.561l-2.487-1.99A9 9 0 0 1 3 13.204V6.286l-1.625-1.3A1 1 0 0 1 1.22 3.58ZM19 13.204V6.858l-7-3.062L8.4 5.37a1 1 0 1 1-.8-1.832l3.598-1.574a2 2 0 0 1 1.604 0l7 3.062A2 2 0 0 1 21 6.858v6.346c0 .188-.006.376-.017.561a1 1 0 1 1-1.997-.123c.01-.144.014-.29.014-.438Zm-14 0a7 7 0 0 0 12.324 4.541L5 7.885v5.319Z"/>
</svg>
