<svg xmlns="http://www.w3.org/2000/svg" width="24" height="24" fill="currentColor" viewBox="0 0 24 24">
  <path  d="M12 3.705 4.925 6.137v5.507c0 2.189.86 3.726 2.21 5.005 1.29 1.221 2.998 2.178 4.865 3.189 1.867-1.01 3.575-1.968 4.864-3.189 1.351-1.279 2.212-2.816 2.212-5.005V6.137L12 3.705Zm1.307 4.786a1.01 1.01 0 0 1 1.43 1.43l-1.307 1.306 1.306 1.307a1.01 1.01 0 0 1-1.429 1.43L12 12.656l-1.307 1.306a1.01 1.01 0 1 1-1.429-1.429l1.307-1.307L9.264 9.92a1.01 1.01 0 0 1 1.43-1.429L12 9.798l1.307-1.307Zm7.79 3.153c0 2.837-1.161 4.882-2.843 6.474-1.632 1.546-3.785 2.688-5.774 3.76-.3.162-.66.162-.96 0-1.988-1.072-4.141-2.214-5.774-3.76-1.681-1.592-2.843-3.637-2.843-6.474V6.137c0-.863.548-1.631 1.364-1.912l7.076-2.432a2.023 2.023 0 0 1 1.315 0l7.075 2.432a2.022 2.022 0 0 1 1.364 1.912v5.507Z"/>
</svg>
