<svg xmlns="http://www.w3.org/2000/svg" width="24" height="24" fill="currentColor" viewBox="0 0 24 24">
  <path  d="M7 8v3.219l4.515-1.128c.318-.08.652-.08.97 0L17 11.219V8H7Zm-1.879 5.75c.274 1.594.74 2.881 1.735 4.368l.21-.046a2 2 0 0 1 .868 0l4.066.904 4.067-.904a2 2 0 0 1 .867 0l.21.046c.994-1.487 1.46-2.774 1.734-4.368L12 12.031l-6.879 1.72ZM11.001 6h2V4h-2v2Zm8 5.719.382.096c.97.242 1.652 1.187 1.476 2.23-.28 1.647-.75 3.046-1.64 4.534l1.998.445a1 1 0 0 1-.433 1.953l-4.284-.952-4.066.903a2 2 0 0 1-.867 0L7.5 20.025l-4.283.952a1 1 0 0 1-.434-1.953l1.999-.445c-.89-1.488-1.361-2.887-1.64-4.535-.176-1.042.506-1.987 1.475-2.23L5 11.72V8a2 2 0 0 1 2-2h2V3a1 1 0 0 1 1-1h4a1 1 0 0 1 1 1v3h2a2 2 0 0 1 2 2v3.719Z"/>
</svg>
