<svg xmlns="http://www.w3.org/2000/svg" width="24" height="24" fill="currentColor" viewBox="0 0 24 24">
  <path  d="M15.98 7.07c0-1.3-.831-2.403-1.99-2.813v.822l-.005.102a.995.995 0 0 1-.99.893H10.01a1.99 1.99 0 0 0-1.725 2.984l.005.01h.725a.995.995 0 1 1 0 1.99H7.844A1.99 1.99 0 0 0 6.03 13.04c0 .365.097.7.267.99l.003.005H12a.995.995 0 0 1 0 1.99H5.532a1.493 1.493 0 0 0 0 2.985h12.936a1.493 1.493 0 0 0 0-2.985h-1.493a.995.995 0 0 1 0-1.99h.725l.003-.005a1.989 1.989 0 0 0-1.723-2.98h-1.99a.995.995 0 1 1 0-1.99h1.252a.998.998 0 0 1 .084-.125 2.97 2.97 0 0 0 .654-1.866Zm1.99 0c0 .813-.197 1.582-.544 2.261a3.98 3.98 0 0 1 2.333 4.951A3.483 3.483 0 0 1 18.468 21H5.532a3.483 3.483 0 0 1-1.292-6.718 3.98 3.98 0 0 1 2.043-4.826 3.98 3.98 0 0 1 3.728-5.373H12V3.09c0-.55.445-.995.995-.995A4.975 4.975 0 0 1 17.97 7.07Z"/>
</svg>
