<svg xmlns="http://www.w3.org/2000/svg" width="24" height="24" fill="currentColor" viewBox="0 0 24 24">
  <path  d="M17.045 21.914v-1.982h-1.982a.991.991 0 0 1 0-1.982h1.982v-1.982a.99.99 0 0 1 1.982 0v1.982h1.982a.991.991 0 0 1 0 1.982h-1.982v1.982a.991.991 0 0 1-1.982 0ZM14.072 6.06a1.982 1.982 0 0 0-3.963 0v.99h3.963v-.99Zm1.982.99h.636c.978 0 1.81.715 1.959 1.682l.462 3.007a.99.99 0 1 1-1.958.3l-.463-3.006h-9.2l-1.677 10.9h5.286a.991.991 0 0 1 0 1.982H5.813a1.982 1.982 0 0 1-1.959-2.283l1.677-10.9A1.982 1.982 0 0 1 7.49 7.051h.637V6.06a3.964 3.964 0 0 1 7.927 0v.99Z"/>
</svg>
