<svg xmlns="http://www.w3.org/2000/svg" width="24" height="24" fill="currentColor" viewBox="0 0 24 24">
  <path fill-rule="evenodd" d="M17.117 13.001a4.987 4.987 0 0 1 3.419 1.464 4.987 4.987 0 0 1 1.462 3.651 4.986 4.986 0 0 1-1.462 3.42 4.987 4.987 0 0 1-3.42 1.463 4.99 4.99 0 0 1-3.652-1.464 4.987 4.987 0 0 1-1.463-3.419 4.988 4.988 0 0 1 1.463-3.651A4.99 4.99 0 0 1 17.117 13Zm-2.825 3.706a3.002 3.002 0 0 0 2.778 4.292c.42-.01.836-.11 1.221-.294l-3.998-3.998Zm2.778-1.706a2.999 2.999 0 0 0-1.364.292l3.999 3.997a2.99 2.99 0 0 0-.583-3.411A2.988 2.988 0 0 0 17.07 15Z" clip-rule="evenodd"/>
  <path fill-rule="evenodd" d="M16 7h2.358l.59 3.836-1.977.305-.151-.989L16.642 9H7.358L5.667 20H10v2H3.334L5.642 7H8V6a4 4 0 0 1 8 0v1Zm-2-1a2 2 0 0 0-4 0v1h4V6Z" clip-rule="evenodd"/>
</svg>
