<svg xmlns="http://www.w3.org/2000/svg" width="24" height="24" fill="currentColor" viewBox="0 0 24 24">
  <path  d="M16.836 15.432a2.624 2.624 0 1 1 3.712 3.712l-3.467 3.468a.99.99 0 0 1-.7.29h-2.312a.99.99 0 0 1-.99-.99V19.6a.99.99 0 0 1 .29-.7l3.467-3.468Zm-2.767-9.371a1.982 1.982 0 0 0-3.963 0v.99h3.963v-.99Zm5.078 10.772a.644.644 0 0 0-.91 0L15.06 20.01v.91h.91l3.177-3.177a.644.644 0 0 0 0-.91ZM16.05 7.052h.636c.978 0 1.81.713 1.958 1.68l.404 2.627a.99.99 0 0 1-1.958.301l-.404-2.627H7.489L5.812 19.93h4.294a.99.99 0 0 1 0 1.981H5.812a1.981 1.981 0 0 1-1.958-2.282L5.531 8.732a1.98 1.98 0 0 1 1.958-1.68h.636V6.06a3.963 3.963 0 0 1 7.925 0v.99Z"/>
</svg>
