<svg xmlns="http://www.w3.org/2000/svg" width="24" height="24" fill="currentColor" viewBox="0 0 24 24">
  <path  d="M20.009 17.401c0-.506-.154-.79-.293-.939a.695.695 0 0 0-.511-.225 1.207 1.207 0 0 0-.752.264l.012-.012-.069.063a.997.997 0 0 1-1.33-.062c0 .001 0 .002.002.003l.005.005c.003.002.003.004.002.003l-.023-.02a1.208 1.208 0 0 0-.727-.244.695.695 0 0 0-.511.225c-.139.148-.293.433-.293.94 0 .566.434 1.209 1.157 1.806.335.277.68.5.95.65.049.028.095.05.136.072.041-.021.088-.044.137-.071.27-.15.616-.374.95-.65.724-.598 1.157-1.241 1.158-1.808ZM18.074 3.032c1.052 0 1.923.819 1.99 1.87l.39 6.257a.997.997 0 0 1-1.989.124l-.391-6.257H5.994l-.872 13.952h5.915a.997.997 0 0 1 0 1.993H5.122c-1.15 0-2.06-.97-1.99-2.118l.873-13.952a1.993 1.993 0 0 1 1.99-1.869h12.079ZM8.048 8.015a.997.997 0 0 1 1.993 0 1.993 1.993 0 0 0 3.986 0 .997.997 0 0 1 1.993 0 3.986 3.986 0 1 1-7.972 0Zm13.954 9.386c0 1.503-1.053 2.66-1.881 3.344a8.54 8.54 0 0 1-1.252.856 5.5 5.5 0 0 1-.495.246c-.072.03-.148.061-.224.085-.043.014-.2.066-.386.066-.185 0-.341-.052-.384-.066a2.56 2.56 0 0 1-.225-.085 5.582 5.582 0 0 1-.494-.246 8.466 8.466 0 0 1-1.252-.856c-.829-.684-1.88-1.84-1.881-3.344 0-.933.296-1.73.832-2.301a2.688 2.688 0 0 1 1.965-.856c.598 0 1.087.165 1.44.343a3.196 3.196 0 0 1 1.44-.343 2.69 2.69 0 0 1 1.965.856c.536.571.832 1.368.832 2.301Z"/>
</svg>
