<svg xmlns="http://www.w3.org/2000/svg" width="24" height="24" fill="currentColor" viewBox="0 0 24 24">
  <path  d="M17.16 12.996a4.942 4.942 0 0 1 3.389 1.45 4.943 4.943 0 0 1 1.45 3.62 4.941 4.941 0 0 1-1.45 3.388 4.942 4.942 0 0 1-3.388 1.45 4.946 4.946 0 0 1-3.62-1.45 4.942 4.942 0 0 1-1.45-3.389 4.944 4.944 0 0 1 1.45-3.618 4.946 4.946 0 0 1 3.62-1.45Zm-3.087-6.938a1.982 1.982 0 0 0-3.964 0v.991h3.964v-.99Zm.289 10.61a2.975 2.975 0 0 0 .58 3.384 2.963 2.963 0 0 0 3.383.579l-3.963-3.962Zm2.752-1.69a2.972 2.972 0 0 0-1.35.29l3.961 3.96a2.962 2.962 0 0 0-.578-3.38 2.96 2.96 0 0 0-2.033-.87Zm-1.06-7.929h.636c.979 0 1.81.714 1.96 1.681l.175 1.141a.992.992 0 0 1-1.958.302l-.177-1.142h-9.2L5.813 19.932h3.305a.991.991 0 0 1 0 1.982H5.813a1.982 1.982 0 0 1-1.959-2.283l1.677-10.9A1.983 1.983 0 0 1 7.49 7.049h.637v-.99a3.964 3.964 0 1 1 7.928 0v.99Z"/>
</svg>
