<svg xmlns="http://www.w3.org/2000/svg" width="24" height="24" fill="currentColor" viewBox="0 0 24 24">
  <path  d="M20.02 17.37c0-.505-.154-.787-.292-.935a.69.69 0 0 0-.507-.223 1.202 1.202 0 0 0-.724.243l-.023.02.012-.013-.069.062a.991.991 0 0 1-1.256 0l-.065-.058.008.008a1.073 1.073 0 0 0-.17-.115 1.202 1.202 0 0 0-.577-.147.69.69 0 0 0-.507.223c-.139.148-.292.43-.292.934 0 .564.43 1.203 1.15 1.797.333.276.676.497.945.647.05.027.095.05.136.07.04-.02.087-.043.135-.07.27-.15.613-.371.946-.647.72-.594 1.15-1.233 1.15-1.797ZM14.073 6.053a1.982 1.982 0 0 0-3.964 0v.991h3.964v-.99Zm7.929 11.315c0 1.495-1.046 2.645-1.87 3.326-.439.362-.885.65-1.245.85-.18.1-.348.183-.492.245-.071.03-.148.06-.224.085-.043.014-.198.065-.382.065s-.34-.051-.382-.065a2.564 2.564 0 0 1-.224-.085 5.541 5.541 0 0 1-.492-.245 8.41 8.41 0 0 1-1.245-.85c-.824-.681-1.87-1.831-1.87-3.326 0-.928.295-1.72.828-2.288a2.671 2.671 0 0 1 1.953-.851c.595 0 1.081.164 1.432.34a3.18 3.18 0 0 1 1.432-.34c.713 0 1.425.287 1.953.85.533.57.828 1.361.828 2.29ZM16.055 7.045h.636c.978 0 1.81.714 1.958 1.681l.405 2.628a.991.991 0 0 1-1.959.302l-.404-2.629H7.49L5.813 19.928h5.782a.991.991 0 0 1 0 1.982H5.813a1.982 1.982 0 0 1-1.959-2.283l1.677-10.9A1.982 1.982 0 0 1 7.49 7.044h.637v-.99a3.964 3.964 0 0 1 7.928 0v.99Z"/>
</svg>
