<svg xmlns="http://www.w3.org/2000/svg" width="24" height="24" fill="currentColor" viewBox="0 0 24 24">
  <path fill-rule="evenodd" d="M16.793 15.46a2.65 2.65 0 1 1 3.747 3.747L16.747 23H13v-3.747l3.793-3.793Zm2.333 1.414a.65.65 0 0 0-.919 0L15 20.081V21h.919l3.207-3.207a.65.65 0 0 0 0-.919Z" clip-rule="evenodd"/>
  <path fill-rule="evenodd" d="M12 2a4 4 0 0 1 4 4v1h2.358l.82 5.336-1.976.305L16.642 9H7.357L5.666 20H11v2H3.334L5.642 7H8V6a4 4 0 0 1 4-4Zm0 2a2 2 0 0 0-2 2v1h4V6a2 2 0 0 0-2-2Z" clip-rule="evenodd"/>
</svg>
