<svg xmlns="http://www.w3.org/2000/svg" width="24" height="24" fill="currentColor" viewBox="0 0 24 24">
  <path d="m7.05 5.636-.707.707A7.973 7.973 0 0 0 4 12.001a7.97 7.97 0 0 0 2.343 5.656l.707.707-1.414 1.415-.707-.707A9.973 9.973 0 0 1 2 12a9.973 9.973 0 0 1 2.929-7.072l.707-.707L7.05 5.636Zm12.021-.706A9.973 9.973 0 0 1 22 12a9.967 9.967 0 0 1-2.929 7.07l-.707.709-1.414-1.415.707-.707A7.972 7.972 0 0 0 20 12c0-2.21-.894-4.209-2.343-5.658l-.707-.707 1.414-1.414.707.707Z"/>
  <path d="m9.879 8.464-.707.707A3.986 3.986 0 0 0 8 12.001c0 1.104.447 2.103 1.172 2.828l.707.707-1.414 1.414-.707-.707A5.984 5.984 0 0 1 6 12c0-1.657.673-3.159 1.758-4.244l.707-.707 1.414 1.414Zm6.363-.707A5.986 5.986 0 0 1 18 12.001a5.984 5.984 0 0 1-1.758 4.242l-.707.707-1.414-1.414.707-.707A3.985 3.985 0 0 0 16 12a3.986 3.986 0 0 0-1.172-2.829l-.707-.707 1.414-1.414.707.707ZM12 10a2 2 0 1 1 0 4 2 2 0 0 1 0-4Z"/>
</svg>
