<svg xmlns="http://www.w3.org/2000/svg" width="24" height="24" fill="currentColor" viewBox="0 0 24 24">
  <path d="M9.01 19a1 1 0 1 1 0 2H9a1 1 0 1 1 0-2h.01Zm6 0a1 1 0 1 1 0 2H15a1 1 0 1 1 0-2h.01Zm-9-2a1 1 0 1 1 0 2H6a1 1 0 1 1 0-2h.01Zm6 0a1 1 0 1 1 0 2H12a1 1 0 1 1 0-2h.01Zm6 0a1 1 0 1 1 0 2H18a1 1 0 1 1 0-2h.01Z"/>
  <path fill-rule="evenodd" d="M9.5 3a6.495 6.495 0 0 1 5.535 3.093A5 5 0 1 1 16 16H9.5a6.5 6.5 0 1 1 0-13Zm0 2a4.5 4.5 0 1 0 0 9H16a3 3 0 1 0-1.1-5.792l-.893.353-.389-.878A4.502 4.502 0 0 0 9.5 5Z" clip-rule="evenodd"/>
</svg>
