<svg xmlns="http://www.w3.org/2000/svg" width="24" height="24" fill="currentColor" viewBox="0 0 24 24">
  <path  d="M19.84 11.197c0-.725-.395-1.357-.98-1.696v3.392c.585-.34.98-.97.98-1.696ZM8.077 17.08a1.96 1.96 0 0 0 3.633 1.02l-3.633-1.159v.138Zm.001-9.568v7.372l8.821 2.815v-13L8.08 7.51Zm-3.923 6.12 1.963.627V8.136l-1.963.627v4.869ZM18.86 7.4a3.923 3.923 0 0 1 0 7.595v2.703a1.96 1.96 0 0 1-2.556 1.868l-2.7-.862a3.919 3.919 0 0 1-7.488-1.625v-.764L3.56 15.5a1.962 1.962 0 0 1-1.365-1.868v-4.87A1.96 1.96 0 0 1 3.56 6.896l3.127-.998a.972.972 0 0 1 .234-.075l9.383-2.993a1.96 1.96 0 0 1 2.556 1.868V7.4Z"/>
</svg>
