<svg xmlns="http://www.w3.org/2000/svg" width="24" height="24" fill="currentColor" viewBox="0 0 24 24">
  <path fill-rule="evenodd" d="m20.867 3 .654 4.572a3.854 3.854 0 0 1-.52 2.554V21h-8v-5h-2v5H3V10.126a3.852 3.852 0 0 1-.521-2.554L3.133 3h17.735Zm-6.046 7.74A3.778 3.778 0 0 1 12 12a3.78 3.78 0 0 1-2.822-1.259A3.87 3.87 0 0 1 5 11.77V19h4v-5h6v5h4v-7.231a3.872 3.872 0 0 1-4.18-1.028ZM4.46 7.855a1.88 1.88 0 1 0 3.734.4l.018-.267.003-.051L8.426 5H4.867L4.46 7.855Zm5.751.211v.013a1.794 1.794 0 1 0 3.576 0L13.568 5h-3.136l-.22 3.066Zm5.595.189a1.879 1.879 0 1 0 3.734-.4L19.133 5h-3.56l.234 3.255Z" clip-rule="evenodd"/>
</svg>
