<svg xmlns="http://www.w3.org/2000/svg" width="24" height="24" fill="currentColor" viewBox="0 0 24 24">
  <path  d="M12 14.5c2.395 0 4.231 1.466 4.82 3.5H20V6H4v12h3.18c.589-2.034 2.425-3.5 4.82-3.5Zm0 2c-1.26 0-2.197.614-2.672 1.5h5.344c-.475-.886-1.413-1.5-2.672-1.5Zm1.25-5.75a1.25 1.25 0 1 0-2.5 0 1.25 1.25 0 0 0 2.5 0Zm4.561-3.748c.017 0 .034.002.05.004.01 0 .019 0 .028.002l.046.007.035.006.042.006.05.013.028.008.038.01.042.015a1.213 1.213 0 0 1 .078.032l.013.004.037.018.022.012c.014.007.029.014.042.022l.013.007.007.004.048.03.039.027.02.014.034.026.04.033.023.02a1.215 1.215 0 0 1 .092.091l.02.023.032.04.026.033.012.016a1.34 1.34 0 0 1 .055.085l.01.015.006.012.022.042c.009.016.016.033.024.05l.01.02.013.035.018.045.014.042.007.022.004.016.008.03.013.05c0 .004.002.007.003.011 0 .005 0 .01.002.014l.007.04A1.291 1.291 0 0 1 19 8.24v.01l-.001.01c0 .019 0 .038-.002.056v.027a1.271 1.271 0 0 1-.02.139l-.005.028a1.285 1.285 0 0 1-.011.047l-.004.016-.006.018c-.003.011-.005.023-.009.034-.004.015-.01.03-.015.044l-.019.046-.013.033-.01.023-.024.05a1.11 1.11 0 0 1-.022.041l-.006.013-.01.014a1.253 1.253 0 0 1-.021.035l-.03.044-.011.016-.03.039-.034.04-.02.023a1.086 1.086 0 0 1-.091.092l-.022.02-.041.033a1.326 1.326 0 0 1-.034.025l-.021.016-.04.027a1.21 1.21 0 0 1-.04.024l-.013.01-.013.006a1.185 1.185 0 0 1-.042.022c-.016.009-.033.016-.05.024l-.02.01-.035.013-.045.018-.042.014-.037.011-.03.008c-.017.004-.034.01-.051.013l-.029.006a1.233 1.233 0 0 1-.103.014l-.003.001-.016.001a1.25 1.25 0 0 1-.1.005l-.009.001h-.01a1.234 1.234 0 0 1-.1-.006h-.016l-.003-.002a1.244 1.244 0 0 1-.103-.014l-.029-.006-.05-.013a1.236 1.236 0 0 1-.03-.008l-.038-.01-.042-.015-.045-.018-.035-.013-.02-.01c-.017-.008-.034-.015-.05-.024a1.26 1.26 0 0 1-.042-.022l-.012-.006-.015-.01a1.197 1.197 0 0 1-.079-.051l-.021-.016a1.039 1.039 0 0 1-.033-.025l-.041-.034-.023-.02a1.251 1.251 0 0 1-.111-.113l-.033-.041a1.137 1.137 0 0 1-.03-.039l-.01-.015-.03-.045-.028-.044a1.237 1.237 0 0 1-.038-.071l-.006-.011-.018-.037-.005-.013a1.216 1.216 0 0 1-.018-.046l-.013-.033-.015-.044-.01-.034-.003-.012a1.68 1.68 0 0 1-.006-.022l-.012-.045-.007-.042a1.386 1.386 0 0 1-.005-.035c-.003-.016-.006-.03-.007-.046l-.002-.028a1.183 1.183 0 0 1-.004-.06l-.002-.018v-.066l.002-.03c0-.016.002-.033.004-.05 0-.008 0-.018.002-.027l.009-.055.005-.031.001-.01.004-.027.013-.05.008-.028.005-.016c.002-.007.003-.015.006-.022l.014-.042.006-.016.026-.064.013-.03.016-.03c.012-.023.023-.047.037-.07l.03-.048.031-.046.012-.016.025-.032a1.07 1.07 0 0 1 .145-.155l.022-.02a1.228 1.228 0 0 1 .133-.1l.048-.03.008-.004.012-.007a1.28 1.28 0 0 1 .042-.022l.04-.02c.011-.006.022-.01.032-.014l.013-.006.049-.02.016-.006.042-.014.037-.011.028-.008.051-.013.042-.006.035-.006.046-.007.028-.002.05-.004.029-.002h.066l.028.002ZM15.25 10.75a3.25 3.25 0 1 1-6.5 0 3.25 3.25 0 0 1 6.5 0ZM22 18a2 2 0 0 1-2 2H4a2 2 0 0 1-2-2V6a2 2 0 0 1 2-2h16a2 2 0 0 1 2 2v12Z"/>
</svg>
