<svg xmlns="http://www.w3.org/2000/svg" width="24" height="24" fill="currentColor" viewBox="0 0 24 24">
  <path fill-rule="evenodd" d="M12 7.5a3.25 3.25 0 1 1 0 6.5 3.25 3.25 0 0 1 0-6.5Zm0 2a1.25 1.25 0 1 0 0 2.5 1.25 1.25 0 0 0 0-2.5Z" clip-rule="evenodd"/>
  <path d="M17.75 7a1.25 1.25 0 1 1 0 2.5 1.25 1.25 0 0 1 0-2.5Z"/>
  <path fill-rule="evenodd" d="M22 20H2V4h20v16ZM4 18h3.18c.59-2.034 2.425-3.5 4.82-3.5 2.395 0 4.231 1.466 4.82 3.5H20V6H4v12Zm8-1.5c-1.259 0-2.197.614-2.672 1.5h5.345c-.475-.886-1.414-1.5-2.673-1.5Z" clip-rule="evenodd"/>
</svg>
