<svg xmlns="http://www.w3.org/2000/svg" width="24" height="24" fill="currentColor" viewBox="0 0 24 24">
  <path d="M18.525 15c.149.458.225.958.225 1.5 0 2.502-2.25 5.5-6.75 5.5-2.333 0-3.954-.803-5.043-1.835a6.858 6.858 0 0 1-1.78-2.861l-.304-.952 1.905-.609.304.953c.157.493.515 1.32 1.25 2.018C9.044 19.389 10.172 20 12 20c3.5 0 4.75-2.204 4.75-3.5 0-.585-.135-1.01-.337-1.342a2.146 2.146 0 0 0-.106-.158h2.218ZM12 2c2.334 0 3.9.805 4.91 1.874.979 1.038 1.352 2.237 1.494 2.922l.204.98-1.959.407-.203-.979c-.101-.487-.36-1.288-.992-1.957C14.852 4.61 13.827 4 12 4c-1.77 0-2.876.568-3.538 1.24-.68.69-.962 1.558-.962 2.26 0 .585.135 1.01.337 1.342.206.338.518.635.95.903.875.545 2.075.883 3.469 1.255H22v2H2v-2h5.11a4.458 4.458 0 0 1-.98-1.115c-.413-.677-.63-1.47-.63-2.385 0-1.197.468-2.578 1.538-3.664C8.126 2.733 9.77 2 12 2Z"/>
</svg>
