<svg xmlns="http://www.w3.org/2000/svg" width="24" height="24" fill="currentColor" viewBox="0 0 24 24">
  <path d="M13 23h-2v-3h2v3Zm-5.945-4.64L4.93 20.484 3.516 19.07l2.125-2.125 1.414 1.415Zm13.429.71-1.415 1.414-2.124-2.124 1.414-1.415 2.125 2.125Z"/>
  <path fill-rule="evenodd" d="M7.758 7.758a5.999 5.999 0 1 1 8.484 8.484 5.999 5.999 0 1 1-8.484-8.484Zm7.07 1.414a4 4 0 1 0-5.656 5.655 4 4 0 0 0 5.656-5.655Z" clip-rule="evenodd"/>
  <path d="M4 13H1v-2h3v2Zm19 0h-3v-2h3v2ZM7.055 5.64 5.64 7.055 3.516 4.93 4.93 3.516 7.055 5.64Zm13.429-.71L18.36 7.055 16.945 5.64l2.124-2.124 1.415 1.414ZM13 4h-2V1h2v3Z"/>
</svg>
