<svg xmlns="http://www.w3.org/2000/svg" width="24" height="24" fill="currentColor" viewBox="0 0 24 24">
  <path  d="M7.758 7.758a5.999 5.999 0 1 1 8.484 8.484 5.999 5.999 0 1 1-8.484-8.484Zm7.07 1.414a4 4 0 1 0-5.656 5.655 4 4 0 0 0 5.656-5.655ZM11 22v-1a1 1 0 1 1 2 0v1a1 1 0 1 1-2 0Zm-6.067-4.347a1.001 1.001 0 0 1 1.415 1.414l-.71.71a1.001 1.001 0 0 1-1.415-1.414l.71-.71Zm12.72 0a1 1 0 0 1 1.414 0l.71.71a1 1 0 0 1-1.415 1.414l-.71-.71a1 1 0 0 1 0-1.414ZM3 11a1 1 0 1 1 0 2H2a1 1 0 1 1 0-2h1Zm19 0a1 1 0 1 1 0 2h-1a1 1 0 1 1 0-2h1ZM4.223 4.223c.39-.39 1.024-.39 1.415 0l.71.71a1 1 0 0 1-1.415 1.414l-.71-.71a1 1 0 0 1 0-1.414Zm14.14 0a1.001 1.001 0 0 1 1.414 1.414l-.71.71a1.001 1.001 0 0 1-1.415-1.414l.71-.71ZM11 3V2a1 1 0 1 1 2 0v1a1 1 0 1 1-2 0Z"/>
</svg>
