<svg xmlns="http://www.w3.org/2000/svg" width="24" height="24" fill="currentColor" viewBox="0 0 24 24">
  <path  d="M17 19a1 1 0 1 1 0 2H7a1 1 0 1 1 0-2h10Zm4-4a1 1 0 1 1 0 2H3a1 1 0 1 1 0-2h18ZM4 11a1 1 0 1 1 0 2H3a1 1 0 1 1 0-2h1Zm11 1a3 3 0 1 0-6 0 1 1 0 1 1-2 0 5 5 0 0 1 10 0 1 1 0 1 1-2 0Zm6-1a1 1 0 1 1 0 2h-1a1 1 0 1 1 0-2h1ZM4.93 4.929a1 1 0 0 1 1.414 0l.707.707A1 1 0 0 1 5.637 7.05l-.707-.707a1 1 0 0 1 0-1.414Zm12.726 0a1 1 0 0 1 1.414 1.414l-.707.707a1 1 0 1 1-1.414-1.414l.707-.707ZM11 4V3a1 1 0 1 1 2 0v1a1 1 0 1 1-2 0Z"/>
</svg>
