<svg xmlns="http://www.w3.org/2000/svg" width="24" height="24" fill="currentColor" viewBox="0 0 24 24">
  <path  d="M16.889 10.535a.979.979 0 0 1 1.369-.897l1.464.64.844-2.532-5.16-2.211a5.135 5.135 0 0 1-.353.514C14.482 6.78 13.492 7.6 12 7.6s-2.481-.82-3.054-1.552a5.157 5.157 0 0 1-.353-.514l-5.16 2.211.845 2.532 1.464-.64a.979.979 0 0 1 1.369.897v8.31h9.778v-8.31Zm-2.887-6.566a.979.979 0 0 1 1.316-.599l6.018 2.58c.934.4 1.406 1.45 1.084 2.415l-.843 2.532a1.956 1.956 0 0 1-2.638 1.173l-.095-.042v6.818c0 1.08-.875 1.956-1.955 1.956H7.11a1.956 1.956 0 0 1-1.956-1.956v-6.818l-.094.042a1.956 1.956 0 0 1-2.639-1.173L1.58 8.365A1.955 1.955 0 0 1 2.664 5.95l6.018-2.58.096-.035a.978.978 0 0 1 1.218.634s.002.001.002.003l.018.046a3.382 3.382 0 0 0 .47.825c.348.445.826.803 1.514.803.687 0 1.165-.358 1.514-.803a3.382 3.382 0 0 0 .487-.871l.002-.004v.001Z"/>
</svg>
