<svg xmlns="http://www.w3.org/2000/svg" width="24" height="24" fill="currentColor" viewBox="0 0 24 24">
  <path d="M12 2c.375 0 .746.02 1.11.06l-.22 1.989a8 8 0 1 0 7.062 7.062l1.988-.221c.04.364.06.735.06 1.11 0 5.523-4.477 10-10 10S2 17.523 2 12 6.477 2 12 2Z"/>
  <path d="M11.599 8.02a4 4 0 1 0 4.381 4.38l1.99.198A6.001 6.001 0 0 1 6 12a6.001 6.001 0 0 1 5.401-5.97l.198 1.99Z"/>
  <path fill-rule="evenodd" d="m19.29 4.709 4.062 1.354L18.414 11h-4l-2.207 2.207-1.414-1.414L13 9.586v-4L17.938.648 19.29 4.71ZM15 6.414V9h2.586l2.062-2.063-1.464-.489-.475-.157-.157-.475-.49-1.465L15 6.414Z" clip-rule="evenodd"/>
</svg>
