<svg width="24" height="24" viewBox="0 0 24 24" fill="none" xmlns="http://www.w3.org/2000/svg">
    <path
        d="M3.00192 14.75C2.97607 13.1415 3.2107 12.5339 3.70187 11.5552C4.19304 10.5766 4.8307 9.86434 5.61484 9.4186C6.40761 8.97287 7.24346 8.75 8.12239 8.75C9.00133 8.75 9.80271 8.96802 10.5265 9.40407C11.259 9.83043 12.0948 10.5039 13.0341 11.4244C13.6717 12.0446 14.1802 12.4806 14.5593 12.7326C14.9471 12.9845 15.3693 13.1105 15.826 13.1105C16.5671 13.1105 17.153 12.8101 17.5839 12.2093C18.0147 11.5988 18.2234 11.4031 18.2062 10.25H20.9981C21.0239 11.8585 20.7894 12.4661 20.2982 13.4448C19.8157 14.4234 19.178 15.1357 18.3853 15.5814C17.5925 16.0271 16.7566 16.25 15.8777 16.25C14.9988 16.25 14.1974 16.0368 13.4736 15.6105C12.7497 15.1744 11.9139 14.4961 10.966 13.5756C10.337 12.9554 9.82856 12.5194 9.4408 12.2674C9.05303 12.0155 8.6308 11.8895 8.17409 11.8895C7.47612 11.8895 6.89878 12.1657 6.44208 12.718C5.99399 13.2607 5.7766 13.4806 5.79384 14.75H3.00192Z"
        fill="currentColor" />
</svg>