<svg xmlns="http://www.w3.org/2000/svg" width="24" height="24" fill="currentColor" viewBox="0 0 24 24">
  <path  d="M20 9c0-.853-.634-1.835-2.122-2.661C16.424 5.53 14.348 5 12 5c-2.348 0-4.424.531-5.878 1.339C4.634 7.165 4 8.147 4 9c0 .736.465 1.562 1.566 2.318a1 1 0 0 1 .434.825V19h12v-6.857a1 1 0 0 1 .434-.825C19.535 10.562 20 9.736 20 9Zm2 0c0 1.47-.826 2.711-2 3.645V19a2 2 0 0 1-2 2H6a2 2 0 0 1-2-2v-6.355C2.826 11.71 2 10.47 2 9c0-1.909 1.38-3.427 3.15-4.41C6.954 3.588 9.378 3 12 3s5.046.588 6.85 1.59C20.62 5.573 22 7.09 22 9Z"/>
</svg>
