<svg xmlns="http://www.w3.org/2000/svg" width="24" height="24" fill="currentColor" viewBox="0 0 24 24">
  <path  d="M4.48 14.344a1 1 0 0 1 1.211.73 6.503 6.503 0 0 0 9.76 3.936 1 1 0 0 1 1.063 1.694A8.503 8.503 0 0 1 3.75 15.556a1 1 0 0 1 .73-1.212ZM7 13v-2c0-.07.001-.14.004-.209a1 1 0 0 1 1.999.082A3.072 3.072 0 0 0 9 11v2a3 3 0 0 0 4.321 2.694 1 1 0 0 1 .883 1.795A5 5 0 0 1 7 13Zm11.5.5v-3a6.486 6.486 0 0 0-2.36-5.01 1 1 0 0 1 1.276-1.54A8.484 8.484 0 0 1 20.5 10.5v3a8.47 8.47 0 0 1-.907 3.824 1 1 0 0 1-1.785-.901A6.48 6.48 0 0 0 18.5 13.5ZM15 13v-2a3 3 0 0 0-4.321-2.694 1 1 0 0 1-.883-1.795A5 5 0 0 1 17 11v1.999c0 .07-.001.14-.004.209a1 1 0 0 1-1.999-.082C15 13.085 15 13.042 15 13Zm-4 0v-2a1 1 0 1 1 2 0v2a1 1 0 1 1-2 0Zm-7.5-1.708V10.5a8.5 8.5 0 0 1 9.766-8.406 1 1 0 0 1-.296 1.977A6.5 6.5 0 0 0 5.5 10.5v.792a1 1 0 0 1-2 0Z"/>
</svg>
