<svg xmlns="http://www.w3.org/2000/svg" width="24" height="24" fill="currentColor" viewBox="0 0 24 24">
  <path d="M11.003 11v-1h2v1a25.973 25.973 0 0 1-2.065 10.172l-.392.92-1.84-.783.391-.92A23.973 23.973 0 0 0 11.003 11Zm5.555 5.17a29.798 29.798 0 0 1-1.272 4.856l-.334.944-1.885-.67.334-.942a27.77 27.77 0 0 0 1.187-4.529l1.97.342ZM7.86 18.016c-.161.48-.339.952-.531 1.416l-.383.924-1.848-.768.384-.924c.175-.422.336-.85.482-1.286l1.896.638Z"/>
  <path d="M19.002 11A7 7 0 0 0 8.94 4.703l-.876-1.798A9 9 0 0 1 21.002 11c0 2.13-.195 4.217-.57 6.24l-.183.984-1.966-.365.181-.983c.354-1.904.538-3.868.538-5.876Zm-16 0c0-2.396.939-4.576 2.465-6.188L6.92 6.188A6.973 6.973 0 0 0 5.002 11c0 1.467-.175 2.894-.506 4.26l-.237.972-1.943-.471.236-.972c.295-1.213.45-2.482.45-3.789Z"/>
  <path d="M15.002 11a3 3 0 1 0-6 0c0 1.884-.237 3.714-.683 5.462l-1.938-.495c.406-1.587.621-3.251.621-4.967a5 5 0 0 1 10 0c0 1.047-.053 2.082-.158 3.102l-1.989-.204c.098-.953.147-1.92.147-2.898Z"/>
</svg>
