<svg xmlns="http://www.w3.org/2000/svg" width="36" height="36" viewBox="0 0 36 36" fill="none">
  <path d="M3,28C3,27.724 3.224,27.5 3.5,27.5L4,27.5C4.276,27.5 4.5,27.724 4.5,28C4.5,28.276 4.276,28.5 4,28.5L3.5,28.5C3.224,28.5 3,28.276 3,28ZM5.5,28C5.5,27.724 5.724,27.5 6,27.5L7,27.5C7.276,27.5 7.5,27.724 7.5,28C7.5,28.276 7.276,28.5 7,28.5L6,28.5C5.724,28.5 5.5,28.276 5.5,28ZM8.5,28C8.5,27.724 8.724,27.5 9,27.5L10,27.5C10.276,27.5 10.5,27.724 10.5,28C10.5,28.276 10.276,28.5 10,28.5L9,28.5C8.724,28.5 8.5,28.276 8.5,28ZM11.5,28C11.5,27.724 11.724,27.5 12,27.5L13,27.5C13.276,27.5 13.5,27.724 13.5,28C13.5,28.276 13.276,28.5 13,28.5L12,28.5C11.724,28.5 11.5,28.276 11.5,28ZM14.5,28C14.5,27.724 14.724,27.5 15,27.5L16,27.5C16.276,27.5 16.5,27.724 16.5,28C16.5,28.276 16.276,28.5 16,28.5L15,28.5C14.724,28.5 14.5,28.276 14.5,28ZM17.5,28C17.5,27.724 17.724,27.5 18,27.5L19,27.5C19.276,27.5 19.5,27.724 19.5,28C19.5,28.276 19.276,28.5 19,28.5L18,28.5C17.724,28.5 17.5,28.276 17.5,28ZM20.5,28C20.5,27.724 20.724,27.5 21,27.5L22,27.5C22.276,27.5 22.5,27.724 22.5,28C22.5,28.276 22.276,28.5 22,28.5L21,28.5C20.724,28.5 20.5,28.276 20.5,28ZM23.5,28C23.5,27.724 23.724,27.5 24,27.5L25,27.5C25.276,27.5 25.5,27.724 25.5,28C25.5,28.276 25.276,28.5 25,28.5L24,28.5C23.724,28.5 23.5,28.276 23.5,28ZM26.5,28C26.5,27.724 26.724,27.5 27,27.5L28,27.5C28.276,27.5 28.5,27.724 28.5,28C28.5,28.276 28.276,28.5 28,28.5L27,28.5C26.724,28.5 26.5,28.276 26.5,28ZM29.5,28C29.5,27.724 29.724,27.5 30,27.5L31,27.5C31.276,27.5 31.5,27.724 31.5,28C31.5,28.276 31.276,28.5 31,28.5L30,28.5C29.724,28.5 29.5,28.276 29.5,28ZM32.5,28C32.5,27.724 32.724,27.5 33,27.5L33.5,27.5C33.776,27.5 34,27.724 34,28C34,28.276 33.776,28.5 33.5,28.5L33,28.5C32.724,28.5 32.5,28.276 32.5,28Z" fill="#ebebeb" fill-rule="evenodd" clip-rule="evenodd"/>
  <path d="M3,8C3,7.724 3.224,7.5 3.5,7.5L4,7.5C4.276,7.5 4.5,7.724 4.5,8C4.5,8.276 4.276,8.5 4,8.5L3.5,8.5C3.224,8.5 3,8.276 3,8ZM5.5,8C5.5,7.724 5.724,7.5 6,7.5L7,7.5C7.276,7.5 7.5,7.724 7.5,8C7.5,8.276 7.276,8.5 7,8.5L6,8.5C5.724,8.5 5.5,8.276 5.5,8ZM8.5,8C8.5,7.724 8.724,7.5 9,7.5L10,7.5C10.276,7.5 10.5,7.724 10.5,8C10.5,8.276 10.276,8.5 10,8.5L9,8.5C8.724,8.5 8.5,8.276 8.5,8ZM11.5,8C11.5,7.724 11.724,7.5 12,7.5L13,7.5C13.276,7.5 13.5,7.724 13.5,8C13.5,8.276 13.276,8.5 13,8.5L12,8.5C11.724,8.5 11.5,8.276 11.5,8ZM14.5,8C14.5,7.724 14.724,7.5 15,7.5L16,7.5C16.276,7.5 16.5,7.724 16.5,8C16.5,8.276 16.276,8.5 16,8.5L15,8.5C14.724,8.5 14.5,8.276 14.5,8ZM17.5,8C17.5,7.724 17.724,7.5 18,7.5L19,7.5C19.276,7.5 19.5,7.724 19.5,8C19.5,8.276 19.276,8.5 19,8.5L18,8.5C17.724,8.5 17.5,8.276 17.5,8ZM20.5,8C20.5,7.724 20.724,7.5 21,7.5L22,7.5C22.276,7.5 22.5,7.724 22.5,8C22.5,8.276 22.276,8.5 22,8.5L21,8.5C20.724,22.5 20.5,8.276 20.5,8ZM23.5,8C23.5,7.724 23.724,7.5 24,7.5L25,7.5C25.276,7.5 25.5,7.724 25.5,8C25.5,8.276 25.276,8.5 25,8.5L24,8.5C23.724,8.5 23.5,8.276 23.5,8ZM26.5,8C26.5,7.724 26.724,7.5 27,7.5L28,7.5C28.276,7.5 28.5,7.724 28.5,8C28.5,8.276 28.276,8.5 28,8.5L27,8.5C26.724,8.5 26.5,8.276 26.5,8ZM29.5,8C29.5,7.724 29.724,7.5 30,7.5L31,7.5C31.276,7.5 31.5,7.724 31.5,8C31.5,8.276 31.276,8.5 31,8.5L30,8.5C29.724,8.5 29.5,8.276 29.5,8ZM32.5,8C32.5,7.724 32.724,7.5 33,7.5L33.5,7.5C33.776,7.5 34,7.724 34,8C34,8.276 33.776,8.5 33.5,8.5L33,8.5C32.724,8.5 32.5,8.276 32.5,8Z" fill="#5b5b5b" fill-rule="evenodd" clip-rule="evenodd"/>
  <path d="M15.5,17.5L26,28" fill="#00000000" stroke="#dbdbdb" stroke-width="2" stroke-linecap="round" stroke-linejoin="round"/>
  <path d="M7.5,16.5C6.948,16.5 6.5,16.948 6.5,17.5C6.5,18.052 6.948,18.5 7.5,18.5V16.5ZM15.5,17.5V18.5C15.748,18.5 15.987,18.408 16.171,18.242L15.5,17.5ZM7.5,18.5H15.5V16.5H7.5V18.5ZM16.171,18.242L26.671,8.742L25.329,7.258L14.829,16.758L16.171,18.242Z" fill="#000000"/>
  <path d="M26,8m-3,0a3,3 0,1 1,6 0a3,3 0,1 1,-6 0" fill="#ffffff" stroke="#000000" stroke-width="2"/>
  <path d="M26,28m-3.5,0a3.5,3.5 0,1 1,7 0a3.5,3.5 0,1 1,-7 0" fill="#dbdbdb"/>
</svg>
