<svg xmlns="http://www.w3.org/2000/svg" width="36" height="36" viewBox="0 0 36 36" fill="none">
  <path d="M3,23.5C3,23.224 3.224,23 3.5,23L4,23C4.276,23 4.5,23.224 4.5,23.5C4.5,23.776 4.276,24 4,24L3.5,24C3.224,24 3,23.776 3,23.5ZM5.5,23.5C5.5,23.224 5.724,23 6,23L7,23C7.276,23 7.5,23.224 7.5,23.5C7.5,23.776 7.276,24 7,24L6,24C5.724,24 5.5,23.776 5.5,23.5ZM8.5,23.5C8.5,23.224 8.724,23 9,23L10,23C10.276,23 10.5,23.224 10.5,23.5C10.5,23.776 10.276,24 10,24L9,24C8.724,24 8.5,23.776 8.5,23.5ZM11.5,23.5C11.5,23.224 11.724,23 12,23L13,23C13.276,23 13.5,23.224 13.5,23.5C13.5,23.776 13.276,24 13,24L12,24C11.724,24 11.5,23.776 11.5,23.5ZM14.5,23.5C14.5,23.224 14.724,23 15,23L16,23C16.276,23 16.5,23.224 16.5,23.5C16.5,23.776 16.276,24 16,24L15,24C14.724,24 14.5,23.776 14.5,23.5ZM17.5,23.5C17.5,23.224 17.724,23 18,23L19,23C19.276,23 19.5,23.224 19.5,23.5C19.5,23.776 19.276,24 19,24L18,24C17.724,24 17.5,23.776 17.5,23.5ZM20.5,23.5C20.5,23.224 20.724,23 21,23L22,23C22.276,23 22.5,23.224 22.5,23.5C22.5,23.776 22.276,24 22,24L21,24C20.724,24 20.5,23.776 20.5,23.5ZM23.5,23.5C23.5,23.224 23.724,23 24,23L25,23C25.276,23 25.5,23.224 25.5,23.5C25.5,23.776 25.276,24 25,24L24,24C23.724,24 23.5,23.776 23.5,23.5ZM26.5,23.5C26.5,23.224 26.724,23 27,23L28,23C28.276,23 28.5,23.224 28.5,23.5C28.5,23.776 28.276,24 28,24L27,24C26.724,24 26.5,23.776 26.5,23.5ZM29.5,23.5C29.5,23.224 29.724,23 30,23L31,23C31.276,23 31.5,23.224 31.5,23.5C31.5,23.776 31.276,24 31,24L30,24C29.724,24 29.5,23.776 29.5,23.5ZM32.5,23.5C32.5,23.224 32.724,23 33,23L33.5,23C33.776,23 34,23.224 34,23.5C34,23.776 33.776,24 33.5,24L33,24C32.724,24 32.5,23.776 32.5,23.5Z" fill="#5b5b5b" fill-rule="evenodd" clip-rule="evenodd"/>
  <path d="M3,15L34,15" fill="#00000000" stroke="#5b5b5b" stroke-width="1" stroke-linecap="round"/>
  <path d="M6.106,26.053C5.859,26.547 6.059,27.147 6.553,27.394C7.047,27.641 7.647,27.441 7.894,26.947L6.106,26.053ZM14.5,24L14.053,24.894C14.297,25.017 14.581,25.034 14.838,24.941C15.095,24.849 15.303,24.656 15.414,24.406L14.5,24ZM9.5,21.5L9.947,20.606C9.453,20.359 8.853,20.559 8.606,21.053L9.5,21.5ZM20.5,10.5L21.133,9.726C20.892,9.529 20.572,9.455 20.269,9.527C19.965,9.599 19.713,9.809 19.586,10.094L20.5,10.5ZM7.894,26.947L10.394,21.947L8.606,21.053L6.106,26.053L7.894,26.947ZM9.053,22.394L14.053,24.894L14.947,23.106L9.947,20.606L9.053,22.394ZM15.414,24.406L21.414,10.906L19.586,10.094L13.586,23.594L15.414,24.406ZM19.867,11.274L25.367,15.774L26.633,14.226L21.133,9.726L19.867,11.274Z" fill="#000000"/>
  <path d="M26,15m-3,0a3,3 0,1 1,6 0a3,3 0,1 1,-6 0" fill="#ffffff" stroke="#000000" stroke-width="2"/>
</svg>
