<svg xmlns="http://www.w3.org/2000/svg" width="24" height="24" fill="currentColor" viewBox="0 0 24 24">
<path fill-rule="evenodd" clip-rule="evenodd" d="M15.1562 11.3008C15.8434 9.66899 18.1566 9.66899 18.8438 11.3008L21.9219 18.6123C22.1359 19.1212 21.8966 19.7076 21.3877 19.9219C20.8789 20.1358 20.2925 19.8972 20.0781 19.3887L19.4932 18H14.5068L13.9219 19.3887C13.7074 19.8972 13.1211 20.1359 12.6123 19.9219C12.1035 19.7076 11.8641 19.1212 12.0781 18.6123L15.1562 11.3008ZM15.3486 16H18.6514L17 12.0771L15.3486 16Z" />
<path fill-rule="evenodd" clip-rule="evenodd" d="M8 3C8.55228 3 9 3.44772 9 4V5H12C12.5523 5 13 5.44772 13 6C13 6.55228 12.5523 7 12 7H11.3711C11.0587 8.91122 10.4427 10.5231 9.43652 11.8174C10.1876 12.3427 11.1102 12.7472 12.2422 13.0303C12.778 13.1642 13.1037 13.7074 12.9697 14.2432C12.8355 14.7786 12.2924 15.1046 11.7568 14.9707C10.2955 14.6053 9.03995 14.0412 7.99902 13.2432C6.95803 14.0406 5.70304 14.6045 4.24219 14.9697C3.70652 15.1034 3.16419 14.7779 3.03027 14.2422C2.89649 13.7065 3.2221 13.1632 3.75781 13.0293C4.88928 12.7464 5.81153 12.3422 6.5625 11.8174C5.55658 10.5232 4.94128 8.91089 4.62891 7H4C3.44777 6.99993 3 6.55224 3 6C3 5.44776 3.44777 5.00007 4 5H7V4C7 3.44776 7.44777 3.00007 8 3ZM6.6582 7C6.92409 8.41343 7.37424 9.52546 8 10.3994C8.62578 9.52543 9.07596 8.41353 9.3418 7H6.6582Z" />
</svg>
