<svg xmlns="http://www.w3.org/2000/svg" width="24" height="24" fill="currentColor" viewBox="0 0 24 24">
  <path  d="M12 5a1 1 0 1 1 0 2H4a1 1 0 0 1 0-2h8Z"/>
  <path  d="M7 6V4a1 1 0 0 1 2 0v2a1 1 0 1 1-2 0Zm-1.586-.614a1 1 0 0 1 1.123.86c.268 2.007.86 3.47 1.756 4.532.891 1.055 2.16 1.804 3.95 2.252a1 1 0 0 1-.486 1.94c-2.096-.524-3.77-1.454-4.992-2.902-1.216-1.44-1.909-3.303-2.21-5.558a1 1 0 0 1 .86-1.124Z"/>
  <path  d="M10.586 5.393a1 1 0 0 0-1.124.858c-.268 2.005-.86 3.467-1.756 4.529-.89 1.054-2.159 1.802-3.948 2.25a1 1 0 0 0 .484 1.94c2.095-.524 3.77-1.453 4.991-2.9 1.216-1.438 1.91-3.3 2.211-5.553a1 1 0 0 0-.858-1.124Zm4.57 5.907c.688-1.631 3-1.631 3.688 0l3.078 7.312a1 1 0 0 1-1.844.777l-.585-1.39h-4.986l-.585 1.39a1 1 0 0 1-1.844-.777l3.078-7.311Zm.193 4.7h3.302l-1.65-3.923L15.348 16Z"/>
</svg>
