<svg xmlns="http://www.w3.org/2000/svg" width="36" height="36" viewBox="0 0 36 36" fill="none">
  <path d="M3,21.5C3,21.224 3.224,21 3.5,21L4,21C4.276,21 4.5,21.224 4.5,21.5C4.5,21.776 4.276,22 4,22L3.5,22C3.224,22 3,21.776 3,21.5ZM5.5,21.5C5.5,21.224 5.724,21 6,21L7,21C7.276,21 7.5,21.224 7.5,21.5C7.5,21.776 7.276,22 7,22L6,22C5.724,22 5.5,21.776 5.5,21.5ZM8.5,21.5C8.5,21.224 8.724,21 9,21L10,21C10.276,21 10.5,21.224 10.5,21.5C10.5,21.776 10.276,22 10,22L9,22C8.724,22 8.5,21.776 8.5,21.5ZM11.5,21.5C11.5,21.224 11.724,21 12,21L13,21C13.276,21 13.5,21.224 13.5,21.5C13.5,21.776 13.276,22 13,22L12,22C11.724,22 11.5,21.776 11.5,21.5ZM14.5,21.5C14.5,21.224 14.724,21 15,21L16,21C16.276,21 16.5,21.224 16.5,21.5C16.5,21.776 16.276,22 16,22L15,22C14.724,22 14.5,21.776 14.5,21.5ZM17.5,21.5C17.5,21.224 17.724,21 18,21L19,21C19.276,21 19.5,21.224 19.5,21.5C19.5,21.776 19.276,22 19,22L18,22C17.724,22 17.5,21.776 17.5,21.5ZM20.5,21.5C20.5,21.224 20.724,21 21,21L22,21C22.276,21 22.5,21.224 22.5,21.5C22.5,21.776 22.276,22 22,22L21,22C20.724,22 20.5,21.776 20.5,21.5ZM23.5,21.5C23.5,21.224 23.724,21 24,21L25,21C25.276,21 25.5,21.224 25.5,21.5C25.5,21.776 25.276,22 25,22L24,22C23.724,22 23.5,21.776 23.5,21.5ZM26.5,21.5C26.5,21.224 26.724,21 27,21L28,21C28.276,21 28.5,21.224 28.5,21.5C28.5,21.776 28.276,22 28,22L27,22C26.724,22 26.5,21.776 26.5,21.5ZM29.5,21.5C29.5,21.224 29.724,21 30,21L31,21C31.276,21 31.5,21.224 31.5,21.5C31.5,21.776 31.276,22 31,22L30,22C29.724,22 29.5,21.776 29.5,21.5ZM32.5,21.5C32.5,21.224 32.724,21 33,21L33.5,21C33.776,21 34,21.224 34,21.5C34,21.776 33.776,22 33.5,22L33,22C32.724,22 32.5,21.776 32.5,21.5Z" fill="currentColor" fill-opacity="0.4" fill-rule="evenodd" clip-rule="evenodd"/>
  <path d="M3 11.5H20.5" fill="#00000000" stroke="currentColor" stroke-opacity="0.4" stroke-width="1" stroke-linecap="round"/>
  <path d="M31.5 11.5H34" fill="#00000000" stroke="currentColor" stroke-opacity="0.4" stroke-width="1" stroke-linecap="round"/>
  <path d="M7.5 28L12 21.5L17 25L23.2 15.2" stroke="currentColor" stroke-width="2" stroke-linecap="round" stroke-linejoin="round"/>
  <path d="M26,11m-3,0a3,3 0,1 1,6 0a3,3 0,1 1,-6 0" fill="none" stroke="currentColor" stroke-width="2"/>
</svg>
