<svg xmlns="http://www.w3.org/2000/svg" width="24" height="24" fill="currentColor" viewBox="0 0 24 24">
  <path  d="M10 6v8h-.052c.293.287.537.625.715 1h2.674a3.5 3.5 0 0 1 6.326 0H20V6H10Zm-2.5 9a1.5 1.5 0 1 0 0 3 1.5 1.5 0 0 0 0-3Zm9 0a1.5 1.5 0 1 0 0 3 1.5 1.5 0 0 0 0-3ZM4 15h.337A3.5 3.5 0 0 1 8 13.035V8H5.535L4 10.303V15Zm18 0a2 2 0 0 1-2 2h-.036a3.5 3.5 0 0 1-6.928 0h-2.072a3.5 3.5 0 0 1-6.928 0H4a2 2 0 0 1-2-2v-4.697a2 2 0 0 1 .336-1.11L3.87 6.891A2 2 0 0 1 5.535 6H8a2 2 0 0 1 2-2h10a2 2 0 0 1 2 2v9Z"/>
</svg>
