<svg xmlns="http://www.w3.org/2000/svg" width="36" height="36" viewBox="0 0 36 36" fill="none">
  <path d="M18,13.5V18L20.5,20" fill="#00000000" stroke="currentColor" stroke-opacity="0.6" stroke-width="2" stroke-linecap="round"/>
  <path d="M9,18C9,13.029 13.029,9 18,9C22.971,9 27,13.029 27,18C27,20.79 25.731,23.283 23.738,24.934C24.442,25.17 25.127,25.449 25.789,25.768C27.773,23.778 29,21.032 29,18C29,11.925 24.075,7 18,7C11.925,7 7,11.925 7,18C7,21.032 8.227,23.778 10.211,25.768C10.873,25.449 11.558,25.17 12.262,24.934C10.269,23.283 9,20.79 9,18Z" fill="currentColor" fill-rule="evenodd" clip-rule="evenodd"/>
  <path d="M8.843,26.5C11.526,24.912 14.656,24 18,24C21.487,24 24.743,24.992 27.5,26.708" fill="#00000000" stroke="currentColor" stroke-opacity="0.6" stroke-width="2" stroke-linecap="round"/>
</svg>
