<svg xmlns="http://www.w3.org/2000/svg" width="24" height="24" fill="currentColor" viewBox="0 0 24 24">
  <path fill-rule="evenodd" d="M12 5c2.494 0 5.416.118 7.732 1.004 1.176.45 2.256 1.118 3.04 2.123C23.568 9.145 24 10.431 24 12c0 1.619-.41 3.339-1.375 4.684C21.634 18.066 20.087 19 18 19c-1.029 0-1.847-.223-2.53-.585-.669-.354-1.162-.817-1.552-1.208C13.084 16.373 12.758 16 12 16s-1.084.373-1.918 1.207c-.39.39-.883.854-1.552 1.208-.683.362-1.5.585-2.53.585-2.08 0-3.628-.91-4.623-2.29C.409 15.372 0 13.649 0 12c0-1.569.433-2.855 1.228-3.873.784-1.005 1.864-1.674 3.04-2.123C6.584 5.118 9.506 5 12 5Zm0 2c-2.506 0-5.085.132-7.018.871-.949.363-1.682.85-2.178 1.486C2.317 9.98 2 10.82 2 12c0 1.352.34 2.629.998 3.54C3.628 16.41 4.58 17 6 17c.721 0 1.216-.152 1.595-.352.394-.209.713-.495 1.073-.855C9.334 15.127 10.258 14 12 14c1.742 0 2.666 1.127 3.332 1.793.36.36.68.646 1.073.855.38.2.874.352 1.595.352 1.412 0 2.366-.598 3-1.481.66-.922 1-2.202 1-3.519 0-1.181-.317-2.02-.804-2.643-.496-.635-1.23-1.123-2.178-1.486C17.084 7.132 14.506 7 12 7Z" clip-rule="evenodd"/>
</svg>
