<svg xmlns="http://www.w3.org/2000/svg" width="24" height="24" fill="currentColor" viewBox="0 0 24 24">
  <path fill-rule="evenodd" d="M13 20.929 5.747 17H1V7h4.747L13 3.071V20.93ZM6.477 8.879 6.254 9H3v6h3.254l.223.121L11 17.571V6.43L6.477 8.88Z" clip-rule="evenodd"/>
  <path d="M19.778 4.222A10.969 10.969 0 0 1 23 12c0 3.037-1.232 5.789-3.222 7.778l-1.414-1.414A8.97 8.97 0 0 0 21 12a8.97 8.97 0 0 0-2.636-6.364l1.414-1.414Z"/>
  <path d="M16.597 7.403A6.484 6.484 0 0 1 18.5 12a6.483 6.483 0 0 1-1.903 4.597l-1.415-1.415A4.482 4.482 0 0 0 16.5 12a4.482 4.482 0 0 0-1.318-3.182l1.415-1.415Z"/>
</svg>
