<svg xmlns="http://www.w3.org/2000/svg" width="24" height="24" fill="currentColor" viewBox="0 0 24 24">
<path d="M15.5 13.25C16.1903 13.25 16.75 13.8097 16.75 14.5C16.75 15.1903 16.1903 15.75 15.5 15.75C14.8097 15.75 14.25 15.1903 14.25 14.5C14.25 13.8097 14.8097 13.25 15.5 13.25Z" />
<path fill-rule="evenodd" clip-rule="evenodd" d="M15.25 3C16.2165 3 17 3.7835 17 4.75V8H19C20.1046 8 21 8.89545 21 10V19C21 20.1046 20.1046 21 19 21H7C4.79088 21 3 19.2092 3 17V6.5C3 4.56701 4.56701 3 6.5 3H15.25ZM5 17C5 18.1046 5.89542 19 7 19H19V10H6.5C5.96319 10 5.45464 9.87907 5 9.66309V17ZM6.5 5C5.67157 5 5 5.67157 5 6.5C5 7.32843 5.67157 8 6.5 8H15V5H6.5Z" />
</svg>
