<svg xmlns="http://www.w3.org/2000/svg" width="24" height="24" fill="currentColor" viewBox="0 0 24 24">
  <path  fill-rule="evenodd" d="M14.875 12.625a1.25 1.25 0 1 1 0 2.5 1.25 1.25 0 0 1 0-2.5Zm0 .75a.5.5 0 1 0 0 1 .5.5 0 0 0 0-1Z" clip-rule="evenodd"/>
  <path  fill-rule="evenodd" d="M15.25 3c.966 0 1.75.784 1.75 1.75V8h2a2 2 0 0 1 2 2v9a2 2 0 0 1-2 2H7a4 4 0 0 1-4-4V6.5A3.5 3.5 0 0 1 6.5 3h8.75ZM5 17a2 2 0 0 0 2 2h12v-9H6.5c-.537 0-1.045-.12-1.5-.337V17ZM6.5 5a1.5 1.5 0 1 0 0 3H15V5H6.5Z" clip-rule="evenodd"/>
</svg>
