<svg xmlns="http://www.w3.org/2000/svg" width="24" height="24" fill="currentColor" viewBox="0 0 24 24">
  <path  d="M19 10c0-1.535-.314-2.876-.773-3.796C17.737 5.225 17.246 5 17 5H9.849c.058.103.114.206.167.31C10.642 6.563 11 8.223 11 10c0 1.778-.358 3.438-.984 4.69a6.438 6.438 0 0 1-.167.31H10a1 1 0 0 1 1 1v3h8v-9Zm2 9a2 2 0 0 1-2 2h-8a2 2 0 0 1-2-2v-2H7a1 1 0 1 1 0-2c.246 0 .737-.225 1.227-1.204.46-.92.773-2.26.773-3.796 0-1.535-.314-2.876-.773-3.796C7.737 5.225 7.246 5 7 5a1 1 0 0 1 0-2h10c1.411 0 2.42 1.118 3.016 2.31C20.642 6.563 21 8.223 21 10v9Z"/>
  <path  d="M9 10c0-1.535-.314-2.876-.773-3.796C7.737 5.225 7.246 5 7 5c-.246 0-.737.225-1.227 1.204C5.313 7.124 5 8.464 5 10c0 1.535.314 2.876.773 3.796C6.263 14.775 6.754 15 7 15c.246 0 .737-.225 1.227-1.204.46-.92.773-2.26.773-3.796Zm2 0c0 1.778-.358 3.438-.984 4.69C9.42 15.882 8.41 17 7 17s-2.42-1.118-3.016-2.31C3.36 13.438 3 11.777 3 10c0-1.778.359-3.438.984-4.69C4.58 4.119 5.59 3 7 3s2.42 1.118 3.016 2.31C10.642 6.563 11 8.223 11 10Z"/>
  <path  d="M11 10v6H9v-6h2Zm-3.25 0c0 .69-.336 1.25-.75 1.25s-.75-.56-.75-1.25.336-1.25.75-1.25.75.56.75 1.25Z"/>
</svg>
