<svg xmlns="http://www.w3.org/2000/svg" width="24" height="24" fill="currentColor" viewBox="0 0 24 24">
  <path  d="M9.412 2.34c4.31-1.154 8.713.692 11.001 4.255.533.007 1.017.049 1.422.14.274.062.567.158.825.32.231.144.484.375.621.72l.052.154.037.191c.054.439-.116.815-.28 1.065-.191.29-.46.544-.738.763a7.11 7.11 0 0 1-.498.356c.873 5.04-2.228 10.005-7.265 11.355-5.038 1.35-10.207-1.399-11.97-6.202a7.138 7.138 0 0 1-.61-.058c-.35-.05-.71-.137-1.02-.293-.306-.153-.7-.445-.839-.965-.115-.43 0-.818.146-1.093.143-.27.348-.5.555-.69a7.04 7.04 0 0 1 1.16-.833c.2-4.23 3.091-8.03 7.401-9.184Zm10.559 8.985c-1.893.887-4.52 1.82-7.453 2.607-2.934.786-5.675 1.29-7.757 1.47a8 8 0 0 0 9.31 4.325 8 8 0 0 0 5.9-8.402Zm-.99-3.237a8.004 8.004 0 0 0-14.982 4.014c.006.443.05.89.133 1.338.122-.007.25-.012.38-.023C6.454 13.257 9.107 12.775 12 12c2.894-.776 5.433-1.684 7.193-2.517.12-.056.232-.115.342-.17a7.977 7.977 0 0 0-.555-1.225Z"/>
</svg>
