<svg xmlns="http://www.w3.org/2000/svg" width="24" height="24" fill="currentColor" viewBox="0 0 24 24">
  <path fill-rule="evenodd" d="M9.412 2.34c4.31-1.154 8.714.693 11.002 4.257.594.007 1.144.057 1.593.181.372.103 1.032.354 1.281 1.013l.045.138.037.19c.054.44-.116.815-.28 1.065-.191.29-.46.545-.738.764a7.12 7.12 0 0 1-.498.355c.873 5.041-2.228 10.006-7.265 11.356-5.038 1.35-10.207-1.399-11.97-6.202a7.137 7.137 0 0 1-.61-.058c-.35-.05-.71-.137-1.02-.293-.306-.153-.7-.446-.839-.966-.204-.762.285-1.367.575-1.66.326-.332.776-.65 1.286-.953.2-4.23 3.09-8.031 7.401-9.186Zm10.559 8.985c-1.893.887-4.52 1.821-7.454 2.607-2.933.787-5.674 1.29-7.756 1.47a8 8 0 0 0 9.31 4.325 8 8 0 0 0 5.9-8.402Zm-.99-3.237a8.004 8.004 0 0 0-14.982 4.014c.006.443.05.89.133 1.338.122-.008.25-.012.38-.023 1.94-.16 4.594-.642 7.488-1.417 2.894-.776 5.433-1.685 7.193-2.517.12-.056.232-.115.342-.17a7.977 7.977 0 0 0-.555-1.225Z" clip-rule="evenodd"/>
</svg>
