<svg xmlns="http://www.w3.org/2000/svg" width="24" height="24" fill="currentColor" viewBox="0 0 24 24">
  <path  d="M9.412 2.341c4.31-1.155 8.713.691 11.001 4.254.533.007 1.017.05 1.422.14.274.062.567.158.825.32.231.145.484.376.621.72l.052.154.037.191c.054.439-.116.815-.28 1.065-.191.29-.46.544-.737.763-.15.119-.318.237-.5.356.874 5.041-2.227 10.005-7.264 11.355-5.038 1.35-10.207-1.398-11.97-6.202a7.137 7.137 0 0 1-.61-.057c-.35-.051-.71-.138-1.02-.293-.306-.154-.7-.446-.839-.966-.115-.43 0-.818.146-1.093.143-.27.348-.499.555-.69a7.03 7.03 0 0 1 1.16-.832c.2-4.23 3.091-8.03 7.401-9.185Zm10.559 8.984c-1.893.887-4.52 1.822-7.453 2.608-2.934.786-5.675 1.29-7.757 1.469a8 8 0 0 0 9.31 4.326 8 8 0 0 0 5.9-8.403Zm-.99-3.237a8.004 8.004 0 0 0-14.982 4.015c.006.442.05.89.133 1.338.122-.008.25-.013.38-.024C6.454 13.257 9.107 12.776 12 12c2.894-.775 5.433-1.684 7.193-2.516.12-.057.232-.116.342-.17a7.984 7.984 0 0 0-.555-1.226Z"/>
</svg>
