<svg xmlns="http://www.w3.org/2000/svg" width="24" height="24" fill="currentColor" viewBox="0 0 24 24">
  <path fill-rule="evenodd" d="M19 11c0 1.614.358 2.548.905 3.095.547.547 1.481.905 3.095.905v2c-1.614 0-2.548.358-3.095.905C19.358 18.452 19 19.386 19 21h-2c0-1.614-.358-2.548-.905-3.095C15.548 17.358 14.614 17 13 17v-2c1.614 0 2.548-.358 3.095-.905.547-.547.905-1.481.905-3.095h2Zm-1 3.922A4.323 4.323 0 0 1 16.922 16 4.323 4.323 0 0 1 18 17.078 4.323 4.323 0 0 1 19.078 16 4.329 4.329 0 0 1 18 14.922Z" clip-rule="evenodd"/>
  <path d="M22 9h-2V6H4v12h7v2H2V4h20v5Z"/>
  <path d="M6 7a1 1 0 1 1 0 2 1 1 0 0 1 0-2Zm3 0a1 1 0 1 1 0 2 1 1 0 0 1 0-2Zm3 0a1 1 0 1 1 0 2 1 1 0 0 1 0-2Z"/>
</svg>
