<svg xmlns="http://www.w3.org/2000/svg" width="24" height="24" fill="currentColor" viewBox="0 0 24 24">
  <path  fill-rule="evenodd" d="M2 6a2 2 0 0 1 2-2h16a2 2 0 0 1 2 2v2a1 1 0 1 1-2 0V6H4v12h6a1 1 0 1 1 0 2H4a2 2 0 0 1-2-2V6Zm16 5a1 1 0 0 1 1 1c0 1.267.282 1.95.665 2.335.384.383 1.068.665 2.335.665a1 1 0 1 1 0 2c-1.267 0-1.95.282-2.335.665C19.282 18.05 19 18.733 19 20a1 1 0 1 1-2 0c0-1.267-.282-1.95-.665-2.335C15.95 17.282 15.267 17 14 17a1 1 0 1 1 0-2c1.267 0 1.95-.282 2.335-.665.383-.384.665-1.068.665-2.335a1 1 0 0 1 1-1Zm0 4.47a3.636 3.636 0 0 1-.53.53 3.636 3.636 0 0 1 .53.53 3.636 3.636 0 0 1 .53-.53 3.636 3.636 0 0 1-.53-.53Z" clip-rule="evenodd"/>
  <path  d="M7 8a1 1 0 1 1-2 0 1 1 0 0 1 2 0Zm3 0a1 1 0 1 1-2 0 1 1 0 0 1 2 0Zm2 1a1 1 0 1 0 0-2 1 1 0 0 0 0 2Z"/>
</svg>
