<svg xmlns="http://www.w3.org/2000/svg" width="24" height="24" fill="currentColor" viewBox="0 0 24 24">
  <path  d="M20 12c0-1.849-.63-3.55-1.683-4.904L15.523 9.89c1.482 1.591 2.653 3.224 3.372 4.662.135.271.256.543.363.81A7.966 7.966 0 0 0 20 12ZM7.096 18.317A7.962 7.962 0 0 0 12 20c1.202 0 2.34-.267 3.363-.742a10.54 10.54 0 0 1-.81-.363c-1.437-.72-3.07-1.89-4.661-3.373l-2.796 2.795Zm4.212-4.212c1.466 1.359 2.923 2.392 4.14 3 .712.357 1.29.542 1.708.591.205.025.34.012.42-.007a.288.288 0 0 0 .081-.032s.004-.004.009-.013a.294.294 0 0 0 .024-.07 1.21 1.21 0 0 0 .007-.418c-.05-.417-.234-.996-.59-1.709-.609-1.216-1.642-2.674-3-4.14l-2.8 2.798ZM6.845 6.304a1.238 1.238 0 0 0-.42.007.292.292 0 0 0-.069.024.05.05 0 0 0-.012.008s-.004.004-.009.013a.293.293 0 0 0-.024.07 1.237 1.237 0 0 0-.007.418c.05.417.234.996.59 1.709.609 1.216 1.642 2.672 3 4.138l2.798-2.798c-1.466-1.358-2.922-2.39-4.138-2.998-.713-.357-1.292-.542-1.71-.591ZM12 4c-1.202 0-2.34.267-3.363.741.267.107.538.228.81.364 1.438.72 3.07 1.89 4.661 3.372l2.795-2.795A7.962 7.962 0 0 0 12 4Zm-8 8a7.96 7.96 0 0 0 1.682 4.903l2.795-2.795c-1.483-1.59-2.652-3.224-3.37-4.66a10.575 10.575 0 0 1-.366-.812A7.968 7.968 0 0 0 4 12Zm18 0c0 5.523-4.477 10-10 10a9.958 9.958 0 0 1-6.33-2.258l-.741.743a1 1 0 0 1-1.414-1.414l.742-.743A9.958 9.958 0 0 1 2 12C2 6.477 6.477 2 12 2c2.401 0 4.604.846 6.328 2.257l.743-.742a1 1 0 0 1 1.414 1.414l-.743.742A9.958 9.958 0 0 1 22 12Z"/>
</svg>
