<svg xmlns="http://www.w3.org/2000/svg" width="24" height="24" fill="currentColor" viewBox="0 0 24 24">
  <path fill-rule="evenodd" d="M12 2c2.401 0 4.604.846 6.328 2.257l1.45-1.45 1.414 1.415-1.45 1.449A9.958 9.958 0 0 1 22 12c0 5.523-4.477 10-10 10a9.958 9.958 0 0 1-6.33-2.258l-1.448 1.45-1.414-1.414 1.449-1.45A9.958 9.958 0 0 1 2 12C2 6.477 6.477 2 12 2ZM7.096 18.317A7.962 7.962 0 0 0 12 20c1.202 0 2.34-.267 3.363-.742a10.559 10.559 0 0 1-.81-.363c-1.438-.72-3.07-1.89-4.662-3.372l-2.795 2.794Zm4.212-4.212c1.466 1.359 2.923 2.392 4.14 3 .712.357 1.29.542 1.708.591.205.024.34.012.418-.007a.29.29 0 0 0 .083-.032l.008-.013a.293.293 0 0 0 .024-.07c.02-.079.032-.213.007-.418-.05-.417-.234-.996-.59-1.709-.609-1.216-1.642-2.673-3-4.14l-2.798 2.798ZM4.74 8.636A7.968 7.968 0 0 0 4 12a7.96 7.96 0 0 0 1.682 4.903l2.795-2.795c-1.483-1.591-2.653-3.223-3.372-4.66a10.568 10.568 0 0 1-.364-.812Zm10.782 1.256c1.482 1.591 2.653 3.224 3.372 4.662.136.272.256.543.363.81A7.967 7.967 0 0 0 20 12c0-1.849-.63-3.55-1.683-4.904L15.523 9.89Zm-8.68-3.587a1.236 1.236 0 0 0-.417.007.291.291 0 0 0-.07.024l-.013.008s-.004.004-.009.013a.31.31 0 0 0-.023.07 1.236 1.236 0 0 0-.007.418c.05.417.234.996.59 1.709.609 1.216 1.642 2.672 3 4.138l2.797-2.797c-1.466-1.358-2.922-2.391-4.138-3-.713-.356-1.292-.54-1.71-.59ZM12 4a7.968 7.968 0 0 0-3.364.741c.267.107.539.228.811.364 1.438.72 3.07 1.89 4.661 3.372l2.795-2.795A7.962 7.962 0 0 0 12 4Z" clip-rule="evenodd"/>
</svg>
