<svg xmlns="http://www.w3.org/2000/svg" width="24" height="24" fill="currentColor" viewBox="0 0 24 24">
  <path  d="M6.393 2.113a1 1 0 0 1 1.259.286c.834 1.106 1.301 2.294 1.086 3.506-.204 1.146-.976 2.063-2.045 2.8.424.984.362 2.12.005 3.296a.998.998 0 0 1-.137.28c.666.638 1.087 1.535 1.331 2.57a.995.995 0 0 1 .01.405 4.113 4.113 0 0 1 2.549 1.208c.697.71 1.152 1.712 1.03 2.774-.127 1.104-.852 2.051-2.074 2.658a1 1 0 1 1-.889-1.791c.604-.3.845-.639.934-.914-.734.455-1.532.687-2.38.597-1.09-.115-2.06-.739-2.918-1.646a1 1 0 0 1 .022-1.398c.176-.174.356-.331.538-.474a3.528 3.528 0 0 1-1.183-.416c-1.068-.613-1.686-1.729-2.004-3.076a1 1 0 0 1 .686-1.188c.254-.076.506-.14.754-.186a3.438 3.438 0 0 1-.547-.707c-.618-1.064-.59-2.34-.187-3.664l.033-.092a1 1 0 0 1 1.15-.591c.25.058.493.126.726.206a3.53 3.53 0 0 1-.059-1.472C4.3 3.874 5.146 2.917 6.31 2.161l.084-.048Zm10.019.21a1 1 0 0 1 1.28-.162c1.163.756 2.01 1.713 2.226 2.923.088.496.059.988-.06 1.472a7.36 7.36 0 0 1 .726-.206l.096-.018c.48-.064.944.23 1.088.701.403 1.325.431 2.6-.187 3.664a3.436 3.436 0 0 1-.548.707c.249.047.5.11.755.186a1 1 0 0 1 .686 1.188c-.318 1.347-.936 2.463-2.004 3.076a3.528 3.528 0 0 1-1.184.416c.182.143.363.3.539.474a1 1 0 0 1 .022 1.398c-.858.907-1.829 1.53-2.918 1.646-.849.09-1.647-.141-2.38-.597.088.275.33.614.934.914a1 1 0 1 1-.889 1.79c-1.222-.606-1.947-1.553-2.074-2.657-.122-1.062.332-2.063 1.03-2.774a4.113 4.113 0 0 1 2.547-1.208.995.995 0 0 1 .012-.405c.244-1.035.665-1.932 1.33-2.57a.998.998 0 0 1-.136-.28c-.357-1.175-.42-2.312.004-3.297-1.069-.736-1.84-1.653-2.044-2.8-.215-1.21.252-2.399 1.086-3.505l.063-.075ZM7.563 17.239a2.31 2.31 0 0 0-1.08.264c.301.184.567.273.8.298.33.035.712-.045 1.169-.344a2.084 2.084 0 0 0-.889-.218Zm8.875 0c-.32.005-.622.086-.89.218.458.3.84.379 1.17.344.233-.025.498-.114.798-.298a2.31 2.31 0 0 0-1.078-.264Zm-12.62-3.932c.212.42.459.67.708.812.251.144.596.233 1.075.204-.212-.42-.458-.67-.707-.812-.251-.144-.597-.234-1.076-.204Zm16.364 0c-.479-.03-.824.06-1.075.204-.249.143-.496.392-.708.812.48.03.825-.06 1.076-.204.249-.142.495-.392.707-.812ZM3.947 8.633c-.03.473.06.812.203 1.058.145.248.4.498.834.71.03-.472-.06-.81-.202-1.057-.145-.249-.4-.498-.835-.71Zm16.106 0c-.434.213-.69.462-.834.711-.143.246-.232.585-.203 1.058.435-.213.69-.462.835-.711.143-.246.232-.585.202-1.058ZM6.591 4.486c-.334.347-.488.667-.538.949-.05.28-.017.63.176 1.067.334-.347.489-.665.54-.947.049-.28.016-.632-.178-1.07Zm10.818 0c-.193.437-.226.789-.176 1.069.05.281.204.6.538.947.193-.437.226-.787.177-1.067-.05-.282-.204-.602-.54-.95Z"/>
</svg>
