<svg xmlns="http://www.w3.org/2000/svg" width="24" height="24" fill="currentColor" viewBox="0 0 24 24">
  <path  d="m8.379 6-4.286 6 4.286 6h11.485V6H8.379Zm6.029 3.293a1 1 0 0 1 1.414 1.414l-1.295 1.294 1.294 1.294a1 1 0 0 1-1.414 1.414l-1.294-1.294-1.292 1.294a1 1 0 0 1-1.414-1.414L11.699 12l-1.294-1.294a1 1 0 1 1 1.414-1.414l1.294 1.294 1.295-1.294ZM21.864 18a2 2 0 0 1-2 2H8.379a2.001 2.001 0 0 1-1.628-.838l-4.286-6a2 2 0 0 1 0-2.324l4.286-6A2.001 2.001 0 0 1 8.379 4h11.485l.204.01A2 2 0 0 1 21.864 6v12Z"/>
</svg>
