<svg width="180" height="180" viewBox="0 0 180 180" fill="none" xmlns="http://www.w3.org/2000/svg">
<path d="M52 38H142L128 52H38L52 38Z" stroke="white" stroke-linejoin="round"/>
<path d="M52 128H142L128 142H38L52 128Z" stroke="white" stroke-linejoin="round"/>
<path d="M52 38H142V128H52V38Z" stroke="white" stroke-linejoin="round"/>
<rect x="38" y="52" width="90" height="90" stroke="white" stroke-linejoin="round"/>
<path opacity="0.8" d="M128 142V128H142L128 142Z" fill="white"/>
<mask id="path-6-inside-1_941_28398" fill="white">
<path fill-rule="evenodd" clip-rule="evenodd" d="M91.8955 60.3535C106.864 60.3535 118.999 72.4876 118.999 87.4561C118.999 100.764 109.047 113.789 96.2021 117.267C93.9393 117.879 91.5591 118.206 89.1025 118.206C74.1342 118.206 62 106.071 62 91.1025C62.0001 77.7969 71.9479 64.7735 84.7906 61.2943C87.055 60.6809 89.437 60.3535 91.8955 60.3535ZM79.9756 116.036C80.031 116.056 80.087 116.075 80.1426 116.095C80.0541 116.063 79.966 116.031 79.8779 115.998L79.9756 116.036Z"/>
</mask>
<path fill-rule="evenodd" clip-rule="evenodd" d="M91.8955 60.3535C106.864 60.3535 118.999 72.4876 118.999 87.4561C118.999 100.764 109.047 113.789 96.2021 117.267C93.9393 117.879 91.5591 118.206 89.1025 118.206C74.1342 118.206 62 106.071 62 91.1025C62.0001 77.7969 71.9479 64.7735 84.7906 61.2943C87.055 60.6809 89.437 60.3535 91.8955 60.3535ZM79.9756 116.036C80.031 116.056 80.087 116.075 80.1426 116.095C80.0541 116.063 79.966 116.031 79.8779 115.998L79.9756 116.036Z" fill="black"/>
<path d="M91.8955 60.3535V59.7947H91.8955L91.8955 60.3535ZM118.999 87.4561L119.558 87.4561V87.4561L118.999 87.4561ZM89.1025 118.206L89.1025 118.765H89.1025V118.206ZM62 91.1025L61.4412 91.1025V91.1025H62ZM79.9756 116.036L79.7725 116.557L79.7834 116.561L79.9756 116.036ZM80.1426 116.095L79.9541 116.621L80.3312 115.569L80.1426 116.095ZM79.8779 115.998L80.0721 115.474L79.6749 116.519L79.8779 115.998ZM91.8955 60.3535V60.9123C106.555 60.9123 118.44 72.7962 118.44 87.4561L118.999 87.4561L119.558 87.4561C119.558 72.1789 107.173 59.7947 91.8955 59.7947V60.3535ZM96.2021 117.267L96.056 116.727C93.8405 117.327 91.5093 117.647 89.1025 117.647V118.206V118.765C91.6089 118.765 94.0382 118.431 96.3481 117.806L96.2021 117.267ZM89.1025 118.206L89.1025 117.647C74.4428 117.647 62.5588 105.762 62.5588 91.1025H62H61.4412C61.4412 106.38 73.8255 118.765 89.1025 118.765L89.1025 118.206ZM84.7906 61.2943L84.9367 61.8337C87.1539 61.233 89.4868 60.9124 91.8955 60.9123L91.8955 60.3535L91.8955 59.7947C89.3872 59.7947 86.956 60.1287 84.6444 60.7549L84.7906 61.2943ZM79.9756 116.036L79.7834 116.561C79.8274 116.577 79.9312 116.613 79.9541 116.621L80.1426 116.095L80.3311 115.569C80.2429 115.537 80.2345 115.536 80.1677 115.511L79.9756 116.036ZM80.1426 116.095L80.3312 115.569C80.2452 115.538 80.1591 115.506 80.0721 115.474L79.8779 115.998L79.6837 116.522C79.7728 116.555 79.863 116.588 79.954 116.621L80.1426 116.095ZM79.8779 115.998L79.6749 116.519L79.7725 116.557L79.9756 116.036L80.1786 115.516L80.081 115.477L79.8779 115.998ZM62 91.1025L62.5588 91.1025C62.559 78.0488 72.338 65.2468 84.9367 61.8337L84.7906 61.2943L84.6444 60.7549C71.5577 64.3002 61.4413 77.545 61.4412 91.1025L62 91.1025ZM118.999 87.4561L118.44 87.456C118.44 100.512 108.657 113.315 96.056 116.727L96.2021 117.267L96.3481 117.806C109.437 114.262 119.558 101.016 119.558 87.4561L118.999 87.4561Z" fill="white" mask="url(#path-6-inside-1_941_28398)"/>
<path d="M117.168 81.7686C117.561 83.4312 117.796 85.1538 117.86 86.9209L109.167 90.2373L107.363 85.5088L117.168 81.7686ZM111.408 70.5273C113.6 73.0574 115.32 76.0061 116.435 79.2373L108.444 82.2852L104.906 73.0078L111.408 70.5273Z" fill="#4FE737"/>
<circle cx="89.5441" cy="89.5441" r="26.5441" fill="black"/>
<circle cx="88.5441" cy="90.5441" r="26.8235" fill="black" stroke="white" stroke-width="0.558824"/>
<circle cx="88.5418" cy="90.5438" r="20.6765" fill="black" stroke="white" stroke-width="0.558824"/>
<path d="M81.5551 98.6465L95.2463 98.6465C97.561 98.6465 99.4375 96.77 99.4375 94.4553C99.4375 92.1406 97.561 90.2641 95.2463 90.2641L81.5551 90.2641" stroke="white" stroke-width="0.558824"/>
<path d="M95.5308 81.8818L81.8396 81.8818C79.5249 81.8818 77.6484 83.7583 77.6484 86.073C77.6484 88.3877 79.5249 90.2642 81.8396 90.2642L95.5308 90.2642" stroke="white" stroke-width="0.558824"/>
<path d="M88.5703 78.5293V81.6856" stroke="white" stroke-width="0.558824" stroke-linejoin="bevel"/>
<path d="M88.5625 98.4336V101.59" stroke="white" stroke-width="0.558824" stroke-linejoin="bevel"/>
<path d="M53.0019 36.5L53.0019 53L36.5 53L53.0019 36.5Z" fill="#4FE737" stroke="black"/>
</svg>
