<svg width="180" height="180" viewBox="0 0 180 180" fill="none" xmlns="http://www.w3.org/2000/svg">
<path d="M135.011 24.5V137.25L134.811 137.4L130.67 140.506L130.493 140.5L43.5283 137.5L43.0479 137.483L43.0449 137.002L42.5156 30.623C42.5052 28.53 43.576 26.5802 45.3477 25.4658C46.3505 24.8351 47.5116 24.5 48.6963 24.5H135.011Z" fill="black" stroke="white"/>
<path d="M130.027 28.5V140.5H43.0293L43.0273 140.002L42.541 32.0156C42.5324 30.0765 44.1019 28.5 46.041 28.5H130.027Z" fill="black" stroke="white"/>
<path d="M43.1992 31.5894L62.1992 38.5298L62.5254 38.6499L62.5273 38.9976L63.0273 146.996L63.0303 147.714L62.3555 147.467L43.3555 140.527L43.0293 140.408L43.0273 140.06L42.5273 32.061L42.5244 31.3433L43.1992 31.5894Z" fill="black" stroke="white"/>
<path d="M134.23 25.5977C134.382 25.4858 134.584 25.469 134.752 25.5537C134.921 25.6387 135.027 25.8112 135.027 26V137C135.027 137.157 134.953 137.306 134.827 137.4L130.827 140.4C130.676 140.514 130.473 140.532 130.304 140.447C130.134 140.363 130.027 140.189 130.027 140L130.055 28.9385C130.055 28.7801 130.13 28.6313 130.258 28.5371L134.23 25.5977Z" fill="black" stroke="white" stroke-miterlimit="2" stroke-linejoin="round"/>
<path d="M148.871 87.683L116.121 144.408C115.983 144.647 115.677 144.729 115.438 144.591L107.643 140.091C107.404 139.953 107.322 139.647 107.46 139.408L140.21 82.683L148.871 87.683Z" fill="black" stroke="white"/>
<path d="M115.603 144.686L106.85 150.466L107.478 139.995L115.603 144.686Z" fill="black" stroke="white"/>
<rect x="131.5" y="38.5" width="9" height="27" fill="#3EDC2F" stroke="black" stroke-miterlimit="16"/>
</svg>
