<svg width="180" height="180" viewBox="0 0 180 180" fill="none" xmlns="http://www.w3.org/2000/svg">
<path d="M45.6139 25.8886C46.537 25.308 47.6054 25 48.6959 25H134.511V137L130.511 140L43.5454 137L43.0154 30.6206C43.0058 28.7002 43.9883 26.911 45.6139 25.8886Z" fill="white" stroke="black"/>
<path d="M43.0409 32.0135C43.0334 30.3514 44.3788 29 46.0409 29H129.527V140H43.5273L43.0409 32.0135Z" fill="white" stroke="black"/>
<path d="M43.0273 32.0591C50.4473 34.7696 54.6074 36.2893 62.0273 38.9998L62.5273 146.998L43.5273 140.057L43.0273 32.0591Z" fill="white" stroke="black"/>
<path d="M130.034 28.9388L135 26V137L130 140L130.034 28.9388Z" fill="black" stroke="black" stroke-miterlimit="2" stroke-linejoin="round"/>
<path d="M148.871 87.683L116.121 144.408C115.983 144.647 115.677 144.729 115.438 144.591L107.643 140.091C107.404 139.953 107.322 139.647 107.46 139.408L140.21 82.683L148.871 87.683Z" fill="white" stroke="black"/>
<path d="M115.603 144.686L106.85 150.466L107.478 139.995L115.603 144.686Z" fill="white" stroke="black"/>
<rect x="131.5" y="38.5" width="9" height="27" fill="#3EDC2F" stroke="black" stroke-miterlimit="16"/>
</svg>
