<svg width="180" height="180" viewBox="0 0 180 180" fill="none" xmlns="http://www.w3.org/2000/svg">
<path d="M99.5 32.5C126.562 32.5 148.5 54.438 148.5 81.5C148.5 101.879 136.058 119.351 118.354 126.738L118.323 126.752L118.294 126.77C111.021 131.045 102.548 133.5 93.5 133.5C66.438 133.5 44.5 111.562 44.5 84.5C44.5 64.121 56.9414 46.6479 74.6445 39.2607L74.6758 39.2471L74.7051 39.2295C81.9784 34.9538 90.4517 32.5 99.5 32.5Z" fill="black" stroke="white"/>
<path d="M145.679 70.2134C146.393 73.2096 146.83 76.3135 146.959 79.4966L120.172 89.7144L116.918 81.1831L145.679 70.2134Z" fill="#4FE737"/>
<path d="M135.31 49.9233C139.242 54.5035 142.334 59.8251 144.348 65.6509L128.977 71.5142L122.592 54.7749L135.31 49.9233Z" fill="#4FE737"/>
<circle cx="95.5" cy="83.5" r="48.5" fill="black"/>
<circle cx="93.5" cy="84.5" r="49" fill="black" stroke="white"/>
<circle cx="93.5" cy="84.5" r="37" fill="black" stroke="white"/>
<path d="M85.895 96.5687L85.895 92.3856C85.895 88.6018 89.0109 85.5603 92.7937 85.6518C99.9809 85.8256 105.901 80.0467 105.901 72.8574V71.5352C105.901 69.4876 104.241 67.8276 102.194 67.8276L91.5707 67.8276C88.9185 67.8276 86.375 68.8812 84.4996 70.7566L81.3633 73.8929" stroke="white"/>
<path d="M82.7422 101.883H89.6499" stroke="white"/>
</svg>
