<svg width="180" height="180" viewBox="0 0 180 180" fill="none" xmlns="http://www.w3.org/2000/svg">
<path d="M113.5 65C140.286 65 162 86.7142 162 113.5C162 132.217 151.396 148.454 135.87 156.54C128.08 161.876 118.655 165 108.5 165C81.7142 165 60 143.286 60 116.5C60 97.7835 70.6029 81.5453 86.1289 73.459C93.9194 68.1234 103.344 65 113.5 65Z" fill="black"/>
<mask id="mask0_514_12625" maskUnits="userSpaceOnUse" x="66" y="66" width="95" height="95">
<circle cx="113.5" cy="113.5" r="47" fill="black" stroke="black"/>
</mask>
<g mask="url(#mask0_514_12625)">
<rect x="-0.288992" y="0.645356" width="26.8716" height="10.055" transform="matrix(0.934347 -0.356364 -0.356364 -0.934347 143.613 125.883)" fill="#4FE737" stroke="black"/>
<rect x="-0.288992" y="0.645356" width="26.8716" height="18.7678" transform="matrix(0.934347 -0.356364 -0.356364 -0.934347 144.324 110.655)" fill="#4FE737" stroke="black"/>
</g>
<circle cx="108.5" cy="116.5" r="48" fill="white" stroke="black"/>
<circle cx="108.5" cy="116.5" r="37" fill="white" stroke="black"/>
<path d="M96 131L120.5 131C124.642 131 128 127.642 128 123.5C128 119.358 124.642 116 120.5 116L96 116" stroke="black"/>
<path d="M121 101L96.5 101C92.3579 101 89 104.358 89 108.5C89 112.642 92.3579 116 96.5 116L121 116" stroke="black"/>
<path d="M108.547 95V100.648" stroke="black" stroke-linejoin="bevel"/>
<path d="M108.539 130.618V136.266" stroke="black" stroke-linejoin="bevel"/>
<path d="M71.5 15C98.2858 15 120 36.7142 120 63.5C120 82.2166 109.396 98.4538 93.8701 106.54C86.0797 111.876 76.6554 115 66.5 115C39.7142 115 18 93.2858 18 66.5C18 47.7835 28.6029 31.5453 44.1289 23.459C51.9194 18.1234 61.3445 15 71.5 15Z" fill="black"/>
<mask id="mask1_514_12625" maskUnits="userSpaceOnUse" x="24" y="16" width="95" height="95">
<circle cx="71.5" cy="63.5" r="47" fill="black" stroke="black"/>
</mask>
<g mask="url(#mask1_514_12625)">
<mask id="path-13-outside-1_514_12625" maskUnits="userSpaceOnUse" x="93.4922" y="31.3984" width="35" height="45" fill="black">
<rect fill="white" x="93.4922" y="31.3984" width="35" height="45"/>
<path d="M125.576 65.5186L101.403 74.7383L98.1768 66.2773L122.35 57.0576L125.576 65.5186ZM126.287 50.29L102.114 59.5098L95.7822 42.9082L119.955 33.6885L126.287 50.29Z"/>
</mask>
<path d="M125.576 65.5186L101.403 74.7383L98.1768 66.2773L122.35 57.0576L125.576 65.5186ZM126.287 50.29L102.114 59.5098L95.7822 42.9082L119.955 33.6885L126.287 50.29Z" fill="#4FE737"/>
<path d="M125.576 65.5186L125.933 66.4529L126.867 66.0966L126.511 65.1622L125.576 65.5186ZM101.403 74.7383L100.469 75.0946L100.825 76.029L101.76 75.6726L101.403 74.7383ZM98.1768 66.2773L97.8204 65.343L96.8861 65.6993L97.2424 66.6337L98.1768 66.2773ZM122.35 57.0576L123.284 56.7013L122.928 55.7669L121.993 56.1233L122.35 57.0576ZM126.287 50.29L126.643 51.2244L127.578 50.868L127.221 49.9337L126.287 50.29ZM102.114 59.5098L101.18 59.8661L101.536 60.8005L102.471 60.4441L102.114 59.5098ZM95.7822 42.9082L95.4259 41.9739L94.4915 42.3302L94.8479 43.2646L95.7822 42.9082ZM119.955 33.6885L120.889 33.3321L120.533 32.3978L119.599 32.7541L119.955 33.6885ZM125.576 65.5186L125.22 64.5842L101.047 73.8039L101.403 74.7383L101.76 75.6726L125.933 66.4529L125.576 65.5186ZM101.403 74.7383L102.338 74.382L99.1111 65.921L98.1768 66.2773L97.2424 66.6337L100.469 75.0946L101.403 74.7383ZM98.1768 66.2773L98.5331 67.2117L122.706 57.992L122.35 57.0576L121.993 56.1233L97.8204 65.343L98.1768 66.2773ZM122.35 57.0576L121.415 57.4139L124.642 65.8749L125.576 65.5186L126.511 65.1622L123.284 56.7013L122.35 57.0576ZM126.287 50.29L125.931 49.3557L101.758 58.5754L102.114 59.5098L102.471 60.4441L126.643 51.2244L126.287 50.29ZM102.114 59.5098L103.049 59.1534L96.7166 42.5518L95.7822 42.9082L94.8479 43.2646L101.18 59.8661L102.114 59.5098ZM95.7822 42.9082L96.1386 43.8425L120.311 34.6228L119.955 33.6885L119.599 32.7541L95.4259 41.9739L95.7822 42.9082ZM119.955 33.6885L119.021 34.0448L125.353 50.6464L126.287 50.29L127.221 49.9337L120.889 33.3321L119.955 33.6885Z" fill="black" mask="url(#path-13-outside-1_514_12625)"/>
</g>
<circle cx="66.5" cy="66.5" r="48" fill="white" stroke="black"/>
<circle cx="66.5" cy="66.5" r="37" fill="white" stroke="black"/>
<path d="M54 81L78.5 81C82.6421 81 86 77.6421 86 73.5C86 69.3579 82.6421 66 78.5 66L54 66" stroke="black"/>
<path d="M79 51L54.5 51C50.3579 51 47 54.3579 47 58.5C47 62.6421 50.3579 66 54.5 66L79 66" stroke="black"/>
<path d="M66.5469 45V50.6481" stroke="black" stroke-linejoin="bevel"/>
<path d="M66.5391 80.6182V86.2662" stroke="black" stroke-linejoin="bevel"/>
</svg>
