<svg width="180" height="180" viewBox="0 0 180 180" fill="none" xmlns="http://www.w3.org/2000/svg">
<rect x="100" y="80" width="17" height="10" fill="black" stroke="white" stroke-linejoin="round"/>
<rect x="93" y="87" width="17" height="10" fill="black" stroke="white" stroke-linejoin="round"/>
<rect x="97" y="57" width="17" height="10" fill="black" stroke="white" stroke-linejoin="round"/>
<path d="M81 39C81.5523 39 82 39.4477 82 40V96C82 96.5523 81.5523 97 81 97H72C68.9649 97 66 99.1771 66 102.212V112C66 112.552 65.5523 113 65 113H64C47.4315 113 34 99.5685 34 83V76C34 72.5035 34.8545 69.2068 36.3661 66.307C41.8004 55.8823 52.7138 45.606 63.449 40.8141C66.061 39.6482 68.9548 39 72 39H81Z" fill="white" stroke="white" stroke-linejoin="round"/>
<path d="M71.0013 39H81.9961L65.9961 55H55L71.0013 39Z" fill="black" stroke="white" stroke-linejoin="round"/>
<path d="M34 76C34 64.402 43.402 55 55 55H66V113H55C43.402 113 34 103.598 34 92V76Z" fill="black" stroke="white" stroke-linejoin="round"/>
<path d="M82 39V97L66 113V55L82 39Z" fill="black" stroke="white" stroke-linejoin="round"/>
<path d="M134 39C145.598 39 155 48.402 155 60V76C155 78.6245 154.518 81.1363 153.639 83.4521C150.274 92.3124 144.052 101.352 136.984 107.666C133.271 110.983 128.371 113 123 113H113C112.448 113 112 112.552 112 112V56C112 55.4477 112.448 55 113 55C118.523 55 123 50.5228 123 45V40C123 39.4477 123.448 39 124 39H134Z" fill="#4FE737"/>
<path d="M124 39V38.5V38.5V39ZM134 39V39.5C145.322 39.5 154.5 48.6782 154.5 60H155H155.5C155.5 48.1259 145.874 38.5 134 38.5V39ZM155 60H154.5V76H155H155.5V60H155ZM155 76H154.5C154.5 78.5629 154.03 81.0146 153.172 83.2746L153.639 83.4521L154.106 83.6297C155.007 81.258 155.5 78.6861 155.5 76H155ZM136.984 107.666L136.651 107.293C133.026 110.532 128.244 112.5 123 112.5V113V113.5C128.499 113.5 133.516 111.435 137.317 108.039L136.984 107.666ZM123 113V112.5H113V113V113.5H123V113ZM113 113V112.5C112.724 112.5 112.5 112.276 112.5 112H112H111.5C111.5 112.828 112.172 113.5 113 113.5V113ZM112 112H112.5V56H112H111.5V112H112ZM112 56H112.5C112.5 55.7239 112.724 55.5 113 55.5V55V54.5C112.172 54.5 111.5 55.1716 111.5 56H112ZM123 45H123.5V40H123H122.5V45H123ZM123 40H123.5C123.5 39.7239 123.724 39.5 124 39.5V39V38.5C123.172 38.5 122.5 39.1716 122.5 40H123ZM124 39V39.5H134V39V38.5H124V39ZM113 55V55.5C118.799 55.5 123.5 50.799 123.5 45H123H122.5C122.5 50.2467 118.247 54.5 113 54.5V55ZM153.639 83.4521L153.172 83.2746C149.835 92.0597 143.659 101.032 136.651 107.293L136.984 107.666L137.317 108.039C144.445 101.671 150.713 92.5651 154.106 83.6297L153.639 83.4521Z" fill="black"/>
<path d="M134 40C145.598 40 155 49.402 155 61V77L140 92C140 103.598 130.598 113 119 113H108V58L107 56L108 55.0303V55H108.031L123.5 40H134Z" fill="black"/>
<path d="M134 40V39.5V39.5V40ZM155 77L155.354 77.3536C155.447 77.2598 155.5 77.1326 155.5 77H155ZM140 92L139.646 91.6464C139.553 91.7402 139.5 91.8674 139.5 92H140ZM108 113H107.5C107.5 113.276 107.724 113.5 108 113.5V113ZM108 58H108.5C108.5 57.9224 108.482 57.8458 108.447 57.7764L108 58ZM107 56L106.652 55.6411C106.495 55.7929 106.455 56.0286 106.553 56.2236L107 56ZM108 55.0303L108.348 55.3892C108.445 55.295 108.5 55.1655 108.5 55.0303H108ZM108 55V54.5C107.724 54.5 107.5 54.7239 107.5 55H108ZM108.031 55V55.5C108.161 55.5 108.286 55.4494 108.379 55.359L108.031 55ZM123.5 40V39.5C123.37 39.5 123.245 39.5506 123.152 39.641L123.5 40ZM134 40V40.5C145.322 40.5 154.5 49.6782 154.5 61H155H155.5C155.5 49.1259 145.874 39.5 134 39.5V40ZM155 61H154.5V77H155H155.5V61H155ZM155 77L154.646 76.6464L139.646 91.6464L140 92L140.354 92.3536L155.354 77.3536L155 77ZM140 92H139.5C139.5 103.322 130.322 112.5 119 112.5V113V113.5C130.874 113.5 140.5 103.874 140.5 92H140ZM119 113V112.5H108V113V113.5H119V113ZM108 113H108.5V58H108H107.5V113H108ZM108 58L108.447 57.7764L107.447 55.7764L107 56L106.553 56.2236L107.553 58.2236L108 58ZM107 56L107.348 56.3589L108.348 55.3892L108 55.0303L107.652 54.6713L106.652 55.6411L107 56ZM108 55.0303H108.5V55H108H107.5V55.0303H108ZM108 55V55.5H108.031V55V54.5H108V55ZM108.031 55L108.379 55.359L123.848 40.359L123.5 40L123.152 39.641L107.683 54.641L108.031 55ZM123.5 40V40.5H134V40V39.5H123.5V40Z" fill="black"/>
<path d="M134 39C145.598 39 155 48.402 155 60V76L130 101L107 55L123.5 39H134Z" fill="black" stroke="white" stroke-linejoin="round"/>
<path d="M107 55H118C129.598 55 139 64.402 139 76V92C139 103.598 129.598 113 118 113H107V55Z" fill="black" stroke="white" stroke-linejoin="round"/>
<path d="M73 59L76 56V66L73 69V59Z" fill="white"/>
<path d="M69 90L72 87V97L69 100V90Z" fill="white"/>
<path d="M76 83L79 80V90L76 93V83Z" fill="white"/>
<path d="M147.438 76H166V140H17V76H33.5556" stroke="white"/>
<path d="M95 36.5V25" stroke="white" stroke-linejoin="round" stroke-dasharray="2 2"/>
<path d="M107.944 28.9127L99.8125 37.0444" stroke="white" stroke-linejoin="round" stroke-dasharray="2 2"/>
<path d="M90.1317 37.0443L82 28.9126" stroke="white" stroke-linejoin="round" stroke-dasharray="2 2"/>
<path d="M89.9375 115.544L89.9375 127.044" stroke="white" stroke-linejoin="round" stroke-dasharray="2 2"/>
<path d="M77.0011 123.132L85.1328 115" stroke="white" stroke-linejoin="round" stroke-dasharray="2 2"/>
<path d="M94.8058 115L102.938 123.132" stroke="white" stroke-linejoin="round" stroke-dasharray="2 2"/>
</svg>
