<svg width="180" height="180" viewBox="0 0 180 180" fill="none" xmlns="http://www.w3.org/2000/svg">
<rect x="100" y="80" width="17" height="10" fill="white" stroke="black" stroke-linejoin="round"/>
<rect x="93" y="87" width="17" height="10" fill="white" stroke="black" stroke-linejoin="round"/>
<rect x="97" y="57" width="17" height="10" fill="white" stroke="black" stroke-linejoin="round"/>
<path d="M81 39C81.5523 39 82 39.4477 82 40V96C82 96.5523 81.5523 97 81 97H72C68.9649 97 66 99.1771 66 102.212V112C66 112.552 65.5523 113 65 113H64C47.4315 113 34 99.5685 34 83V76C34 72.5035 34.8545 69.2068 36.3661 66.307C41.8004 55.8823 52.7138 45.606 63.449 40.8141C66.061 39.6482 68.9548 39 72 39H81Z" fill="black" stroke="black" stroke-linejoin="round"/>
<path d="M71.0013 39H81.9961L65.9961 55H55L71.0013 39Z" fill="white" stroke="black" stroke-linejoin="round"/>
<path d="M34 76C34 64.402 43.402 55 55 55H66V113H55C43.402 113 34 103.598 34 92V76Z" fill="white" stroke="black" stroke-linejoin="round"/>
<path d="M82 39V97L66 113V55L82 39Z" fill="white" stroke="black" stroke-linejoin="round"/>
<path d="M134 39C145.598 39 155 48.402 155 60V76C155 79.42 154.182 82.6488 152.732 85.5018C147.6 95.5973 137.597 105.6 127.502 110.732C124.649 112.182 121.42 113 118 113H108C107.448 113 107 112.552 107 112V56C107 55.4477 107.448 55 108 55H118C120.57 55 123 53.1222 123 50.5526V40C123 39.4477 123.448 39 124 39H134Z" fill="#4FE737"/>
<path d="M108 113V113.5V113.5V113ZM108 55V54.5V54.5V55ZM124 39V38.5V38.5V39ZM134 39V39.5C145.322 39.5 154.5 48.6782 154.5 60H155H155.5C155.5 48.1259 145.874 38.5 134 38.5V39ZM155 60H154.5V76H155H155.5V60H155ZM155 76H154.5C154.5 79.3395 153.702 82.4908 152.286 85.2752L152.732 85.5018L153.178 85.7284C154.663 82.8068 155.5 79.5006 155.5 76H155ZM127.502 110.732L127.275 110.286C124.491 111.702 121.339 112.5 118 112.5V113V113.5C121.501 113.5 124.807 112.663 127.728 111.178L127.502 110.732ZM118 113V112.5H108V113V113.5H118V113ZM108 113V112.5C107.724 112.5 107.5 112.276 107.5 112H107H106.5C106.5 112.828 107.172 113.5 108 113.5V113ZM107 112H107.5V56H107H106.5V112H107ZM107 56H107.5C107.5 55.7239 107.724 55.5 108 55.5V55V54.5C107.172 54.5 106.5 55.1716 106.5 56H107ZM108 55V55.5H118V55V54.5H108V55ZM123 50.5526H123.5V40H123H122.5V50.5526H123ZM123 40H123.5C123.5 39.7239 123.724 39.5 124 39.5V39V38.5C123.172 38.5 122.5 39.1716 122.5 40H123ZM124 39V39.5H134V39V38.5H124V39ZM118 55V55.5C120.767 55.5 123.5 53.4708 123.5 50.5526H123H122.5C122.5 52.7736 120.372 54.5 118 54.5V55ZM152.732 85.5018L152.286 85.2752C147.202 95.2763 137.276 105.202 127.275 110.286L127.502 110.732L127.728 111.178C137.918 105.997 147.997 95.9183 153.178 85.7284L152.732 85.5018Z" fill="black"/>
<path d="M134 39C145.598 39 155 48.402 155 60V76L130 101L107 55L123.5 39H134Z" fill="white" stroke="black" stroke-linejoin="round"/>
<path d="M107 55H118C129.598 55 139 64.402 139 76V92C139 103.598 129.598 113 118 113H107V55Z" fill="white" stroke="black" stroke-linejoin="round"/>
<path d="M73 59L76 56V66L73 69V59Z" fill="black"/>
<path d="M69 90L72 87V97L69 100V90Z" fill="black"/>
<path d="M76 83L79 80V90L76 93V83Z" fill="black"/>
<path d="M147.438 76H166V140H17V76H33.5556" stroke="black"/>
<path d="M95 36.5V25" stroke="black" stroke-linejoin="round" stroke-dasharray="2 2"/>
<path d="M107.944 28.9127L99.8125 37.0444" stroke="black" stroke-linejoin="round" stroke-dasharray="2 2"/>
<path d="M90.1317 37.0443L82 28.9126" stroke="black" stroke-linejoin="round" stroke-dasharray="2 2"/>
<path d="M89.9375 115.544L89.9375 127.044" stroke="black" stroke-linejoin="round" stroke-dasharray="2 2"/>
<path d="M77.0011 123.132L85.1328 115" stroke="black" stroke-linejoin="round" stroke-dasharray="2 2"/>
<path d="M94.8058 115L102.938 123.132" stroke="black" stroke-linejoin="round" stroke-dasharray="2 2"/>
</svg>
