<svg width="192" height="108" viewBox="0 0 192 108" fill="none" xmlns="http://www.w3.org/2000/svg">
<path d="M16 18C16 11.3726 21.3726 6 28 6H164C170.627 6 176 11.3726 176 18V90C176 96.6274 170.627 102 164 102H28C21.3726 102 16 96.6274 16 90V18Z" fill="#EEEEEE"/>
<path d="M16 18C16 11.3726 21.3726 6 28 6H164C170.627 6 176 11.3726 176 18V90C176 96.6274 170.627 102 164 102H28C21.3726 102 16 96.6274 16 90V18Z" fill="#F0F1F2"/>
<g clip-path="url(#clip0_15708_22538)">
<path d="M46 26C46 32.9036 42.9036 36 36 36C29.0964 36 26 32.9036 26 26C26 19.0964 29.0964 16 36 16C42.9036 16 46 19.0964 46 26Z" fill="#21E935"/>
<path d="M46 26C46 32.9036 42.9036 36 36 36C29.0964 36 26 32.9036 26 26C26 19.0964 29.0964 16 36 16C42.9036 16 46 19.0964 46 26Z" fill="#4FF55F"/>
<path d="M36.001 25.4144C37.7532 25.4144 39.1738 26.8351 39.1738 28.5873C39.1737 30.3394 37.7531 31.7601 36.001 31.7601C34.249 31.7599 32.8292 30.3393 32.8291 28.5873C32.8291 26.8352 34.249 25.4147 36.001 25.4144ZM36.001 26.8549C35.0444 26.8551 34.2695 27.6307 34.2695 28.5873C34.2697 29.5438 35.0445 30.3195 36.001 30.3197C36.9577 30.3197 37.7333 29.5439 37.7334 28.5873C37.7334 27.6306 36.9577 26.8549 36.001 26.8549ZM36.9053 24.8246H35.1807V21.7162H33.6348L34.123 20.2406H36.9053V24.8246Z" fill="#101111"/>
</g>
<rect x="132" y="56" width="52" height="52" rx="26" fill="#E1E1E1"/>
<rect x="132" y="56" width="52" height="52" rx="26" fill="#DADEE1"/>
<path d="M155.798 86.6332C155.647 84.6926 156.578 83.2321 158.534 81.7972L159.771 80.8775C161.282 79.757 162.261 78.8468 162.39 77.3804C162.554 75.4996 161.205 74.0324 159.165 73.8539C157.029 73.6671 155.023 74.9371 154.626 77.6328L150.698 77C151.357 72.0465 155.67 70.1111 159.559 70.4513C163.48 70.7944 166.719 73.4227 166.376 77.3437C166.17 79.7027 164.688 81.2114 162.607 82.6033L161.341 83.4883C159.905 84.4869 159.146 85.4484 159.018 86.9148L155.798 86.6332ZM154.733 91.1013C154.847 89.7943 155.924 88.8606 157.263 88.9778C158.538 89.0893 159.437 90.1959 159.323 91.5029C159.209 92.8099 158.134 93.7117 156.859 93.6001C155.52 93.483 154.618 92.4083 154.733 91.1013Z" fill="black"/>
<rect x="26" y="84" width="50" height="8" rx="2" fill="#E1E1E1"/>
<rect x="26" y="84" width="50" height="8" rx="2" fill="#DADEE1"/>
<defs>
<clipPath id="clip0_15708_22538">
<rect width="20" height="20" fill="white" transform="translate(26 16)"/>
</clipPath>
</defs>
</svg>
