<svg width="180" height="180" viewBox="0 0 180 180" fill="none" xmlns="http://www.w3.org/2000/svg">
<path d="M101.509 132.387C100.047 137.365 95.448 141 89.9971 141C84.546 141 79.9464 137.365 78.4844 132.387C81.8971 132.458 85.7187 132.5 89.998 132.5C94.2762 132.5 98.0968 132.458 101.509 132.387Z" fill="white"/>
<path d="M101.509 132.387L101.989 132.528L102.181 131.873L101.498 131.887L101.509 132.387ZM78.4844 132.387L78.4949 131.887L77.8122 131.873L78.0046 132.528L78.4844 132.387ZM89.998 132.5V133V133V132.5ZM101.509 132.387L101.029 132.246C99.6277 137.017 95.2199 140.5 89.9971 140.5V141V141.5C95.6761 141.5 100.466 137.712 101.989 132.528L101.509 132.387ZM89.9971 141V140.5C84.7741 140.5 80.3654 137.017 78.9641 132.246L78.4844 132.387L78.0046 132.528C79.5274 137.712 84.318 141.5 89.9971 141.5V141ZM78.4844 132.387L78.4739 132.887C81.8904 132.958 85.7154 133 89.998 133V132.5V132C85.7219 132 81.9039 131.958 78.4949 131.887L78.4844 132.387ZM89.998 132.5V133C94.2795 133 98.1035 132.958 101.519 132.887L101.509 132.387L101.498 131.887C98.0901 131.958 94.273 132 89.998 132V132.5Z" fill="black"/>
<path d="M50.134 130.32C50.4095 128.941 51.9647 128.112 53.3369 128.421C57.6375 129.391 67.4786 130.5 89.9982 130.5C112.516 130.5 122.358 129.391 126.659 128.421C128.032 128.112 129.586 128.941 129.863 130.32C129.953 130.772 129.913 131.234 129.516 131.468C127.894 132.421 120.823 134.5 89.9982 134.5C59.1715 134.5 52.1018 132.421 50.4807 131.468C50.0838 131.234 50.0436 130.772 50.134 130.32Z" fill="black"/>
<path d="M89.998 68.5C103.017 68.5 114.119 77.9309 116.226 90.7783L120.643 117.727L120.699 118.069L121.039 118.136L123.311 118.584C125.891 119.093 127.91 121.108 128.426 123.687L129.372 128.418C129.41 128.606 129.411 128.755 129.386 128.859C129.364 128.948 129.328 128.999 129.263 129.037C128.553 129.454 126.477 130.206 120.654 130.845C114.857 131.481 105.403 132 89.998 132C74.5933 132 65.1395 131.481 59.3418 130.845C53.5203 130.206 51.4443 129.454 50.7344 129.037C50.6692 128.999 50.6317 128.948 50.6104 128.859C50.5853 128.755 50.5865 128.606 50.624 128.418L51.5703 123.687C52.0862 121.108 54.1056 119.093 56.6855 118.584L58.9561 118.136L59.2969 118.068L59.3535 117.727L63.7715 90.7783C65.8447 78.1317 76.6349 68.7956 89.3896 68.5068L89.998 68.5Z" fill="white" stroke="black"/>
<path d="M89.998 68.5C103.017 68.5002 114.119 77.9311 116.226 90.7783L120.268 115.441C120.527 117.021 121.74 118.274 123.311 118.584C125.89 119.093 127.91 121.108 128.426 123.687L129.372 128.418C129.41 128.605 129.411 128.755 129.386 128.859C129.364 128.948 129.327 128.999 129.262 129.037C128.725 129.353 127.403 129.858 124.261 130.363C124.44 129.982 124.415 129.543 124.351 129.223L123.404 124.491C122.809 121.516 120.479 119.191 117.502 118.604C116.341 118.374 115.445 117.448 115.253 116.28L111.21 91.6162C109.19 79.294 99.1941 70.0006 87.0244 68.665C87.7543 68.5833 88.4924 68.5319 89.2373 68.5107L89.998 68.5Z" fill="#C6D5E0"/>
<path d="M89.998 68.5C103.017 68.5002 114.119 77.9311 116.226 90.7783L120.268 115.441C120.527 117.021 121.74 118.274 123.311 118.584C125.89 119.093 127.91 121.108 128.426 123.687L129.372 128.418C129.41 128.605 129.411 128.755 129.386 128.859C129.364 128.948 129.327 128.999 129.262 129.037C128.725 129.353 127.403 129.858 124.261 130.363C124.44 129.982 124.415 129.543 124.351 129.223L123.404 124.491C122.809 121.516 120.479 119.191 117.502 118.604C116.341 118.374 115.445 117.448 115.253 116.28L111.21 91.6162C109.19 79.294 99.1941 70.0006 87.0244 68.665C87.7543 68.5833 88.4924 68.5319 89.2373 68.5107L89.998 68.5Z" fill="#3EDC2F"/>
<path d="M89.998 68.5C103.017 68.5002 114.119 77.9311 116.226 90.7783L120.268 115.441C120.527 117.021 121.74 118.274 123.311 118.584C125.89 119.093 127.91 121.108 128.426 123.687L129.372 128.418C129.41 128.605 129.411 128.755 129.386 128.859C129.364 128.948 129.327 128.999 129.262 129.037C128.725 129.353 127.403 129.858 124.261 130.363C124.44 129.982 124.415 129.543 124.351 129.223L123.404 124.491C122.809 121.516 120.479 119.191 117.502 118.604C116.341 118.374 115.445 117.448 115.253 116.28L111.21 91.6162C109.19 79.294 99.1941 70.0006 87.0244 68.665C87.7543 68.5833 88.4924 68.5319 89.2373 68.5107L89.998 68.5Z" stroke="black"/>
<path d="M87.3516 45.5H92.666C94.7105 45.5 96.3195 47.2454 96.1543 49.2832L94.5664 68.8623C94.5515 68.8649 94.5363 68.8684 94.5205 68.8711C94.2522 68.9171 93.8678 68.9785 93.4062 69.04C92.4808 69.1634 91.2539 69.2861 90.0342 69.2861C88.8145 69.2861 87.5885 69.1634 86.6631 69.04C86.2015 68.9785 85.8171 68.9171 85.5488 68.8711C85.5324 68.8683 85.5165 68.865 85.501 68.8623L83.8643 49.292C83.6936 47.2511 85.3036 45.5002 87.3516 45.5Z" fill="white" stroke="black"/>
<path d="M121.6 117.537C121.654 117.266 121.478 117.002 121.208 116.948C120.937 116.894 120.673 117.07 120.619 117.341L121.11 117.439L121.6 117.537ZM59.1641 117.968C58.6684 118.034 58.6687 118.037 58.6692 118.04C58.6693 118.04 58.6697 118.043 58.67 118.045C58.6706 118.049 58.6713 118.053 58.672 118.057C58.6734 118.065 58.675 118.073 58.6769 118.081C58.6806 118.097 58.6851 118.114 58.6906 118.131C58.7016 118.164 58.7161 118.198 58.7341 118.232C58.7703 118.3 58.8198 118.366 58.8831 118.429C59.0071 118.554 59.1952 118.683 59.4812 118.817C60.0509 119.083 61.0988 119.408 63.0634 119.728C67.0002 120.367 74.7411 121 89.9981 121V120.5V120C74.7551 120 67.079 119.367 63.2238 118.74C61.2923 118.427 60.3505 118.119 59.9045 117.911C59.6825 117.807 59.6063 117.738 59.5928 117.725C59.5874 117.719 59.6 117.731 59.6164 117.761C59.6246 117.777 59.6334 117.796 59.6413 117.821C59.6452 117.832 59.6488 117.845 59.652 117.859C59.6535 117.866 59.655 117.873 59.6563 117.881C59.6569 117.884 59.6576 117.888 59.6581 117.892C59.6584 117.893 59.6588 117.896 59.659 117.897C59.6594 117.9 59.6598 117.903 59.1641 117.968ZM89.9981 120.5V121C105.257 121 113.073 120.235 117.086 119.46C119.09 119.073 120.176 118.679 120.774 118.357C121.075 118.196 121.268 118.044 121.393 117.907C121.456 117.838 121.503 117.771 121.537 117.708C121.554 117.676 121.567 117.646 121.577 117.617C121.582 117.603 121.587 117.589 121.591 117.575C121.593 117.569 121.594 117.562 121.596 117.555C121.597 117.552 121.597 117.549 121.598 117.546C121.598 117.544 121.599 117.542 121.599 117.541C121.599 117.539 121.6 117.537 121.11 117.439C120.619 117.341 120.62 117.338 120.62 117.336C120.62 117.335 120.621 117.333 120.621 117.332C120.622 117.329 120.622 117.326 120.623 117.323C120.625 117.317 120.626 117.312 120.627 117.307C120.63 117.296 120.633 117.287 120.637 117.278C120.643 117.261 120.649 117.247 120.654 117.238C120.664 117.22 120.667 117.219 120.654 117.233C120.626 117.264 120.534 117.351 120.301 117.477C119.831 117.729 118.858 118.1 116.897 118.478C112.979 119.234 105.239 120 89.9981 120V120.5Z" fill="black"/>
</svg>
