<svg width="180" height="180" viewBox="0 0 180 180" fill="none" xmlns="http://www.w3.org/2000/svg">
<mask id="mask0_945_30929" maskUnits="userSpaceOnUse" x="51" y="131" width="80" height="23">
<path fill-rule="evenodd" clip-rule="evenodd" d="M120.693 131.344C125.251 130.845 131.126 133.982 129.955 138.415C127.983 145.874 118.559 152.281 90.5033 153C64.1331 153.676 54.4516 146.814 51.4028 139.507C49.5088 134.967 55.5592 130.979 60.4545 131.462C66.3514 132.044 75.5751 132.5 90.0014 132.5C105.398 132.5 114.868 131.982 120.693 131.344Z" fill="white"/>
</mask>
<g mask="url(#mask0_945_30929)">
<circle cx="90" cy="129" r="11.5" fill="black" stroke="white"/>
</g>
<path d="M129.863 130.32C129.953 130.772 129.913 131.234 129.516 131.468C127.895 132.421 120.826 134.5 89.9984 134.5C59.1694 134.5 52.1004 132.421 50.4799 131.468C50.083 131.234 50.0438 130.772 50.1342 130.32C50.4097 128.941 51.9649 128.112 53.3371 128.421C57.638 129.39 67.4795 130.5 89.9984 130.5C112.516 130.5 122.357 129.39 126.659 128.421C128.031 128.111 129.587 128.94 129.863 130.32Z" fill="black"/>
<path d="M89.9971 68.5C103.016 68.5 114.119 77.931 116.226 90.7783L120.643 117.726L120.698 118.067L121.039 118.135L123.311 118.584C125.891 119.093 127.91 121.108 128.426 123.687L129.372 128.418C129.41 128.606 129.411 128.755 129.386 128.859C129.364 128.948 129.328 128.999 129.263 129.037C128.553 129.454 126.477 130.206 120.654 130.845C114.857 131.481 105.403 132 89.998 132C74.5933 132 65.1395 131.481 59.3418 130.845C53.5203 130.206 51.4443 129.454 50.7344 129.037C50.6692 128.999 50.6317 128.948 50.6104 128.859C50.5853 128.755 50.5865 128.606 50.624 128.418L51.5703 123.687C52.0862 121.108 54.1056 119.093 56.6855 118.584L58.9551 118.136L59.2959 118.068L59.3525 117.727L63.7705 90.7783C65.8437 78.1318 76.634 68.7956 89.3887 68.5068L89.9971 68.5Z" fill="black" stroke="white"/>
<path d="M90.0059 69.5C102.624 69.5002 113.386 78.6378 115.433 91.0889L119.914 118.356L119.972 118.707L120.321 118.768L122.228 119.099C124.879 119.559 126.974 121.606 127.494 124.246L128.301 128.338C128.191 128.392 128.021 128.47 127.761 128.558C127.035 128.803 125.683 129.133 123.207 129.475L122.411 125.491C121.816 122.516 119.486 120.191 116.509 119.604L114.577 119.222L110.217 92.6162C108.226 80.4745 98.492 71.274 86.5645 69.7295C87.6921 69.578 88.841 69.5 90.0059 69.5Z" fill="#C6D5E0"/>
<path d="M90.0059 69.5C102.624 69.5002 113.386 78.6378 115.433 91.0889L119.914 118.356L119.972 118.707L120.321 118.768L122.228 119.099C124.879 119.559 126.974 121.606 127.494 124.246L128.301 128.338C128.191 128.392 128.021 128.47 127.761 128.558C127.035 128.803 125.683 129.133 123.207 129.475L122.411 125.491C121.816 122.516 119.486 120.191 116.509 119.604L114.577 119.222L110.217 92.6162C108.226 80.4745 98.492 71.274 86.5645 69.7295C87.6921 69.578 88.841 69.5 90.0059 69.5Z" fill="#3EDC2F"/>
<path d="M90.0059 69.5C102.624 69.5002 113.386 78.6378 115.433 91.0889L119.914 118.356L119.972 118.707L120.321 118.768L122.228 119.099C124.879 119.559 126.974 121.606 127.494 124.246L128.301 128.338C128.191 128.392 128.021 128.47 127.761 128.558C127.035 128.803 125.683 129.133 123.207 129.475L122.411 125.491C121.816 122.516 119.486 120.191 116.509 119.604L114.577 119.222L110.217 92.6162C108.226 80.4745 98.492 71.274 86.5645 69.7295C87.6921 69.578 88.841 69.5 90.0059 69.5Z" stroke="black"/>
<path d="M87.3516 45.5H92.666C94.7105 45.5 96.3195 47.2454 96.1543 49.2832L94.5664 68.8623C94.5515 68.8649 94.5363 68.8684 94.5205 68.8711C94.2522 68.9171 93.8678 68.9785 93.4062 69.04C92.4808 69.1634 91.2539 69.2861 90.0342 69.2861C88.8145 69.2861 87.5885 69.1634 86.6631 69.04C86.2015 68.9785 85.8171 68.9171 85.5488 68.8711C85.5324 68.8683 85.5165 68.865 85.501 68.8623L83.8643 49.292C83.6936 47.2511 85.3036 45.5002 87.3516 45.5Z" fill="black" stroke="white"/>
<path d="M61.5156 118.956C61.5156 118.956 62.0005 120.999 90.0024 120.5C118.004 120 120.377 117.967 120.377 117.967" stroke="black" stroke-width="3"/>
<path d="M121.203 117.815C121.224 117.54 121.018 117.3 120.743 117.279C120.467 117.258 120.227 117.464 120.206 117.74L120.705 117.777L121.203 117.815ZM59.1641 117.968C58.6684 118.034 58.6687 118.037 58.6692 118.04C58.6693 118.041 58.6697 118.043 58.67 118.045C58.6706 118.049 58.6713 118.053 58.672 118.057C58.6734 118.065 58.675 118.073 58.6769 118.081C58.6806 118.097 58.6851 118.114 58.6906 118.131C58.7016 118.164 58.7161 118.198 58.7341 118.232C58.7703 118.3 58.8198 118.366 58.8831 118.429C59.0071 118.554 59.1952 118.683 59.4812 118.817C60.0509 119.083 61.0988 119.409 63.0634 119.728C67.0002 120.367 74.7411 121 89.9981 121V120.5V120C74.7551 120 67.079 119.367 63.2238 118.741C61.2923 118.427 60.3505 118.119 59.9045 117.911C59.6825 117.807 59.6063 117.739 59.5928 117.725C59.5874 117.72 59.6 117.731 59.6164 117.761C59.6246 117.777 59.6334 117.797 59.6413 117.821C59.6452 117.833 59.6488 117.846 59.652 117.859C59.6535 117.866 59.655 117.873 59.6563 117.881C59.6569 117.884 59.6576 117.888 59.6581 117.892C59.6584 117.894 59.6588 117.896 59.659 117.897C59.6594 117.9 59.6598 117.903 59.1641 117.968ZM89.9981 120.5V121C105.255 121 112.967 120.319 116.876 119.631C118.826 119.288 119.863 118.937 120.425 118.647C120.708 118.502 120.893 118.361 121.012 118.224C121.074 118.154 121.119 118.084 121.151 118.013C121.167 117.978 121.179 117.943 121.188 117.91C121.192 117.893 121.195 117.877 121.198 117.861C121.199 117.853 121.2 117.845 121.201 117.838C121.202 117.834 121.202 117.83 121.202 117.826C121.203 117.824 121.203 117.822 121.203 117.821C121.203 117.818 121.203 117.815 120.705 117.777C120.206 117.74 120.207 117.737 120.207 117.734C120.207 117.733 120.207 117.731 120.207 117.729C120.208 117.725 120.208 117.722 120.208 117.718C120.209 117.711 120.21 117.705 120.211 117.698C120.213 117.685 120.216 117.673 120.219 117.661C120.225 117.638 120.232 117.618 120.239 117.603C120.253 117.572 120.264 117.56 120.26 117.565C120.25 117.577 120.18 117.649 119.967 117.758C119.537 117.979 118.616 118.309 116.702 118.646C112.882 119.319 105.241 120 89.9981 120V120.5Z" fill="white"/>
</svg>
