<svg width="46" height="16" viewBox="0 0 46 16" fill="none" xmlns="http://www.w3.org/2000/svg">
<path d="M0 8C0 3.58172 3.58172 0 8 0H38C42.4183 0 46 3.58172 46 8C46 12.4183 42.4183 16 38 16H8C3.58172 16 0 12.4183 0 8Z" fill="black"/>
<path d="M19.7424 10.4825C19.3054 10.4825 18.904 10.3792 18.5383 10.1727C18.1727 9.9661 17.8828 9.68097 17.6687 9.31726C17.4547 8.94905 17.3477 8.5337 17.3477 8.07121C17.3477 7.6132 17.4547 7.20234 17.6687 6.83863C17.8828 6.47043 18.1727 6.18305 18.5383 5.9765C18.904 5.76995 19.3054 5.66667 19.7424 5.66667C20.1839 5.66667 20.5852 5.76995 20.9464 5.9765C21.3121 6.18305 21.5997 6.47043 21.8093 6.83863C22.0234 7.20234 22.1304 7.6132 22.1304 8.07121C22.1304 8.5337 22.0234 8.94905 21.8093 9.31726C21.5997 9.68097 21.3121 9.9661 20.9464 10.1727C20.5808 10.3792 20.1794 10.4825 19.7424 10.4825ZM19.7424 9.64055C20.0233 9.64055 20.2708 9.57769 20.4849 9.45196C20.6989 9.32175 20.8662 9.13765 20.9866 8.89966C21.107 8.66168 21.1672 8.38553 21.1672 8.07121C21.1672 7.75689 21.107 7.48298 20.9866 7.24949C20.8662 7.01151 20.6989 6.82965 20.4849 6.70392C20.2708 6.5782 20.0233 6.51533 19.7424 6.51533C19.4614 6.51533 19.2117 6.5782 18.9932 6.70392C18.7791 6.82965 18.6119 7.01151 18.4915 7.24949C18.3711 7.48298 18.3109 7.75689 18.3109 8.07121C18.3109 8.38553 18.3711 8.66168 18.4915 8.89966C18.6119 9.13765 18.7791 9.32175 18.9932 9.45196C19.2117 9.57769 19.4614 9.64055 19.7424 9.64055Z" fill="white"/>
<path d="M24.5463 6.65004C24.9877 6.65004 25.3445 6.79148 25.6165 7.07437C25.8886 7.35277 26.0246 7.74342 26.0246 8.24633V10.4353H25.0881V8.3743C25.0881 8.07794 25.0145 7.85118 24.8673 7.69403C24.7202 7.53238 24.5195 7.45155 24.2653 7.45155C24.0067 7.45155 23.8015 7.53238 23.6499 7.69403C23.5027 7.85118 23.4292 8.07794 23.4292 8.3743V10.4353H22.4927V6.70392H23.4292V7.16866C23.554 7.00702 23.7123 6.88129 23.9041 6.79148C24.1003 6.69719 24.3144 6.65004 24.5463 6.65004Z" fill="white"/>
<path d="M30.0925 8.4888C30.0925 8.62351 30.0836 8.74475 30.0657 8.85251H27.3566C27.3789 9.12193 27.4725 9.33297 27.6375 9.48564C27.8025 9.63831 28.0055 9.71464 28.2463 9.71464C28.5941 9.71464 28.8416 9.56422 28.9888 9.26337H29.9988C29.8918 9.62259 29.6867 9.91895 29.3834 10.1524C29.0802 10.3814 28.7078 10.4959 28.2663 10.4959C27.9096 10.4959 27.5885 10.4174 27.3031 10.2602C27.0221 10.0986 26.8014 9.8718 26.6409 9.57994C26.4848 9.28807 26.4067 8.9513 26.4067 8.56963C26.4067 8.18346 26.4848 7.84445 26.6409 7.55258C26.7969 7.26071 27.0155 7.0362 27.2964 6.87904C27.5773 6.72188 27.9007 6.6433 28.2663 6.6433C28.6186 6.6433 28.933 6.71964 29.2095 6.87231C29.4904 7.02498 29.7067 7.24275 29.8584 7.52564C30.0144 7.80404 30.0925 8.12509 30.0925 8.4888ZM29.1225 8.21939C29.1181 7.97691 29.0311 7.78383 28.8617 7.64014C28.6922 7.49196 28.4848 7.41787 28.2396 7.41787C28.0077 7.41787 27.8115 7.48972 27.6509 7.63341C27.4948 7.77261 27.399 7.96793 27.3633 8.21939H29.1225Z" fill="white"/>
<path d="M33.2109 10.4353L31.5118 8.34062V10.4353H30.5754V5.73403H31.5118V7.8422L33.2109 5.73403H34.3414L32.4149 8.06447L34.3949 10.4353H33.2109Z" fill="white"/>
<path d="M37.72 8.4888C37.72 8.62351 37.7111 8.74475 37.6932 8.85251H34.9841C35.0064 9.12193 35.1 9.33297 35.265 9.48564C35.43 9.63831 35.6329 9.71464 35.8738 9.71464C36.2216 9.71464 36.4691 9.56422 36.6163 9.26337H37.6263C37.5193 9.62259 37.3142 9.91895 37.0109 10.1524C36.7077 10.3814 36.3353 10.4959 35.8938 10.4959C35.5371 10.4959 35.216 10.4174 34.9306 10.2602C34.6496 10.0986 34.4289 9.8718 34.2684 9.57994C34.1123 9.28807 34.0342 8.9513 34.0342 8.56963C34.0342 8.18346 34.1123 7.84445 34.2684 7.55258C34.4244 7.26071 34.6429 7.0362 34.9239 6.87904C35.2048 6.72188 35.5281 6.6433 35.8938 6.6433C36.2461 6.6433 36.5605 6.71964 36.837 6.87231C37.1179 7.02498 37.3342 7.24275 37.4858 7.52564C37.6419 7.80404 37.72 8.12509 37.72 8.4888ZM36.75 8.21939C36.7456 7.97691 36.6586 7.78383 36.4892 7.64014C36.3197 7.49196 36.1123 7.41787 35.8671 7.41787C35.6352 7.41787 35.439 7.48972 35.2784 7.63341C35.1223 7.77261 35.0265 7.96793 34.9908 8.21939H36.75Z" fill="white"/>
<path d="M41.6143 6.70392L39.3199 12.2H38.3232L39.1259 10.341L37.641 6.70392H38.6912L39.6477 9.31052L40.6176 6.70392H41.6143Z" fill="white"/>
<path d="M15.4981 8.00001C15.4981 11.6819 13.8542 13.3333 10.1891 13.3333C6.52402 13.3333 4.88013 11.6819 4.88013 8.00001C4.88013 4.31811 6.52402 2.66667 10.1891 2.66667C13.8542 2.66667 15.4981 4.31811 15.4981 8.00001Z" fill="#44D62C"/>
<path d="M10.6686 4.92819H9.19172L8.93261 5.71528H9.75294V7.3732H10.6686V4.92819Z" fill="black"/>
<path fill-rule="evenodd" clip-rule="evenodd" d="M11.8734 9.37972C11.8734 10.3142 11.1193 11.0718 10.189 11.0718C9.25876 11.0718 8.50464 10.3142 8.50464 9.37972C8.50464 8.4452 9.25876 7.68762 10.189 7.68762C11.1193 7.68762 11.8734 8.4452 11.8734 9.37972ZM11.1087 9.37971C11.1087 9.88997 10.6969 10.3036 10.189 10.3036C9.68107 10.3036 9.26932 9.88997 9.26932 9.37971C9.26932 8.86945 9.68107 8.4558 10.189 8.4558C10.6969 8.4558 11.1087 8.86945 11.1087 9.37971Z" fill="black"/>
</svg>
