<svg width="280" height="280" viewBox="0 0 280 280" fill="none" xmlns="http://www.w3.org/2000/svg">
<path d="M140.001 151.965C153.395 151.965 164.254 162.823 164.254 176.218C164.254 189.612 153.395 200.47 140.001 200.47C126.607 200.47 115.748 189.612 115.748 176.218C115.748 162.823 126.607 151.965 140.001 151.965Z" fill="currentColor"/>
<path fill-rule="evenodd" clip-rule="evenodd" d="M140 0C236.65 0 280 43.3502 280 140C280 236.65 236.65 280 140 280C43.3502 280 0 236.65 0 140C7.12934e-07 43.3502 43.3502 7.13204e-07 140 0ZM140.001 131.8C115.47 131.8 95.584 151.687 95.584 176.218C95.5842 200.749 115.47 220.635 140.001 220.635C164.532 220.635 184.419 200.749 184.419 176.218C184.419 151.687 164.532 131.8 140.001 131.8ZM113.702 59.3652L106.869 80.0264H128.502V123.546H152.649V59.3652H113.702Z" fill="currentColor"/>
</svg>
