<svg width="70" height="22" viewBox="0 0 70 22" fill="none" xmlns="http://www.w3.org/2000/svg">
<path d="M0 11C0 4.92487 4.92487 0 11 0H59C65.0751 0 70 4.92487 70 11V11C70 17.0751 65.0751 22 59 22H11C4.92487 22 0 17.0751 0 11V11Z" fill="black"/>
<path d="M29.9006 14.8402C29.2246 14.8402 28.6038 14.6804 28.0381 14.3609C27.4725 14.0414 27.0241 13.6003 26.693 13.0377C26.3618 12.4681 26.1963 11.8257 26.1963 11.1102C26.1963 10.4017 26.3618 9.7662 26.693 9.20358C27.0241 8.63402 27.4725 8.18948 28.0381 7.86997C28.6038 7.55046 29.2246 7.39071 29.9006 7.39071C30.5836 7.39071 31.2044 7.55046 31.7631 7.86997C32.3288 8.18948 32.7737 8.63402 33.098 9.20358C33.4291 9.7662 33.5946 10.4017 33.5946 11.1102C33.5946 11.8257 33.4291 12.4681 33.098 13.0377C32.7737 13.6003 32.3288 14.0414 31.7631 14.3609C31.1975 14.6804 30.5767 14.8402 29.9006 14.8402ZM29.9006 13.5378C30.3352 13.5378 30.7181 13.4406 31.0492 13.2461C31.3803 13.0447 31.639 12.7599 31.8252 12.3917C32.0115 12.0236 32.1046 11.5964 32.1046 11.1102C32.1046 10.624 32.0115 10.2003 31.8252 9.83913C31.639 9.471 31.3803 9.18969 31.0492 8.99521C30.7181 8.80072 30.3352 8.70348 29.9006 8.70348C29.466 8.70348 29.0797 8.80072 28.7417 8.99521C28.4106 9.18969 28.1519 9.471 27.9657 9.83913C27.7794 10.2003 27.6863 10.624 27.6863 11.1102C27.6863 11.5964 27.7794 12.0236 27.9657 12.3917C28.1519 12.7599 28.4106 13.0447 28.7417 13.2461C29.0797 13.4406 29.466 13.5378 29.9006 13.5378Z" fill="white"/>
<path d="M37.3316 8.91186C38.0145 8.91186 38.5664 9.13065 38.9872 9.56824C39.408 9.99889 39.6184 10.6032 39.6184 11.3811V14.7672H38.1698V11.5791C38.1698 11.1206 38.0559 10.7699 37.8283 10.5268C37.6007 10.2767 37.2902 10.1517 36.897 10.1517C36.4969 10.1517 36.1796 10.2767 35.9451 10.5268C35.7174 10.7699 35.6036 11.1206 35.6036 11.5791V14.7672H34.155V8.99521H35.6036V9.7141C35.7968 9.46405 36.0417 9.26957 36.3383 9.13065C36.6418 8.98479 36.9729 8.91186 37.3316 8.91186Z" fill="white"/>
<path d="M45.9109 11.7562C45.9109 11.9646 45.8971 12.1521 45.8695 12.3188H41.6789C41.7134 12.7356 41.8582 13.062 42.1135 13.2982C42.3687 13.5343 42.6826 13.6524 43.0551 13.6524C43.5931 13.6524 43.976 13.4197 44.2036 12.9544H45.7661C45.6005 13.51 45.2832 13.9685 44.8141 14.3296C44.345 14.6839 43.769 14.861 43.0861 14.861C42.5343 14.861 42.0376 14.7394 41.5961 14.4963C41.1615 14.2463 40.82 13.8955 40.5717 13.444C40.3303 12.9926 40.2096 12.4716 40.2096 11.8812C40.2096 11.2839 40.3303 10.7595 40.5717 10.308C40.8131 9.85649 41.1512 9.5092 41.5857 9.2661C42.0203 9.02299 42.5205 8.90144 43.0861 8.90144C43.6311 8.90144 44.1174 9.01952 44.5451 9.25568C44.9797 9.49184 45.3142 9.82871 45.5488 10.2663C45.7902 10.6969 45.9109 11.1936 45.9109 11.7562ZM44.4106 11.3394C44.4037 10.9644 44.2692 10.6657 44.007 10.4434C43.7449 10.2142 43.4241 10.0996 43.0447 10.0996C42.686 10.0996 42.3825 10.2107 42.1342 10.433C41.8927 10.6483 41.7444 10.9505 41.6892 11.3394H44.4106Z" fill="white"/>
<path d="M50.7347 14.7672L48.1065 11.527V14.7672H46.6579V7.4949H48.1065V10.756L50.7347 7.4949H52.4834L49.5034 11.0998L52.5662 14.7672H50.7347Z" fill="white"/>
<path d="M57.7097 11.7562C57.7097 11.9646 57.6959 12.1521 57.6683 12.3188H53.4777C53.5121 12.7356 53.657 13.062 53.9122 13.2982C54.1675 13.5343 54.4813 13.6524 54.8538 13.6524C55.3919 13.6524 55.7748 13.4197 56.0024 12.9544H57.5648C57.3993 13.51 57.082 13.9685 56.6129 14.3296C56.1438 14.6839 55.5678 14.861 54.8849 14.861C54.333 14.861 53.8364 14.7394 53.3949 14.4963C52.9603 14.2463 52.6188 13.8955 52.3705 13.444C52.1291 12.9926 52.0083 12.4716 52.0083 11.8812C52.0083 11.2839 52.1291 10.7595 52.3705 10.308C52.6119 9.85649 52.9499 9.5092 53.3845 9.2661C53.8191 9.02299 54.3192 8.90144 54.8849 8.90144C55.4298 8.90144 55.9162 9.01952 56.3439 9.25568C56.7785 9.49184 57.113 9.82871 57.3476 10.2663C57.589 10.6969 57.7097 11.1936 57.7097 11.7562ZM56.2093 11.3394C56.2024 10.9644 56.0679 10.6657 55.8058 10.4434C55.5437 10.2142 55.2229 10.0996 54.8435 10.0996C54.4848 10.0996 54.1813 10.2107 53.9329 10.433C53.6915 10.6483 53.5432 10.9505 53.488 11.3394H56.2093Z" fill="white"/>
<path d="M63.7338 8.99521L60.1847 17.497H58.6429L59.8846 14.6214L57.5875 8.99521H59.212L60.6917 13.0273L62.192 8.99521H63.7338Z" fill="white"/>
<path d="M23.6194 11C23.6194 16.6954 21.0463 19.25 15.3097 19.25C9.57305 19.25 7 16.6954 7 11C7 5.30456 9.57305 2.75 15.3097 2.75C21.0463 2.75 23.6194 5.30456 23.6194 11Z" fill="#44D62C"/>
<path d="M16.0607 6.24863L13.749 6.24863L13.3435 7.46616H14.6274V10.0308H16.0607V6.24863Z" fill="black"/>
<path fill-rule="evenodd" clip-rule="evenodd" d="M17.9464 13.1346C17.9464 14.5802 16.766 15.752 15.31 15.752C13.8539 15.752 12.6736 14.5802 12.6736 13.1346C12.6736 11.689 13.8539 10.5171 15.31 10.5171C16.766 10.5171 17.9464 11.689 17.9464 13.1346ZM16.7495 13.1346C16.7495 13.9239 16.105 14.5637 15.31 14.5637C14.515 14.5637 13.8705 13.9239 13.8705 13.1346C13.8705 12.3453 14.515 11.7054 15.31 11.7054C16.105 11.7054 16.7495 12.3453 16.7495 13.1346Z" fill="black"/>
</svg>
