<svg width="28" height="28" viewBox="0 0 28 28" fill="none" xmlns="http://www.w3.org/2000/svg">
<g clip-path="url(#clip0_34420_34332)">
<path d="M27.91 13.955C27.91 23.5889 23.5889 27.91 13.955 27.91C4.32108 27.91 0 23.5889 0 13.955C0 4.32108 4.32108 0 13.955 0C23.5889 0 27.91 4.32108 27.91 13.955Z" fill="#44D62C"/>
<path d="M15.2158 5.91748H11.3336L10.6526 7.97694H12.8088V12.315H15.2158V5.91748Z" fill="black"/>
<path fill-rule="evenodd" clip-rule="evenodd" d="M18.3825 17.5652C18.3825 20.0104 16.4003 21.9926 13.9551 21.9926C11.5098 21.9926 9.52759 20.0104 9.52759 17.5652C9.52759 15.1199 11.5098 13.1377 13.9551 13.1377C16.4003 13.1377 18.3825 15.1199 18.3825 17.5652ZM16.3725 17.5652C16.3725 18.9003 15.2902 19.9826 13.9551 19.9826C12.6199 19.9826 11.5376 18.9003 11.5376 17.5652C11.5376 16.23 12.6199 15.1477 13.9551 15.1477C15.2902 15.1477 16.3725 16.23 16.3725 17.5652Z" fill="black"/>
</g>
<defs>
<clipPath id="clip0_34420_34332">
<rect width="28" height="28" fill="white"/>
</clipPath>
</defs>
</svg>
