<svg width="62" height="28" viewBox="0 0 62 28" fill="none" xmlns="http://www.w3.org/2000/svg">
<path d="M6.0621 20.4041C4.9558 20.4041 3.9398 20.1427 3.0141 19.6198C2.0884 19.0969 1.3547 18.3751 0.812801 17.4544C0.270901 16.5223 0 15.4709 0 14.3001C0 13.1407 0.270901 12.1006 0.812801 11.1799C1.3547 10.2478 2.0884 9.52033 3.0141 8.99745C3.9398 8.47457 4.9558 8.21313 6.0621 8.21313C7.1797 8.21313 8.1957 8.47457 9.1101 8.99745C10.0358 9.52033 10.764 10.2478 11.2946 11.1799C11.8364 12.1006 12.1074 13.1407 12.1074 14.3001C12.1074 15.4709 11.8364 16.5223 11.2946 17.4544C10.764 18.3751 10.0358 19.0969 9.1101 19.6198C8.1845 20.1427 7.1685 20.4041 6.0621 20.4041ZM6.0621 18.2728C6.7733 18.2728 7.3999 18.1137 7.9417 17.7954C8.4836 17.4658 8.9069 16.9998 9.2117 16.3973C9.5165 15.7949 9.6689 15.0958 9.6689 14.3001C9.6689 13.5044 9.5165 12.811 9.2117 12.22C8.9069 11.6175 8.4836 11.1572 7.9417 10.8389C7.3999 10.5206 6.7733 10.3615 6.0621 10.3615C5.3509 10.3615 4.7188 10.5206 4.1656 10.8389C3.6237 11.1572 3.2004 11.6175 2.8956 12.22C2.5908 12.811 2.4384 13.5044 2.4384 14.3001C2.4384 15.0958 2.5908 15.7949 2.8956 16.3973C3.2004 16.9998 3.6237 17.4658 4.1656 17.7954C4.7188 18.1137 5.3509 18.2728 6.0621 18.2728Z" fill="currentColor" fill-opacity="0.875"/>
<path d="M18.2229 10.7024C19.3405 10.7024 20.2437 11.0604 20.9323 11.7766C21.6209 12.4813 21.9652 13.4702 21.9652 14.7433V20.2847H19.5945V15.0673C19.5945 14.3171 19.4083 13.743 19.0357 13.3452C18.6632 12.936 18.1552 12.7314 17.5117 12.7314C16.857 12.7314 16.3377 12.936 15.9539 13.3452C15.5813 13.743 15.3951 14.3171 15.3951 15.0673V20.2847H13.0244V10.8388H15.3951V12.0153C15.7112 11.6061 16.1119 11.2878 16.5973 11.0604C17.094 10.8217 17.6359 10.7024 18.2229 10.7024Z" fill="currentColor" fill-opacity="0.875"/>
<path d="M32.2628 15.3571C32.2628 15.6981 32.2403 16.005 32.1951 16.2779H25.3371C25.3935 16.9599 25.6306 17.4941 26.0483 17.8806C26.466 18.2671 26.9796 18.4603 27.5892 18.4603C28.4698 18.4603 29.0963 18.0795 29.4688 17.3179H32.0258C31.7548 18.2273 31.2356 18.9775 30.4679 19.5686C29.7003 20.1483 28.7576 20.4381 27.64 20.4381C26.7369 20.4381 25.9241 20.2392 25.2016 19.8414C24.4904 19.4322 23.9316 18.8581 23.5252 18.1193C23.1301 17.3804 22.9326 16.5279 22.9326 15.5617C22.9326 14.5842 23.1301 13.726 23.5252 12.9871C23.9203 12.2483 24.4735 11.6799 25.1847 11.2821C25.8959 10.8843 26.7143 10.6853 27.64 10.6853C28.5319 10.6853 29.3277 10.8786 30.0276 11.265C30.7388 11.6515 31.2864 12.2028 31.6702 12.9189C32.0653 13.6237 32.2628 14.4364 32.2628 15.3571ZM29.8075 14.6751C29.7962 14.0613 29.5761 13.5725 29.1471 13.2088C28.7181 12.8337 28.1932 12.6461 27.5723 12.6461C26.9853 12.6461 26.4886 12.828 26.0822 13.1917C25.6871 13.5441 25.4443 14.0386 25.354 14.6751H29.8075Z" fill="currentColor" fill-opacity="0.875"/>
<path d="M40.1572 20.2847L35.8561 14.982V20.2847H33.4854V8.38354H35.8561V13.7203L40.1572 8.38354H43.0189L38.1421 14.283L43.1544 20.2847H40.1572Z" fill="currentColor" fill-opacity="0.875"/>
<path d="M51.5715 15.3571C51.5715 15.6981 51.5489 16.005 51.5038 16.2779H44.6458C44.7022 16.9599 44.9393 17.4941 45.357 17.8806C45.7747 18.2671 46.2883 18.4603 46.8979 18.4603C47.7784 18.4603 48.405 18.0795 48.7775 17.3179H51.3344C51.0635 18.2273 50.5442 18.9775 49.7766 19.5686C49.0089 20.1483 48.0663 20.4381 46.9487 20.4381C46.0456 20.4381 45.2328 20.2392 44.5103 19.8414C43.7991 19.4322 43.2403 18.8581 42.8339 18.1193C42.4388 17.3804 42.2412 16.5279 42.2412 15.5617C42.2412 14.5842 42.4388 13.726 42.8339 12.9871C43.229 12.2483 43.7822 11.6799 44.4934 11.2821C45.2046 10.8843 46.023 10.6853 46.9487 10.6853C47.8405 10.6853 48.6364 10.8786 49.3363 11.265C50.0475 11.6515 50.595 12.2028 50.9788 12.9189C51.374 13.6237 51.5715 14.4364 51.5715 15.3571ZM49.1162 14.6751C49.1049 14.0613 48.8848 13.5725 48.4558 13.2088C48.0268 12.8337 47.5019 12.6461 46.881 12.6461C46.2939 12.6461 45.7972 12.828 45.3908 13.1917C44.9957 13.5441 44.753 14.0386 44.6627 14.6751H49.1162Z" fill="currentColor" fill-opacity="0.875"/>
<path d="M61.43 10.8389L55.6219 24.752H53.0988L55.1308 20.0461L51.3716 10.8389H54.0301L56.4516 17.4374L58.9069 10.8389H61.43Z" fill="currentColor" fill-opacity="0.875"/>
</svg>
