<svg width="180" height="180" viewBox="0 0 180 180" fill="none" xmlns="http://www.w3.org/2000/svg">
<path d="M135.311 109.051C135.311 113.469 115.081 117 90.5038 117C65.9272 117 45.6992 113.437 45.6992 109.019C45.6992 104.601 65.9272 101 90.5038 101C115.081 101 135.311 104.632 135.311 109.051Z" fill="black" stroke="white"/>
<path d="M135 104C135 98.2218 133.862 92.5003 131.651 87.1619C129.439 81.8236 126.198 76.9731 122.113 72.8873C118.027 68.8015 113.176 65.5605 107.838 63.3493C102.5 61.1381 96.7782 60 91 60C85.2218 60 79.5003 61.1381 74.1619 63.3493C68.8236 65.5605 63.9731 68.8015 59.8873 72.8873C55.8015 76.9731 52.5605 81.8236 50.3493 87.1619C48.1381 92.5003 47 98.2218 47 104C47 104 52.5 112 91 112C129.5 112 135 104 135 104Z" fill="black" stroke="white"/>
<mask id="path-3-inside-1_553_12124" fill="white">
<path d="M135.768 108.702C136.914 112.808 137.5 117.058 137.5 121.338V121.493L137.412 121.621L137 121.338L137.411 121.623L137.41 121.624C137.409 121.625 137.408 121.627 137.407 121.628C137.405 121.631 137.403 121.634 137.4 121.638C137.395 121.645 137.388 121.655 137.379 121.666C137.362 121.689 137.337 121.719 137.306 121.756C137.242 121.83 137.149 121.934 137.019 122.061C136.757 122.314 136.347 122.663 135.734 123.074C134.508 123.897 132.466 124.973 129.161 126.041C122.555 128.176 110.873 130.292 90.5 130.292C70.1271 130.292 58.4454 128.176 51.8389 126.041C48.5343 124.973 46.492 123.897 45.2656 123.074C44.6526 122.663 44.2427 122.314 43.9814 122.061C43.8509 121.934 43.7576 121.83 43.6943 121.756C43.6629 121.719 43.6384 121.689 43.6211 121.666C43.6125 121.655 43.605 121.645 43.5996 121.638C43.597 121.634 43.5947 121.631 43.5928 121.628C43.5918 121.627 43.5906 121.625 43.5898 121.624L43.5889 121.623C43.5904 121.621 43.6179 121.601 44 121.338L43.5879 121.621L43.5 121.493V121.338C43.5 117.058 44.0854 112.808 45.2314 108.702C48.4195 110.993 59.023 116.054 90.5 116.054C121.975 116.054 132.579 110.993 135.768 108.702Z"/>
</mask>
<path d="M135.768 108.702C136.914 112.808 137.5 117.058 137.5 121.338V121.493L137.412 121.621L137 121.338L137.411 121.623L137.41 121.624C137.409 121.625 137.408 121.627 137.407 121.628C137.405 121.631 137.403 121.634 137.4 121.638C137.395 121.645 137.388 121.655 137.379 121.666C137.362 121.689 137.337 121.719 137.306 121.756C137.242 121.83 137.149 121.934 137.019 122.061C136.757 122.314 136.347 122.663 135.734 123.074C134.508 123.897 132.466 124.973 129.161 126.041C122.555 128.176 110.873 130.292 90.5 130.292C70.1271 130.292 58.4454 128.176 51.8389 126.041C48.5343 124.973 46.492 123.897 45.2656 123.074C44.6526 122.663 44.2427 122.314 43.9814 122.061C43.8509 121.934 43.7576 121.83 43.6943 121.756C43.6629 121.719 43.6384 121.689 43.6211 121.666C43.6125 121.655 43.605 121.645 43.5996 121.638C43.597 121.634 43.5947 121.631 43.5928 121.628C43.5918 121.627 43.5906 121.625 43.5898 121.624L43.5889 121.623C43.5904 121.621 43.6179 121.601 44 121.338L43.5879 121.621L43.5 121.493V121.338C43.5 117.058 44.0854 112.808 45.2314 108.702C48.4195 110.993 59.023 116.054 90.5 116.054C121.975 116.054 132.579 110.993 135.768 108.702Z" fill="black"/>
<path d="M135.768 108.702L136.731 108.433L136.346 107.055L135.184 107.89L135.768 108.702ZM137.5 121.338H138.5V121.338L137.5 121.338ZM137.5 121.493L138.324 122.059L138.5 121.804V121.493H137.5ZM137.412 121.621L136.846 122.445L137.67 123.012L138.236 122.187L137.412 121.621ZM137 121.338L137.566 120.514L136.43 122.16L137 121.338ZM137.411 121.623L138.118 122.33L138.965 121.484L137.981 120.801L137.411 121.623ZM137.41 121.624L136.703 120.917L136.64 120.98L136.589 121.053L137.41 121.624ZM137.407 121.628L136.594 121.045L136.591 121.05L137.407 121.628ZM137.4 121.638L138.21 122.225L138.211 122.224L137.4 121.638ZM137.379 121.666L138.173 122.274L138.173 122.274L137.379 121.666ZM137.306 121.756L136.543 121.109L136.543 121.109L137.306 121.756ZM137.019 122.061L137.715 122.779L137.715 122.778L137.019 122.061ZM135.734 123.074L136.292 123.904L136.292 123.904L135.734 123.074ZM129.161 126.041L129.469 126.993L129.469 126.993L129.161 126.041ZM90.5 130.292V131.292V130.292ZM51.8389 126.041L51.5313 126.993L51.5313 126.993L51.8389 126.041ZM45.2656 123.074L44.7082 123.904L44.7083 123.904L45.2656 123.074ZM43.9814 122.061L43.2853 122.778L43.2854 122.779L43.9814 122.061ZM43.6943 121.756L42.9316 122.403L42.9316 122.403L43.6943 121.756ZM43.6211 121.666L44.4152 121.058L44.4152 121.058L43.6211 121.666ZM43.5996 121.638L42.7895 122.224L42.7903 122.225L43.5996 121.638ZM43.5928 121.628L44.4095 121.051L44.4051 121.045L43.5928 121.628ZM43.5898 121.624L44.4103 121.052L44.3596 120.98L44.297 120.917L43.5898 121.624ZM43.5889 121.623L42.7865 121.026L42.271 121.719L42.8818 122.33L43.5889 121.623ZM44 121.338L44.5665 122.162L43.4336 120.514L44 121.338ZM43.5879 121.621L42.7637 122.187L43.33 123.012L44.1543 122.445L43.5879 121.621ZM43.5 121.493H42.5V121.804L42.6758 122.059L43.5 121.493ZM43.5 121.338L42.5 121.338V121.338H43.5ZM45.2314 108.702L45.815 107.89L44.653 107.055L44.2683 108.433L45.2314 108.702ZM90.5 116.054V117.054V116.054ZM135.768 108.702L134.804 108.971C135.926 112.989 136.5 117.149 136.5 121.338L137.5 121.338L138.5 121.338C138.5 116.967 137.901 112.626 136.731 108.433L135.768 108.702ZM137.5 121.338H136.5V121.493H137.5H138.5V121.338H137.5ZM137.5 121.493L136.676 120.927L136.588 121.055L137.412 121.621L138.236 122.187L138.324 122.059L137.5 121.493ZM137.412 121.621L137.978 120.797L137.566 120.514L137 121.338L136.434 122.162L136.846 122.445L137.412 121.621ZM137 121.338L136.43 122.16L136.841 122.445L137.411 121.623L137.981 120.801L137.57 120.516L137 121.338ZM137.411 121.623L136.704 120.916L136.703 120.917L137.41 121.624L138.117 122.331L138.118 122.33L137.411 121.623ZM137.41 121.624L136.589 121.053C136.595 121.045 136.599 121.039 136.602 121.035C136.606 121.03 136.608 121.026 136.61 121.024C136.612 121.021 136.614 121.019 136.615 121.018C136.615 121.017 136.616 121.016 136.616 121.016C136.616 121.017 136.616 121.016 136.616 121.017C136.616 121.017 136.616 121.017 136.616 121.017C136.615 121.017 136.615 121.018 136.615 121.018C136.614 121.019 136.612 121.021 136.611 121.023C136.608 121.027 136.602 121.035 136.594 121.045L137.407 121.628L138.22 122.21C138.213 122.22 138.208 122.227 138.205 122.231C138.204 122.232 138.203 122.234 138.202 122.235C138.202 122.235 138.201 122.236 138.202 122.235C138.202 122.235 138.203 122.234 138.204 122.233C138.205 122.231 138.206 122.229 138.209 122.226C138.211 122.223 138.214 122.219 138.217 122.214C138.221 122.21 138.226 122.203 138.231 122.195L137.41 121.624ZM137.407 121.628L136.591 121.05C136.588 121.055 136.585 121.059 136.584 121.061C136.583 121.062 136.582 121.062 136.582 121.063C136.582 121.063 136.582 121.063 136.582 121.063C136.582 121.063 136.582 121.063 136.582 121.063C136.582 121.063 136.583 121.062 136.584 121.06C136.585 121.058 136.587 121.055 136.59 121.052L137.4 121.638L138.211 122.224C138.218 122.213 138.224 122.205 138.226 122.201C138.227 122.201 138.228 122.2 138.228 122.2C138.228 122.199 138.228 122.199 138.228 122.2C138.228 122.2 138.226 122.202 138.223 122.206L137.407 121.628ZM137.4 121.638L136.591 121.05C136.594 121.047 136.596 121.044 136.596 121.043C136.597 121.043 136.597 121.043 136.596 121.044C136.595 121.045 136.594 121.047 136.592 121.049C136.59 121.052 136.587 121.055 136.585 121.058L137.379 121.666L138.173 122.274C138.175 122.271 138.176 122.269 138.179 122.267C138.18 122.264 138.183 122.261 138.186 122.257C138.19 122.251 138.2 122.239 138.21 122.225L137.4 121.638ZM137.379 121.666L136.585 121.058C136.584 121.06 136.58 121.065 136.572 121.074C136.565 121.083 136.555 121.095 136.543 121.109L137.306 121.756L138.068 122.403C138.106 122.359 138.142 122.315 138.173 122.274L137.379 121.666ZM137.306 121.756L136.543 121.109C136.499 121.161 136.428 121.24 136.322 121.343L137.019 122.061L137.715 122.778C137.87 122.628 137.986 122.5 138.068 122.403L137.306 121.756ZM137.019 122.061L136.322 121.343C136.107 121.551 135.744 121.863 135.177 122.244L135.734 123.074L136.292 123.904C136.951 123.462 137.408 123.076 137.715 122.779L137.019 122.061ZM135.734 123.074L135.177 122.244C134.042 123.006 132.087 124.044 128.854 125.089L129.161 126.041L129.469 126.993C132.844 125.902 134.974 124.789 136.292 123.904L135.734 123.074ZM129.161 126.041L128.854 125.089C122.382 127.181 110.814 129.292 90.5 129.292V130.292V131.292C110.932 131.292 122.727 129.171 129.469 126.993L129.161 126.041ZM90.5 130.292V129.292C70.1863 129.292 58.6182 127.181 52.1464 125.089L51.8389 126.041L51.5313 126.993C58.2726 129.171 70.0678 131.292 90.5 131.292V130.292ZM51.8389 126.041L52.1464 125.089C48.9126 124.044 46.958 123.006 45.823 122.244L45.2656 123.074L44.7083 123.904C46.0259 124.789 48.156 125.902 51.5313 126.993L51.8389 126.041ZM45.2656 123.074L45.823 122.244C45.2558 121.863 44.8929 121.551 44.6775 121.343L43.9814 122.061L43.2854 122.779C43.5925 123.076 44.0494 123.462 44.7082 123.904L45.2656 123.074ZM43.9814 122.061L44.6776 121.343C44.5721 121.24 44.5009 121.161 44.4571 121.109L43.6943 121.756L42.9316 122.403C43.0143 122.5 43.1297 122.628 43.2853 122.778L43.9814 122.061ZM43.6943 121.756L44.4571 121.109C44.4448 121.095 44.4351 121.083 44.4278 121.074C44.4202 121.065 44.4163 121.06 44.4152 121.058L43.6211 121.666L42.827 122.274C42.8583 122.315 42.8944 122.359 42.9316 122.403L43.6943 121.756ZM43.6211 121.666L44.4152 121.058C44.4126 121.055 44.41 121.051 44.4082 121.049C44.4062 121.047 44.405 121.045 44.4041 121.044C44.4032 121.043 44.4033 121.043 44.4039 121.043C44.4044 121.044 44.4063 121.047 44.4089 121.05L43.5996 121.638L42.7903 122.225C42.8056 122.246 42.8264 122.273 42.827 122.274L43.6211 121.666ZM43.5996 121.638L44.4097 121.051C44.4146 121.058 44.4181 121.063 44.4182 121.063C44.4182 121.063 44.4182 121.063 44.4179 121.063C44.4177 121.063 44.4171 121.062 44.4165 121.061C44.4154 121.059 44.4127 121.055 44.4095 121.051L43.5928 121.628L42.7761 122.205C42.7738 122.202 42.7721 122.199 42.772 122.199C42.772 122.199 42.7719 122.199 42.7723 122.2C42.7725 122.2 42.773 122.201 42.7737 122.202C42.776 122.205 42.782 122.214 42.7895 122.224L43.5996 121.638ZM43.5928 121.628L44.4051 121.045C44.398 121.035 44.3922 121.027 44.3892 121.023C44.3876 121.021 44.3863 121.019 44.3855 121.018C44.3851 121.018 44.3847 121.017 44.3845 121.017C44.3844 121.017 44.3844 121.017 44.3843 121.017C44.3842 121.017 44.3843 121.017 44.3842 121.017C44.3841 121.017 44.3847 121.017 44.3855 121.018C44.3863 121.019 44.3878 121.021 44.3897 121.024C44.3916 121.026 44.3943 121.03 44.3976 121.034C44.4008 121.039 44.4052 121.045 44.4103 121.052L43.5898 121.624L42.7694 122.196C42.7747 122.203 42.7793 122.21 42.7827 122.214C42.7862 122.219 42.7891 122.223 42.7912 122.226C42.7934 122.229 42.7951 122.231 42.7962 122.232C42.7972 122.234 42.7981 122.235 42.7983 122.235C42.7987 122.236 42.7982 122.235 42.7978 122.235C42.7972 122.234 42.7962 122.232 42.7948 122.231C42.7923 122.227 42.787 122.22 42.7804 122.211L43.5928 121.628ZM43.5898 121.624L44.297 120.917L44.296 120.916L43.5889 121.623L42.8818 122.33L42.8827 122.331L43.5898 121.624ZM43.5889 121.623L44.3913 122.22C44.349 122.277 44.3099 122.316 44.292 122.334C44.2712 122.355 44.2536 122.37 44.2435 122.379C44.2235 122.396 44.2075 122.409 44.2022 122.413C44.1952 122.418 44.1899 122.422 44.1879 122.424C44.1866 122.424 44.1856 122.425 44.1851 122.426C44.1845 122.426 44.1842 122.426 44.1842 122.426C44.1842 122.426 44.1844 122.426 44.1848 122.426C44.1853 122.425 44.186 122.425 44.1868 122.424C44.1886 122.423 44.1911 122.421 44.1944 122.419C44.2011 122.414 44.2104 122.408 44.2233 122.399C44.2754 122.362 44.3756 122.293 44.5665 122.162L44 121.338L43.4335 120.514C43.2423 120.645 43.1377 120.718 43.0802 120.758C43.0523 120.777 43.0313 120.792 43.0159 120.803C43.0094 120.808 42.9957 120.817 42.9804 120.829C42.9734 120.835 42.9563 120.848 42.9356 120.866C42.9315 120.869 42.8575 120.931 42.7865 121.026L43.5889 121.623ZM44 121.338L43.4336 120.514L43.0215 120.797L43.5879 121.621L44.1543 122.445L44.5664 122.162L44 121.338ZM43.5879 121.621L44.4121 121.055L44.3242 120.927L43.5 121.493L42.6758 122.059L42.7637 122.187L43.5879 121.621ZM43.5 121.493H44.5V121.338H43.5H42.5V121.493H43.5ZM43.5 121.338L44.5 121.338C44.5 117.149 45.073 112.989 46.1946 108.971L45.2314 108.702L44.2683 108.433C43.0979 112.626 42.5 116.967 42.5 121.338L43.5 121.338ZM45.2314 108.702L44.6479 109.514C48.0963 111.992 58.9624 117.054 90.5 117.054V116.054V115.054C59.0837 115.054 48.7427 109.994 45.815 107.89L45.2314 108.702ZM90.5 116.054V117.054C122.035 117.054 132.902 111.992 136.351 109.514L135.768 108.702L135.184 107.89C132.256 109.994 121.914 115.054 90.5 115.054V116.054Z" fill="white" mask="url(#path-3-inside-1_553_12124)"/>
<path d="M86 56H96L96.0327 61.2859C96.0327 61.2859 93.5327 61.7859 91.0327 61.7859C88.5327 61.7859 86.0327 61.2859 86.0327 61.2859L86 56Z" fill="black" stroke="white"/>
<path d="M78 51C78 51 81 52 91 52C101 52 104 51 104 51V57C104 57 102 58 91 58C80 58 78 57 78 57V51Z" fill="black" stroke="white"/>
<ellipse cx="91" cy="51" rx="15" ry="1" fill="white" stroke="black"/>
<path d="M124.767 106.424C123.767 69.4243 103.371 65.7754 96.3711 62.2754C122 66 132.867 88.5 132.867 102.981C132.867 102.981 129.767 104.924 124.767 106.424Z" fill="#3EDC2F" stroke="black" stroke-miterlimit="16" stroke-linejoin="round"/>
</svg>
