<svg width="180" height="180" viewBox="0 0 180 180" fill="none" xmlns="http://www.w3.org/2000/svg">
<path d="M135.311 109.051C135.311 113.469 115.081 117 90.5038 117C65.9272 117 45.6992 113.437 45.6992 109.019C45.6992 104.601 65.9272 101 90.5038 101C115.081 101 135.311 104.632 135.311 109.051Z" fill="black"/>
<path d="M135 104C135 98.2218 133.862 92.5003 131.651 87.1619C129.439 81.8236 126.198 76.9731 122.113 72.8873C118.027 68.8015 113.176 65.5605 107.838 63.3493C102.5 61.1381 96.7782 60 91 60C85.2218 60 79.5003 61.1381 74.1619 63.3493C68.8236 65.5605 63.9731 68.8015 59.8873 72.8873C55.8015 76.9731 52.5605 81.8236 50.3493 87.1619C48.1381 92.5003 47 98.2218 47 104C47 104 52.5 112 91 112C129.5 112 135 104 135 104Z" fill="white" stroke="black"/>
<path d="M135.332 109C136.436 113.011 137 117.16 137 121.338C137 121.338 131.187 129.793 90.5 129.793C49.8125 129.793 44 121.338 44 121.338C44 117.16 44.5632 113.011 45.667 109C49.334 111.403 60.3268 116.054 90.5 116.054C120.671 116.054 131.664 111.403 135.332 109Z" fill="white" stroke="black"/>
<path d="M95.5029 56.5L95.5293 60.8682C95.5257 60.8688 95.5222 60.8705 95.5186 60.8711C95.2503 60.9171 94.8659 60.9785 94.4043 61.04C93.4788 61.1634 92.252 61.2861 91.0322 61.2861C89.8126 61.2861 88.5865 61.1634 87.6611 61.04C87.1995 60.9785 86.8152 60.9171 86.5469 60.8711C86.5409 60.8701 86.5351 60.8682 86.5293 60.8672L86.5029 56.5H95.5029Z" fill="black" stroke="black"/>
<path d="M78 51C78 51 81 52 91 52C101 52 104 51 104 51V57C104 57 102 58 91 58C80 58 78 57 78 57V51Z" fill="white" stroke="black" stroke-linejoin="round"/>
<path d="M91 50.5C94.5813 50.5 97.8181 50.6113 100.154 50.791C100.96 50.853 101.653 50.9251 102.213 51C101.653 51.0749 100.96 51.147 100.154 51.209C97.8181 51.3887 94.5813 51.5 91 51.5C87.4187 51.5 84.1819 51.3887 81.8457 51.209C81.0391 51.1469 80.3462 51.075 79.7861 51C80.3462 50.925 81.0391 50.8531 81.8457 50.791C84.1819 50.6113 87.4187 50.5 91 50.5Z" fill="white" stroke="black"/>
<path d="M122.5 109.5C121.5 72.5 103 63.5 96 60C123.5 64 135 87 135 104C135 104 132.154 107.115 122.5 109.5Z" fill="#3EDC2F" stroke="black" stroke-miterlimit="16"/>
</svg>
