<svg width="180" height="180" viewBox="0 0 180 180" fill="none" xmlns="http://www.w3.org/2000/svg">
<path d="M99.5 32C126.838 32 149 54.1619 149 81.5C149 102.088 136.43 119.738 118.547 127.2C111.199 131.52 102.64 134 93.5 134C66.1619 134 44 111.838 44 84.5C44 63.9121 56.5692 46.2609 74.4521 38.7988C81.8001 34.4793 90.3601 32 99.5 32Z" fill="black"/>
<path d="M146.165 70.0981C146.887 73.1254 147.328 76.2614 147.459 79.4771L147.474 79.8364L147.137 79.9644L120.35 90.1821L119.883 90.3608L119.705 89.8931L116.451 81.3618L116.272 80.895L116.74 80.7173L145.501 69.7476L146.033 69.5444L146.165 70.0981ZM135.689 49.5981C139.662 54.225 142.787 59.6018 144.821 65.4878L144.979 65.9458L144.526 66.1177L129.154 71.9819L128.688 72.1606L128.51 71.6929L122.125 54.9536L121.946 54.4868L122.414 54.3091L135.133 49.4575L135.461 49.3315L135.689 49.5981Z" fill="#4FE737" stroke="black"/>
<circle cx="93.5" cy="84.5" r="49" fill="white" stroke="black"/>
<circle cx="93.5" cy="84.5" r="37" fill="white" stroke="black"/>
<path d="M85.895 96.5687L85.895 92.3856C85.895 88.6018 89.0109 85.5603 92.7937 85.6518C99.9809 85.8256 105.901 80.0467 105.901 72.8574V71.5352C105.901 69.4876 104.241 67.8276 102.194 67.8276L91.5707 67.8276C88.9185 67.8276 86.375 68.8812 84.4996 70.7566L81.3633 73.8929" stroke="black"/>
<path d="M82.7422 101.883H89.6499" stroke="black"/>
</svg>
