<svg width="180" height="180" viewBox="0 0 180 180" fill="none" xmlns="http://www.w3.org/2000/svg">
<mask id="path-1-inside-1_970_34298" fill="white">
<path d="M99.5 32C126.838 32 149 54.1619 149 81.5C149 102.088 136.43 119.738 118.547 127.2C111.199 131.52 102.64 134 93.5 134C66.1619 134 44 111.838 44 84.5C44 63.9121 56.5692 46.2609 74.4521 38.7988C81.8001 34.4793 90.3601 32 99.5 32Z"/>
</mask>
<path d="M99.5 32C126.838 32 149 54.1619 149 81.5C149 102.088 136.43 119.738 118.547 127.2C111.199 131.52 102.64 134 93.5 134C66.1619 134 44 111.838 44 84.5C44 63.9121 56.5692 46.2609 74.4521 38.7988C81.8001 34.4793 90.3601 32 99.5 32Z" fill="black"/>
<path d="M118.547 127.2L118.162 126.277L118.099 126.304L118.04 126.338L118.547 127.2ZM74.4521 38.7988L74.8372 39.7217L74.9002 39.6955L74.9589 39.6609L74.4521 38.7988ZM99.5 32V33C126.286 33 148 54.7142 148 81.5H149H150C150 53.6096 127.39 31 99.5 31V32ZM149 81.5H148C148 101.67 135.686 118.965 118.162 126.277L118.547 127.2L118.932 128.123C137.174 120.511 150 102.506 150 81.5H149ZM118.547 127.2L118.04 126.338C110.841 130.57 102.456 133 93.5 133V134V135C102.823 135 111.557 132.469 119.054 128.062L118.547 127.2ZM93.5 134V133C66.7142 133 45 111.286 45 84.5H44H43C43 112.39 65.6096 135 93.5 135V134ZM44 84.5H45C45 64.3297 57.3136 47.0339 74.8372 39.7217L74.4521 38.7988L74.0671 37.876C55.8248 45.488 43 63.4946 43 84.5H44ZM74.4521 38.7988L74.9589 39.6609C82.1577 35.4291 90.5433 33 99.5 33V32V31C90.1769 31 81.4426 33.5295 73.9454 37.9367L74.4521 38.7988Z" fill="white" mask="url(#path-1-inside-1_970_34298)"/>
<mask id="mask0_970_34298" maskUnits="userSpaceOnUse" x="50" y="33" width="97" height="97">
<circle cx="98.5" cy="81.5" r="48" fill="black" stroke="black"/>
</mask>
<g mask="url(#mask0_970_34298)">
<rect x="-0.288992" y="0.645356" width="37.8999" height="10.1303" transform="matrix(0.934347 -0.356364 -0.356364 -0.934347 120.383 90.8587)" fill="#4FE737" stroke="black"/>
<rect x="-0.288992" y="0.645356" width="27.0864" height="18.9154" transform="matrix(0.934347 -0.356364 -0.356364 -0.934347 129.188 72.6585)" fill="#4FE737" stroke="black"/>
</g>
<circle cx="95.5" cy="83.5" r="48.5" fill="black"/>
<circle cx="93.5" cy="84.5" r="49" fill="black" stroke="white"/>
<circle cx="93.5" cy="84.5" r="37" fill="black" stroke="white"/>
<path d="M85.8962 96.5688L85.8962 92.3858C85.8962 88.602 89.0121 85.5605 92.7948 85.6519C99.9821 85.8257 105.902 80.0469 105.902 72.8576L105.902 71.5354C105.902 69.4877 104.242 67.8278 102.195 67.8278L91.5718 67.8278C88.9197 67.8278 86.3761 68.8814 84.5008 70.7568L81.3644 73.8931" stroke="white"/>
<path d="M82.7422 101.883H89.6499" stroke="white"/>
</svg>
