<svg width="180" height="180" viewBox="0 0 180 180" fill="none" xmlns="http://www.w3.org/2000/svg">
<path d="M149.134 37.5L136.568 59.25L136.501 59.3662V118.367L125.211 138H35.3643L46.4346 118.749L46.501 118.634V59.6348L59.2881 37.5H149.134Z" fill="black" stroke="white"/>
<rect x="-0.304634" y="-0.460252" width="5" height="5" rx="2.5" transform="matrix(1 0 -0.390731 0.920505 68.0858 51.4068)" stroke="white" stroke-miterlimit="16"/>
<path d="M71.0463 49.6025L73 45H71" stroke="white" stroke-miterlimit="16"/>
<path d="M84 68H57V67H84V68ZM123 68H96V67H123V68Z" fill="white"/>
<path d="M84 80H57V79H84V80ZM123 80H96V79H123V80Z" fill="white"/>
<path d="M84 92H57V91H84V92ZM123 92H96V91H123V92Z" fill="white"/>
<path d="M84 104H57V103H84V104ZM123 104H96V103H123V104Z" fill="white"/>
<path d="M84 116H57V115H84V116ZM123 116H96V115H123V116Z" fill="white"/>
<path d="M79 128H52V127H79V128ZM118 128H91V127H118V128Z" fill="white"/>
<path d="M137.835 106.841C139.253 104.386 142.796 104.386 144.214 106.841L163.55 140.332C164.967 142.788 163.196 145.857 160.36 145.857H121.688C118.853 145.857 117.081 142.788 118.499 140.332L137.835 106.841Z" fill="black"/>
<path d="M134.701 110.342C135.734 108.553 138.315 108.553 139.348 110.342L158.684 143.832C159.716 145.621 158.426 147.856 156.36 147.856H117.688C115.623 147.856 114.333 145.621 115.365 143.832L134.701 110.342Z" fill="white" stroke="black" stroke-width="2"/>
<path d="M137 135L137 122" stroke="black" stroke-width="3"/>
<path d="M139 139H135" stroke="black" stroke-width="3"/>
</svg>
