<svg width="180" height="180" viewBox="0 0 180 180" fill="none" xmlns="http://www.w3.org/2000/svg">
<path d="M149.134 37.5L136.568 59.25L136.501 59.3662V118.367L125.211 138H35.3643L46.4346 118.749L46.501 118.634V59.6348L59.2881 37.5H149.134Z" fill="white" stroke="black"/>
<rect x="-0.304634" y="-0.460252" width="5" height="5" rx="2.5" transform="matrix(1 0 -0.390731 0.920505 68.0858 51.4068)" stroke="black" stroke-miterlimit="16"/>
<path d="M71.0463 49.6025L73 45H71" stroke="black" stroke-miterlimit="16"/>
<path d="M84 68H57V67H84V68ZM123 68H96V67H123V68Z" fill="black"/>
<path d="M84 80H57V79H84V80ZM123 80H96V79H123V80Z" fill="black"/>
<path d="M84 92H57V91H84V92ZM123 92H96V91H123V92Z" fill="black"/>
<path d="M84 104H57V103H84V104ZM123 104H96V103H123V104Z" fill="black"/>
<path d="M84 116H57V115H84V116ZM123 116H96V115H123V116Z" fill="black"/>
<path d="M79 128H52V127H79V128ZM118 128H91V127H118V128Z" fill="black"/>
<path d="M137.268 108.092C138.493 105.97 141.556 105.97 142.781 108.092L162.117 141.582C163.342 143.704 161.811 146.356 159.36 146.356H120.688C118.238 146.356 116.707 143.704 117.932 141.582L137.268 108.092Z" fill="white" stroke="black"/>
<path d="M134.268 110.092C135.493 107.97 138.556 107.97 139.781 110.092L159.117 143.582C160.342 145.704 158.811 148.356 156.36 148.356H117.688C115.238 148.356 113.707 145.704 114.932 143.582L134.268 110.092Z" fill="black" stroke="black"/>
<path d="M137 135L137 122" stroke="white" stroke-width="3"/>
<path d="M139 139H135" stroke="white" stroke-width="3"/>
</svg>
