<svg width="90" height="90" viewBox="0 0 90 90" fill="none" xmlns="http://www.w3.org/2000/svg">
  <rect x="42.2227" y="40.2969" width="18.1108" height="7.24432" rx="3.62216"
    transform="rotate(-45 42.2227 40.2969)" fill="black" stroke="white"
    stroke-width="0.5" />
  <path
    d="M42.9873 29.7952C43.1955 30.0033 43.3967 30.2159 43.5912 30.4322L52.2667 39.1077C54.3814 41.2224 54.3814 44.651 52.2667 46.7657C50.67 48.3625 48.3246 48.7525 46.3609 47.9379C45.5707 49.7182 44.4471 51.3868 42.9873 52.8466C40.835 54.9989 38.2301 56.4221 35.4792 57.1189L45.2944 66.9342C46.8503 68.4902 46.8504 71.0129 45.2944 72.5689C43.7384 74.1249 41.2157 74.1248 39.6596 72.5689L21.4737 54.383C21.3013 54.2105 21.1491 54.0252 21.0149 53.8316C20.6447 53.5218 20.2841 53.1941 19.9363 52.8462C13.5709 46.4809 13.5707 36.1606 19.9359 29.7952C25.7626 23.9685 34.9027 23.476 41.2903 28.3164C41.6197 28.5257 41.9321 28.7731 42.2195 29.0604L42.3503 29.1913C42.5666 29.3858 42.7792 29.587 42.9873 29.7952Z"
    fill="black" />
  <path
    d="M42.9873 29.7952C43.1955 30.0033 43.3967 30.2159 43.5912 30.4322L52.2667 39.1077C54.3814 41.2224 54.3814 44.651 52.2667 46.7657C50.67 48.3625 48.3246 48.7525 46.3609 47.9379C45.5707 49.7182 44.4471 51.3868 42.9873 52.8466C40.835 54.9989 38.2301 56.4221 35.4792 57.1189L45.2944 66.9342C46.8503 68.4902 46.8504 71.0129 45.2944 72.5689C43.7384 74.1249 41.2157 74.1248 39.6596 72.5689L21.4737 54.383C21.3013 54.2105 21.1491 54.0252 21.0149 53.8316C20.6447 53.5218 20.2841 53.1941 19.9363 52.8462C13.5709 46.4809 13.5707 36.1606 19.9359 29.7952C25.7626 23.9685 34.9027 23.476 41.2903 28.3164C41.6197 28.5257 41.9321 28.7731 42.2195 29.0604L42.3503 29.1913C42.5666 29.3858 42.7792 29.587 42.9873 29.7952Z"
    fill="#0D3706" />
  <path
    d="M42.9873 29.7952C43.1955 30.0033 43.3967 30.2159 43.5912 30.4322L52.2667 39.1077C54.3814 41.2224 54.3814 44.651 52.2667 46.7657C50.67 48.3625 48.3246 48.7525 46.3609 47.9379C45.5707 49.7182 44.4471 51.3868 42.9873 52.8466C40.835 54.9989 38.2301 56.4221 35.4792 57.1189L45.2944 66.9342C46.8503 68.4902 46.8504 71.0129 45.2944 72.5689C43.7384 74.1249 41.2157 74.1248 39.6596 72.5689L21.4737 54.383C21.3013 54.2105 21.1491 54.0252 21.0149 53.8316C20.6447 53.5218 20.2841 53.1941 19.9363 52.8462C13.5709 46.4809 13.5707 36.1606 19.9359 29.7952C25.7626 23.9685 34.9027 23.476 41.2903 28.3164C41.6197 28.5257 41.9321 28.7731 42.2195 29.0604L42.3503 29.1913C42.5666 29.3858 42.7792 29.587 42.9873 29.7952Z"
    stroke="white" stroke-width="0.5" />
  <path
    d="M71.6778 28.7711C78.043 35.1365 78.0427 45.4567 71.6774 51.8221C71.3324 52.1671 70.9747 52.4923 70.6078 52.7999C70.4742 52.9926 70.3226 53.1769 70.151 53.3486L52.1688 71.3308C50.6185 72.881 48.105 72.881 46.5548 71.3308C45.0046 69.7805 45.0045 67.267 46.5548 65.7167L56.168 56.1034C56.1572 56.1007 56.1464 56.0979 56.1356 56.0952L43.4902 68.7406C41.9444 70.2862 39.4384 70.2862 37.8927 68.7406C36.347 67.1949 36.3471 64.6888 37.8927 63.1431L48.9236 52.1122C48.911 52.1002 48.8986 52.088 48.886 52.0759L36.5897 64.3722C35.1751 65.7868 32.8815 65.7871 31.4669 64.3726C30.0525 62.958 30.0528 60.6644 31.4673 59.2499L44.4842 46.233L44.9161 46.6649C47.0266 48.7754 50.4484 48.7754 52.5589 46.6649C54.6694 44.5544 54.6694 41.1326 52.5589 39.0221L45.906 32.3691C46.6243 31.0797 47.5308 29.8666 48.6264 28.7711C54.9918 22.4058 65.3124 22.4057 71.6778 28.7711Z"
    fill="black" stroke="white"
    stroke-width="0.5" />
  <path
    d="M53.9294 42.7391C54.0421 44.1483 53.5614 45.5964 52.4827 46.6752L52.0453 47.1126C50.1023 49.0554 46.9555 49.0661 44.9991 47.1368L41.2516 43.441C39.1796 44.8921 34.4137 46.316 30 41.5186L30.4654 41C34.7868 45.2563 39.3411 43.8136 41.3096 42.3997L44.997 46.0872C46.9496 48.0397 50.1154 48.0395 52.0681 46.0872L52.5055 45.6497C53.3225 44.8328 53.7961 43.8031 53.9294 42.7391Z"
    fill="white" />
</svg>