<svg width="90" height="90" viewBox="0 0 90 90" fill="none" xmlns="http://www.w3.org/2000/svg">
  <rect x="42.2227" y="40.2969" width="18.1108" height="7.24432" rx="3.62216"
    transform="rotate(-45 42.2227 40.2969)" fill="white" stroke="black"
    stroke-width="0.5" />
  <path
    d="M42.9873 29.7952C43.1955 30.0033 43.3967 30.2159 43.5912 30.4322L52.2667 39.1077C54.3814 41.2224 54.3814 44.651 52.2667 46.7657C50.67 48.3625 48.3246 48.7525 46.3609 47.9379C45.5707 49.7182 44.4471 51.3868 42.9873 52.8466C40.835 54.9989 38.2301 56.4221 35.4792 57.1189L45.2944 66.9342C46.8503 68.4902 46.8504 71.0129 45.2944 72.5689C43.7384 74.1249 41.2157 74.1248 39.6596 72.5689L21.4737 54.383C21.3013 54.2105 21.1491 54.0252 21.0149 53.8316C20.6447 53.5218 20.2841 53.1941 19.9363 52.8462C13.5709 46.4809 13.5707 36.1606 19.9359 29.7952C25.7626 23.9685 34.9027 23.476 41.2903 28.3164C41.6197 28.5257 41.9321 28.7731 42.2195 29.0604L42.3503 29.1913C42.5666 29.3858 42.7792 29.587 42.9873 29.7952Z"
    fill="white" />
  <path
    d="M42.9873 29.7952C43.1955 30.0033 43.3967 30.2159 43.5912 30.4322L52.2667 39.1077C54.3814 41.2224 54.3814 44.651 52.2667 46.7657C50.67 48.3625 48.3246 48.7525 46.3609 47.9379C45.5707 49.7182 44.4471 51.3868 42.9873 52.8466C40.835 54.9989 38.2301 56.4221 35.4792 57.1189L45.2944 66.9342C46.8503 68.4902 46.8504 71.0129 45.2944 72.5689C43.7384 74.1249 41.2157 74.1248 39.6596 72.5689L21.4737 54.383C21.3013 54.2105 21.1491 54.0252 21.0149 53.8316C20.6447 53.5218 20.2841 53.1941 19.9363 52.8462C13.5709 46.4809 13.5707 36.1606 19.9359 29.7952C25.7626 23.9685 34.9027 23.476 41.2903 28.3164C41.6197 28.5257 41.9321 28.7731 42.2195 29.0604L42.3503 29.1913C42.5666 29.3858 42.7792 29.587 42.9873 29.7952Z"
    fill="#D5FCCF" />
  <path
    d="M42.9873 29.7952C43.1955 30.0033 43.3967 30.2159 43.5912 30.4322L52.2667 39.1077C54.3814 41.2224 54.3814 44.651 52.2667 46.7657C50.67 48.3625 48.3246 48.7525 46.3609 47.9379C45.5707 49.7182 44.4471 51.3868 42.9873 52.8466C40.835 54.9989 38.2301 56.4221 35.4792 57.1189L45.2944 66.9342C46.8503 68.4902 46.8504 71.0129 45.2944 72.5689C43.7384 74.1249 41.2157 74.1248 39.6596 72.5689L21.4737 54.383C21.3013 54.2105 21.1491 54.0252 21.0149 53.8316C20.6447 53.5218 20.2841 53.1941 19.9363 52.8462C13.5709 46.4809 13.5707 36.1606 19.9359 29.7952C25.7626 23.9685 34.9027 23.476 41.2903 28.3164C41.6197 28.5257 41.9321 28.7731 42.2195 29.0604L42.3503 29.1913C42.5666 29.3858 42.7792 29.587 42.9873 29.7952Z"
    stroke="black" stroke-width="0.5" />
  <path
    d="M71.6758 28.7721C78.0411 35.1375 78.0407 45.4577 71.6755 51.8231C71.3305 52.1681 70.9728 52.4933 70.6058 52.8009C70.4722 52.9935 70.3207 53.1779 70.149 53.3495L52.1668 71.3317C50.6166 72.882 48.1031 72.882 46.5528 71.3317C45.0027 69.7814 45.0026 67.2679 46.5528 65.7177L56.1661 56.1044C56.1553 56.1017 56.1444 56.0989 56.1336 56.0961L43.4882 68.7415C41.9425 70.2872 39.4364 70.2872 37.8907 68.7415C36.345 67.1958 36.3451 64.6898 37.8907 63.1441L48.9217 52.1131C48.9091 52.1011 48.8966 52.0889 48.884 52.0769L36.5877 64.3732C35.1732 65.7878 32.8795 65.7881 31.465 64.3736C30.0505 62.959 30.0508 60.6653 31.4653 59.2508L44.4822 46.2339L44.9142 46.6659C47.0247 48.7764 50.4465 48.7764 52.557 46.6659C54.6675 44.5553 54.6675 41.1335 52.557 39.023L45.904 32.3701C46.6224 31.0806 47.5289 29.8676 48.6244 28.7721C54.9898 22.4067 65.3104 22.4067 71.6758 28.7721Z"
    fill="white" stroke="black"
    stroke-width="0.5" />
  <path
    d="M53.9294 42.7391C54.0421 44.1483 53.5614 45.5964 52.4827 46.6752L52.0453 47.1126C50.1023 49.0554 46.9555 49.0661 44.9991 47.1368L41.2516 43.441C39.1796 44.8921 34.4137 46.316 30 41.5186L30.4654 41C34.7868 45.2563 39.3411 43.8136 41.3096 42.3997L44.997 46.0872C46.9496 48.0397 50.1154 48.0395 52.0681 46.0872L52.5055 45.6497C53.3225 44.8328 53.7961 43.8031 53.9294 42.7391Z"
    fill="black" />
</svg>