<svg width="180" height="180" viewBox="0 0 180 180" fill="none" xmlns="http://www.w3.org/2000/svg">
<rect x="84.4453" y="80.5947" width="36.2216" height="14.4886" rx="7.24432" transform="rotate(-45 84.4453 80.5947)" fill="white" stroke="black"/>
<path d="M85.9708 59.5913C86.3871 60.0076 86.7894 60.4327 87.1785 60.8654L104.53 78.2164C108.759 82.4458 108.759 89.3031 104.53 93.5324C101.336 96.726 96.6454 97.506 92.718 95.8768C91.1375 99.4374 88.8902 102.775 85.9708 105.694C81.666 109.999 76.4562 112.845 70.9544 114.239L90.5849 133.869C93.6967 136.981 93.6968 142.027 90.5849 145.139C87.473 148.251 82.4274 148.251 79.3154 145.139L42.9436 108.767C42.5986 108.422 42.2943 108.051 42.0259 107.664C41.2855 107.045 40.5643 106.389 39.8686 105.693C27.1379 92.9627 27.1374 72.3222 39.868 59.5913C51.5213 47.938 69.8015 46.953 82.5768 56.6338C83.2354 57.0523 83.8603 57.5471 84.435 58.1219L84.6967 58.3836C85.1294 58.7726 85.5545 59.175 85.9708 59.5913Z" fill="white" stroke="black"/>
<path d="M143.348 57.5436C156.078 70.2744 156.078 90.9149 143.347 103.646C142.657 104.336 141.942 104.986 141.208 105.601C140.941 105.987 140.637 106.355 140.294 106.699L104.33 142.663C101.229 145.764 96.2023 145.764 93.1017 142.663C90.0014 139.562 90.0012 134.535 93.1017 131.435L112.328 112.208C112.307 112.203 112.285 112.197 112.263 112.192L86.9725 137.483C83.881 140.574 78.869 140.574 75.7776 137.483C72.6862 134.391 72.6863 129.379 75.7776 126.288L97.8394 104.226C97.8142 104.202 97.7893 104.177 97.7642 104.153L73.1715 128.746C70.3424 131.575 65.7551 131.576 62.926 128.747C60.0972 125.918 60.0977 121.33 62.9267 118.501L88.9606 92.4674L89.8244 93.3312C94.0455 97.5523 100.889 97.5523 105.11 93.3312C109.331 89.1102 109.331 82.2666 105.11 78.0456L91.8042 64.7397C93.2408 62.1608 95.0539 59.7347 97.2449 57.5436C109.976 44.813 130.617 44.8129 143.348 57.5436Z" fill="white" stroke="black"/>
<path d="M107.859 85.4777C108.084 88.2961 107.123 91.1923 104.965 93.3498L104.091 94.2247C100.205 98.1104 93.9111 98.1317 89.9982 94.2731L82.5031 86.8816C78.3592 89.7836 68.8273 92.6316 60 83.0367L60.9308 81.9995C69.5735 90.5121 78.6822 87.6267 82.6191 84.7989L89.994 92.1738C93.8991 96.0789 100.231 96.0786 104.136 92.1738L105.011 91.2989C106.645 89.665 107.592 87.6057 107.859 85.4777Z" fill="black"/>
</svg>
