<svg width="180" height="180" viewBox="0 0 180 180" fill="none" xmlns="http://www.w3.org/2000/svg">
<rect x="83.7382" y="80.5947" width="37.2216" height="15.4886" rx="7.74432" transform="rotate(-45 83.7382 80.5947)" fill="black" stroke="white"/>
<mask id="path-2-outside-1_940_29479" maskUnits="userSpaceOnUse" x="14.8386" y="35.1268" width="123.744" height="123.744" fill="black">
<rect fill="white" x="14.8386" y="35.1268" width="123.744" height="123.744"/>
<path d="M85.9733 59.5924C86.2052 59.8243 86.4321 60.0597 86.6555 60.2968C86.7711 60.3997 86.8851 60.5057 86.996 60.6165L112.609 86.2291C115.72 89.341 115.72 94.3866 112.609 97.4986C109.497 100.611 104.451 100.611 101.339 97.4986L94.5186 90.6782V90.6796L120.291 116.452C123.12 119.281 123.12 123.868 120.291 126.697C117.462 129.526 112.876 129.526 110.047 126.697L87.4565 104.107C87.1394 104.469 86.8146 104.827 86.4788 105.177L107.486 126.185C110.598 129.297 110.598 134.342 107.486 137.454C104.374 140.566 99.3286 140.566 96.2167 137.454L72.5541 113.792C72.0248 113.955 71.4923 114.104 70.9569 114.24L90.5874 133.87C93.6992 136.982 93.6993 142.028 90.5874 145.14C87.4755 148.252 82.4299 148.252 79.3179 145.14L42.9461 108.768C42.6012 108.423 42.2969 108.053 42.0284 107.665C41.288 107.046 40.5669 106.39 39.8712 105.695C27.1404 92.9638 27.1399 72.3233 39.8705 59.5924C52.6013 46.8615 73.2424 46.8615 85.9733 59.5924Z"/>
</mask>
<path d="M85.9733 59.5924C86.2052 59.8243 86.4321 60.0597 86.6555 60.2968C86.7711 60.3997 86.8851 60.5057 86.996 60.6165L112.609 86.2291C115.72 89.341 115.72 94.3866 112.609 97.4986C109.497 100.611 104.451 100.611 101.339 97.4986L94.5186 90.6782V90.6796L120.291 116.452C123.12 119.281 123.12 123.868 120.291 126.697C117.462 129.526 112.876 129.526 110.047 126.697L87.4565 104.107C87.1394 104.469 86.8146 104.827 86.4788 105.177L107.486 126.185C110.598 129.297 110.598 134.342 107.486 137.454C104.374 140.566 99.3286 140.566 96.2167 137.454L72.5541 113.792C72.0248 113.955 71.4923 114.104 70.9569 114.24L90.5874 133.87C93.6992 136.982 93.6993 142.028 90.5874 145.14C87.4755 148.252 82.4299 148.252 79.3179 145.14L42.9461 108.768C42.6012 108.423 42.2969 108.053 42.0284 107.665C41.288 107.046 40.5669 106.39 39.8712 105.695C27.1404 92.9638 27.1399 72.3233 39.8705 59.5924C52.6013 46.8615 73.2424 46.8615 85.9733 59.5924Z" fill="black"/>
<path d="M85.9733 59.5924L86.6804 58.8853L86.6804 58.8853L85.9733 59.5924ZM86.6555 60.2968L85.9278 60.9827L85.9578 61.0145L85.9904 61.0435L86.6555 60.2968ZM86.996 60.6165L87.7031 59.9094L87.703 59.9094L86.996 60.6165ZM112.609 97.4986L113.316 98.2057L113.316 98.2057L112.609 97.4986ZM94.5186 90.6782L95.2257 89.9711L93.5186 88.264V90.6782H94.5186ZM94.5186 90.6796H93.5186V91.0938L93.8115 91.3867L94.5186 90.6796ZM120.291 116.452L120.999 115.745L120.999 115.745L120.291 116.452ZM120.291 126.697L120.999 127.404L120.999 127.404L120.291 126.697ZM110.047 126.697L109.34 127.404L109.34 127.404L110.047 126.697ZM87.4565 104.107L88.1637 103.4L87.4085 102.645L86.7046 103.448L87.4565 104.107ZM86.4788 105.177L85.7564 104.486L85.0798 105.193L85.7716 105.884L86.4788 105.177ZM107.486 137.454L108.193 138.161L108.193 138.161L107.486 137.454ZM72.5541 113.792L73.2612 113.085L72.8352 112.659L72.2595 112.836L72.5541 113.792ZM70.9569 114.24L70.7114 113.271L69.0054 113.703L70.2498 114.947L70.9569 114.24ZM90.5874 133.87L91.2946 133.163L91.2945 133.163L90.5874 133.87ZM90.5874 145.14L91.2945 145.847L91.2945 145.847L90.5874 145.14ZM79.3179 145.14L78.6108 145.847L78.6108 145.847L79.3179 145.14ZM42.0284 107.665L42.8502 107.096L42.7735 106.985L42.6702 106.898L42.0284 107.665ZM39.8712 105.695L39.1641 106.402L39.1641 106.402L39.8712 105.695ZM39.8705 59.5924L39.1634 58.8853L39.1634 58.8853L39.8705 59.5924ZM85.9733 59.5924L85.2662 60.2995C85.4896 60.5229 85.7094 60.7509 85.9278 60.9827L86.6555 60.2968L87.3832 59.6108C87.1547 59.3684 86.9208 59.1258 86.6804 58.8853L85.9733 59.5924ZM86.6555 60.2968L85.9904 61.0435C86.0956 61.1372 86.195 61.2298 86.2889 61.3236L86.996 60.6165L87.703 59.9094C87.5753 59.7816 87.4465 59.6621 87.3207 59.55L86.6555 60.2968ZM86.996 60.6165L86.2889 61.3236L111.901 86.9362L112.609 86.2291L113.316 85.522L87.7031 59.9094L86.996 60.6165ZM112.609 86.2291L111.901 86.9362C114.623 89.6576 114.623 94.07 111.901 96.7915L112.609 97.4986L113.316 98.2057C116.818 94.7032 116.818 89.0244 113.316 85.522L112.609 86.2291ZM112.609 97.4986L111.901 96.7915C109.18 99.513 104.768 99.5129 102.046 96.7915L101.339 97.4986L100.632 98.2057C104.134 101.708 109.813 101.708 113.316 98.2057L112.609 97.4986ZM101.339 97.4986L102.046 96.7915L95.2257 89.9711L94.5186 90.6782L93.8115 91.3853L100.632 98.2057L101.339 97.4986ZM94.5186 90.6782H93.5186V90.6796H94.5186L95.5186 90.6796V90.6782L94.5186 90.6782ZM94.5186 90.6796L93.8115 91.3867L119.584 117.159L120.291 116.452L120.999 115.745L95.2257 89.9725L94.5186 90.6796ZM120.291 116.452L119.584 117.159C122.023 119.598 122.023 123.552 119.584 125.99L120.291 126.697L120.999 127.404C124.218 124.185 124.218 118.965 120.999 115.745L120.291 116.452ZM120.291 126.697L119.584 125.99C117.146 128.428 113.192 128.428 110.754 125.99L110.047 126.697L109.34 127.404C112.559 130.623 117.779 130.624 120.999 127.404L120.291 126.697ZM110.047 126.697L110.754 125.99L88.1637 103.4L87.4565 104.107L86.7494 104.814L109.34 127.404L110.047 126.697ZM87.4565 104.107L86.7046 103.448C86.3951 103.801 86.0802 104.148 85.7564 104.486L86.4788 105.177L87.2011 105.869C87.5489 105.506 87.8838 105.137 88.2085 104.766L87.4565 104.107ZM86.4788 105.177L85.7716 105.884L106.779 126.892L107.486 126.185L108.193 125.478L87.1859 104.47L86.4788 105.177ZM107.486 126.185L106.779 126.892C109.501 129.613 109.501 134.026 106.779 136.747L107.486 137.454L108.193 138.161C111.696 134.659 111.696 128.98 108.193 125.478L107.486 126.185ZM107.486 137.454L106.779 136.747C104.058 139.469 99.6452 139.469 96.9238 136.747L96.2167 137.454L95.5096 138.161C99.012 141.664 104.691 141.664 108.193 138.161L107.486 137.454ZM96.2167 137.454L96.9238 136.747L73.2612 113.085L72.5541 113.792L71.847 114.499L95.5096 138.161L96.2167 137.454ZM72.5541 113.792L72.2595 112.836C71.7465 112.994 71.2304 113.139 70.7114 113.271L70.9569 114.24L71.2025 115.209C71.7543 115.07 72.3032 114.916 72.8487 114.747L72.5541 113.792ZM70.9569 114.24L70.2498 114.947L89.8803 134.578L90.5874 133.87L91.2945 133.163L71.664 113.533L70.9569 114.24ZM90.5874 133.87L89.8803 134.577C92.6016 137.299 92.6017 141.711 89.8803 144.433L90.5874 145.14L91.2945 145.847C94.797 142.345 94.7968 136.666 91.2946 133.163L90.5874 133.87ZM90.5874 145.14L89.8803 144.433C87.1589 147.154 82.7465 147.154 80.025 144.433L79.3179 145.14L78.6108 145.847C82.1133 149.349 87.7921 149.349 91.2945 145.847L90.5874 145.14ZM79.3179 145.14L80.025 144.433L43.6532 108.061L42.9461 108.768L42.239 109.475L78.6108 145.847L79.3179 145.14ZM42.9461 108.768L43.6532 108.061C43.3537 107.761 43.0873 107.437 42.8502 107.096L42.0284 107.665L41.2066 108.235C41.5065 108.668 41.8486 109.085 42.239 109.475L42.9461 108.768ZM42.0284 107.665L42.6702 106.898C41.9509 106.296 41.2517 105.661 40.5783 104.987L39.8712 105.695L39.1641 106.402C39.882 107.12 40.6252 107.795 41.3866 108.432L42.0284 107.665ZM39.8712 105.695L40.5783 104.987C28.238 92.6472 28.2376 72.6399 40.5776 60.2995L39.8705 59.5924L39.1634 58.8853C26.0423 72.0068 26.0428 93.2804 39.1641 106.402L39.8712 105.695ZM39.8705 59.5924L40.5776 60.2995C52.9179 47.9592 72.9258 47.9592 85.2662 60.2995L85.9733 59.5924L86.6804 58.8853C73.559 45.7639 52.2848 45.7639 39.1634 58.8853L39.8705 59.5924Z" fill="white" mask="url(#path-2-outside-1_940_29479)"/>
<mask id="path-4-outside-2_940_29479" maskUnits="userSpaceOnUse" x="42.5229" y="33.078" width="125.865" height="125.865" fill="black">
<rect fill="white" x="42.5229" y="33.078" width="125.865" height="125.865"/>
<path d="M143.356 57.5436C156.087 70.2745 156.086 90.915 143.355 103.646C142.767 104.234 142.162 104.794 141.542 105.328C141.319 105.635 141.07 105.93 140.793 106.207L103.844 143.155C101.015 145.984 96.4287 145.984 93.5997 143.155C90.7709 140.326 90.771 135.74 93.5997 132.911L113.941 112.569C113.382 112.459 112.825 112.332 112.272 112.192L86.5058 137.958C83.6768 140.787 79.0901 140.787 76.2611 137.958C73.4321 135.129 73.4322 130.542 76.2611 127.713L98.8429 105.131C98.4812 104.814 98.1233 104.489 97.7726 104.153L73.1799 128.746C70.3509 131.575 65.7635 131.576 62.9344 128.747C60.1055 125.918 60.1061 121.33 62.9351 118.501L88.8626 92.5737C93.214 96.9218 100.266 96.9209 104.616 92.5709C108.967 88.2197 108.967 81.1655 104.616 76.8143L92.0763 64.2742C93.4691 61.8686 95.1944 59.6025 97.2533 57.5436C109.984 44.8128 130.625 44.8127 143.356 57.5436Z"/>
</mask>
<path d="M143.356 57.5436C156.087 70.2745 156.086 90.915 143.355 103.646C142.767 104.234 142.162 104.794 141.542 105.328C141.319 105.635 141.07 105.93 140.793 106.207L103.844 143.155C101.015 145.984 96.4287 145.984 93.5997 143.155C90.7709 140.326 90.771 135.74 93.5997 132.911L113.941 112.569C113.382 112.459 112.825 112.332 112.272 112.192L86.5058 137.958C83.6768 140.787 79.0901 140.787 76.2611 137.958C73.4321 135.129 73.4322 130.542 76.2611 127.713L98.8429 105.131C98.4812 104.814 98.1233 104.489 97.7726 104.153L73.1799 128.746C70.3509 131.575 65.7635 131.576 62.9344 128.747C60.1055 125.918 60.1061 121.33 62.9351 118.501L88.8626 92.5737C93.214 96.9218 100.266 96.9209 104.616 92.5709C108.967 88.2197 108.967 81.1655 104.616 76.8143L92.0763 64.2742C93.4691 61.8686 95.1944 59.6025 97.2533 57.5436C109.984 44.8128 130.625 44.8127 143.356 57.5436Z" fill="black"/>
<path d="M143.356 57.5436L144.063 56.8365L144.063 56.8365L143.356 57.5436ZM143.355 103.646L144.063 104.353L144.063 104.353L143.355 103.646ZM141.542 105.328L140.89 104.57L140.801 104.646L140.732 104.741L141.542 105.328ZM140.793 106.207L141.5 106.914L141.5 106.914L140.793 106.207ZM103.844 143.155L104.551 143.862L104.552 143.862L103.844 143.155ZM93.5997 143.155L92.8925 143.862L92.8926 143.862L93.5997 143.155ZM93.5997 132.911L92.8926 132.203L92.8925 132.203L93.5997 132.911ZM113.941 112.569L114.648 113.277L115.972 111.952L114.135 111.589L113.941 112.569ZM112.272 112.192L112.517 111.222L111.966 111.083L111.565 111.485L112.272 112.192ZM86.5058 137.958L87.2129 138.665L87.2129 138.665L86.5058 137.958ZM76.2611 137.958L75.5539 138.665L75.554 138.665L76.2611 137.958ZM76.2611 127.713L75.5539 127.006L75.5539 127.006L76.2611 127.713ZM98.8429 105.131L99.55 105.838L100.305 105.083L99.502 104.379L98.8429 105.131ZM97.7726 104.153L98.4641 103.431L97.7573 102.754L97.0655 103.446L97.7726 104.153ZM73.1799 128.746L73.887 129.453V129.453L73.1799 128.746ZM62.9344 128.747L62.2273 129.454L62.2274 129.454L62.9344 128.747ZM62.9351 118.501L63.6422 119.208V119.208L62.9351 118.501ZM88.8626 92.5737L89.5694 91.8663L88.8623 91.1597L88.1555 91.8666L88.8626 92.5737ZM104.616 92.5709L105.324 93.2781L105.324 93.278L104.616 92.5709ZM104.616 76.8143L105.324 76.1072L105.324 76.1072L104.616 76.8143ZM92.0763 64.2742L91.2109 63.7732L90.826 64.4381L91.3692 64.9813L92.0763 64.2742ZM97.2533 57.5436L96.5462 56.8365L96.5462 56.8365L97.2533 57.5436ZM143.356 57.5436L142.649 58.2507C154.989 70.591 154.988 90.5984 142.648 102.939L143.355 103.646L144.063 104.353C157.184 91.2316 157.184 69.9579 144.063 56.8365L143.356 57.5436ZM143.355 103.646L142.648 102.939C142.078 103.509 141.491 104.052 140.89 104.57L141.542 105.328L142.194 106.086C142.833 105.536 143.457 104.959 144.063 104.353L143.355 103.646ZM141.542 105.328L140.732 104.741C140.54 105.007 140.324 105.261 140.086 105.5L140.793 106.207L141.5 106.914C141.815 106.598 142.099 106.264 142.352 105.915L141.542 105.328ZM140.793 106.207L140.086 105.5L103.137 142.448L103.844 143.155L104.552 143.862L141.5 106.914L140.793 106.207ZM103.844 143.155L103.137 142.448C100.699 144.886 96.7452 144.886 94.3068 142.448L93.5997 143.155L92.8926 143.862C96.1121 147.082 101.332 147.082 104.551 143.862L103.844 143.155ZM93.5997 143.155L94.3068 142.448C91.8685 140.01 91.8686 136.056 94.3068 133.618L93.5997 132.911L92.8925 132.203C89.6734 135.423 89.6733 140.643 92.8925 143.862L93.5997 143.155ZM93.5997 132.911L94.3068 133.618L114.648 113.277L113.941 112.569L113.234 111.862L92.8926 132.203L93.5997 132.911ZM113.941 112.569L114.135 111.589C113.595 111.482 113.055 111.359 112.517 111.222L112.272 112.192L112.026 113.161C112.595 113.305 113.169 113.436 113.746 113.55L113.941 112.569ZM112.272 112.192L111.565 111.485L85.7987 137.251L86.5058 137.958L87.2129 138.665L112.979 112.899L112.272 112.192ZM86.5058 137.958L85.7987 137.251C83.3602 139.689 79.4067 139.689 76.9681 137.251L76.2611 137.958L75.554 138.665C78.7735 141.884 83.9933 141.884 87.2129 138.665L86.5058 137.958ZM76.2611 137.958L76.9682 137.251C74.5297 134.812 74.5298 130.859 76.9682 128.42L76.2611 127.713L75.5539 127.006C72.3346 130.225 72.3344 135.445 75.5539 138.665L76.2611 137.958ZM76.2611 127.713L76.9682 128.42L99.55 105.838L98.8429 105.131L98.1358 104.424L75.5539 127.006L76.2611 127.713ZM98.8429 105.131L99.502 104.379C99.1491 104.07 98.8023 103.755 98.4641 103.431L97.7726 104.153L97.0811 104.876C97.4443 105.223 97.8132 105.558 98.1838 105.883L98.8429 105.131ZM97.7726 104.153L97.0655 103.446L72.4728 128.039L73.1799 128.746L73.887 129.453L98.4797 104.86L97.7726 104.153ZM73.1799 128.746L72.4728 128.039C70.0342 130.477 66.08 130.478 63.6415 128.039L62.9344 128.747L62.2274 129.454C65.4471 132.673 70.6675 132.672 73.887 129.453L73.1799 128.746ZM62.9344 128.747L63.6416 128.04C61.2033 125.601 61.2036 121.647 63.6422 119.208L62.9351 118.501L62.228 117.794C59.0086 121.014 59.0078 126.234 62.2273 129.454L62.9344 128.747ZM62.9351 118.501L63.6422 119.208L89.5697 93.2808L88.8626 92.5737L88.1555 91.8666L62.228 117.794L62.9351 118.501ZM88.8626 92.5737L88.1558 93.2811C92.8977 98.0194 100.583 98.0184 105.324 93.2781L104.616 92.5709L103.909 91.8638C99.9495 95.8233 93.5303 95.8242 89.5694 91.8663L88.8626 92.5737ZM104.616 92.5709L105.324 93.278C110.065 88.5363 110.065 80.8489 105.324 76.1072L104.616 76.8143L103.909 77.5214C107.87 81.482 107.87 87.9032 103.909 91.8638L104.616 92.5709ZM104.616 76.8143L105.324 76.1072L92.7835 63.5671L92.0763 64.2742L91.3692 64.9813L103.909 77.5214L104.616 76.8143ZM92.0763 64.2742L92.9418 64.7753C94.2914 62.4441 95.9637 60.2474 97.9604 58.2507L97.2533 57.5436L96.5462 56.8365C94.4251 58.9575 92.6468 61.293 91.2109 63.7732L92.0763 64.2742ZM97.2533 57.5436L97.9604 58.2507C110.301 45.9104 130.309 45.9104 142.649 58.2507L143.356 57.5436L144.063 56.8365C130.942 43.7151 109.668 43.7152 96.5462 56.8365L97.2533 57.5436Z" fill="white" mask="url(#path-4-outside-2_940_29479)"/>
<path d="M88.555 91.5357L82 84.9804C78.1667 87.987 68.2 91.5 59 81.5" stroke="white"/>
<path fill-rule="evenodd" clip-rule="evenodd" d="M106.86 85.9565C107.08 88.7701 106.119 91.6598 103.965 93.8134L103.091 94.6876C99.205 98.5735 92.9115 98.5957 88.9985 94.7373L81.5027 87.3452C77.3585 90.2471 67.8273 93.0941 59.0003 83.4996L59.9311 82.4624C68.5747 90.9777 77.6845 88.092 81.6215 85.2639L88.9964 92.6388C92.9016 96.544 99.2333 96.5439 103.139 92.6388L104.013 91.7639C105.644 90.1334 106.591 88.0797 106.86 85.9565Z" fill="white"/>
</svg>
