<svg width="180" height="180" viewBox="0 0 180 180" fill="none" xmlns="http://www.w3.org/2000/svg">
<mask id="path-1-outside-1_902_27344" maskUnits="userSpaceOnUse" x="35" y="29" width="112" height="122" fill="black">
<rect fill="white" x="35" y="29" width="112" height="122"/>
<path d="M146 30V79.9062L145.996 80.8125C145.608 119.106 125.28 131.477 90 149C55.98 131.477 36.3777 119.106 36.0039 80.8125L36 79.9062V30H146Z"/>
</mask>
<path d="M146 30H147V29H146V30ZM146 79.9062L147 79.9106V79.9062H146ZM145.996 80.8125L146.996 80.8226L146.996 80.8168L145.996 80.8125ZM90 149L89.5421 149.889L89.9918 150.121L90.4448 149.896L90 149ZM36.0039 80.8125L35.0039 80.8168L35.004 80.8223L36.0039 80.8125ZM36 79.9062H35L35 79.9106L36 79.9062ZM36 30V29H35V30H36ZM146 30H145V79.9062H146H147V30H146ZM146 79.9062L145 79.9019L144.996 80.8082L145.996 80.8125L146.996 80.8168L147 79.9106L146 79.9062ZM145.996 80.8125L144.996 80.8024C144.804 99.7436 139.694 112.152 130.357 122.007C120.957 131.928 107.219 139.331 89.5552 148.104L90 149L90.4448 149.896C108.061 141.146 122.127 133.602 131.809 123.383C141.552 113.099 146.8 100.175 146.996 80.8226L145.996 80.8125ZM90 149L90.4579 148.111C73.4254 139.338 60.1831 131.938 51.1229 122.021C42.1203 112.167 37.1889 99.7537 37.0039 80.8027L36.0039 80.8125L35.004 80.8223C35.1928 100.165 40.2494 113.084 49.6464 123.37C58.9857 133.592 72.5546 141.139 89.5421 149.889L90 149ZM36.0039 80.8125L37.0039 80.8082L37 79.9019L36 79.9062L35 79.9106L35.0039 80.8168L36.0039 80.8125ZM36 79.9062H37V30H36H35V79.9062H36ZM36 30V31H146V30V29H36V30Z" fill="white" mask="url(#path-1-outside-1_902_27344)"/>
<path d="M119.001 78.1426L118.999 78.4678C118.9 86.2759 115.287 93.1325 109.658 97.5977C112.945 93.4539 114.924 88.2189 114.997 82.4678L114.999 82.1426V57H69.6133L71.0049 53H119.001V78.1426Z" fill="white"/>
<path d="M89.5 56.5V107.5H68.5967V80.5H58.2969L58.5273 79.8359L66.5293 56.8359L66.6465 56.5H89.5Z" stroke="white"/>
<path d="M115.498 56.5V82.1455L115.496 82.4707V82.4746C115.318 96.4877 104.048 107.5 90 107.5H89.5V56.5H115.498Z" stroke="white"/>
<path d="M149 76.9111L148.996 77.8174V77.8223C148.807 97.1652 143.75 110.085 134.354 120.37C133.264 121.562 132.115 122.716 130.912 123.842C131.059 123.684 131.208 123.529 131.354 123.37C140.75 113.085 145.807 100.165 145.996 80.8223V80.8174L146 79.9111V29H38V26H149V76.9111Z" fill="white"/>
</svg>
