<svg width="180" height="180" viewBox="0 0 180 180" fill="none" xmlns="http://www.w3.org/2000/svg">
<mask id="mask0_902_27422" maskUnits="userSpaceOnUse" x="10" y="10" width="160" height="161">
<path d="M170 171H10V10H170V171ZM117 101C115.895 101 115 101.895 115 103V117C115 118.105 115.895 119 117 119H142C143.105 119 144 118.105 144 117V103C144 101.895 143.105 101 142 101H117Z" fill="#FF0000"/>
</mask>
<g mask="url(#mask0_902_27422)">
<mask id="mask1_902_27422" maskUnits="userSpaceOnUse" x="30" y="25" width="127" height="137">
<path d="M157 162H30V25H157V162ZM113 94C110.239 94 108 96.2386 108 99V148C108 150.761 110.239 153 113 153H146C148.761 153 151 150.761 151 148V99C151 96.2386 148.761 94 146 94H113Z" fill="#D9D9D9"/>
</mask>
<g mask="url(#mask1_902_27422)">
<path d="M149 76.9111L148.996 77.8174V77.8223C148.807 97.1652 143.75 110.085 134.354 120.37C133.264 121.562 132.115 122.716 130.912 123.842C131.059 123.684 131.208 123.529 131.354 123.37C140.75 113.085 145.807 100.165 145.996 80.8223V80.8174L146 79.9111V29H38V26H149V76.9111Z" fill="white"/>
<mask id="path-4-outside-1_902_27422" maskUnits="userSpaceOnUse" x="35" y="29" width="111" height="122" fill="black">
<rect fill="white" x="35" y="29" width="111" height="122"/>
<path d="M90 30V149C55.98 131.477 36.3777 119.106 36.0039 80.8125L36 79.9062V30H90ZM145 79.9062L144.996 80.8125C144.622 119.106 125.02 131.477 91 149V30H145V79.9062Z"/>
</mask>
<path d="M90 30H91V29H90V30ZM90 149L89.5421 149.889L91 150.64V149H90ZM36.0039 80.8125L35.0039 80.8168L35.004 80.8223L36.0039 80.8125ZM36 79.9062H35L35 79.9106L36 79.9062ZM36 30V29H35V30H36ZM145 79.9062L146 79.9106V79.9062H145ZM144.996 80.8125L145.996 80.8223L145.996 80.8168L144.996 80.8125ZM91 149H90V150.64L91.4579 149.889L91 149ZM91 30V29H90V30H91ZM145 30H146V29H145V30ZM90 30H89V149H90H91V30H90ZM90 149L90.4579 148.111C73.4254 139.338 60.1831 131.938 51.1229 122.021C42.1203 112.167 37.1889 99.7537 37.0039 80.8027L36.0039 80.8125L35.004 80.8223C35.1928 100.165 40.2494 113.084 49.6464 123.37C58.9857 133.592 72.5546 141.139 89.5421 149.889L90 149ZM36.0039 80.8125L37.0039 80.8082L37 79.9019L36 79.9062L35 79.9106L35.0039 80.8168L36.0039 80.8125ZM36 79.9062H37V30H36H35V79.9062H36ZM36 30V31H90V30V29H36V30ZM145 79.9062L144 79.9019L143.996 80.8082L144.996 80.8125L145.996 80.8168L146 79.9106L145 79.9062ZM144.996 80.8125L143.996 80.8027C143.811 99.7537 138.88 112.167 129.877 122.021C120.817 131.938 107.575 139.338 90.5421 148.111L91 149L91.4579 149.889C108.445 141.139 122.014 133.592 131.354 123.37C140.751 113.084 145.807 100.165 145.996 80.8223L144.996 80.8125ZM91 149H92V30H91H90V149H91ZM91 30V31H145V30V29H91V30ZM145 30H144V79.9062H145H146V30H145Z" fill="white" mask="url(#path-4-outside-1_902_27422)"/>
</g>
<rect x="110" y="96" width="39" height="55" rx="3" fill="white"/>
</g>
</svg>
