<svg width="180" height="180" viewBox="0 0 180 180" fill="none" xmlns="http://www.w3.org/2000/svg">
<circle cx="89.9961" cy="90.5" r="51.5" stroke="white" stroke-linejoin="round"/>
<path d="M89.9961 39C90.7813 39 91.5623 39.0189 92.3389 39.0537C67.1084 40.2787 47 62.8426 47 90.5C47 118.157 67.1085 140.72 92.3389 141.945C91.5623 141.98 90.7813 142 89.9961 142C61.5534 142 38.4961 118.943 38.4961 90.5C38.4961 62.0573 61.5534 39 89.9961 39Z" fill="white"/>
<ellipse cx="100.502" cy="131.5" rx="7.5" ry="5.5" transform="rotate(-17.7985 100.502 131.5)" stroke="white" stroke-linejoin="round"/>
<ellipse cx="126.496" cy="74.8253" rx="9.5" ry="14" transform="rotate(-16.8206 126.496 74.8253)" stroke="white" stroke-linejoin="round"/>
<ellipse cx="66.8479" cy="117.732" rx="11" ry="14" transform="rotate(-39.5859 66.8479 117.732)" stroke="white" stroke-linejoin="round"/>
<ellipse cx="101.498" cy="49.5" rx="9.5" ry="7.5" transform="rotate(17.8691 101.498 49.5)" stroke="white" stroke-linejoin="round"/>
<path d="M155.591 40.8055C158.178 40.5485 160.645 40.5676 162.773 41.0653L163.172 41.1659C165.179 41.7052 167.25 42.8074 168.503 44.95C169.84 47.2356 169.69 49.7536 169.08 51.8514C168.47 53.9502 167.277 56.1077 165.784 58.2362C162.784 62.5153 158.008 67.4652 151.989 72.7538C139.899 83.375 122.153 95.9184 101.613 107.931C81.0721 119.943 61.4387 129.259 46.2542 134.588C38.6937 137.241 32.0385 138.976 26.8381 139.493C24.251 139.75 21.7849 139.732 19.6565 139.234C17.5294 138.737 15.2617 137.633 13.925 135.348C12.5886 133.062 12.7396 130.546 13.3489 128.448C13.9587 126.349 15.1511 124.19 16.6438 122.061C19.644 117.782 24.4204 112.834 30.4397 107.546C32.6256 105.625 34.9965 103.642 37.5354 101.61C38.0244 104.05 38.6901 106.472 39.5374 108.859C33.2928 114.343 27.6803 120.256 23.1946 126.654C22.1086 128.203 21.4706 129.422 21.1497 130.316L21.0315 130.68C20.9541 130.946 20.9213 131.137 20.9075 131.264C21.0255 131.315 21.2083 131.381 21.4788 131.444C22.408 131.661 23.8959 131.746 26.0471 131.532C30.3239 131.107 36.2877 129.607 43.6047 127.039C58.1759 121.926 77.3361 112.859 97.5735 101.024C117.811 89.1893 135.108 76.9353 146.709 66.743C152.535 61.625 156.766 57.1634 159.234 53.6444L159.672 53.0008C160.633 51.5466 161.164 50.4218 161.397 49.62C161.474 49.3538 161.506 49.1621 161.52 49.034C161.401 48.9834 161.219 48.9183 160.949 48.8553C160.136 48.6652 158.895 48.5761 157.156 48.7L156.381 48.7665C147.738 49.6251 138.934 51.9923 130.236 55.2352C128.574 53.3688 126.797 51.6404 124.921 50.0536C128.883 48.4024 132.648 46.9491 136.174 45.7118C143.735 43.0586 150.39 41.3222 155.591 40.8055Z" fill="black"/>
<path d="M155.789 42.7958C158.267 42.5496 160.489 42.5849 162.317 43.0126C164.146 43.4404 165.82 44.3243 166.777 45.9608C167.734 47.5973 167.684 49.4891 167.16 51.2929C166.636 53.0964 165.577 55.0496 164.147 57.0888C161.28 61.1779 156.641 66.005 150.67 71.2509C138.702 81.765 121.068 94.2361 100.603 106.204C80.1387 118.172 60.6239 127.425 45.5927 132.7C38.0929 135.332 31.6102 137.009 26.6405 137.503C24.1624 137.749 21.9409 137.714 20.1122 137.286C18.2831 136.858 16.6094 135.974 15.6523 134.338C14.6954 132.701 14.7455 130.81 15.2694 129.006C15.7934 127.202 16.8525 125.249 18.2821 123.21C21.1491 119.121 25.7886 114.293 31.7597 109.047C33.7011 107.341 35.7918 105.584 38.0194 103.786C38.2854 104.871 38.5862 105.952 38.9237 107.027C32.283 112.623 26.3041 118.736 21.5575 125.506C20.2537 127.365 19.4635 128.909 19.1112 130.121C18.7594 131.332 18.9057 131.977 19.1054 132.318C19.3052 132.66 19.7948 133.104 21.0233 133.391C22.2525 133.679 23.9849 133.747 26.245 133.522C30.7528 133.075 36.8895 131.515 44.2675 128.926C58.9921 123.759 78.2716 114.63 98.5849 102.751C118.898 90.8717 136.306 78.5454 148.029 68.246C153.903 63.0853 158.271 58.502 160.872 54.7929C162.176 52.933 162.966 51.3889 163.318 50.1767C163.67 48.9653 163.524 48.321 163.324 47.9794C163.124 47.6378 162.635 47.1944 161.406 46.9071C160.177 46.6197 158.445 46.5518 156.184 46.7763C147.077 47.681 137.93 50.2957 128.96 53.8544C128.191 53.0505 127.401 52.2742 126.589 51.5263C130.188 50.0426 133.615 48.7291 136.837 47.5985C144.337 44.9667 150.819 43.2895 155.789 42.7958Z" fill="#4FE737"/>
<rect x="109.5" y="101.5" width="43" height="44" rx="21.5" fill="black" stroke="black"/>
<rect x="107" y="105" width="43" height="44" rx="21.5" fill="#C6D5E0"/>
<rect x="107" y="105" width="43" height="44" rx="21.5" fill="white"/>
<rect x="107" y="105" width="43" height="44" rx="21.5" stroke="black" stroke-width="2"/>
<path d="M118 138L139 117" stroke="black" stroke-width="6"/>
<path d="M139 138L118 117" stroke="black" stroke-width="6"/>
</svg>
