<svg width="180" height="180" viewBox="0 0 180 180" fill="none" xmlns="http://www.w3.org/2000/svg">
<circle cx="89.9961" cy="90.5" r="51.5" stroke="black" stroke-linejoin="round"/>
<path fill-rule="evenodd" clip-rule="evenodd" d="M89.9961 39C118.439 39 141.496 62.0573 141.496 90.5C141.496 118.943 118.439 142 89.9961 142C89.2119 142 88.4319 141.981 87.6562 141.946C112.889 140.724 133 118.159 133 90.5C133 62.8408 112.889 40.275 87.6562 39.0527C88.4319 39.0181 89.2119 39 89.9961 39Z" fill="black"/>
<ellipse cx="100.502" cy="131.5" rx="7.5" ry="5.5" transform="rotate(-17.7985 100.502 131.5)" stroke="black" stroke-linejoin="round"/>
<ellipse cx="127.496" cy="74.8253" rx="9.5" ry="14" transform="rotate(-16.8206 127.496 74.8253)" fill="white" stroke="black" stroke-linejoin="round"/>
<ellipse cx="66.8479" cy="117.732" rx="11" ry="14" transform="rotate(-39.5859 66.8479 117.732)" stroke="black" stroke-linejoin="round"/>
<ellipse cx="101.498" cy="49.5" rx="9.5" ry="7.5" transform="rotate(17.8691 101.498 49.5)" stroke="black" stroke-linejoin="round"/>
<path d="M154.689 40.8012C157.222 40.5496 159.566 40.5767 161.545 41.0394C163.524 41.5023 165.493 42.4955 166.639 44.4554C167.786 46.4159 167.687 48.6206 167.12 50.5726C166.553 52.5238 165.426 54.5787 163.966 56.6625C161.032 60.8467 156.324 65.736 150.329 71.0033C138.3 81.571 120.61 94.0777 100.107 106.068C79.6045 118.058 60.0305 127.343 44.9226 132.645C37.3926 135.287 30.824 136.992 25.739 137.497C23.2064 137.749 20.863 137.723 18.8845 137.26C16.9052 136.797 14.9353 135.804 13.7888 133.843C12.6423 131.883 12.7422 129.679 13.3093 127.727C13.8762 125.776 15.0015 123.72 16.4626 121.636C19.3962 117.452 24.1042 112.564 30.0993 107.297C32.7343 104.982 35.6404 102.573 38.7888 100.098C39.1174 101.823 39.5361 103.539 40.0486 105.241C32.8831 111.29 26.4261 117.877 21.3757 125.08C20.1031 126.896 19.3793 128.337 19.07 129.402C18.7622 130.462 18.9571 130.794 18.9685 130.814C18.9789 130.832 19.1715 131.166 20.2497 131.418C21.329 131.671 22.9396 131.747 25.1452 131.528C29.5376 131.091 35.5885 129.561 42.9363 126.983C57.5841 121.843 76.8036 112.745 97.0788 100.888C117.354 89.0311 134.707 76.7413 146.369 66.4955C152.219 61.3562 156.518 56.8332 159.052 53.2191C160.325 51.4043 161.048 49.9632 161.357 48.8988C161.665 47.8393 161.473 47.505 161.461 47.4847C161.45 47.466 161.255 47.1331 160.177 46.8812C159.098 46.6289 157.488 46.5528 155.282 46.7719C145.897 47.7043 136.335 50.394 126.936 54.0414C125.71 52.7837 124.427 51.5978 123.093 50.4857C127.483 48.6294 131.64 47.012 135.506 45.6556C143.036 43.0132 149.604 41.3064 154.689 40.8012Z" fill="black"/>
<path d="M154.789 41.7963C157.267 41.5501 159.489 41.5854 161.317 42.0131C163.146 42.4409 164.82 43.3248 165.777 44.9613C166.734 46.5978 166.684 48.4896 166.16 50.2934C165.636 52.0969 164.577 54.0501 163.147 56.0892C160.28 60.1784 155.641 65.0055 149.67 70.2514C137.702 80.7654 120.068 93.2366 99.6034 105.204C79.1387 117.172 59.6239 126.426 44.5927 131.701C37.0929 134.332 30.6102 136.01 25.6405 136.503C23.1624 136.749 20.9409 136.714 19.1122 136.287C17.2831 135.859 15.6094 134.975 14.6523 133.338C13.6954 131.702 13.7455 129.81 14.2694 128.006C14.7934 126.203 15.8525 124.25 17.2821 122.21C20.1491 118.121 24.7886 113.293 30.7597 108.047C33.2692 105.842 36.0279 103.552 39.0097 101.198C39.2427 102.289 39.5132 103.376 39.8202 104.458C32.4221 110.477 25.7518 117.098 20.5575 124.506C19.2537 126.366 18.4635 127.909 18.1112 129.121C17.7594 130.333 17.9057 130.977 18.1054 131.319C18.3052 131.66 18.7948 132.105 20.0233 132.392C21.2525 132.679 22.9849 132.747 25.245 132.523C29.7528 132.075 35.8895 130.515 43.2675 127.926C57.9921 122.759 77.2716 113.631 97.5849 101.751C117.898 89.8722 135.306 77.5459 147.029 67.2465C152.903 62.0858 157.271 57.5025 159.872 53.7934C161.176 51.9335 161.966 50.3894 162.318 49.1771C162.67 47.9658 162.524 47.3215 162.324 46.9799C162.124 46.6383 161.635 46.1949 160.406 45.9076C159.177 45.6202 157.445 45.5523 155.184 45.7767C145.545 46.7344 135.862 49.6091 126.39 53.4896C125.597 52.7009 124.781 51.9409 123.944 51.2113C128.146 49.4443 132.128 47.9005 135.837 46.599C143.337 43.9672 149.819 42.29 154.789 41.7963Z" fill="#4FE737"/>
<rect x="109.5" y="102.5" width="43" height="44" rx="21.5" fill="white" stroke="black"/>
<rect x="106.5" y="104.5" width="44" height="45" rx="22" fill="#C6D5E0"/>
<rect x="106.5" y="104.5" width="44" height="45" rx="22" fill="black"/>
<rect x="106.5" y="104.5" width="44" height="45" rx="22" stroke="black"/>
<path d="M118 138L139 117" stroke="white" stroke-width="6"/>
<path d="M139 138L118 117" stroke="white" stroke-width="6"/>
</svg>
