<svg width="180" height="180" viewBox="0 0 180 180" fill="none" xmlns="http://www.w3.org/2000/svg">
<mask id="path-1-inside-1_940_27733" fill="white">
<path d="M89.999 40C107.93 39.9991 114.902 52.3122 113.906 67.5C113.035 80.7886 106.296 87.9645 100.077 91.6182C108.137 92.6567 116.181 95.1778 121.547 100.448C131.072 109.803 133.906 126.396 133.906 142H45.9062C45.9062 126.396 48.7405 109.803 58.2656 100.448C63.6661 95.1442 71.7782 92.6268 79.8896 91.6006C73.6799 87.9412 66.9619 80.7663 66.0918 67.5C65.0957 52.3122 72.0687 40.0011 89.999 40Z"/>
</mask>
<path d="M89.999 40C107.93 39.9991 114.902 52.3122 113.906 67.5C113.035 80.7886 106.296 87.9645 100.077 91.6182C108.137 92.6567 116.181 95.1778 121.547 100.448C131.072 109.803 133.906 126.396 133.906 142H45.9062C45.9062 126.396 48.7405 109.803 58.2656 100.448C63.6661 95.1442 71.7782 92.6268 79.8896 91.6006C73.6799 87.9412 66.9619 80.7663 66.0918 67.5C65.0957 52.3122 72.0687 40.0011 89.999 40Z" fill="white"/>
<path d="M89.999 40L89.999 39H89.999L89.999 40ZM113.906 67.5L114.904 67.5654V67.5654L113.906 67.5ZM100.077 91.6182L99.5706 90.756L97.0508 92.2365L99.9494 92.61L100.077 91.6182ZM121.547 100.448L122.248 99.7348V99.7348L121.547 100.448ZM133.906 142V143H134.906V142H133.906ZM45.9062 142H44.9062V143H45.9062V142ZM58.2656 100.448L57.5649 99.7348H57.5649L58.2656 100.448ZM79.8896 91.6006L80.0152 92.5927L82.9193 92.2252L80.3973 90.739L79.8896 91.6006ZM66.0918 67.5L65.0939 67.5654V67.5654L66.0918 67.5ZM89.999 40L89.9991 41C98.7181 40.9995 104.625 43.9804 108.26 48.6671C111.922 53.388 113.397 59.9919 112.908 67.4346L113.906 67.5L114.904 67.5654C115.412 59.8203 113.899 52.6737 109.84 47.4413C105.755 42.1747 99.2104 38.9995 89.999 39L89.999 40ZM113.906 67.5L112.908 67.4346C112.061 80.3503 105.542 87.2474 99.5706 90.756L100.077 91.6182L100.584 92.4804C107.049 88.6815 114.008 81.227 114.904 67.5654L113.906 67.5ZM100.077 91.6182L99.9494 92.61C107.927 93.6379 115.71 96.1171 120.846 101.162L121.547 100.448L122.248 99.7348C116.651 94.2384 108.348 91.6756 100.205 90.6264L100.077 91.6182ZM121.547 100.448L120.846 101.162C125.436 105.669 128.459 111.969 130.331 119.133C132.202 126.293 132.906 134.251 132.906 142H133.906H134.906C134.906 134.144 134.194 126.004 132.266 118.628C130.34 111.257 127.183 104.582 122.248 99.7348L121.547 100.448ZM133.906 142V141H45.9062V142V143H133.906V142ZM45.9062 142H46.9062C46.9062 134.251 47.6107 126.293 49.4815 119.133C51.3538 111.969 54.3769 105.669 58.9663 101.162L58.2656 100.448L57.5649 99.7348C52.6293 104.582 49.4727 111.257 47.5465 118.628C45.619 126.004 44.9062 134.144 44.9062 142H45.9062ZM58.2656 100.448L58.9663 101.162C64.1354 96.0849 71.9855 93.6086 80.0152 92.5927L79.8896 91.6006L79.7641 90.6085C71.571 91.6451 63.1967 94.2035 57.5649 99.7348L58.2656 100.448ZM79.8896 91.6006L80.3973 90.739C74.4343 87.2251 67.9354 80.3288 67.0897 67.4346L66.0918 67.5L65.0939 67.5654C65.9885 81.2039 72.9254 88.6573 79.382 92.4621L79.8896 91.6006ZM66.0918 67.5L67.0897 67.4346C66.6015 59.9919 68.0765 53.3886 71.7382 48.6679C75.3733 43.9814 81.2801 41.0005 89.9991 41L89.999 40L89.999 39C80.7877 39.0005 74.2428 42.1758 70.1578 47.4421C66.0995 52.6742 64.586 59.8203 65.0939 67.5654L66.0918 67.5Z" fill="white" mask="url(#path-1-inside-1_940_27733)"/>
<mask id="path-3-inside-2_940_27733" fill="white">
<path d="M89.999 38C107.999 37.999 114.999 50.7599 113.999 66.5C113.1 80.6433 105.99 88.106 99.6128 91.7943C99.4202 91.9057 99.324 91.9614 99.2526 92.023C99.0771 92.1746 98.9672 92.365 98.9239 92.5928C98.9062 92.6855 98.9062 92.7903 98.9062 93C98.9062 93.2525 99.0832 93.4787 99.3341 93.5071C107.64 94.4465 116.016 96.8587 121.547 102.078C130.734 110.747 133.697 125.885 133.895 140.4C133.903 140.952 133.907 141.229 133.799 141.445C133.705 141.634 133.549 141.792 133.361 141.889C133.146 142 132.866 142 132.306 142H47.5062C46.9466 142 46.6668 142 46.4514 141.889C46.2636 141.792 46.1078 141.634 46.0137 141.445C45.9058 141.229 45.9096 140.952 45.9171 140.4C46.1159 125.885 49.0788 110.747 58.2656 102.078C63.7963 96.8592 72.1711 94.4478 80.4765 93.5081C80.7279 93.4797 80.9062 93.253 80.9062 93C80.9062 92.6887 80.9062 92.533 80.867 92.3971C80.8217 92.2401 80.747 92.1089 80.6351 91.9898C80.5382 91.8867 80.3974 91.8031 80.1158 91.636C73.8093 87.8942 66.8849 80.4439 65.999 66.5C64.999 50.76 71.9992 38.0011 89.999 38Z"/>
</mask>
<path d="M89.999 38C107.999 37.999 114.999 50.7599 113.999 66.5C113.1 80.6433 105.99 88.106 99.6128 91.7943C99.4202 91.9057 99.324 91.9614 99.2526 92.023C99.0771 92.1746 98.9672 92.365 98.9239 92.5928C98.9062 92.6855 98.9062 92.7903 98.9062 93C98.9062 93.2525 99.0832 93.4787 99.3341 93.5071C107.64 94.4465 116.016 96.8587 121.547 102.078C130.734 110.747 133.697 125.885 133.895 140.4C133.903 140.952 133.907 141.229 133.799 141.445C133.705 141.634 133.549 141.792 133.361 141.889C133.146 142 132.866 142 132.306 142H47.5062C46.9466 142 46.6668 142 46.4514 141.889C46.2636 141.792 46.1078 141.634 46.0137 141.445C45.9058 141.229 45.9096 140.952 45.9171 140.4C46.1159 125.885 49.0788 110.747 58.2656 102.078C63.7963 96.8592 72.1711 94.4478 80.4765 93.5081C80.7279 93.4797 80.9062 93.253 80.9062 93C80.9062 92.6887 80.9062 92.533 80.867 92.3971C80.8217 92.2401 80.747 92.1089 80.6351 91.9898C80.5382 91.8867 80.3974 91.8031 80.1158 91.636C73.8093 87.8942 66.8849 80.4439 65.999 66.5C64.999 50.76 71.9992 38.0011 89.999 38Z" fill="black"/>
<path d="M89.999 38L89.999 37H89.999L89.999 38ZM113.999 66.5L114.997 66.5634V66.5634L113.999 66.5ZM121.547 102.078L122.233 101.351L122.233 101.351L121.547 102.078ZM58.2656 102.078L57.5793 101.351L57.5793 101.351L58.2656 102.078ZM65.999 66.5L65.001 66.5634V66.5634L65.999 66.5ZM80.867 92.3971L79.9062 92.6745L80.867 92.3971ZM80.1158 91.636L80.626 90.776L80.1158 91.636ZM80.6351 91.9898L81.3639 91.3051L80.6351 91.9898ZM133.895 140.4L132.895 140.414L133.895 140.4ZM133.799 141.445L132.903 141L133.799 141.445ZM133.361 141.889L132.903 141L133.361 141.889ZM80.4765 93.5081L80.3641 92.5145L80.4765 93.5081ZM99.3341 93.5071L99.4465 92.5134L99.3341 93.5071ZM46.4514 141.889L46.909 141L46.4514 141.889ZM46.0137 141.445L46.909 141L46.0137 141.445ZM99.6128 91.7943L99.1122 90.9286L99.6128 91.7943ZM99.2526 92.023L99.9062 92.7798L99.2526 92.023ZM98.9239 92.5928L99.9062 92.7798L98.9239 92.5928ZM89.999 38L89.9991 39C98.7409 38.9995 104.67 42.0834 108.325 46.9478C112.009 51.8513 113.492 58.7111 113.001 66.4366L113.999 66.5L114.997 66.5634C115.506 58.5488 113.989 51.1581 109.924 45.7464C105.828 40.2955 99.2571 36.9995 89.999 37L89.999 38ZM113.999 66.5L113.001 66.4366C112.126 80.2081 105.235 87.3878 99.1122 90.9286L99.6128 91.7943L100.113 92.6599C106.746 88.8242 114.075 81.0784 114.997 66.5634L113.999 66.5ZM99.3341 93.5071L99.2217 94.5007C107.455 95.4319 115.566 97.8095 120.861 102.805L121.547 102.078L122.233 101.351C116.465 95.908 107.826 93.4611 99.4465 92.5134L99.3341 93.5071ZM121.547 102.078L120.861 102.805C129.731 111.176 132.697 125.943 132.895 140.414L133.895 140.4L134.895 140.387C134.696 125.827 131.736 110.318 122.233 101.351L121.547 102.078ZM132.306 142V141H47.5062V142V143H132.306V142ZM45.9171 140.4L46.917 140.414C47.1152 125.943 50.081 111.176 58.9519 102.805L58.2656 102.078L57.5793 101.351C48.0766 110.318 45.1166 125.827 44.9172 140.387L45.9171 140.4ZM58.2656 102.078L58.9519 102.805C64.2459 97.8099 72.3564 95.4333 80.589 94.5018L80.4765 93.5081L80.3641 92.5145C71.9857 93.4624 63.3468 95.9084 57.5793 101.351L58.2656 102.078ZM80.1158 91.636L80.626 90.776C74.572 87.184 67.8597 80.0155 66.997 66.4366L65.999 66.5L65.001 66.5634C65.9101 80.8724 73.0466 88.6045 79.6055 92.4961L80.1158 91.636ZM65.999 66.5L66.997 66.4366C66.5062 58.7111 67.9894 51.8519 71.6736 46.9486C75.3283 42.0845 81.2573 39.0005 89.9991 39L89.999 38L89.999 37C80.741 37.0006 74.17 40.2966 70.0746 45.7472C66.0087 51.1586 64.4919 58.5488 65.001 66.5634L65.999 66.5ZM80.9062 93H81.9062C81.9062 92.7519 81.9158 92.4245 81.8278 92.1197L80.867 92.3971L79.9062 92.6745C79.8966 92.6409 79.8999 92.6301 79.9027 92.6844C79.9059 92.7475 79.9062 92.8343 79.9062 93H80.9062ZM80.1158 91.636L79.6055 92.4961C79.7548 92.5846 79.8354 92.6328 79.8924 92.6706C79.944 92.7047 79.9325 92.7024 79.9062 92.6745L80.6351 91.9898L81.3639 91.3051C81.1459 91.0731 80.8493 90.9085 80.626 90.776L80.1158 91.636ZM80.867 92.3971L81.8278 92.1197C81.7385 91.8104 81.5843 91.5397 81.3639 91.3051L80.6351 91.9898L79.9062 92.6745V92.6745L80.867 92.3971ZM133.895 140.4L132.895 140.414C132.899 140.707 132.901 140.865 132.893 140.979C132.886 141.078 132.876 141.056 132.903 141L133.799 141.445L134.694 141.891C134.83 141.618 134.872 141.349 134.888 141.119C134.903 140.902 134.899 140.646 134.895 140.387L133.895 140.4ZM132.306 142V143C132.569 143 132.828 143.001 133.046 142.983C133.276 142.964 133.547 142.918 133.819 142.778L133.361 141.889L132.903 141C132.96 140.971 132.983 140.981 132.88 140.99C132.764 140.999 132.603 141 132.306 141V142ZM133.799 141.445L132.903 141V141L133.361 141.889L133.819 142.778C134.196 142.584 134.505 142.271 134.694 141.891L133.799 141.445ZM80.4765 93.5081L80.589 94.5018C81.4116 94.4087 81.9062 93.6927 81.9062 93H80.9062H79.9062C79.9062 92.8132 80.0442 92.5507 80.3641 92.5145L80.4765 93.5081ZM98.9062 93H97.9062C97.9062 93.6893 98.3968 94.4074 99.2217 94.5007L99.3341 93.5071L99.4465 92.5134C99.7696 92.5499 99.9062 92.8157 99.9062 93H98.9062ZM47.5062 142V141C47.2097 141 47.0483 140.999 46.9325 140.99C46.8292 140.981 46.8521 140.971 46.909 141L46.4514 141.889L45.9937 142.778C46.266 142.918 46.5365 142.964 46.7669 142.983C46.9848 143.001 47.2432 143 47.5062 143V142ZM45.9171 140.4L44.9172 140.387C44.9137 140.646 44.9094 140.902 44.9246 141.119C44.9408 141.349 44.9827 141.618 45.1184 141.891L46.0137 141.445L46.909 141C46.9368 141.056 46.9267 141.078 46.9197 140.979C46.9117 140.865 46.913 140.707 46.917 140.414L45.9171 140.4ZM46.4514 141.889L46.909 141V141L46.0137 141.445L45.1184 141.891C45.3073 142.271 45.6165 142.584 45.9937 142.778L46.4514 141.889ZM99.6128 91.7943L99.1122 90.9286C98.9593 91.0171 98.7597 91.1274 98.5989 91.2662L99.2526 92.023L99.9062 92.7798C99.8862 92.7971 99.8792 92.799 99.916 92.7761C99.9559 92.7512 100.012 92.7189 100.113 92.6599L99.6128 91.7943ZM98.9062 93H99.9062C99.9062 92.8885 99.9064 92.8298 99.9079 92.7869C99.9092 92.7495 99.9107 92.7563 99.9062 92.7798L98.9239 92.5928L97.9415 92.4059C97.902 92.6138 97.9062 92.8326 97.9062 93H98.9062ZM99.2526 92.023L98.5989 91.2662C98.2527 91.5652 98.027 91.9565 97.9415 92.4059L98.9239 92.5928L99.9062 92.7798V92.7798L99.2526 92.023Z" fill="white" mask="url(#path-3-inside-2_940_27733)"/>
<path d="M126.835 103.841C128.253 101.386 131.796 101.386 133.214 103.841L152.55 137.332C153.967 139.788 152.196 142.857 149.36 142.857H110.688C107.853 142.857 106.081 139.788 107.499 137.332L126.835 103.841Z" fill="black"/>
<path d="M125.701 105.342C126.734 103.553 129.315 103.553 130.348 105.342L149.684 138.832C150.716 140.621 149.426 142.856 147.36 142.856H108.688C106.623 142.856 105.333 140.621 106.365 138.832L125.701 105.342Z" fill="white" stroke="black" stroke-width="2"/>
<path d="M128 130L128 117" stroke="black" stroke-width="3"/>
<path d="M130 134H126" stroke="black" stroke-width="3"/>
</svg>
