<svg width="180" height="180" viewBox="0 0 180 180" fill="none" xmlns="http://www.w3.org/2000/svg">
<path d="M89.999 38C107.999 37.999 114.999 50.7599 113.999 66.5C113.116 80.4014 106.231 87.8485 99.9404 91.6016C108.046 92.6292 116.15 95.148 121.547 100.448C131.072 109.803 133.906 126.396 133.906 142H45.9062C45.9062 126.396 48.7405 109.803 58.2656 100.448C63.696 95.1148 71.8681 92.5983 80.0244 91.583C73.7425 87.8236 66.8807 80.3771 65.999 66.5C64.999 50.76 71.9992 38.0011 89.999 38Z" fill="black"/>
<mask id="path-2-inside-1_940_27707" fill="white">
<path d="M89.999 38C107.999 37.999 114.999 50.7599 113.999 66.5C113.1 80.6433 105.99 88.106 99.6128 91.7943C99.4202 91.9057 99.324 91.9614 99.2526 92.023C99.0771 92.1746 98.9672 92.365 98.9239 92.5928C98.9062 92.6855 98.9062 92.7903 98.9062 93C98.9062 93.2525 99.0832 93.4787 99.3341 93.5071C107.64 94.4465 116.016 96.8587 121.547 102.078C130.734 110.747 133.697 125.885 133.895 140.4C133.903 140.952 133.907 141.229 133.799 141.445C133.705 141.634 133.549 141.792 133.361 141.889C133.146 142 132.866 142 132.306 142H47.5062C46.9466 142 46.6668 142 46.4514 141.889C46.2636 141.792 46.1078 141.634 46.0137 141.445C45.9058 141.229 45.9096 140.952 45.9171 140.4C46.1159 125.885 49.0788 110.747 58.2656 102.078C63.7963 96.8592 72.1711 94.4478 80.4765 93.5081C80.7279 93.4797 80.9062 93.253 80.9062 93C80.9062 92.6887 80.9062 92.533 80.867 92.3971C80.8217 92.2401 80.747 92.1089 80.6351 91.9898C80.5382 91.8867 80.3974 91.8031 80.1158 91.636C73.8093 87.8942 66.8849 80.4439 65.999 66.5C64.999 50.76 71.9992 38.0011 89.999 38Z"/>
</mask>
<path d="M89.999 38C107.999 37.999 114.999 50.7599 113.999 66.5C113.1 80.6433 105.99 88.106 99.6128 91.7943C99.4202 91.9057 99.324 91.9614 99.2526 92.023C99.0771 92.1746 98.9672 92.365 98.9239 92.5928C98.9062 92.6855 98.9062 92.7903 98.9062 93C98.9062 93.2525 99.0832 93.4787 99.3341 93.5071C107.64 94.4465 116.016 96.8587 121.547 102.078C130.734 110.747 133.697 125.885 133.895 140.4C133.903 140.952 133.907 141.229 133.799 141.445C133.705 141.634 133.549 141.792 133.361 141.889C133.146 142 132.866 142 132.306 142H47.5062C46.9466 142 46.6668 142 46.4514 141.889C46.2636 141.792 46.1078 141.634 46.0137 141.445C45.9058 141.229 45.9096 140.952 45.9171 140.4C46.1159 125.885 49.0788 110.747 58.2656 102.078C63.7963 96.8592 72.1711 94.4478 80.4765 93.5081C80.7279 93.4797 80.9062 93.253 80.9062 93C80.9062 92.6887 80.9062 92.533 80.867 92.3971C80.8217 92.2401 80.747 92.1089 80.6351 91.9898C80.5382 91.8867 80.3974 91.8031 80.1158 91.636C73.8093 87.8942 66.8849 80.4439 65.999 66.5C64.999 50.76 71.9992 38.0011 89.999 38Z" fill="white"/>
<path d="M89.999 38L89.999 37H89.999L89.999 38ZM113.999 66.5L114.997 66.5634V66.5634L113.999 66.5ZM121.547 102.078L122.233 101.351L122.233 101.351L121.547 102.078ZM58.2656 102.078L57.5793 101.351L57.5793 101.351L58.2656 102.078ZM65.999 66.5L65.001 66.5634V66.5634L65.999 66.5ZM80.867 92.3971L79.9062 92.6745L80.867 92.3971ZM80.1158 91.636L80.626 90.776L80.1158 91.636ZM80.6351 91.9898L81.3639 91.3051L80.6351 91.9898ZM133.895 140.4L132.895 140.414L133.895 140.4ZM133.799 141.445L132.903 141L133.799 141.445ZM133.361 141.889L132.903 141L133.361 141.889ZM80.4765 93.5081L80.3641 92.5145L80.4765 93.5081ZM99.3341 93.5071L99.4465 92.5134L99.3341 93.5071ZM46.4514 141.889L46.909 141L46.4514 141.889ZM46.0137 141.445L46.909 141L46.0137 141.445ZM99.6128 91.7943L99.1122 90.9286L99.6128 91.7943ZM99.2526 92.023L99.9062 92.7798L99.2526 92.023ZM98.9239 92.5928L99.9062 92.7798L98.9239 92.5928ZM89.999 38L89.9991 39C98.7409 38.9995 104.67 42.0834 108.325 46.9478C112.009 51.8513 113.492 58.7111 113.001 66.4366L113.999 66.5L114.997 66.5634C115.506 58.5488 113.989 51.1581 109.924 45.7464C105.828 40.2955 99.2571 36.9995 89.999 37L89.999 38ZM113.999 66.5L113.001 66.4366C112.126 80.2081 105.235 87.3878 99.1122 90.9286L99.6128 91.7943L100.113 92.6599C106.746 88.8242 114.075 81.0784 114.997 66.5634L113.999 66.5ZM99.3341 93.5071L99.2217 94.5007C107.455 95.4319 115.566 97.8095 120.861 102.805L121.547 102.078L122.233 101.351C116.465 95.908 107.826 93.4611 99.4465 92.5134L99.3341 93.5071ZM121.547 102.078L120.861 102.805C129.731 111.176 132.697 125.943 132.895 140.414L133.895 140.4L134.895 140.387C134.696 125.827 131.736 110.318 122.233 101.351L121.547 102.078ZM132.306 142V141H47.5062V142V143H132.306V142ZM45.9171 140.4L46.917 140.414C47.1152 125.943 50.081 111.176 58.9519 102.805L58.2656 102.078L57.5793 101.351C48.0766 110.318 45.1166 125.827 44.9172 140.387L45.9171 140.4ZM58.2656 102.078L58.9519 102.805C64.2459 97.8099 72.3564 95.4333 80.589 94.5018L80.4765 93.5081L80.3641 92.5145C71.9857 93.4624 63.3468 95.9084 57.5793 101.351L58.2656 102.078ZM80.1158 91.636L80.626 90.776C74.572 87.184 67.8597 80.0155 66.997 66.4366L65.999 66.5L65.001 66.5634C65.9101 80.8724 73.0466 88.6045 79.6055 92.4961L80.1158 91.636ZM65.999 66.5L66.997 66.4366C66.5062 58.7111 67.9894 51.8519 71.6736 46.9486C75.3283 42.0845 81.2573 39.0005 89.9991 39L89.999 38L89.999 37C80.741 37.0006 74.17 40.2966 70.0746 45.7472C66.0087 51.1586 64.4919 58.5488 65.001 66.5634L65.999 66.5ZM80.9062 93H81.9062C81.9062 92.7519 81.9158 92.4245 81.8278 92.1197L80.867 92.3971L79.9062 92.6745C79.8966 92.6409 79.8999 92.6301 79.9027 92.6844C79.9059 92.7475 79.9062 92.8343 79.9062 93H80.9062ZM80.1158 91.636L79.6055 92.4961C79.7548 92.5846 79.8354 92.6328 79.8924 92.6706C79.944 92.7047 79.9325 92.7024 79.9062 92.6745L80.6351 91.9898L81.3639 91.3051C81.1459 91.0731 80.8493 90.9085 80.626 90.776L80.1158 91.636ZM80.867 92.3971L81.8278 92.1197C81.7385 91.8104 81.5843 91.5397 81.3639 91.3051L80.6351 91.9898L79.9062 92.6745V92.6745L80.867 92.3971ZM133.895 140.4L132.895 140.414C132.899 140.707 132.901 140.865 132.893 140.979C132.886 141.078 132.876 141.056 132.903 141L133.799 141.445L134.694 141.891C134.83 141.618 134.872 141.349 134.888 141.119C134.903 140.902 134.899 140.646 134.895 140.387L133.895 140.4ZM132.306 142V143C132.569 143 132.828 143.001 133.046 142.983C133.276 142.964 133.547 142.918 133.819 142.778L133.361 141.889L132.903 141C132.96 140.971 132.983 140.981 132.88 140.99C132.764 140.999 132.603 141 132.306 141V142ZM133.799 141.445L132.903 141V141L133.361 141.889L133.819 142.778C134.196 142.584 134.505 142.271 134.694 141.891L133.799 141.445ZM80.4765 93.5081L80.589 94.5018C81.4116 94.4087 81.9062 93.6927 81.9062 93H80.9062H79.9062C79.9062 92.8132 80.0442 92.5507 80.3641 92.5145L80.4765 93.5081ZM98.9062 93H97.9062C97.9062 93.6893 98.3968 94.4074 99.2217 94.5007L99.3341 93.5071L99.4465 92.5134C99.7696 92.5499 99.9062 92.8157 99.9062 93H98.9062ZM47.5062 142V141C47.2097 141 47.0483 140.999 46.9325 140.99C46.8292 140.981 46.8521 140.971 46.909 141L46.4514 141.889L45.9937 142.778C46.266 142.918 46.5365 142.964 46.7669 142.983C46.9848 143.001 47.2432 143 47.5062 143V142ZM45.9171 140.4L44.9172 140.387C44.9137 140.646 44.9094 140.902 44.9246 141.119C44.9408 141.349 44.9827 141.618 45.1184 141.891L46.0137 141.445L46.909 141C46.9368 141.056 46.9267 141.078 46.9197 140.979C46.9117 140.865 46.913 140.707 46.917 140.414L45.9171 140.4ZM46.4514 141.889L46.909 141V141L46.0137 141.445L45.1184 141.891C45.3073 142.271 45.6165 142.584 45.9937 142.778L46.4514 141.889ZM99.6128 91.7943L99.1122 90.9286C98.9593 91.0171 98.7597 91.1274 98.5989 91.2662L99.2526 92.023L99.9062 92.7798C99.8862 92.7971 99.8792 92.799 99.916 92.7761C99.9559 92.7512 100.012 92.7189 100.113 92.6599L99.6128 91.7943ZM98.9062 93H99.9062C99.9062 92.8885 99.9064 92.8298 99.9079 92.7869C99.9092 92.7495 99.9107 92.7563 99.9062 92.7798L98.9239 92.5928L97.9415 92.4059C97.902 92.6138 97.9062 92.8326 97.9062 93H98.9062ZM99.2526 92.023L98.5989 91.2662C98.2527 91.5652 98.027 91.9565 97.9415 92.4059L98.9239 92.5928L99.9062 92.7798V92.7798L99.2526 92.023Z" fill="black" mask="url(#path-2-inside-1_940_27707)"/>
<path d="M128.268 103.092C129.493 100.97 132.556 100.97 133.781 103.092L153.117 136.582C154.342 138.704 152.811 141.356 150.36 141.356H111.688C109.238 141.356 107.707 138.704 108.932 136.582L128.268 103.092Z" fill="white" stroke="black"/>
<path d="M125.268 105.092C126.493 102.97 129.556 102.97 130.781 105.092L150.117 138.582C151.342 140.704 149.811 143.356 147.36 143.356H108.688C106.238 143.356 104.707 140.704 105.932 138.582L125.268 105.092Z" fill="black" stroke="black"/>
<path d="M128 130L128 117" stroke="white" stroke-width="3"/>
<path d="M130 134H126" stroke="white" stroke-width="3"/>
</svg>
