<svg width="180" height="180" viewBox="0 0 180 180" fill="none" xmlns="http://www.w3.org/2000/svg">
<rect x="44" y="35" width="98" height="101" rx="5" fill="white" stroke="black"/>
<mask id="mask0_933_30208" maskUnits="userSpaceOnUse" x="44" y="35" width="98" height="101">
<path d="M137 35C139.761 35 142 37.2386 142 40V131C142 133.761 139.761 136 137 136H84V57.4238C83.9999 55.6176 83.0254 53.9519 81.4512 53.0664L51.4512 36.1914C48.1183 34.3167 44.0003 36.725 44 40.5488V40C44 37.2386 46.2386 35 49 35H137ZM44 130.151C44 131.125 44.1425 132.079 44.4111 132.987C44.147 132.378 44 131.706 44 131V130.151Z" fill="white"/>
</mask>
<g mask="url(#mask0_933_30208)">
<rect x="44" y="44" width="89" height="85" fill="black"/>
<rect x="56" y="49" width="71" height="11" fill="#A8A8A8" stroke="black"/>
<rect x="56" y="60" width="71" height="11" fill="#DDDDDD" stroke="black"/>
<rect x="56" y="71" width="71" height="51" fill="white" stroke="black"/>
</g>
<path d="M44 39.3522C44 36.0634 47.5417 33.992 50.4081 35.6044L81.4513 53.0662C83.0257 53.9518 84 55.6177 84 57.4241V149.951C84 153.775 79.8817 156.183 76.5487 154.308L49.0974 138.867C45.9486 137.096 44 133.764 44 130.151L44 39.3522Z" fill="white" stroke="black"/>
<path d="M75.5 96.9244C75.5 94.6774 77.8792 93.228 79.8759 94.2585L88.2932 98.6029C89.9556 99.461 91 101.175 91 103.046V119.076C91 121.323 88.6208 122.772 86.6241 121.741L78.2068 117.397C76.5444 116.539 75.5 114.825 75.5 112.954V96.9244Z" fill="#C6D5E0"/>
<path d="M75.5 96.9244C75.5 94.6774 77.8792 93.228 79.8759 94.2585L88.2932 98.6029C89.9556 99.461 91 101.175 91 103.046V119.076C91 121.323 88.6208 122.772 86.6241 121.741L78.2068 117.397C76.5444 116.539 75.5 114.825 75.5 112.954V96.9244Z" fill="white"/>
<path d="M75.5 96.9244C75.5 94.6774 77.8792 93.228 79.8759 94.2585L88.2932 98.6029C89.9556 99.461 91 101.175 91 103.046V119.076C91 121.323 88.6208 122.772 86.6241 121.741L78.2068 117.397C76.5444 116.539 75.5 114.825 75.5 112.954V96.9244Z" stroke="black"/>
<rect x="48.1992" y="35.5" width="23" height="2" fill="white"/>
</svg>
