<svg width="180" height="180" viewBox="0 0 180 180" fill="none" xmlns="http://www.w3.org/2000/svg">
<rect x="44" y="35" width="98" height="101" rx="5" fill="white" stroke="black"/>
<mask id="mask0_2052_24224" maskUnits="userSpaceOnUse" x="44" y="35" width="98" height="101">
<path d="M137 35C139.761 35 142 37.2386 142 40V131C142 133.761 139.761 136 137 136H84V57.4238C83.9999 55.6176 83.0254 53.9519 81.4512 53.0664L51.4512 36.1914C48.1183 34.3167 44.0003 36.725 44 40.5488V40C44 37.2386 46.2386 35 49 35H137ZM44 130.151C44 131.125 44.1425 132.079 44.4111 132.987C44.147 132.378 44 131.706 44 131V130.151Z" fill="white"/>
</mask>
<g mask="url(#mask0_2052_24224)">
<rect x="44" y="44" width="89" height="85" fill="black"/>
<rect x="56" y="49" width="71" height="11" fill="#A8A8A8" stroke="black"/>
<rect x="56" y="60" width="71" height="11" fill="#DDDDDD" stroke="black"/>
<rect x="56" y="71" width="71" height="51" fill="white" stroke="black"/>
</g>
<path d="M44 39.3522C44 36.0634 47.5417 33.992 50.4081 35.6044L81.4513 53.0662C83.0257 53.9518 84 55.6177 84 57.4241V149.951C84 153.775 79.8817 156.183 76.5487 154.308L49.0974 138.867C45.9486 137.096 44 133.764 44 130.151L44 39.3522Z" fill="white" stroke="black"/>
<path d="M75.5 96.9244C75.5 94.6774 77.8792 93.228 79.8759 94.2585L88.2932 98.6029C89.9556 99.461 91 101.175 91 103.046V119.076C91 121.323 88.6208 122.772 86.6241 121.741L78.2068 117.397C76.5444 116.539 75.5 114.825 75.5 112.954V96.9244Z" fill="#C6D5E0"/>
<path d="M75.5 96.9244C75.5 94.6774 77.8792 93.228 79.8759 94.2585L88.2932 98.6029C89.9556 99.461 91 101.175 91 103.046V119.076C91 121.323 88.6208 122.772 86.6241 121.741L78.2068 117.397C76.5444 116.539 75.5 114.825 75.5 112.954V96.9244Z" fill="white"/>
<path d="M75.5 96.9244C75.5 94.6774 77.8792 93.228 79.8759 94.2585L88.2932 98.6029C89.9556 99.461 91 101.175 91 103.046V119.076C91 121.323 88.6208 122.772 86.6241 121.741L78.2068 117.397C76.5444 116.539 75.5 114.825 75.5 112.954V96.9244Z" stroke="black"/>
<rect x="48.2031" y="35.5" width="23" height="2" fill="white"/>
<rect x="109.5" y="102.5" width="43" height="44" rx="21.5" fill="#C6D5E0"/>
<rect x="109.5" y="102.5" width="43" height="44" rx="21.5" fill="black"/>
<rect x="109.5" y="102.5" width="43" height="44" rx="21.5" stroke="black"/>
<rect x="106.5" y="104.5" width="44" height="45" rx="22" fill="#C6D5E0"/>
<rect x="106.5" y="104.5" width="44" height="45" rx="22" fill="#3EDC2F"/>
<rect x="106.5" y="104.5" width="44" height="45" rx="22" stroke="black"/>
<mask id="path-12-outside-1_2052_24224" maskUnits="userSpaceOnUse" x="116" y="114" width="26" height="26" fill="black">
<rect fill="white" x="116" y="114" width="26" height="26"/>
<path d="M131 124H140L139.999 128.999H131V138L126.001 137.999L126 128.999L117 129V124H126V115H131V124Z"/>
</mask>
<path d="M131 124H140L139.999 128.999H131V138L126.001 137.999L126 128.999L117 129V124H126V115H131V124Z" fill="white"/>
<path d="M131 124H130V125H131V124ZM140 124L141 124L141 123H140V124ZM139.999 128.999V129.999H140.999L140.999 128.999L139.999 128.999ZM131 128.999V127.999H130V128.999H131ZM131 138L131 139L132 139V138H131ZM126.001 137.999L125.001 137.999L125.001 138.999L126.001 138.999L126.001 137.999ZM126 128.999L127 128.999L127 127.999L126 127.999L126 128.999ZM117 129H116V130L117 130L117 129ZM117 124V123H116V124H117ZM126 124V125H127V124H126ZM126 115V114H125V115H126ZM131 115H132V114H131V115ZM131 124V125H140V124V123H131V124ZM140 124L139 124L138.999 128.999L139.999 128.999L140.999 128.999L141 124L140 124ZM139.999 128.999V127.999H131V128.999V129.999H139.999V128.999ZM131 128.999H130V138H131H132V128.999H131ZM131 138L131 137L126.001 136.999L126.001 137.999L126.001 138.999L131 139L131 138ZM126.001 137.999L127.001 137.999L127 128.999L126 128.999L125 128.999L125.001 137.999L126.001 137.999ZM126 128.999L126 127.999L117 128L117 129L117 130L126 129.999L126 128.999ZM117 129H118V124H117H116V129H117ZM117 124V125H126V124V123H117V124ZM126 124H127V115H126H125V124H126ZM126 115V116H131V115V114H126V115ZM131 115H130V124H131H132V115H131Z" fill="black" mask="url(#path-12-outside-1_2052_24224)"/>
</svg>
