<svg width="180" height="180" viewBox="0 0 180 180" fill="none" xmlns="http://www.w3.org/2000/svg">
  <path d="M52 42H139.5V56H152V83.5V96V125H52C48.134 125 45 121.866 45 118V56V49C45 45.134 48.134 42 52 42Z" fill="white" />
  <path d="M50 44H137.5V58H150V127H50C46.134 127 43 123.866 43 120V58V51C43 47.134 46.134 44 50 44Z" fill="black" stroke="white" />
  <path d="M151 96V83.5H125.75C122.298 83.5 119.5 86.2982 119.5 89.75C119.5 93.2018 122.298 96 125.75 96H151Z" fill="white" stroke="white" />
  <path d="M150 98V85.5H124.75C121.298 85.5 118.5 88.2982 118.5 91.75C118.5 95.2018 122.298 98 124.75 98H150Z" fill="black" stroke="white" />
  <path d="M50 44H137.5V58H50C46.134 58 43 54.866 43 51C43 47.134 46.134 44 50 44Z" fill="black" stroke="white" />
  <path d="M71.5 89.5V90L71.498 109.761V109.766C71.4244 117.31 69.4516 122.362 65.7754 126.386C62.1279 130.378 56.8322 133.321 50.2285 136.723L50 136.84L49.7715 136.723C43.1678 133.321 37.8721 130.378 34.2246 126.386C30.5484 122.362 28.5756 117.31 28.502 109.766V109.761L28.5 90V89.5H71.5Z" fill="white" stroke="black" />
  <path d="M69.5 91.5V92L69.498 111.761V111.766C69.4244 119.31 67.4516 124.362 63.7754 128.386C60.1279 132.378 54.8322 135.321 48.2285 138.723L48 138.84L47.7715 138.723C41.1678 135.321 35.8721 132.378 32.2246 128.386C28.5484 124.362 26.5756 119.31 26.502 111.766V111.761L26.5 92V91.5H69.5Z" fill="#3EDC2F" stroke="black" />
  <rect x="44.5" y="98.5" width="7" height="15" fill="white" stroke="black" />
  <rect x="44.5" y="119.5" width="7" height="7" fill="white" stroke="black" />
</svg>
