<svg width="180" height="180" viewBox="0 0 180 180" fill="none" xmlns="http://www.w3.org/2000/svg">
<rect x="44" y="35" width="98" height="101" rx="5" fill="black" stroke="white"/>
<rect x="50" y="44" width="83" height="85" fill="black" stroke="#4D4D4D"/>
<path d="M56 49H127V60H56V49Z" fill="#1B1B1B" stroke="white"/>
<path d="M56 60H127V71H56V60Z" fill="#4D4D4D" stroke="white"/>
<path d="M56 71H127V122H56V71Z" fill="#7F7F7F" stroke="white"/>
<path d="M44 39.3522C44 36.0634 47.5417 33.992 50.4081 35.6044L81.4513 53.0662C83.0257 53.9518 84 55.6177 84 57.4241V149.951C84 153.775 79.8817 156.183 76.5487 154.308L49.0974 138.867C45.9486 137.096 44 133.764 44 130.151L44 39.3522Z" fill="black" stroke="white"/>
<rect x="48" y="35.5" width="24" height="2" fill="black"/>
<path d="M75.5 96.9244C75.5 94.6774 77.8792 93.228 79.8759 94.2585L88.2932 98.6029C89.9556 99.461 91 101.175 91 103.046V119.076C91 121.323 88.6208 122.772 86.6241 121.741L78.2068 117.397C76.5444 116.539 75.5 114.825 75.5 112.954V96.9244Z" fill="#C6D5E0"/>
<path d="M75.5 96.9244C75.5 94.6774 77.8792 93.228 79.8759 94.2585L88.2932 98.6029C89.9556 99.461 91 101.175 91 103.046V119.076C91 121.323 88.6208 122.772 86.6241 121.741L78.2068 117.397C76.5444 116.539 75.5 114.825 75.5 112.954V96.9244Z" fill="black"/>
<path d="M75.5 96.9244C75.5 94.6774 77.8792 93.228 79.8759 94.2585L88.2932 98.6029C89.9556 99.461 91 101.175 91 103.046V119.076C91 121.323 88.6208 122.772 86.6241 121.741L78.2068 117.397C76.5444 116.539 75.5 114.825 75.5 112.954V96.9244Z" stroke="white"/>
</svg>
