<svg width="180" height="180" viewBox="0 0 180 180" fill="none" xmlns="http://www.w3.org/2000/svg">
<rect x="44" y="35" width="98" height="101" rx="5" fill="black" stroke="white"/>
<rect x="50" y="44" width="83" height="85" fill="black" stroke="#4D4D4D"/>
<path d="M56 49H127V60H56V49Z" fill="#1B1B1B" stroke="white"/>
<path d="M56 60H127V71H56V60Z" fill="#4D4D4D" stroke="white"/>
<path d="M56 71H127V122H56V71Z" fill="#7F7F7F" stroke="white"/>
<path d="M44 39.3522C44 36.0634 47.5417 33.992 50.4081 35.6044L81.4513 53.0662C83.0257 53.9518 84 55.6177 84 57.4241V149.951C84 153.775 79.8817 156.183 76.5487 154.308L49.0974 138.867C45.9486 137.096 44 133.764 44 130.151L44 39.3522Z" fill="black" stroke="white"/>
<rect x="48" y="35.5" width="24" height="2" fill="black"/>
<path d="M75.5 96.9244C75.5 94.6774 77.8792 93.228 79.8759 94.2585L88.2932 98.6029C89.9556 99.461 91 101.175 91 103.046V119.076C91 121.323 88.6208 122.772 86.6241 121.741L78.2068 117.397C76.5444 116.539 75.5 114.825 75.5 112.954V96.9244Z" fill="#C6D5E0"/>
<path d="M75.5 96.9244C75.5 94.6774 77.8792 93.228 79.8759 94.2585L88.2932 98.6029C89.9556 99.461 91 101.175 91 103.046V119.076C91 121.323 88.6208 122.772 86.6241 121.741L78.2068 117.397C76.5444 116.539 75.5 114.825 75.5 112.954V96.9244Z" fill="black"/>
<path d="M75.5 96.9244C75.5 94.6774 77.8792 93.228 79.8759 94.2585L88.2932 98.6029C89.9556 99.461 91 101.175 91 103.046V119.076C91 121.323 88.6208 122.772 86.6241 121.741L78.2068 117.397C76.5444 116.539 75.5 114.825 75.5 112.954V96.9244Z" stroke="white"/>
<rect x="109.5" y="102.5" width="43" height="44" rx="21.5" fill="#C6D5E0"/>
<rect x="109.5" y="102.5" width="43" height="44" rx="21.5" fill="black"/>
<rect x="109.5" y="102.5" width="43" height="44" rx="21.5" stroke="black"/>
<path d="M128.5 105C140.374 105 150 114.626 150 126.5V127.5C150 139.374 140.374 149 128.5 149C116.626 149 107 139.374 107 127.5V126.5C107 114.626 116.626 105 128.5 105Z" fill="#C6D5E0"/>
<path d="M128.5 105C140.374 105 150 114.626 150 126.5V127.5C150 139.374 140.374 149 128.5 149C116.626 149 107 139.374 107 127.5V126.5C107 114.626 116.626 105 128.5 105Z" fill="white"/>
<path d="M128.5 105C140.374 105 150 114.626 150 126.5V127.5C150 139.374 140.374 149 128.5 149C116.626 149 107 139.374 107 127.5V126.5C107 114.626 116.626 105 128.5 105Z" stroke="black" stroke-width="2"/>
<mask id="path-11-outside-1_941_28893" maskUnits="userSpaceOnUse" x="116" y="114" width="26" height="26" fill="black">
<rect fill="white" x="116" y="114" width="26" height="26"/>
<path d="M131 124H140L139.999 128.999H131V138L126.001 137.999L126 128.999L117 129V124H126V115H131V124Z"/>
</mask>
<path d="M131 124H140L139.999 128.999H131V138L126.001 137.999L126 128.999L117 129V124H126V115H131V124Z" fill="black"/>
<path d="M131 124H130V125H131V124ZM140 124L141 124L141 123H140V124ZM139.999 128.999V129.999H140.999L140.999 128.999L139.999 128.999ZM131 128.999V127.999H130V128.999H131ZM131 138L131 139L132 139V138H131ZM126.001 137.999L125.001 137.999L125.001 138.999L126.001 138.999L126.001 137.999ZM126 128.999L127 128.999L127 127.999L126 127.999L126 128.999ZM117 129H116V130L117 130L117 129ZM117 124V123H116V124H117ZM126 124V125H127V124H126ZM126 115V114H125V115H126ZM131 115H132V114H131V115ZM131 124V125H140V124V123H131V124ZM140 124L139 124L138.999 128.999L139.999 128.999L140.999 128.999L141 124L140 124ZM139.999 128.999V127.999H131V128.999V129.999H139.999V128.999ZM131 128.999H130V138H131H132V128.999H131ZM131 138L131 137L126.001 136.999L126.001 137.999L126.001 138.999L131 139L131 138ZM126.001 137.999L127.001 137.999L127 128.999L126 128.999L125 128.999L125.001 137.999L126.001 137.999ZM126 128.999L126 127.999L117 128L117 129L117 130L126 129.999L126 128.999ZM117 129H118V124H117H116V129H117ZM117 124V125H126V124V123H117V124ZM126 124H127V115H126H125V124H126ZM126 115V116H131V115V114H126V115ZM131 115H130V124H131H132V115H131Z" fill="black" mask="url(#path-11-outside-1_941_28893)"/>
</svg>
