<svg width="180" height="180" viewBox="0 0 180 180" fill="none" xmlns="http://www.w3.org/2000/svg">
<mask id="path-1-inside-1_993_37943" fill="white">
<path d="M93.5 39.0002C120.838 39.0002 143 61.1621 143 88.5002C143 109.088 130.43 126.738 112.547 134.2C105.199 138.52 96.6397 141 87.5 141C60.1619 141 38 118.838 38 91.5002C38 70.9124 50.5692 53.2612 68.4521 45.7991C75.8001 41.4795 84.3601 39.0002 93.5 39.0002Z"/>
</mask>
<path d="M93.5 39.0002C120.838 39.0002 143 61.1621 143 88.5002C143 109.088 130.43 126.738 112.547 134.2C105.199 138.52 96.6397 141 87.5 141C60.1619 141 38 118.838 38 91.5002C38 70.9124 50.5692 53.2612 68.4521 45.7991C75.8001 41.4795 84.3601 39.0002 93.5 39.0002Z" fill="black"/>
<path d="M112.547 134.2L112.162 133.278L112.099 133.304L112.04 133.338L112.547 134.2ZM68.4521 45.7991L68.8372 46.722L68.9002 46.6957L68.9589 46.6612L68.4521 45.7991ZM93.5 39.0002V40.0002C120.286 40.0002 142 61.7144 142 88.5002H143H144C144 60.6099 121.39 38.0002 93.5 38.0002V39.0002ZM143 88.5002H142C142 108.671 129.686 125.965 112.162 133.278L112.547 134.2L112.932 135.123C131.174 127.511 144 109.506 144 88.5002H143ZM112.547 134.2L112.04 133.338C104.841 137.57 96.4564 140 87.5 140V141V142C96.823 142 105.557 139.47 113.054 135.063L112.547 134.2ZM87.5 141V140C60.7142 140 39 118.286 39 91.5002H38H37C37 119.391 59.6096 142 87.5 142V141ZM38 91.5002H39C39 71.3299 51.3136 54.0341 68.8372 46.722L68.4521 45.7991L68.0671 44.8762C49.8248 52.4882 37 70.4949 37 91.5002H38ZM68.4521 45.7991L68.9589 46.6612C76.1577 42.4294 84.5433 40.0002 93.5 40.0002V39.0002V38.0002C84.1769 38.0002 75.4426 40.5297 67.9454 44.937L68.4521 45.7991Z" fill="white" mask="url(#path-1-inside-1_993_37943)"/>
<mask id="mask0_993_37943" maskUnits="userSpaceOnUse" x="44" y="40" width="97" height="98">
<circle cx="92.5" cy="88.5005" r="48" fill="black" stroke="black"/>
</mask>
<g mask="url(#mask0_993_37943)">
<rect x="-0.288992" y="0.645356" width="37.8999" height="10.1303" transform="matrix(0.934347 -0.356364 -0.356364 -0.934347 114.383 97.859)" fill="#4FE737" stroke="black"/>
<rect x="-0.288992" y="0.645356" width="27.0864" height="18.9154" transform="matrix(0.934347 -0.356364 -0.356364 -0.934347 123.188 79.6588)" fill="#4FE737" stroke="black"/>
</g>
<circle cx="89.5" cy="90.5002" r="48.5" fill="black"/>
<circle cx="87.5" cy="91.5002" r="49" fill="black" stroke="white"/>
<circle cx="87.5" cy="91.5002" r="37" fill="black" stroke="white"/>
<path d="M74 107L98.5 107C102.642 107 106 103.643 106 99.5005C106 95.3584 102.642 92.0005 98.5 92.0005L74 92.0005" stroke="white"/>
<path d="M99 77.0005L74.5 77.0005C70.3579 77.0005 67 80.3584 67 84.5005C67 88.6426 70.3579 92.0005 74.5 92.0005L99 92.0005" stroke="white"/>
<path d="M86.5469 71.0002V76.6483" stroke="white" stroke-linejoin="bevel"/>
<path d="M86.5391 106.618V112.266" stroke="white" stroke-linejoin="bevel"/>
<rect x="109.5" y="102.5" width="43" height="44" rx="21.5" fill="black" stroke="black"/>
<rect x="107" y="105" width="43" height="44" rx="21.5" fill="#C6D5E0"/>
<rect x="107" y="105" width="43" height="44" rx="21.5" fill="white"/>
<rect x="107" y="105" width="43" height="44" rx="21.5" stroke="black" stroke-width="2"/>
<path d="M118 138L139 117" stroke="black" stroke-width="6"/>
<path d="M139 138L118 117" stroke="black" stroke-width="6"/>
</svg>
