<svg width="180" height="180" viewBox="0 0 180 180" fill="none" xmlns="http://www.w3.org/2000/svg">
<path d="M35 85C35 51.8629 61.8629 25 95 25C128.137 25 155 51.8629 155 85C155 118.137 128.137 145 95 145C61.8629 145 35 118.137 35 85Z" fill="#C6D5E0"/>
<path d="M35 85C35 51.8629 61.8629 25 95 25C128.137 25 155 51.8629 155 85C155 118.137 128.137 145 95 145C61.8629 145 35 118.137 35 85Z" fill="white"/>
<path d="M35 85C35 51.8629 61.8629 25 95 25C128.137 25 155 51.8629 155 85C155 118.137 128.137 145 95 145C61.8629 145 35 118.137 35 85Z" stroke="black"/>
<path d="M30 90C30 56.8629 56.8629 30 90 30C123.137 30 150 56.8629 150 90C150 123.137 123.137 150 90 150C56.8629 150 30 123.137 30 90Z" fill="#C6D5E0"/>
<path d="M30 90C30 56.8629 56.8629 30 90 30C123.137 30 150 56.8629 150 90C150 123.137 123.137 150 90 150C56.8629 150 30 123.137 30 90Z" fill="black"/>
<path d="M30 90C30 56.8629 56.8629 30 90 30C123.137 30 150 56.8629 150 90C150 123.137 123.137 150 90 150C56.8629 150 30 123.137 30 90Z" stroke="black"/>
<mask id="path-3-inside-1_962_32343" fill="white">
<path d="M100.058 89.998L117.914 107.854L108.014 117.753L90.1584 99.8974L72.402 117.654L62.5025 107.754L80.2589 89.998L62.7594 72.4984L72.6589 62.5989L90.1584 80.0985L107.757 62.4995L117.657 72.399L100.058 89.998Z"/>
</mask>
<path d="M100.058 89.998L117.914 107.854L108.014 117.753L90.1584 99.8974L72.402 117.654L62.5025 107.754L80.2589 89.998L62.7594 72.4984L72.6589 62.5989L90.1584 80.0985L107.757 62.4995L117.657 72.399L100.058 89.998Z" fill="white"/>
<path d="M100.058 89.998L99.3508 89.2908L98.6437 89.998L99.3508 90.7051L100.058 89.998ZM117.914 107.854L118.621 108.561L119.328 107.854L118.621 107.147L117.914 107.854ZM108.014 117.753L107.307 118.46L108.014 119.167L108.721 118.46L108.014 117.753ZM90.1584 99.8974L90.8655 99.1903L90.1584 98.4832L89.4513 99.1903L90.1584 99.8974ZM72.402 117.654L71.6949 118.361L72.402 119.068L73.1091 118.361L72.402 117.654ZM62.5025 107.754L61.7954 107.047L61.0883 107.754L61.7954 108.461L62.5025 107.754ZM80.2589 89.998L80.966 90.7051L81.6731 89.998L80.966 89.2908L80.2589 89.998ZM62.7594 72.4984L62.0523 71.7913L61.3452 72.4984L62.0523 73.2055L62.7594 72.4984ZM72.6589 62.5989L73.366 61.8918L72.6589 61.1847L71.9518 61.8918L72.6589 62.5989ZM90.1584 80.0985L89.4513 80.8056L90.1584 81.5127L90.8655 80.8056L90.1584 80.0985ZM107.757 62.4995L108.464 61.7924L107.757 61.0853L107.05 61.7924L107.757 62.4995ZM117.657 72.399L118.364 73.1061L119.071 72.399L118.364 71.6919L117.657 72.399ZM100.058 89.998L99.3508 90.7051L117.207 108.561L117.914 107.854L118.621 107.147L100.765 89.2908L100.058 89.998ZM117.914 107.854L117.207 107.147L107.307 117.046L108.014 117.753L108.721 118.46L118.621 108.561L117.914 107.854ZM108.014 117.753L108.721 117.046L90.8655 99.1903L90.1584 99.8974L89.4513 100.605L107.307 118.46L108.014 117.753ZM90.1584 99.8974L89.4513 99.1903L71.6949 116.947L72.402 117.654L73.1091 118.361L90.8655 100.605L90.1584 99.8974ZM72.402 117.654L73.1091 116.947L63.2096 107.047L62.5025 107.754L61.7954 108.461L71.6949 118.361L72.402 117.654ZM62.5025 107.754L63.2096 108.461L80.966 90.7051L80.2589 89.998L79.5518 89.2908L61.7954 107.047L62.5025 107.754ZM80.2589 89.998L80.966 89.2908L63.4665 71.7913L62.7594 72.4984L62.0523 73.2055L79.5518 90.7051L80.2589 89.998ZM62.7594 72.4984L63.4665 73.2055L73.366 63.3061L72.6589 62.5989L71.9518 61.8918L62.0523 71.7913L62.7594 72.4984ZM72.6589 62.5989L71.9518 63.3061L89.4513 80.8056L90.1584 80.0985L90.8655 79.3914L73.366 61.8918L72.6589 62.5989ZM90.1584 80.0985L90.8655 80.8056L108.464 63.2066L107.757 62.4995L107.05 61.7924L89.4513 79.3914L90.1584 80.0985ZM107.757 62.4995L107.05 63.2066L116.95 73.1061L117.657 72.399L118.364 71.6919L108.464 61.7924L107.757 62.4995ZM117.657 72.399L116.95 71.6919L99.3508 89.2908L100.058 89.998L100.765 90.7051L118.364 73.1061L117.657 72.399Z" fill="black" mask="url(#path-3-inside-1_962_32343)"/>
</svg>
