<svg xmlns="http://www.w3.org/2000/svg" width="24" height="24" fill="currentColor" viewBox="0 0 24 24">
  <path  fill-rule="evenodd" d="M3.707 2.293a1 1 0 0 0-1.414 1.414L5.11 6.522a13.834 13.834 0 0 0-1.873 1.826 16.536 16.536 0 0 0-1.866 2.711 1.94 1.94 0 0 0 0 1.883c2.991 5.39 7.903 7.803 12.646 6.859a10.923 10.923 0 0 0 3.187-1.184l3.09 3.09a1 1 0 0 0 1.415-1.414l-2.816-2.815c1.422-1.14 2.696-2.657 3.738-4.533a1.953 1.953 0 0 0 0-1.89C20.067 6.44 16.097 4 12.002 4c-1.795 0-3.566.468-5.204 1.383l-3.09-3.09Zm6.629 6.628 4.745 4.745a3.5 3.5 0 0 0-4.745-4.745Zm-4.955.045c.372-.376.757-.716 1.152-1.02l9.187 9.188a8.91 8.91 0 0 1-1.585.587L5.381 8.966Zm-1.294 1.535 7.487 7.487C8.46 17.825 5.309 15.898 3.135 12c.3-.537.618-1.037.952-1.499Z" clip-rule="evenodd"/>
</svg>
