<svg xmlns="http://www.w3.org/2000/svg" width="24" height="24" fill="currentColor" viewBox="0 0 24 24">
  <path fill-rule="evenodd" d="M6.797 5.383a10.925 10.925 0 0 1 3.188-1.184c4.885-.973 9.942 1.617 12.903 7.342l.237.459-.237.46a16.812 16.812 0 0 1-2.124 3.192 13.823 13.823 0 0 1-1.872 1.825L22.414 21 21 22.414l-3.797-3.797c-1.02.57-2.093.966-3.188 1.184-4.885.973-9.942-1.616-12.903-7.341L.874 12l.238-.46a16.816 16.816 0 0 1 2.124-3.19 13.841 13.841 0 0 1 1.873-1.827L1.586 3 3 1.586l3.797 3.797ZM4.087 10.5c-.334.462-.653.962-.952 1.499 2.173 3.9 5.326 5.824 8.438 5.987L4.087 10.5Zm2.445-2.554c-.394.303-.779.643-1.15 1.02l8.753 8.754a8.907 8.907 0 0 0 1.585-.586L6.532 7.947ZM12 9a2.99 2.99 0 0 0-1.294.292l4.001 4.002A3 3 0 0 0 12 9Z" clip-rule="evenodd"/>
</svg>
