<svg xmlns="http://www.w3.org/2000/svg" width="24" height="24" fill="currentColor" viewBox="0 0 24 24">
  <path  d="M7.616 6.544a4.464 4.464 0 1 1 8.928 0 4.464 4.464 0 0 1-8.928 0ZM12.08 12c-4.72 0-8.02 3.493-8.428 7.843a.992.992 0 0 0 .987 1.085h10.417a2.976 2.976 0 0 1 0-5.952c0-.818.33-1.559.864-2.096-1.124-.563-2.418-.88-3.84-.88Z"/>
  <path  d="M19.024 14.976a.992.992 0 1 0-1.984 0v1.984h-1.984a.992.992 0 0 0 0 1.984h1.984v1.984a.992.992 0 0 0 1.984 0v-1.984h1.984a.992.992 0 1 0 0-1.984h-1.984v-1.984Z"/>
</svg>
