<svg xmlns="http://www.w3.org/2000/svg" width="24" height="24" fill="currentColor" viewBox="0 0 24 24">
  <path d="M14 7c0 2.656.587 4.34 1.624 5.376C16.66 13.413 18.344 14 21 14v2c-2.656 0-4.34.587-5.376 1.624C14.587 18.661 14 20.344 14 23h-2c0-2.656-.587-4.34-1.624-5.376C9.339 16.587 7.656 16 5 16v-2c2.656 0 4.34-.587 5.376-1.624C11.413 11.339 12 9.656 12 7h2ZM6 5c0 1.154.256 1.87.692 2.308C7.13 7.744 7.846 8 9 8v1c-1.154 0-1.87.256-2.308.692C6.256 10.13 6 10.846 6 12H5c0-1.154-.256-1.87-.692-2.308C3.87 9.256 3.154 9 2 9V8c1.154 0 1.87-.256 2.308-.692C4.744 6.87 5 6.154 5 5h1Zm5-4c0 .807.179 1.274.452 1.548.274.273.741.452 1.548.452v1c-.807 0-1.274.179-1.548.452C11.18 4.726 11 5.193 11 6h-1c0-.807-.179-1.274-.452-1.548C9.274 4.18 8.807 4 8 4V3c.807 0 1.274-.179 1.548-.452C9.82 2.274 10 1.807 10 1h1Z"/>
</svg>
