<svg xmlns="http://www.w3.org/2000/svg" width="24" height="24" fill="currentColor" viewBox="0 0 24 24">
  <path  d="M14.053 7.395a.5.5 0 0 1 .894 0l.479.956a.5.5 0 0 0 .223.223l.957.479a.5.5 0 0 1 0 .894l-.957.479a.499.499 0 0 0-.223.223l-.479.957a.5.5 0 0 1-.894 0l-.479-.957a.499.499 0 0 0-.223-.223l-.957-.479a.5.5 0 0 1 0-.894l.957-.479a.5.5 0 0 0 .223-.223l.479-.956Z"/>
  <path  fill-rule="evenodd" d="M19 3a2 2 0 0 1 2 2v14a2 2 0 0 1-2 2H5a2 2 0 0 1-2-2V5a2 2 0 0 1 2-2h14ZM5 13.586 6.586 12a2 2 0 0 1 2.828 0l7 7H19V5H5v8.586Z" clip-rule="evenodd"/>
</svg>
