<svg xmlns="http://www.w3.org/2000/svg" width="24" height="24" fill="currentColor" viewBox="0 0 24 24">
  <path  fill-rule="evenodd" d="M4.568 3h14.864c.252 0 .498 0 .706.017.229.019.499.063.77.201a2 2 0 0 1 .874.874c.138.271.182.541.201.77.017.208.017.454.017.706v9.864c0 .252 0 .498-.017.706a2.022 2.022 0 0 1-.201.77 2 2 0 0 1-.874.874 2.022 2.022 0 0 1-.77.201c-.208.017-.454.017-.706.017H18.5a1 1 0 1 1 0-2h.9a8.207 8.207 0 0 0 .589-.011v-.014c.01-.116.011-.278.011-.575V5.6a8.205 8.205 0 0 0-.012-.589h-.013A8.187 8.187 0 0 0 19.4 5H4.6a8.186 8.186 0 0 0-.589.011v.014C4 5.14 4 5.303 4 5.6v9.8a8.187 8.187 0 0 0 .011.589h.014c.116.01.278.011.575.011h.9a1 1 0 1 1 0 2h-.932c-.252 0-.498 0-.706-.017a2.022 2.022 0 0 1-.77-.201 2 2 0 0 1-.874-.874 2.022 2.022 0 0 1-.201-.77C2 15.93 2 15.684 2 15.432V5.568c0-.252 0-.498.017-.706a2.03 2.03 0 0 1 .201-.77 2 2 0 0 1 .874-.874 2.03 2.03 0 0 1 .77-.201C4.07 3 4.316 3 4.568 3Z" clip-rule="evenodd"/>
  <path  d="M12.78 14.375a1 1 0 0 0-1.56 0l-4 5A1 1 0 0 0 8 21h8a1 1 0 0 0 .78-1.625l-4-5Z"/>
</svg>
