<svg xmlns="http://www.w3.org/2000/svg" width="24" height="24" fill="currentColor" viewBox="0 0 24 24">
  <path  d="M9.499 1.616a1 1 0 1 0-.933 1.769c.8.421 1.34.914 1.712 1.489.122.19.23.395.325.618-.901-.212-1.741-.267-2.518-.172a5.121 5.121 0 0 0-3.134 1.556c-1.564 1.63-2.086 4.183-1.922 6.58.166 2.414 1.043 4.938 2.606 6.62.792.85 1.78 1.505 2.95 1.781 1.063.251 2.212.176 3.414-.262 1.202.438 2.352.513 3.414.262 1.172-.276 2.16-.93 2.951-1.782 1.564-1.681 2.441-4.205 2.607-6.62.164-2.396-.358-4.949-1.922-6.579a5.123 5.123 0 0 0-3.135-1.556c-.955-.117-2.006-.007-3.149.342a6.409 6.409 0 0 0-.807-1.873c-.587-.908-1.406-1.618-2.46-2.173Z"/>
</svg>
