<svg xmlns="http://www.w3.org/2000/svg" width="24" height="24" fill="currentColor" viewBox="0 0 24 24">
  <path  fill-rule="evenodd" d="M4.077 7.943v9.706c.084.058.224.137.442.228.56.232 1.421.453 2.529.625V8.633l-.003-.004a.046.046 0 0 0-.029-.014c-1.14-.164-2.153-.39-2.94-.672Zm15.846 0v9.706a2.452 2.452 0 0 1-.442.228c-.56.232-1.421.453-2.529.625V8.633l.003-.004a.046.046 0 0 1 .029-.014c1.14-.164 2.153-.39 2.94-.672Zm1.981-1.972v11.886c0 .57-.325.983-.614 1.236-.293.256-.667.454-1.052.614-.777.322-1.83.575-3.03.76-1.212.186-2.237-.774-2.237-1.941v-1.544A37.032 37.032 0 0 0 12 16.866a37.03 37.03 0 0 0-2.971.116v1.544c0 1.167-1.025 2.127-2.238 1.94-1.2-.184-2.252-.437-3.03-.76-.384-.159-.758-.357-1.051-.613-.29-.253-.614-.666-.614-1.236V5.97c0-.46.214-.821.443-1.07a2.89 2.89 0 0 1 .787-.578c.563-.295 1.313-.532 2.156-.72C7.185 3.226 9.488 3 12 3c2.511 0 4.816.225 6.518.604.843.187 1.593.424 2.156.72.28.147.563.334.787.577.23.249.443.61.443 1.07Z" clip-rule="evenodd"/>
</svg>
