<svg xmlns="http://www.w3.org/2000/svg" width="24" height="24" fill="currentColor" viewBox="0 0 24 24">
  <path fill-rule="evenodd" d="M12 2c5.523 0 10 4.477 10 10 0 1.104-.27 2.31-.95 3.243-.715.985-1.848 1.6-3.33 1.465a4.207 4.207 0 0 1-2.93-1.585c-.94 1.21-2.389 1.94-3.985 1.715-2.53-.356-4.04-2.91-3.682-5.457.358-2.547 2.515-4.587 5.044-4.232a4.055 4.055 0 0 1 2.283 1.123l.131-.906 1.98.288-.659 4.536a2.223 2.223 0 0 0 1.998 2.527c.75.068 1.213-.21 1.534-.65.358-.493.566-1.245.566-2.067a8 8 0 1 0-8 8 7.959 7.959 0 0 0 4.21-1.195l.85-.528 1.053 1.7-.85.527A9.958 9.958 0 0 1 12 22C6.477 22 2 17.523 2 12S6.477 2 12 2Zm-.111 7.13c-1.196-.168-2.545.82-2.785 2.53-.24 1.709.784 3.03 1.979 3.197 1.195.168 2.545-.819 2.785-2.529.24-1.71-.784-3.03-1.98-3.198Z" clip-rule="evenodd"/>
</svg>
