<svg xmlns="http://www.w3.org/2000/svg" width="24" height="24" fill="currentColor" viewBox="0 0 24 24">
  <path d="M17.185 2c.975 0 1.953.373 2.698 1.118A3.81 3.81 0 0 1 21 5.818a3.81 3.81 0 0 1-1.117 2.699l-9.956 9.96A2.407 2.407 0 1 1 6.52 15.07l5.685-5.687 1.414 1.413-5.684 5.688a.408.408 0 1 0 .576.578l9.956-9.96A1.81 1.81 0 0 0 19 5.817c0-.466-.177-.93-.532-1.285A1.806 1.806 0 0 0 17.185 4c-.467 0-.93.177-1.285.532l-9.956 9.961A3.214 3.214 0 0 0 5 16.774c0 .828.315 1.652.944 2.282a3.21 3.21 0 0 0 2.28.944 3.21 3.21 0 0 0 2.279-.944l5.686-5.688 1.413 1.413-5.684 5.688A5.211 5.211 0 0 1 8.224 22a5.21 5.21 0 0 1-3.694-1.531A5.213 5.213 0 0 1 3 16.774c0-1.335.51-2.675 1.53-3.695l9.955-9.96A3.808 3.808 0 0 1 17.185 2Z"/>
</svg>
