<svg xmlns="http://www.w3.org/2000/svg" width="24" height="24" fill="currentColor" viewBox="0 0 24 24">
  <path  d="M17.184 2c-.975 0-1.954.373-2.698 1.118l-9.956 9.96A5.214 5.214 0 0 0 3 16.775c0 1.336.51 2.675 1.53 3.695A5.21 5.21 0 0 0 8.224 22a5.21 5.21 0 0 0 3.694-1.53l4.978-4.981a1 1 0 1 0-1.415-1.414l-4.978 4.98a3.21 3.21 0 0 1-2.28.945 3.21 3.21 0 0 1-2.279-.945A3.214 3.214 0 0 1 5 16.775c0-.828.315-1.652.944-2.282l9.956-9.96A1.806 1.806 0 0 1 17.184 4c.466 0 .93.177 1.284.532.355.355.532.819.532 1.285 0 .467-.177.93-.532 1.286l-9.956 9.96a.408.408 0 1 1-.576-.578l4.978-4.98a1 1 0 0 0-1.415-1.414L6.52 15.07a2.41 2.41 0 0 0 3.406 3.406l9.956-9.96A3.81 3.81 0 0 0 21 5.816a3.81 3.81 0 0 0-1.117-2.699A3.806 3.806 0 0 0 17.184 2Z"/>
</svg>
