<svg xmlns="http://www.w3.org/2000/svg" width="24" height="24" fill="currentColor" viewBox="0 0 24 24">
  <path fill-rule="evenodd" d="M14.255 12.184c2.209 0 3.402 1.682 3.402 4.202v.552c0 2.342-1.136 4.221-3.447 4.221-2.202 0-3.401-1.72-3.401-4.221v-.552c0-2.501 1.256-4.202 3.446-4.202Zm-.02 1.675c-.793 0-1.326.806-1.326 2.533v.54c0 1.726.533 2.55 1.326 2.55.787 0 1.327-.837 1.328-2.55v-.54c0-1.714-.54-2.533-1.328-2.533Z" clip-rule="evenodd"/>
  <path d="M9.501 21H7.425v-6.754h-.09c-.57.375-1.332.863-1.954 1.295v-1.847c.666-.47 1.39-.933 2.07-1.358H9.5V21ZM12 3c4.195 0 7.718 2.87 8.717 6.751l-1.938.498A7.003 7.003 0 0 0 6.255 8H9v2H3V4h2v2.343A8.982 8.982 0 0 1 12 3Z"/>
</svg>
