<svg xmlns="http://www.w3.org/2000/svg" width="24" height="24" fill="currentColor" viewBox="0 0 24 24">
  <path  fill-rule="evenodd" d="m15.315 4.716-2.14 1.555a2 2 0 0 1-2.35 0l-2.14-1.554a8.025 8.025 0 0 0-2.587 1.882l.816 2.512a2 2 0 0 1-.726 2.236L4.05 12.902a7.942 7.942 0 0 0 .988 3.043h2.643a2 2 0 0 1 1.902 1.382l.817 2.514a8.041 8.041 0 0 0 3.2 0l.817-2.514a2 2 0 0 1 1.902-1.382h2.643c.52-.917.865-1.946.988-3.043l-2.138-1.553a2 2 0 0 1-.726-2.237l.816-2.512a8.025 8.025 0 0 0-2.588-1.883ZM8.466 2.643A9.98 9.98 0 0 1 12 2a9.98 9.98 0 0 1 7.807 3.75 9.963 9.963 0 0 1 2.182 6.716 9.95 9.95 0 0 1-1.632 5.028 10.016 10.016 0 0 1-5.716 4.153C13.8 21.877 12.913 22 12 22s-1.799-.123-2.641-.353a10.016 10.016 0 0 1-5.716-4.153A9.95 9.95 0 0 1 2 12c0-2.364.821-4.538 2.193-6.25a10.022 10.022 0 0 1 4.273-3.107Zm2.358 5.975a2 2 0 0 1 2.352 0l1.677 1.219a2 2 0 0 1 .727 2.236l-.641 1.972a2 2 0 0 1-1.902 1.382h-2.074a2 2 0 0 1-1.902-1.382l-.64-1.972a2 2 0 0 1 .726-2.236l1.677-1.219Z" clip-rule="evenodd"/>
</svg>
