<svg xmlns="http://www.w3.org/2000/svg" width="24" height="24" fill="currentColor" viewBox="0 0 24 24">
  <path d="m16.028 10.691-1.538 4.736H9.51L7.972 10.69 12 7.764l4.028 2.927Z"/>
  <path fill-rule="evenodd" d="M12 2a9.98 9.98 0 0 1 7.807 3.75 9.962 9.962 0 0 1 2.182 6.717 9.95 9.95 0 0 1-1.633 5.027 10.018 10.018 0 0 1-5.715 4.154c-.843.23-1.728.352-2.641.352s-1.798-.122-2.64-.352a10.018 10.018 0 0 1-5.716-4.154A9.95 9.95 0 0 1 2 12c0-2.364.821-4.538 2.193-6.25A9.98 9.98 0 0 1 12 2Zm0 5.125L8.686 4.717A8.027 8.027 0 0 0 6.098 6.6l1.265 3.893L4.05 12.9a7.944 7.944 0 0 0 .988 3.044h4.097L10.4 19.84a8.04 8.04 0 0 0 3.2 0l1.265-3.896h4.097c.52-.917.865-1.946.988-3.044l-3.313-2.407L17.902 6.6a8.026 8.026 0 0 0-2.588-1.883L12 7.125Z" clip-rule="evenodd"/>
</svg>
