<svg xmlns="http://www.w3.org/2000/svg" width="24" height="24" fill="currentColor" viewBox="0 0 24 24">
  <path d="M11 13v8.95a9.957 9.957 0 0 1-5.5-2.35A9.98 9.98 0 0 0 8.95 13H11Zm4.05 0a9.98 9.98 0 0 0 3.45 6.6 9.957 9.957 0 0 1-5.5 2.35V13h2.05Zm-8.11 0a7.988 7.988 0 0 1-2.824 5.15A9.952 9.952 0 0 1 2.051 13h4.888Zm15.011 0a9.95 9.95 0 0 1-2.065 5.15A7.989 7.989 0 0 1 17.063 13h4.888ZM4.116 5.85A7.987 7.987 0 0 1 6.94 11H2.051a9.95 9.95 0 0 1 2.065-5.15ZM11 11H8.95A9.981 9.981 0 0 0 5.5 4.4 9.957 9.957 0 0 1 11 2.05V11Zm2-8.95a9.957 9.957 0 0 1 5.5 2.35 9.981 9.981 0 0 0-3.45 6.6H13V2.05Zm6.886 3.8A9.95 9.95 0 0 1 21.95 11h-4.889a7.988 7.988 0 0 1 2.824-5.15Z"/>
</svg>
