<svg xmlns="http://www.w3.org/2000/svg" width="24" height="24" fill="currentColor" viewBox="0 0 24 24">
  <path d="M10.5 21.914c-.492.057-.993.086-1.5.086H4a2 2 0 0 1-2-2v-5c0-.507.03-1.008.086-1.5l8.414 8.414Z"/>
  <path fill-rule="evenodd" d="M21.425 12.838a13.031 13.031 0 0 1-8.586 8.586L2.576 11.162a13.03 13.03 0 0 1 8.586-8.586l10.263 10.262Zm-12.59.912 1.415 1.414 4.914-4.914-1.414-1.414-4.914 4.914Z" clip-rule="evenodd"/>
  <path d="M20 2a2 2 0 0 1 2 2v5c0 .507-.029 1.008-.085 1.5L13.5 2.086A13.14 13.14 0 0 1 15 2h5Z"/>
</svg>
