<svg xmlns="http://www.w3.org/2000/svg" width="24" height="24" fill="currentColor" viewBox="0 0 24 24">
  <path fill-rule="evenodd" d="M12 2c5.523 0 10 4.477 10 10s-4.477 10-10 10S2 17.523 2 12 6.477 2 12 2ZM5.738 17.574c-.13.134-.266.264-.405.389l1.334 1.49c.174-.155.342-.317.505-.484l-1.434-1.395Zm11.09 1.395c.163.167.331.328.505.484l1.334-1.49a8.08 8.08 0 0 1-.405-.389l-1.434 1.395Zm-9.77-3.2a7.876 7.876 0 0 1-.596.949l1.613 1.18c.275-.376.525-.771.746-1.185l-1.762-.944Zm8.12.944c.222.413.471.81.746 1.185l1.614-1.18a8.014 8.014 0 0 1-.597-.948l-1.762.943ZM7.826 13.67a7.94 7.94 0 0 1-.31 1.076l1.88.688c.159-.436.288-.887.386-1.348l-1.956-.416Zm6.394.416c.098.461.227.912.386 1.348l1.88-.688a7.954 7.954 0 0 1-.31-1.076l-1.956.416Zm-6.24-2.648a8.13 8.13 0 0 1 0 1.123l1.996.138a10.137 10.137 0 0 0 0-1.398l-1.996.137Zm6.044-.137a10.125 10.125 0 0 0 0 1.398l1.996-.137a8.086 8.086 0 0 1 0-1.123l-1.996-.138ZM7.516 9.253c.127.348.23.707.31 1.076l1.955-.416a9.93 9.93 0 0 0-.386-1.347l-1.88.687Zm7.09-.687c-.16.436-.29.886-.387 1.347l1.956.416a7.95 7.95 0 0 1 .31-1.076l-1.88-.687ZM6.461 7.282c.22.301.42.618.597.948l1.762-.943a9.798 9.798 0 0 0-.746-1.185l-1.613 1.18Zm9.462-1.18a9.916 9.916 0 0 0-.745 1.185l1.762.943a8.08 8.08 0 0 1 .597-.948l-1.614-1.18Zm-10.59-.065c.14.125.275.255.405.389L7.172 5.03a10.053 10.053 0 0 0-.505-.484l-1.334 1.49Zm12-1.49c-.174.155-.342.317-.505.484l1.434 1.395c.13-.134.266-.264.405-.389l-1.334-1.49Z" clip-rule="evenodd"/>
</svg>
