<svg xmlns="http://www.w3.org/2000/svg" width="24" height="24" fill="currentColor" viewBox="0 0 24 24">
  <path d="M12 2c2.251 0 4.329.744 6 1.999A9.985 9.985 0 0 0 14 12a9.985 9.985 0 0 0 4 8.001A9.956 9.956 0 0 1 12 22a9.956 9.956 0 0 1-6-1.999A9.985 9.985 0 0 0 10 12a9.985 9.985 0 0 0-4-8.001A9.956 9.956 0 0 1 12 2Z"/>
  <path d="M4.5 5.385A7.992 7.992 0 0 1 8 12a7.992 7.992 0 0 1-3.5 6.615A9.962 9.962 0 0 1 2 12c0-2.536.944-4.852 2.5-6.615Zm15 0A9.963 9.963 0 0 1 22 12a9.963 9.963 0 0 1-2.5 6.615A7.992 7.992 0 0 1 16 12a7.992 7.992 0 0 1 3.5-6.615Z"/>
</svg>
