<svg xmlns="http://www.w3.org/2000/svg" width="24" height="24" fill="currentColor" viewBox="0 0 24 24">
  <path  d="M10.5 4A1.5 1.5 0 0 0 9 5.5V6H4.732a2 2 0 1 0 0 2h1.61a8.985 8.985 0 0 0-3.287 6H2.5A1.5 1.5 0 0 0 1 15.5v3A1.5 1.5 0 0 0 2.5 20h3A1.5 1.5 0 0 0 7 18.5v-3A1.5 1.5 0 0 0 5.5 14h-.43a7.009 7.009 0 0 1 3.94-5.331A1.5 1.5 0 0 0 10.5 10h3a1.5 1.5 0 0 0 1.49-1.331A7.009 7.009 0 0 1 18.93 14h-.43a1.5 1.5 0 0 0-1.5 1.5v3a1.5 1.5 0 0 0 1.5 1.5h3a1.5 1.5 0 0 0 1.5-1.5v-3a1.5 1.5 0 0 0-1.5-1.5h-.555a8.985 8.985 0 0 0-3.288-6h1.61A2 2 0 0 0 23 7a2 2 0 0 0-3.732-1H15v-.5A1.5 1.5 0 0 0 13.5 4h-3Z"/>
</svg>
