<svg xmlns="http://www.w3.org/2000/svg" width="24" height="24" fill="currentColor" viewBox="0 0 24 24">
  <path  fill-rule="evenodd" d="M6.568 2h10.864c.252 0 .498 0 .706.017.229.019.499.063.77.201a2 2 0 0 1 .874.874c.138.271.182.541.201.77.017.208.017.454.017.706v14.367c0 .464 0 .88-.03 1.21-.03.33-.101.764-.387 1.134a2 2 0 0 1-1.509.776c-.467.018-.862-.177-1.146-.343a14.48 14.48 0 0 1-1.004-.68l-3.575-2.554a6.989 6.989 0 0 0-.342-.237L12 18.237l-.007.004a8.09 8.09 0 0 0-.342.237l-3.575 2.554c-.379.27-.717.512-1.004.68-.284.166-.68.36-1.146.343a2 2 0 0 1-1.51-.776c-.285-.37-.356-.805-.386-1.133A14.47 14.47 0 0 1 4 18.935V4.568c0-.252 0-.498.017-.706a2.03 2.03 0 0 1 .201-.77 2 2 0 0 1 .874-.874 2.03 2.03 0 0 1 .77-.201C6.07 2 6.316 2 6.568 2ZM12 6a1 1 0 0 1 1 1v2h2a1 1 0 1 1 0 2h-2v2a1 1 0 1 1-2 0v-2H9a1 1 0 1 1 0-2h2V7a1 1 0 0 1 1-1Z" clip-rule="evenodd"/>
</svg>
