<svg xmlns="http://www.w3.org/2000/svg" width="24" height="24" fill="currentColor" viewBox="0 0 24 24">
  <path d="M10 2c.342 0 .677.035 1 .1v11.435A3.982 3.982 0 0 0 9 13H8v2h1a2 2 0 0 1 2 2v4.793a5.501 5.501 0 0 1-6.64-3.334A4.499 4.499 0 0 1 2.757 12a4.501 4.501 0 0 1 2.597-6.853A5.002 5.002 0 0 1 10 2Zm4 0a5.002 5.002 0 0 1 4.645 3.147A4.501 4.501 0 0 1 21.242 12a4.499 4.499 0 0 1-1.602 6.459A5.502 5.502 0 0 1 13 21.793V10.465c.588.34 1.271.535 2 .535h1V9h-1a2 2 0 0 1-2-1.997V2.1a4.995 4.995 0 0 1 1-.101Z"/>
</svg>
