<svg xmlns="http://www.w3.org/2000/svg" width="24" height="24" fill="currentColor" viewBox="0 0 24 24">
  <path  d="M4.788 9.298a1 1 0 0 1 1.424 1.404l-.742.752-.004.005a5.003 5.003 0 1 0 7.075 7.075l.005-.003.752-.743a1 1 0 0 1 1.404 1.424l-.75.741a7.003 7.003 0 0 1-9.9-.005 7.003 7.003 0 0 1-.001-9.904l.737-.746Zm5.256-5.247a7.004 7.004 0 0 1 9.908 9.9h.001l-.74.751a1 1 0 0 1-1.425-1.404l.742-.752.004-.005a5.003 5.003 0 1 0-7.075-7.075l-.005.004-.752.742a1 1 0 0 1-1.404-1.424l.746-.737Zm7.214 14.979a1 1 0 0 1 1.212.728l.5 2a1 1 0 1 1-1.94.484l-.5-2a1 1 0 0 1 .728-1.212Zm1.773-1.772a1 1 0 0 1 1.211-.727l2 .5a1 1 0 1 1-.484 1.939l-2-.5a1 1 0 0 1-.727-1.212Zm-18-11.5a1 1 0 0 1 1.211-.727l2 .5a1 1 0 1 1-.484 1.939l-2-.5a1 1 0 0 1-.727-1.212Zm4.727-4.727a1 1 0 0 1 1.212.727l.5 2a1 1 0 1 1-1.94.484l-.5-2a1 1 0 0 1 .728-1.211Z"/>
</svg>
