<svg xmlns="http://www.w3.org/2000/svg" width="24" height="24" fill="currentColor" viewBox="0 0 24 24">
  <path  fill-rule="evenodd" d="M19.782 7.54a1 1 0 0 1 .425.253L21.5 9.086a2 2 0 0 1 0 2.828l-6.668 6.668a1.883 1.883 0 0 1-2.664 0 1.65 1.65 0 0 0-2.335 0L6.915 21.5a2 2 0 0 1-2.828 0L2.5 19.915a2 2 0 0 1 0-2.83l2.918-2.918a1.65 1.65 0 0 0 0-2.335 1.883 1.883 0 0 1-.001-2.664l2.355-2.355a1 1 0 0 1 .02-.02L12.086 2.5a2 2 0 0 1 2.828 0l3.293 3.293a1 1 0 0 1 .293.707v1h1a1 1 0 0 1 .282.04Zm-4.696 7.96L8.5 8.914l-1.587 1.587a3.65 3.65 0 0 1-.08 5.08L3.916 18.5 5.5 20.085l2.918-2.918a3.65 3.65 0 0 1 5.08-.08l1.587-1.587Z" clip-rule="evenodd"/>
</svg>
