<svg xmlns="http://www.w3.org/2000/svg" width="24" height="24" fill="currentColor" viewBox="0 0 24 24">
  <path fill-rule="evenodd" d="M12 2a5 5 0 0 1 5 5h2v.572l2.349-.853.683 1.879L19 9.7V12h3v2h-3v1c0 .43-.038.85-.112 1.259l3.144 1.143-.683 1.88-3.098-1.127A7.008 7.008 0 0 1 13 21.93V12h-2v9.929a7.007 7.007 0 0 1-5.25-3.774l-3.098 1.126-.683-1.879 3.144-1.143A7.043 7.043 0 0 1 5 15v-1H2v-2h3V9.7L1.969 8.598l.683-1.88L5 7.573V7h2a5 5 0 0 1 5-5Zm0 2a3 3 0 0 0-3 3h6a3 3 0 0 0-3-3Z" clip-rule="evenodd"/>
</svg>
