<svg xmlns="http://www.w3.org/2000/svg" width="24" height="24" fill="currentColor" viewBox="0 0 24 24">
  <path  fill-rule="evenodd" d="M3.326 4.403A2 2 0 0 1 5.236 3h13.529a2 2 0 0 1 1.909 1.403l1.105 3.536A3.88 3.88 0 0 1 21 11.66V19a2 2 0 0 1-2 2H5a2 2 0 0 1-2-2v-7.34a3.88 3.88 0 0 1-.779-3.72l1.105-3.537Zm10.748 4.248L13.617 5h-3.234l-.457 3.651a2.09 2.09 0 1 0 4.148 0ZM8.367 5H5.235L4.13 8.536a1.898 1.898 0 1 0 3.695.801L8.367 5Zm7.266 0 .542 4.337a1.898 1.898 0 1 0 3.695-.801L18.765 5h-3.132Z" clip-rule="evenodd"/>
</svg>
