<svg xmlns="http://www.w3.org/2000/svg" width="24" height="24" fill="currentColor" viewBox="0 0 24 24">
  <path  d="M8.947 3.079a.991.991 0 1 0-1.982 0v.991H4.982A1.982 1.982 0 0 0 3 6.053v12.886c0 1.095.888 1.982 1.982 1.982h5.948a.991.991 0 1 0 0-1.982H4.982v-8.921H18.86a.991.991 0 1 0 1.982 0V6.053A1.982 1.982 0 0 0 18.86 4.07h-1.983v-.99a.991.991 0 0 0-1.982 0v.991H8.947V3.08Z"/>
  <path  fill-rule="evenodd" d="M21.253 13.982a1.982 1.982 0 0 0-2.804 0l-3.965 3.966c-.371.371-.58.875-.58 1.401v1.572a.99.99 0 0 0 .99.991h1.573c.526 0 1.03-.209 1.402-.58l3.965-3.965a1.983 1.983 0 0 0 0-2.804l-.581-.58Z" clip-rule="evenodd"/>
</svg>
