<svg xmlns="http://www.w3.org/2000/svg" width="24" height="24" fill="currentColor" viewBox="0 0 24 24">
  <path  d="M5.072 3c-1.083 0-2.03.892-1.959 2.053.525 8.505 7.329 15.309 15.834 15.834 1.16.071 2.052-.876 2.052-1.959v-3.042a1.99 1.99 0 0 0-1.419-1.907l-2.703-.81a1.991 1.991 0 0 0-1.98.498l-.745.746a12.007 12.007 0 0 1-4.565-4.565l.745-.746c.518-.518.71-1.278.5-1.98L10.02 4.42A1.99 1.99 0 0 0 8.114 3H5.072Z"/>
  <path  d="M16.023 3a.995.995 0 1 0 0 1.992h1.579L14.324 8.27a.996.996 0 0 0 1.408 1.407L19.01 6.4v1.58a.995.995 0 0 0 1.99 0V3.995A.995.995 0 0 0 20.005 3h-3.982Z"/>
</svg>
