<svg xmlns="http://www.w3.org/2000/svg" width="24" height="24" fill="currentColor" viewBox="0 0 24 24">
  <path  fill-rule="evenodd" d="M11.535 3.5a3.982 3.982 0 0 0-.535 2v5a4 4 0 0 0 4 4h5c.729 0 1.412-.195 2-.535V18.5a2 2 0 0 1-2 2H4a2 2 0 0 1-2-2v-13a2 2 0 0 1 2-2h7.535ZM6 15.5a1 1 0 1 0 0 2h2a1 1 0 1 0 0-2H6Z" clip-rule="evenodd"/>
  <path  fill-rule="evenodd" d="M20 3.5a2 2 0 0 1 2 2v5a2 2 0 0 1-2 2h-5a2 2 0 0 1-2-2v-5a2 2 0 0 1 2-2h5Zm-2.5 3.25a1.25 1.25 0 1 0 0 2.5 1.25 1.25 0 0 0 0-2.5Z" clip-rule="evenodd"/>
</svg>
