<svg xmlns="http://www.w3.org/2000/svg" width="24" height="24" fill="currentColor" viewBox="0 0 24 24">
  <path  fill-rule="evenodd" d="M10.035 3a2 2 0 0 0-1.664.89L6.965 6H4a2 2 0 0 0-2 2v11a2 2 0 0 0 2 2h16a2 2 0 0 0 2-2V8a2 2 0 0 0-2-2h-2.965L15.63 3.89A2 2 0 0 0 13.965 3h-3.93Zm-.744 7.793a1 1 0 0 1 1.414 0L12 12.088l1.295-1.295a1 1 0 0 1 1.414 1.414l-1.295 1.295 1.293 1.293a1 1 0 0 1-1.414 1.414L12 14.916l-1.293 1.293a1 1 0 0 1-1.414-1.414l1.293-1.293-1.295-1.295a1 1 0 0 1 0-1.414Z" clip-rule="evenodd"/>
</svg>
