<svg xmlns="http://www.w3.org/2000/svg" width="24" height="24" fill="currentColor" viewBox="0 0 24 24">
  <path  d="M4 15a1 1 0 0 1 1 1v3h3a1 1 0 1 1 0 2H5a2 2 0 0 1-2-2v-3a1 1 0 0 1 1-1Zm16 0a1 1 0 0 1 1 1v3a2 2 0 0 1-2 2h-3a1 1 0 1 1 0-2h3v-3a1 1 0 0 1 1-1Z"/>
  <path  fill-rule="evenodd" d="M12 8.25a1 1 0 0 1 .91.586l2.5 5.5a1 1 0 0 1-1.82.828l-.415-.914h-2.349l-.416.914a1 1 0 1 1-1.82-.828l2.5-5.5A1 1 0 0 1 12 8.25Zm-.265 4h.53L12 11.667l-.265.583Z" clip-rule="evenodd"/>
  <path  d="M8 3a1 1 0 0 1 0 2H5v3a1 1 0 0 1-2 0V5a2 2 0 0 1 2-2h3Zm11 0a2 2 0 0 1 2 2v3a1 1 0 1 1-2 0V5h-3a1 1 0 1 1 0-2h3Z"/>
</svg>
