<svg xmlns="http://www.w3.org/2000/svg" width="24" height="24" fill="currentColor" viewBox="0 0 24 24">
  <path fill-rule="evenodd" d="M18 13a4 4 0 0 1 4 4v4h-2.27a1.998 1.998 0 0 1-3.46 0H14v-4a4 4 0 0 1 4-4Zm0 2a2 2 0 0 0-2 2v2h4v-2a2 2 0 0 0-2-2Z" clip-rule="evenodd"/>
  <path fill-rule="evenodd" d="M21 11.803A6 6 0 0 0 12 17v4H3V3h18v8.803Zm-13.564 3.09-1.17-.78-1.11 1.663 2.744 1.83 3.04-4.052-1.6-1.2-1.904 2.539Zm0-6.002-1.17-.78-1.11 1.664 2.744 1.83 3.04-4.052-1.6-1.2L7.436 8.89ZM13.058 10h4V8h-4v2Z" clip-rule="evenodd"/>
</svg>
