<svg xmlns="http://www.w3.org/2000/svg" width="24" height="24" fill="currentColor" viewBox="0 0 24 24">
  <path  fill-rule="evenodd" d="M20.5 9.5c.395 0 .781-.042 1.153-.121.226.835.347 1.714.347 2.621 0 5.523-4.477 10-10 10S2 17.523 2 12 6.477 2 12 2c1.12 0 2.196.184 3.2.523A5.5 5.5 0 0 0 20.5 9.5ZM13 8a1 1 0 1 0-2 0v4a1 1 0 0 0 .293.707l2.5 2.5a1 1 0 0 0 1.414-1.414L13 11.586V8Z" clip-rule="evenodd"/>
  <path  fill-rule="evenodd" d="M18 2a1 1 0 0 1 1-1h3a1 1 0 0 1 .8 1.6L21 5h1a1 1 0 1 1 0 2h-3a1 1 0 0 1-.8-1.6L20 3h-1a1 1 0 0 1-1-1Z" clip-rule="evenodd"/>
</svg>
