<svg xmlns="http://www.w3.org/2000/svg" width="24" height="24" fill="currentColor" viewBox="0 0 24 24">
  <path fill-rule="evenodd" d="M15 5a5 5 0 0 1 4.602 6.958A5.5 5.5 0 0 1 16.5 22H9a7 7 0 1 1 1.36-13.867A5.002 5.002 0 0 1 15 5Zm0 2a3 3 0 0 0-2.75 1.799 7.029 7.029 0 0 1 2.652 2.436 5.502 5.502 0 0 1 2.87-.087A3 3 0 0 0 15 7Z" clip-rule="evenodd"/>
  <path d="M24 10.5h-2.5v-2H24v2ZM11.463 4.55l-1.414 1.415L8.28 4.196l1.414-1.414 1.768 1.768Zm10.252-.354-1.768 1.769-1.414-1.415 1.768-1.768 1.414 1.414ZM16 3.5h-2V1h2v2.5Z"/>
</svg>
