<svg xmlns="http://www.w3.org/2000/svg" width="24" height="24" fill="currentColor" viewBox="0 0 24 24">
  <path  d="M9 8.5V9h-.5a.5.5 0 1 1 .5-.5Zm2 4.5v-2h2v2h-2Zm-2.5 2H9v.5a.5.5 0 1 1-.5-.5Zm6.5.5V15h.5a.5.5 0 1 1-.5.5Zm.5-6.5H15v-.5a.5.5 0 1 1 .5.5Z"/>
  <path  fill-rule="evenodd" d="M5 3a2 2 0 0 0-2 2v14a2 2 0 0 0 2 2h14a2 2 0 0 0 2-2V5a2 2 0 0 0-2-2H5Zm3.5 3a2.5 2.5 0 0 0 0 5H9v2h-.5a2.5 2.5 0 1 0 2.5 2.5V15h2v.5a2.5 2.5 0 1 0 2.5-2.5H15v-2h.5A2.5 2.5 0 1 0 13 8.5V9h-2v-.5A2.5 2.5 0 0 0 8.5 6Z" clip-rule="evenodd"/>
</svg>
