<svg xmlns="http://www.w3.org/2000/svg" width="24" height="24" fill="currentColor" viewBox="0 0 24 24">
  <path d="M9 15.5a.5.5 0 1 1-.5-.5H9v.5Zm6.5-.5a.5.5 0 1 1-.5.5V15h.5ZM13 13h-2v-2h2v2ZM8.5 8a.5.5 0 0 1 .5.5V9h-.5a.5.5 0 0 1 0-1Zm7 0a.5.5 0 0 1 0 1H15v-.5a.5.5 0 0 1 .5-.5Z"/>
  <path fill-rule="evenodd" d="M21 21H3V3h18v18ZM15.5 6A2.5 2.5 0 0 0 13 8.5V9h-2v-.5A2.5 2.5 0 1 0 8.5 11H9v2h-.5a2.5 2.5 0 1 0 2.5 2.5V15h2v.5a2.5 2.5 0 1 0 2.5-2.5H15v-2h.5a2.5 2.5 0 0 0 0-5Z" clip-rule="evenodd"/>
</svg>
