<svg xmlns="http://www.w3.org/2000/svg" width="24" height="24" fill="currentColor" viewBox="0 0 24 24">
  <path  d="M9 7a1 1 0 0 1 1 1h4.5A1.5 1.5 0 0 1 16 9.5V14a1 1 0 1 1 0 2v4.5a1.5 1.5 0 0 1-1.5 1.5h-11A1.5 1.5 0 0 1 2 20.5v-11A1.5 1.5 0 0 1 3.5 8H8a1 1 0 0 1 1-1Zm12 5a1 1 0 0 1 1 1v1a2 2 0 0 1-2 2h-1a1 1 0 1 1 0-2h1v-1a1 1 0 0 1 1-1Zm0-5a1 1 0 0 1 1 1v2a1 1 0 1 1-2 0V8a1 1 0 0 1 1-1ZM11 2a1 1 0 1 1 0 2h-1v1a1 1 0 0 1-2 0V4a2 2 0 0 1 2-2h1Zm9 0a2 2 0 0 1 2 2v1a1 1 0 1 1-2 0V4h-1a1 1 0 1 1 0-2h1Zm-4 0a1 1 0 1 1 0 2h-2a1 1 0 1 1 0-2h2Z"/>
</svg>
