<svg xmlns="http://www.w3.org/2000/svg" width="24" height="24" fill="currentColor" viewBox="0 0 24 24">
  <path  fill-rule="evenodd" d="M7 2a2 2 0 0 0-2 2H4a2 2 0 0 0-2 2v1a4 4 0 0 0 3.667 3.986 7.008 7.008 0 0 0 5.337 3.944V16H8a2 2 0 0 0-2 2v2a2 2 0 0 0 2 2h8a2 2 0 0 0 2-2v-2a2 2 0 0 0-2-2h-2.996v-1.071a7.008 7.008 0 0 0 5.329-3.943A4 4 0 0 0 22 7V6a2 2 0 0 0-2-2h-1a2 2 0 0 0-2-2H7ZM4 6h1v2c0 .255.014.507.04.755A2 2 0 0 1 4 7V6Zm16 1a2 2 0 0 1-1.04 1.755c.026-.248.04-.5.04-.755V6h1v1Z" clip-rule="evenodd"/>
</svg>
