<svg xmlns="http://www.w3.org/2000/svg" width="24" height="24" fill="currentColor"
  viewBox="0 0 24 24">
  <path fill-rule="evenodd"
    d="M13.252 2.584c1.843.231 3.672.96 4.934 2.286l-1.809 1.724c-.726-.762-1.87-1.276-3.125-1.487v6.072c1.205.315 2.518.686 3.567 1.278.65.367 1.27.852 1.724 1.523.464.686.709 1.496.709 2.42 0 1.703-.922 2.974-2.162 3.782-1.09.71-2.458 1.093-3.838 1.21V23.5h-2.5v-2.182a9.946 9.946 0 0 1-2.527-.697c-1.41-.61-2.701-1.618-3.366-3.113l2.286-1.016c.335.755 1.045 1.39 2.072 1.834.472.204.993.356 1.535.457V13.1c-1.079-.309-2.197-.697-3.122-1.283-1.373-.869-2.378-2.209-2.378-4.246 0-1.502.691-2.698 1.719-3.53.997-.807 2.293-1.265 3.605-1.447.058-.008.117-.014.176-.02V.5h2.5v2.084Zm0 16.295c.991-.11 1.857-.39 2.475-.792.696-.454 1.025-1.01 1.025-1.687 0-.46-.115-.775-.28-1.018-.174-.258-.454-.506-.881-.747-.625-.352-1.414-.61-2.339-.866v5.11Zm-2.5-13.781c-.926.15-1.691.468-2.208.886-.517.419-.792.932-.792 1.587 0 1.033.432 1.638 1.216 2.134.491.311 1.093.556 1.784.78V5.097Z"
    clip-rule="evenodd" />
</svg>