<svg xmlns="http://www.w3.org/2000/svg" width="24" height="24" fill="currentColor" viewBox="0 0 24 24">
  <path  fill-rule="evenodd" d="M5.75 3a4 4 0 0 1 2.933 6.718l2.066.855V9.14a2 2 0 0 1 1.162-1.816l5.346-2.467a2 2 0 0 1 2.118.28L21.89 7.23a1 1 0 0 1-.258 1.693L14.198 12l7.434 3.076a1 1 0 0 1 .258 1.693l-2.515 2.095a2 2 0 0 1-2.118.28l-5.346-2.468a2 2 0 0 1-1.162-1.816v-1.433l-2.066.854a4 4 0 1 1-2.268-1.226L8.968 12l-2.553-1.057A4 4 0 1 1 5.75 3Zm0 12a2 2 0 1 0 0 4 2 2 0 0 0 0-4Zm0-10a2 2 0 1 0 0 4 2 2 0 0 0 0-4Z" clip-rule="evenodd"/>
</svg>
