<svg xmlns="http://www.w3.org/2000/svg" width="24" height="24" fill="currentColor" viewBox="0 0 24 24">
  <path  fill-rule="evenodd" d="M18 2a2 2 0 0 1 2 2v8a5.003 5.003 0 0 0-7.802 2.6A2.996 2.996 0 0 0 11 17v4c0 .35.06.687.17 1H6a2 2 0 0 1-2-2V4a2 2 0 0 1 2-2h12ZM8 9a1 1 0 0 0 0 2h3a1 1 0 1 0 0-2H8Zm0-4a1 1 0 0 0 0 2h6a1 1 0 1 0 0-2H8Z" clip-rule="evenodd"/>
  <path  fill-rule="evenodd" d="M17 13a3 3 0 0 1 3 3v.268A2 2 0 0 1 21 18v2a2 2 0 0 1-2 2h-4a2 2 0 0 1-2-2v-2a2 2 0 0 1 1-1.732V16a3 3 0 0 1 3-3Zm-2 7h4v-2h-4v2Zm2-5a1 1 0 0 0-1 1h2a1 1 0 0 0-1-1Z" clip-rule="evenodd"/>
</svg>
