<svg xmlns="http://www.w3.org/2000/svg" width="24" height="24" fill="currentColor" viewBox="0 0 24 24">
  <path  fill-rule="evenodd" d="M4 4.421c0-1.017.825-1.842 1.842-1.842h11.974c1.017 0 1.842.825 1.842 1.842v8.107A5.527 5.527 0 0 0 12.776 21H5.841A1.842 1.842 0 0 1 4 19.158V4.42Zm3.684 2.763a.92.92 0 0 1 .921-.92h6.448a.921.921 0 1 1 0 1.841H8.605a.921.921 0 0 1-.92-.92Zm0 3.684c0-.508.413-.92.921-.92h2.763a.921.921 0 1 1 0 1.841H8.605a.921.921 0 0 1-.92-.92Zm0 3.684c0-.508.413-.92.921-.92h.921a.921.921 0 0 1 0 1.842h-.92a.921.921 0 0 1-.922-.921Z" clip-rule="evenodd"/>
  <path  fill-rule="evenodd" d="M19.5 14.71a3.684 3.684 0 1 0-.733 5.78l1.16 1.161a.921.921 0 1 0 1.303-1.302l-1.16-1.162a3.686 3.686 0 0 0-.57-4.476Zm-3.908 1.303a1.842 1.842 0 1 1 2.605 2.605 1.842 1.842 0 0 1-2.605-2.605Z" clip-rule="evenodd"/>
</svg>
