<svg xmlns="http://www.w3.org/2000/svg" width="24" height="24" fill="currentColor" viewBox="0 0 24 24">
  <path  fill-rule="evenodd" d="M18 2a2 2 0 0 1 2 2v9.168A6.25 6.25 0 0 0 11.167 22H6a2 2 0 0 1-2-2V4a2 2 0 0 1 2-2h12ZM8 9a1 1 0 0 0 0 2h2a1 1 0 1 0 0-2H8Zm0-4a1 1 0 0 0 0 2h6a1 1 0 1 0 0-2H8Z" clip-rule="evenodd"/>
  <path  fill-rule="evenodd" d="M15.75 13.5c1.318 0 2.494.6 3.273 1.54A3.5 3.5 0 0 1 18.5 22h-2.75a4.25 4.25 0 0 1 0-8.5Zm0 2a2.25 2.25 0 0 0 0 4.5h2.75a1.5 1.5 0 0 0 0-3h-.009a1 1 0 0 1-.845-.46 2.246 2.246 0 0 0-1.896-1.04Z" clip-rule="evenodd"/>
</svg>
