<svg xmlns="http://www.w3.org/2000/svg" width="24" height="24" fill="currentColor" viewBox="0 0 24 24">
  <path fill-rule="evenodd" d="M12 2c5.523 0 10 4.477 10 10s-4.477 10-10 10S2 17.523 2 12 6.477 2 12 2Zm-1 3.5v1.573c-1.31.266-2.5 1.24-2.5 2.704v.077c0 1.208.843 2.16 1.91 2.586l2.438.976c.503.201.652.532.652.73 0 .274-.37.854-1.317.854H12c-.653 0-1.138-.285-1.355-.586l-.586-.81-1.62 1.171.585.81c.463.64 1.172 1.088 1.976 1.291V18.5h2v-1.59c1.323-.296 2.5-1.292 2.5-2.764 0-1.208-.843-2.16-1.91-2.586l-2.438-.976c-.503-.201-.652-.532-.652-.73v-.077c0-.233.328-.777 1.223-.777H12c.653 0 1.138.285 1.355.586l.586.81 1.62-1.171-.585-.81c-.463-.64-1.172-1.088-1.976-1.291V5.5h-2Z" clip-rule="evenodd"/>
</svg>
