<svg xmlns="http://www.w3.org/2000/svg" width="24" height="24" fill="currentColor" viewBox="0 0 24 24">
  <path  fill-rule="evenodd" d="M20 2a4 4 0 1 0 0 8 4 4 0 0 0 0-8Zm-2 4a2 2 0 1 1 4 0 2 2 0 0 1-4 0Z" clip-rule="evenodd"/>
  <path  d="M20 12a5.999 5.999 0 0 1-1.76-.262A15.949 15.949 0 0 1 12 13c-3.784 0-7.26-1.313-10-3.51V18a2 2 0 0 0 2 2h16a2 2 0 0 0 2-2v-6.341A5.99 5.99 0 0 1 20 12Z"/>
  <path  d="M14 6c0-.701.12-1.374.341-2H4a2 2 0 0 0-2 2v.798A13.958 13.958 0 0 0 12 11c1.374 0 2.702-.198 3.957-.567A5.985 5.985 0 0 1 14 6Z"/>
</svg>
