<svg xmlns="http://www.w3.org/2000/svg" width="24" height="24" fill="currentColor" viewBox="0 0 24 24">
  <path d="M2 9.491A15.933 15.933 0 0 0 12 13c2.214 0 4.322-.45 6.24-1.263.556.17 1.148.263 1.76.263a5.99 5.99 0 0 0 2-.342V20H2V9.491Z"/>
  <path d="M14.342 4A5.99 5.99 0 0 0 14 6c0 1.756.755 3.335 1.957 4.433A14.01 14.01 0 0 1 12 11 13.958 13.958 0 0 1 2 6.798V4h12.342Z"/>
  <path fill-rule="evenodd" d="M20 2a4 4 0 1 1 0 8 4 4 0 0 1 0-8Zm0 2a2 2 0 1 0 0 4 2 2 0 0 0 0-4Z" clip-rule="evenodd"/>
</svg>
