<svg xmlns="http://www.w3.org/2000/svg" width="24" height="24" fill="currentColor" viewBox="0 0 24 24">
  <path  d="M10.2 12.45a1.8 1.8 0 0 1 1.8 1.8v4.5a1.8 1.8 0 0 1-1.8 1.8H4.8a1.8 1.8 0 0 1-1.8-1.8v-4.5a1.8 1.8 0 0 1 1.8-1.8h5.4Z"/>
  <path  d="M19.2 3.45a1.8 1.8 0 0 1 1.8 1.8v8.1a1.8 1.8 0 0 1-1.8 1.8h-4.5a.9.9 0 0 1 0-1.8h4.5v-8.1H5.7v4.5a.9.9 0 1 1-1.8 0v-4.5a1.8 1.8 0 0 1 1.8-1.8h13.5Z"/>
  <path  d="M16.5 7.05a.9.9 0 0 1 .9.9v2.7a.9.9 0 0 1-1.8 0v-.527l-1.164 1.163a.9.9 0 1 1-1.272-1.272l1.163-1.164H13.8a.9.9 0 1 1 0-1.8h2.7Z"/>
</svg>
