<svg xmlns="http://www.w3.org/2000/svg" width="24" height="24" fill="currentColor" viewBox="0 0 24 24">
  <path fill-rule="evenodd" d="M22.414 21 21 22.414l-3.798-3.797c-2.65 1.477-5.624 1.777-8.42.868-3.04-.987-5.78-3.37-7.67-7.026L.873 12l.237-.46c1.087-2.1 2.453-3.78 3.997-5.018L1.586 3 3 1.586 22.414 21ZM8.554 9.968a4 4 0 0 0 5.477 5.478l-1.513-1.513a2 2 0 0 1-2.45-2.451L8.553 9.967Z" clip-rule="evenodd"/>
  <path d="M12 4c4.239 0 8.338 2.611 10.888 7.54l.238.46-.238.459c-.73 1.409-1.585 2.629-2.534 3.652L8.763 4.52A10.397 10.397 0 0 1 12 4Z"/>
</svg>
