<svg xmlns="http://www.w3.org/2000/svg" width="24" height="24" fill="currentColor" viewBox="0 0 24 24">
  <path d="m21.414 12.895-.686.728c-1.183 1.258-2.5 2.227-3.896 2.899l1.541 2.548-1.711 1.035-1.732-2.866c-.635.177-1.281.296-1.93.357V21h-2v-3.404a10.97 10.97 0 0 1-1.93-.357l-1.732 2.866-1.712-1.035 1.541-2.549c-1.394-.67-2.712-1.64-3.895-2.898l-.686-.728 1.457-1.37.685.728c2.153 2.29 4.737 3.39 7.271 3.39 2.536 0 5.12-1.1 7.273-3.39l.684-.729 1.458 1.37ZM12 3c3.142 0 6.236 1.37 8.728 4.019l.686.728-1.458 1.371-.684-.728C17.119 6.1 14.535 5 12 5S6.88 6.1 4.727 8.39l-.685.728-1.457-1.37.686-.728C5.764 4.37 8.857 3 11.999 3Z"/>
</svg>
