<svg xmlns="http://www.w3.org/2000/svg" width="24" height="24" fill="currentColor" viewBox="0 0 24 24">
  <path  d="M12 2H6a2 2 0 0 0-2 2v7.917a6.237 6.237 0 0 1 2.25-.417c1.673 0 3.192.659 4.311 1.725A5.501 5.501 0 0 1 13.243 22H18a2 2 0 0 0 2-2V10h-6a2 2 0 0 1-2-2V2Z"/>
  <path  d="M19.414 8 14 2.586V8h5.414Z"/>
  <path  fill-rule="evenodd" d="M6.25 13.5a4.25 4.25 0 0 0 0 8.5H9a3.5 3.5 0 0 0 .523-6.961A4.241 4.241 0 0 0 6.25 13.5ZM4 17.75a2.25 2.25 0 0 1 4.147-1.21 1 1 0 0 0 .844.46H9a1.5 1.5 0 0 1 0 3H6.25A2.25 2.25 0 0 1 4 17.75Z" clip-rule="evenodd"/>
</svg>
