<svg xmlns="http://www.w3.org/2000/svg" width="24" height="24" fill="currentColor" viewBox="0 0 24 24">
  <path fill-rule="evenodd" d="m12.482 1.624.002.001.007.004.022.012.073.042a17.341 17.341 0 0 1 1.164.757c.74.524 1.727 1.302 2.717 2.32 1.968 2.024 4.033 5.089 4.033 9.053 0 2.68-1.061 4.758-2.695 6.15C16.192 21.337 14.077 21.999 12 22c-2.077 0-4.192-.66-5.805-2.034-1.634-1.392-2.695-3.47-2.695-6.154 0-3.963 2.065-7.028 4.033-9.052a19.778 19.778 0 0 1 2.717-2.32 17.341 17.341 0 0 1 1.164-.757l.073-.042.022-.012.007-.004.002-.001.482-.265.482.265ZM12 12c-.34.25-.777.607-1.21 1.06-.94.98-1.79 2.328-1.79 3.99 0 1.065.4 1.776.922 2.227.541.469 1.293.724 2.078.724.785 0 1.536-.257 2.078-.726.523-.452.922-1.162.922-2.225 0-1.661-.851-3.008-1.79-3.989A9.372 9.372 0 0 0 12 12Z" clip-rule="evenodd"/>
</svg>
