<svg xmlns="http://www.w3.org/2000/svg" width="24" height="24" fill="currentColor" viewBox="0 0 24 24">
  <path fill-rule="evenodd" d="M14.67 3.855 18 2.523V8a6.002 6.002 0 0 1-5 5.917v1.69a6.121 6.121 0 0 1 5.093-1.534l.721.112.113.723A6.143 6.143 0 0 1 12 21.94a6.143 6.143 0 0 1-6.927-7.033l.113-.723.721-.112A6.121 6.121 0 0 1 11 15.607v-1.69A6.002 6.002 0 0 1 6 8V2.523l3.33 1.332L12 1.72l2.67 2.136ZM7.003 16.003a4.143 4.143 0 0 0 3.994 3.995 4.143 4.143 0 0 0-3.994-3.995Zm9.994 0a4.143 4.143 0 0 0-3.994 3.995 4.143 4.143 0 0 0 3.994-3.995Z" clip-rule="evenodd"/>
</svg>
