<svg xmlns="http://www.w3.org/2000/svg" width="24" height="24" fill="currentColor" viewBox="0 0 24 24">
  <path  fill-rule="evenodd" d="M10.76 2.606a1.986 1.986 0 0 1 2.48 0l1.411 1.128 1.43-.572a1.368 1.368 0 0 1 1.877 1.27v3.666a5.96 5.96 0 0 1-4.965 5.876v1.678a6.077 6.077 0 0 1 4.194-1.595 1.784 1.784 0 0 1 1.764 1.843 6.1 6.1 0 0 1-5.958 6.098V22h-1.986v-.002A6.1 6.1 0 0 1 5.05 15.82a1.784 1.784 0 0 1 1.843-1.764c1.586 0 3.03.605 4.114 1.596v-1.678a5.96 5.96 0 0 1-4.965-5.876V4.433c0-.968.978-1.63 1.877-1.27l1.43.571 1.41-1.128ZM7.037 16.045a4.114 4.114 0 0 0 3.967 3.967 4.114 4.114 0 0 0-3.967-3.967Zm9.924 0a4.114 4.114 0 0 1-3.966 3.967 4.114 4.114 0 0 1 3.966-3.967Z" clip-rule="evenodd"/>
</svg>
