<svg xmlns="http://www.w3.org/2000/svg" width="24" height="24" fill="currentColor" viewBox="0 0 24 24">
  <path  fill-rule="evenodd" d="M2 5a2 2 0 0 1 2-2h5.465a2 2 0 0 1 1.664.89L12.535 6H20a2 2 0 0 1 2 2v10a2 2 0 0 1-2 2H9.83a3 3 0 0 0-.594-3A3 3 0 0 0 5 12.764a3.001 3.001 0 0 0-3-.593V5Z" clip-rule="evenodd"/>
  <path  fill-rule="evenodd" d="M7.707 14.293a1 1 0 0 1 0 1.414L6.414 17l1.293 1.293a1 1 0 1 1-1.414 1.414L5 18.414l-1.293 1.293a1 1 0 0 1-1.414-1.414L3.586 17l-1.293-1.293a1 1 0 1 1 1.414-1.414L5 15.586l1.293-1.293a1 1 0 0 1 1.414 0Z" clip-rule="evenodd"/>
</svg>
