<svg xmlns="http://www.w3.org/2000/svg" width="24" height="24" fill="currentColor" viewBox="0 0 24 24">
  <path d="m15 3-4 3V4.062A8.002 8.002 0 0 0 12 20a8 8 0 0 0 8-8 7.97 7.97 0 0 0-2.343-5.657l1.414-1.414A9.972 9.972 0 0 1 22 12c0 5.523-4.477 10-10 10S2 17.523 2 12c0-5.185 3.947-9.448 9-9.95V0l4 3Z"/>
  <path d="M16.737 9.804h-3.373l-.15 1.638h.07c.16-.236.671-.627 1.568-.627 1.268 0 2.412.896 2.412 2.41 0 1.65-1.225 2.66-2.939 2.66-1.761 0-2.739-.99-2.765-2.187h1.61c.076.489.538.822 1.182.822.624 0 1.193-.462 1.193-1.208 0-.715-.505-1.204-1.193-1.204-.622 0-.988.365-1.123.65h-1.573l.312-4.345h4.77v1.39Zm-6.451 5.946H8.53v-5.715h-.075c-.483.317-1.128.73-1.654 1.096V9.567A39.182 39.182 0 0 1 8.55 8.42h1.735v7.331Z"/>
</svg>
