<svg xmlns="http://www.w3.org/2000/svg" width="24" height="24" fill="currentColor" viewBox="0 0 24 24">
  <path d="m15 3-4 3V4.062A8.002 8.002 0 0 0 12 20a8 8 0 0 0 8-8 7.97 7.97 0 0 0-2.343-5.657l1.414-1.414A9.972 9.972 0 0 1 22 12c0 5.523-4.477 10-10 10S2 17.523 2 12c0-5.185 3.947-9.448 9-9.95V0l4 3Z"/>
  <path fill-rule="evenodd" d="M14.331 8.29c1.869 0 2.879 1.423 2.879 3.555v.467c0 1.982-.962 3.573-2.917 3.573-1.863 0-2.878-1.457-2.878-3.572v-.468c0-2.116 1.063-3.555 2.916-3.555Zm-.016 1.418c-.672 0-1.123.682-1.123 2.143v.456c0 1.46.451 2.159 1.123 2.159.666 0 1.123-.71 1.123-2.16v-.455c0-1.45-.457-2.143-1.123-2.143Z" clip-rule="evenodd"/>
  <path d="M10.308 15.75H8.552v-5.715h-.075c-.484.317-1.128.73-1.655 1.096V9.567A39.176 39.176 0 0 1 8.573 8.42h1.735v7.331Z"/>
</svg>
