<svg xmlns="http://www.w3.org/2000/svg" width="24" height="24" fill="currentColor" viewBox="0 0 24 24">
  <path d="m15 3-4 3V4.062A8.002 8.002 0 0 0 12 20a8 8 0 0 0 8-8 7.97 7.97 0 0 0-2.343-5.657l1.414-1.414A9.972 9.972 0 0 1 22 12c0 5.523-4.477 10-10 10S2 17.523 2 12c0-5.185 3.947-9.448 9-9.95V0l4 3Z"/>
  <path d="M8.713 8.29c1.509 0 2.648.784 2.66 1.922.01 1.042-.769 1.563-1.322 1.639v.075c.709.048 1.53.602 1.54 1.761.011 1.365-1.374 2.198-2.947 2.198-1.88 0-2.756-1.064-2.772-2.262h1.621c.038.526.506.913 1.194.913.708 0 1.144-.414 1.138-.962 0-.52-.409-.94-1.16-.94h-.811v-1.31h.773c.618 0 1.02-.37 1.02-.88-.005-.473-.413-.832-1.003-.833-.65 0-1.005.467-1.021.908h-1.65C6.023 9.213 7 8.29 8.714 8.29Z"/>
  <path fill-rule="evenodd" d="M15.206 8.29c1.87 0 2.879 1.423 2.879 3.555v.467c0 1.982-.961 3.573-2.916 3.573-1.864 0-2.879-1.456-2.879-3.572v-.468c0-2.116 1.064-3.555 2.916-3.555Zm-.016 1.418c-.671 0-1.122.682-1.122 2.143v.456c0 1.46.451 2.159 1.122 2.159.666 0 1.124-.71 1.124-2.16v-.455c0-1.45-.458-2.143-1.124-2.143Z" clip-rule="evenodd"/>
</svg>
