<svg xmlns="http://www.w3.org/2000/svg" width="24" height="24" fill="currentColor" viewBox="0 0 24 24">
  <path d="m22.413 5.999-3.999 4.009c1.217 1.52 2.13 3.093 2.519 4.574.455 1.739.2 3.492-1.309 4.699-1.211.97-2.573.838-3.66.389-1.058-.438-1.997-1.219-2.642-1.841l-.72-.695 1.39-1.439.72.695c.58.56 1.304 1.138 2.016 1.432.682.282 1.2.255 1.647-.102.706-.565.946-1.396.623-2.631-.28-1.07-.97-2.329-2.006-3.656L14.432 14H10V9.586l2.32-2.32c-2.857-1.531-5.592-1.388-7.017.037-.968.968-1.35 2.496-1.007 4.327.342 1.824 1.397 3.842 3.128 5.573 2.049 2.049 3.925 2.604 4.818 2.827l.97.242-.484 1.94-.971-.241c-1.107-.277-3.357-.964-5.747-3.354-1.979-1.979-3.254-4.35-3.68-6.62-.424-2.262-.012-4.537 1.56-6.107 2.446-2.446 6.5-2.099 9.896-.09L18 1.587 22.413 6Z"/>
</svg>
