<svg xmlns="http://www.w3.org/2000/svg" width="24" height="24" fill="currentColor" viewBox="0 0 24 24">
  <path  d="M19.047 3.403a1.957 1.957 0 0 0-2.768 0l-2.74 2.74c-3.324-1.966-7.292-2.307-9.686.088-1.537 1.537-1.94 3.763-1.525 5.979.416 2.221 1.664 4.54 3.601 6.478a13.67 13.67 0 0 0 3.467 2.508c.518.262.988.454 1.374.584.343.116.725.219 1.021.219a.979.979 0 0 0 0-1.958c.018 0 .016 0-.008-.006-.046-.01-.17-.036-.388-.11a8.71 8.71 0 0 1-1.117-.476 11.712 11.712 0 0 1-2.965-2.146C5.62 15.61 4.587 13.636 4.252 11.85c-.336-1.792.038-3.287.985-4.234 1.395-1.396 4.071-1.535 6.867-.036l-1.697 1.696a1.957 1.957 0 0 0-.573 1.384v2.531c0 .54.438.979.978.979h2.547c.52 0 1.019-.207 1.386-.575l1.932-1.937c1.014 1.299 1.69 2.53 1.963 3.577.317 1.209.081 2.022-.61 2.575-.437.35-.943.376-1.612.1-.697-.288-1.405-.852-1.973-1.4a.979.979 0 0 0-1.36 1.407c.631.61 1.55 1.375 2.586 1.802 1.064.44 2.396.568 3.582-.38 1.477-1.182 1.727-2.898 1.281-4.6-.38-1.45-1.274-2.989-2.465-4.476l2.533-2.54a1.957 1.957 0 0 0-.002-2.766l-1.553-1.553Z"/>
</svg>
