<svg xmlns="http://www.w3.org/2000/svg" width="24" height="24" fill="currentColor" viewBox="0 0 24 24">
  <path d="M11.037 5.006c1.938.057 3.882.523 5.395 1.429 1.524.913 2.77 2.395 2.77 4.425 0 1.28-.626 2.274-1.438 2.952-.784.653-1.77 1.048-2.704 1.257a8.14 8.14 0 0 1-2.844.136c-.83-.116-1.864-.425-2.534-1.207-.62-.723-.549-1.607-.216-2.21.035-.064.073-.126.114-.184-.62.141-1.112.373-1.419.63-.282.234-.36.438-.36.647 0 .683.4 1.382 1.444 2.005 1.05.626 2.557 1.035 4.186 1.103 1.625.069 3.22-.208 4.437-.802 1.198-.583 1.935-1.414 2.168-2.478l.321-1.465 2.931.642-.321 1.466c-.48 2.188-1.998 3.662-3.784 4.533-1.767.86-3.882 1.186-5.88 1.102-1.993-.084-4.017-.583-5.595-1.525-1.583-.945-2.906-2.473-2.906-4.581 0-1.28.625-2.274 1.438-2.951.784-.654 1.77-1.048 2.704-1.258a8.133 8.133 0 0 1 2.843-.136c.83.116 1.864.425 2.534 1.207.62.724.549 1.608.216 2.21a2.212 2.212 0 0 1-.114.185c.62-.142 1.112-.374 1.419-.63.282-.235.36-.439.36-.648 0-.637-.358-1.28-1.312-1.851-.967-.579-2.377-.958-3.942-1.004-3.258-.097-6.184 1.2-7.038 3.539l-.514 1.408-2.818-1.028.515-1.41c1.52-4.165 6.196-5.62 9.944-5.508Z"/>
</svg>
