<svg xmlns="http://www.w3.org/2000/svg" width="24" height="24" fill="currentColor" viewBox="0 0 24 24">
  <path  fill-rule="evenodd" d="M2.293 2.293a1 1 0 0 1 1.414 0l18 18a1 1 0 0 1-1.414 1.414L15 16.414V19a1 1 0 1 1 0 2H3a1 1 0 1 1 0-2V6c0-.463.105-.902.292-1.293l-1-1a1 1 0 0 1 0-1.414ZM7.586 9l2 2H7a1 1 0 1 1 0-2h.586Z" clip-rule="evenodd"/>
  <path  d="M8 4a1 1 0 0 1 1-1h3a3 3 0 0 1 3 3v3h1a3 3 0 0 1 3 3v1.5a1 1 0 1 1-2 0V12a1 1 0 0 0-1-1l-.75-.172a2 2 0 0 1-2-2L13 6a1 1 0 0 0-1-1H9a1 1 0 0 1-1-1Z"/>
  <path  d="M19.707 5.293a1 1 0 1 0-1.414 1.414l1.414 1.414a1 1 0 0 1 .293.707V16a1 1 0 1 0 2 0V8.828a3 3 0 0 0-.879-2.12l-1.414-1.415Z"/>
</svg>
