<svg xmlns="http://www.w3.org/2000/svg" width="24" height="24" fill="currentColor" viewBox="0 0 24 24">
  <path fill-rule="evenodd" d="M22 20H2V4h20v16ZM8.368 9.25c-.537 0-.988.107-1.353.32a2.07 2.07 0 0 0-.825.865 2.746 2.746 0 0 0-.276 1.249v.59c0 .324.044.636.134.935.09.296.23.56.422.792.194.231.446.415.756.55.311.132.687.199 1.127.199.416 0 .77-.06 1.061-.18.294-.12.532-.279.714-.48.181-.2.313-.425.395-.674a2.41 2.41 0 0 0 .125-.768v-1H8.49v1.085h.653v.063a.643.643 0 0 1-.326.546.811.811 0 0 1-.419.098c-.235 0-.414-.057-.537-.168a.89.89 0 0 1-.253-.44 2.398 2.398 0 0 1-.064-.566v-.563c0-.369.068-.65.203-.846.138-.197.341-.296.61-.296a.88.88 0 0 1 .306.05c.09.034.164.081.226.141a.611.611 0 0 1 .142.195.654.654 0 0 1 .065.226h1.552c0-.234-.045-.464-.137-.69a1.78 1.78 0 0 0-.414-.62 1.977 1.977 0 0 0-.713-.445 2.788 2.788 0 0 0-1.016-.168Zm3.144 5.41h1.61V9.336h-1.61v5.324Zm2.683-5.324v5.324h1.61v-1.837h1.906v-1.232h-1.905v-.976h2.108v-1.28h-3.719Z" clip-rule="evenodd"/>
</svg>
