<svg xmlns="http://www.w3.org/2000/svg" width="24" height="24" fill="currentColor" viewBox="0 0 24 24">
  <path d="M9.98 13a12.072 12.072 0 0 1-2.522 2.16l-.84.542 1.084 1.68.84-.542c.92-.594 1.73-1.256 2.458-2V21H3v-8h6.98ZM21 21h-8v-6.16a14.11 14.11 0 0 0 2.458 2l.84.543 1.085-1.68-.841-.543A12.071 12.071 0 0 1 14.019 13H21v8ZM11 3v4.4c-.5-.256-1.067-.4-1.667-.4A2.333 2.333 0 0 0 7 9.333c0 .6.144 1.167.4 1.667H3V3h8Z"/>
  <path d="M9.333 9c.92 0 1.667.746 1.667 1.667V11h-.333C9.747 11 9 10.254 9 9.333 9 9.149 9.15 9 9.333 9Zm5.334 0c.184 0 .333.15.333.333 0 .92-.746 1.667-1.667 1.667H13v-.333C13 9.747 13.746 9 14.667 9Z"/>
  <path d="M21 11h-4.4c.256-.5.4-1.067.4-1.667A2.333 2.333 0 0 0 14.667 7c-.6 0-1.167.144-1.667.4V3h8v8Z"/>
</svg>
