<svg xmlns="http://www.w3.org/2000/svg" width="24" height="24" fill="currentColor" viewBox="0 0 24 24">
  <path  d="M12.83 3.473C12.47 3.09 12.19 3 12 3c-.188 0-.47.091-.83.473-.363.384-.736.992-1.07 1.827-.58 1.454-.986 3.443-1.079 5.7h5.959c-.094-2.257-.498-4.246-1.08-5.7-.334-.835-.706-1.443-1.07-1.827ZM14.98 13H9.02c.093 2.257.498 4.246 1.08 5.7.333.835.706 1.444 1.069 1.827.36.381.642.473.83.473.19 0 .47-.091.83-.473.364-.384.736-.992 1.07-1.827.582-1.454.986-3.443 1.08-5.7Zm-7.96-2c.094-2.467.534-4.718 1.224-6.442.348-.871.775-1.647 1.286-2.25A10.008 10.008 0 0 0 2.05 11h4.97Zm-4.97 2h4.97c.094 2.467.534 4.718 1.224 6.442.348.871.775 1.647 1.286 2.25A10.008 10.008 0 0 1 2.05 13Zm14.931 0h4.97a10.008 10.008 0 0 1-7.48 8.693c.51-.604.938-1.38 1.286-2.25.69-1.725 1.13-3.976 1.224-6.443Zm4.97-2a10.008 10.008 0 0 0-7.48-8.693c.51.604.938 1.38 1.286 2.25.69 1.725 1.13 3.976 1.224 6.443h4.97Z"/>
</svg>
