<svg xmlns="http://www.w3.org/2000/svg" width="24" height="24" fill="currentColor" viewBox="0 0 24 24">
  <path d="M2.06 4c1.167 0 2.225.706 2.7 1.805l1.412 3.268a.546.546 0 0 0 .898.17l.4-.411c.098.37.287.722.57 1.013.622.64 1.524.817 2.302.534.067.464.273.912.62 1.27a2.17 2.17 0 0 0 1.698.66 2.297 2.297 0 0 0 .642 1.744 2.166 2.166 0 0 0 3.123 0l1.753-1.804.01-.01 2.898-2.98a1.099 1.099 0 0 1 1.585 0c.432.445.439 1.156.02 1.603-1.436 1.53-3.952 4.172-5.865 5.982-.95.9-2.114 1.935-3.243 2.918-2.16 1.878-5.382 1.581-7.247-.631l-2.6-3.086a5.531 5.531 0 0 1-1.288-3.28L2 4h.06Z"/>
  <path d="M15.84 9.845a1.077 1.077 0 0 1 1.554 0c.428.44.43 1.154.007 1.597l-1.176 1.21-.005.005-.58.596a1.077 1.077 0 0 1-1.554 0 1.158 1.158 0 0 1 0-1.605l1.754-1.803Zm-2.923-1.804a1.077 1.077 0 0 1 1.554 0 1.16 1.16 0 0 1 0 1.605L13.3 10.85a1.078 1.078 0 0 1-1.554 0 1.16 1.16 0 0 1 0-1.606l1.17-1.202ZM9.994 6.237a1.077 1.077 0 0 1 1.554 0 1.16 1.16 0 0 1 0 1.606l-.585.6-.001.002-.583.6a1.078 1.078 0 0 1-1.555 0 1.158 1.158 0 0 1 0-1.605l1.17-1.203Z"/>
</svg>
