<svg xmlns="http://www.w3.org/2000/svg" width="24" height="24" fill="currentColor" viewBox="0 0 24 24">
  <path d="M3.1 3c.528 0 .984.38 1.082.911l.002.01 1.753 7.774.015-.003a2.342 2.342 0 0 0 2.309 1.995 2.32 2.32 0 0 0 1.774-.824 2.321 2.321 0 0 0 3.55 0 2.322 2.322 0 0 0 3.47.09l1.056-1.075c.141-.143.268-.25.397-.32a2.964 2.964 0 0 1 3.492.495l-4.326 5.827A7.695 7.695 0 0 1 11.497 21H9.251c-3.434 0-6.287-2.687-6.523-6.156L2.002 4.19A1.109 1.109 0 0 1 3.1 3Z"/>
  <path d="M8.26 6.516c.668 0 1.215.547 1.215 1.23v3.586c0 .683-.547 1.23-1.214 1.23a1.223 1.223 0 0 1-1.215-1.23V7.746c0-.683.547-1.23 1.215-1.23Zm3.55.597c.668 0 1.214.548 1.214 1.23v2.989c0 .683-.546 1.23-1.213 1.23a1.223 1.223 0 0 1-1.215-1.23V8.344c0-.683.547-1.23 1.214-1.23Zm3.55.597a1.223 1.223 0 0 1 1.214 1.231v2.391c0 .683-.547 1.23-1.214 1.23a1.223 1.223 0 0 1-1.214-1.23v-2.39c0-.684.547-1.231 1.214-1.231Z"/>
</svg>
