<svg xmlns="http://www.w3.org/2000/svg" width="24" height="24" fill="currentColor" viewBox="0 0 24 24">
  <path d="M18.33 19.743A9.96 9.96 0 0 1 12 22a9.96 9.96 0 0 1-6.33-2.257l3.933-3.933c.694.437 1.516.69 2.397.69.88 0 1.702-.253 2.396-.69l3.932 3.933ZM8.19 9.604A4.479 4.479 0 0 0 7.5 12c0 .88.253 1.702.69 2.396l-3.933 3.932A9.959 9.959 0 0 1 2 12a9.96 9.96 0 0 1 2.257-6.33L8.19 9.605ZM19.741 5.67A9.961 9.961 0 0 1 22 12a9.958 9.958 0 0 1-2.258 6.328l-3.932-3.932A4.48 4.48 0 0 0 16.5 12a4.48 4.48 0 0 0-.69-2.396l3.932-3.933ZM12.001 2c2.401 0 4.604.846 6.328 2.257L14.396 8.19a4.48 4.48 0 0 0-2.395-.69c-.88 0-1.703.253-2.397.69L5.672 4.257A9.96 9.96 0 0 1 12 2Z"/>
</svg>
