<svg xmlns="http://www.w3.org/2000/svg" width="24" height="24" fill="currentColor" viewBox="0 0 24 24">
  <path  fill-rule="evenodd" d="M4.862 3.017C5.07 3 5.316 3 5.568 3h12.864c.252 0 .498 0 .706.017.229.019.499.063.77.201a2 2 0 0 1 .874.874c.138.271.182.541.201.77.017.208.017.454.017.706v12.864c0 .252 0 .498-.017.706a2.022 2.022 0 0 1-.201.77 2 2 0 0 1-.874.874 2.022 2.022 0 0 1-.77.201c-.208.017-.454.017-.706.017H5.568c-.252 0-.498 0-.706-.017a2.022 2.022 0 0 1-.77-.201 2 2 0 0 1-.874-.874 2.022 2.022 0 0 1-.201-.77C3 18.93 3 18.684 3 18.432V5.568c0-.252 0-.498.017-.706a2.03 2.03 0 0 1 .201-.77 2 2 0 0 1 .874-.874 2.03 2.03 0 0 1 .77-.201ZM12 7a8.954 8.954 0 0 0-4.503 1.208 1 1 0 1 0 1.006 1.728A6.954 6.954 0 0 1 12 9c1.215 0 2.427.313 3.497.936a1 1 0 0 0 1.006-1.728A8.954 8.954 0 0 0 12 7Zm0 5.75c-.54 0-1.078.118-1.57.352a1 1 0 0 1-.86-1.806A5.657 5.657 0 0 1 12 10.75c.83 0 1.663.181 2.43.546a1 1 0 1 1-.86 1.806A3.66 3.66 0 0 0 12 12.75ZM12 17a1.25 1.25 0 1 1 0-2.5 1.25 1.25 0 0 1 0 2.5Z" clip-rule="evenodd"/>
</svg>
