<svg xmlns="http://www.w3.org/2000/svg" width="24" height="24" fill="currentColor" viewBox="0 0 24 24">
  <path fill-rule="evenodd" d="M21 21H3V3h18v18Zm-8.999-6.5a1.25 1.25 0 1 0 0 2.5 1.25 1.25 0 0 0 0-2.5ZM12 10.75c-1.22 0-2.445.392-3.458 1.182l1.23 1.576A3.62 3.62 0 0 1 12 12.75c.795 0 1.583.255 2.23.759l1.229-1.578A5.623 5.623 0 0 0 12 10.75ZM12 7c-1.94 0-3.885.623-5.49 1.876l1.23 1.576A6.916 6.916 0 0 1 12 9c1.514 0 3.022.486 4.26 1.452l1.23-1.576A8.915 8.915 0 0 0 12 7Z" clip-rule="evenodd"/>
</svg>
