<svg xmlns="http://www.w3.org/2000/svg" width="24" height="24" fill="currentColor" viewBox="0 0 24 24">
  <path  fill-rule="evenodd" d="M8.201 1.333A5.002 5.002 0 0 0 5 6v10a2 2 0 0 0 2 2h2v2a3 3 0 1 0 6 0v-2h2a2 2 0 0 0 2-2V6a5 5 0 0 0-4.992-5H10c-.634 0-1.24.118-1.799.333Zm-1.2 11.762L7 13.097V16h10v-4.492c-.416.267-.889.526-1.352.684a3.508 3.508 0 0 1-.144.046c-1.275.377-2.329.098-3.173-.222-.12-.046-.237-.093-.349-.139l-.2-.082c-.731-.3-1.227-.503-1.764-.495a2.082 2.082 0 0 0-.234.016c-.423.054-.931.27-1.461.625a7.242 7.242 0 0 0-1.321 1.154ZM13 18h-2v2a1 1 0 1 0 2 0v-2Z" clip-rule="evenodd"/>
</svg>
