<svg xmlns="http://www.w3.org/2000/svg" width="24" height="24" fill="currentColor" viewBox="0 0 24 24">
  <path d="M16.42 9.012c1.51-.125 2.727 1.04 3.679 2.565.998 1.601 1.956 3.99 2.865 7.147L23.33 20H.72l.314-1.245.97.245-.97-.245v-.003l.002-.004.004-.017.015-.056.056-.205c.05-.175.121-.421.215-.716a20.54 20.54 0 0 1 .83-2.182c.357-.79.82-1.64 1.39-2.308.554-.649 1.356-1.293 2.395-1.293 1.244 0 2.266.671 2.974 1.14l.129.085c.33.22.597.395.857.53.285.146.47.192.601.193l.001-.001c.019-.005.174-.05.512-.413.271-.292.541-.652.864-1.082l.357-.474c.88-1.151 2.197-2.774 4.185-2.938ZM9.502 3.5a3.5 3.5 0 1 1 0 7 3.5 3.5 0 0 1 0-7Z"/>
</svg>
