<svg xmlns="http://www.w3.org/2000/svg" width="24" height="24" fill="currentColor" viewBox="0 0 24 24">
  <path  d="M16.42 9.261c1.341-.11 2.45.803 3.324 2.032.902 1.269 1.76 3.15 2.579 5.609l-.948.315.973-.228a1.053 1.053 0 0 0-.025-.087l.012.036c.1.3.197.588.253.836.063.27.106.603.015.964-.123.49-.438.928-.864 1.199-.318.202-.653.263-.93.29-.257.023-.567.023-.893.023H4.017c-.304 0-.603 0-.854-.025a2.004 2.004 0 0 1-.918-.3 2.057 2.057 0 0 1-.858-1.239 1.974 1.974 0 0 1 .034-.941c.06-.237.16-.502.258-.764l.014-.037c.342-.91.83-2.02 1.459-2.92.588-.84 1.513-1.803 2.789-1.803 1.243 0 2.265.672 2.973 1.14l.129.085c.33.22.597.396.857.53.286.148.472.193.602.193.02-.005.173-.05.511-.414.272-.292.542-.652.864-1.082.112-.149.231-.307.358-.473.879-1.152 2.197-2.774 4.184-2.939ZM9.503 3.75a3.5 3.5 0 1 1 0 7 3.5 3.5 0 0 1 0-7Z"/>
</svg>
