<svg xmlns="http://www.w3.org/2000/svg" width="24" height="24" fill="currentColor" viewBox="0 0 24 24">
  <path  d="M17.492 9.002a2.499 2.499 0 1 1-4.997 0 2.499 2.499 0 0 1 4.997 0Z"/>
  <path  fill-rule="evenodd" d="M4.999 3.005H18.99c1.1 0 1.999.9 1.999 1.999v13.992c0 1.1-.9 1.999-1.999 1.999H5c-1.1 0-1.999-.9-1.999-1.999V5.004c0-1.1.9-1.999 1.999-1.999ZM18.99 12.83V5.003H5v7.216l1.27-.95.02-.02a2.989 2.989 0 0 1 3.857.45c1.47 1.58 2.938 2.749 4.847 2.749 1.7 0 2.859-.56 3.998-1.62Z" clip-rule="evenodd"/>
</svg>
