<svg xmlns="http://www.w3.org/2000/svg" width="24" height="24" fill="currentColor" viewBox="0 0 24 24">
  <path d="M16.608 16.002c.684-.183 1.338.037 1.46.493.123.456-.333.975-1.017 1.158-.684.184-1.338-.038-1.46-.494-.122-.456.333-.974 1.017-1.157Zm-3.983-2.475c.57-.152 1.182.279 1.365.963.183.684-.13 1.363-.7 1.516-.571.152-1.182-.279-1.365-.963-.183-.684.13-1.363.7-1.516Z"/>
  <path fill-rule="evenodd" d="M21 3v18H3V3h18Zm-3.556 5.983a9.686 9.686 0 0 0-2.567.335 9.684 9.684 0 0 0-2.392.995L8.24 9.326l.878 4.863c-.324.945-.384 1.937-.125 2.903A4.814 4.814 0 0 0 10.011 19H19v-4.657c-.398-.109-.75-.47-.88-.96-.184-.684.13-1.362.7-1.515a.911.911 0 0 1 .18-.03V7.5l-1.556 1.483Z" clip-rule="evenodd"/>
</svg>
