<svg xmlns="http://www.w3.org/2000/svg" width="24" height="24" fill="currentColor" viewBox="0 0 24 24">
  <path  fill-rule="evenodd" d="M5.568 3c-.252 0-.498 0-.706.017a2.022 2.022 0 0 0-.77.201 2 2 0 0 0-.874.874 2.022 2.022 0 0 0-.201.77C3 5.07 3 5.316 3 5.568v12.864c0 .252 0 .498.017.706.019.229.063.499.201.77a2 2 0 0 0 .874.874c.271.138.541.182.77.201.208.017.454.017.706.017h12.864c.252 0 .498 0 .706-.017a2.03 2.03 0 0 0 .77-.201 2 2 0 0 0 .874-.874 2.03 2.03 0 0 0 .201-.77c.017-.208.017-.454.017-.706V5.568c0-.252 0-.498-.017-.706a2.022 2.022 0 0 0-.201-.77 2 2 0 0 0-.874-.874 2.022 2.022 0 0 0-.77-.201C18.93 3 18.684 3 18.432 3H5.568ZM10 11a1 1 0 0 1 1-1h1a1 1 0 0 1 1 1v5a1 1 0 1 1-2 0v-4a1 1 0 0 1-1-1Zm2-4a1 1 0 1 0 0 2 1 1 0 0 0 0-2Z" clip-rule="evenodd"/>
</svg>
