<svg xmlns="http://www.w3.org/2000/svg" width="24" height="24" fill="currentColor" viewBox="0 0 24 24">
  <path  d="M12.707 2.293a1 1 0 0 0-1.414 0l-2 2a1 1 0 0 0 1.414 1.414L12 4.414l1.293 1.293a1 1 0 1 0 1.414-1.414l-2-2Z"/>
  <path  fill-rule="evenodd" d="M1 10a2 2 0 0 1 2-2h18a2 2 0 0 1 2 2v10a2 2 0 0 1-2 2H3a2 2 0 0 1-2-2V10Zm3.75 3a1.25 1.25 0 1 0 2.5 0 1.25 1.25 0 0 0-2.5 0ZM10 16a1 1 0 1 0 0 2h4a1 1 0 1 0 0-2h-4Zm6.75-3a1.25 1.25 0 1 0 2.5 0 1.25 1.25 0 0 0-2.5 0ZM14 14.25a1.25 1.25 0 1 1 0-2.5 1.25 1.25 0 0 1 0 2.5ZM8.75 13a1.25 1.25 0 1 0 2.5 0 1.25 1.25 0 0 0-2.5 0ZM6 18.25a1.25 1.25 0 1 1 0-2.5 1.25 1.25 0 0 1 0 2.5ZM16.75 17a1.25 1.25 0 1 0 2.5 0 1.25 1.25 0 0 0-2.5 0Z" clip-rule="evenodd"/>
</svg>
