<svg xmlns="http://www.w3.org/2000/svg" width="24" height="24" fill="currentColor" viewBox="0 0 24 24">
  <path  fill-rule="evenodd" d="M19 3a1 1 0 1 0-2 0v1H7a2 2 0 0 0-2 2v2H3a2 2 0 0 0-2 2v10a2 2 0 0 0 2 2h18a2 2 0 0 0 2-2V10a2 2 0 0 0-2-2H7V6h10a2 2 0 0 0 2-2V3Zm-9 13a1 1 0 1 0 0 2h4a1 1 0 1 0 0-2h-4Zm-5.25-3a1.25 1.25 0 1 0 2.5 0 1.25 1.25 0 0 0-2.5 0Zm12 0a1.25 1.25 0 1 0 2.5 0 1.25 1.25 0 0 0-2.5 0ZM14 14.25a1.25 1.25 0 1 1 0-2.5 1.25 1.25 0 0 1 0 2.5ZM8.75 13a1.25 1.25 0 1 0 2.5 0 1.25 1.25 0 0 0-2.5 0ZM6 18.25a1.25 1.25 0 1 1 0-2.5 1.25 1.25 0 0 1 0 2.5ZM16.75 17a1.25 1.25 0 1 0 2.5 0 1.25 1.25 0 0 0-2.5 0Z" clip-rule="evenodd"/>
</svg>
