<svg xmlns="http://www.w3.org/2000/svg" width="24" height="24" fill="currentColor" viewBox="0 0 24 24">
  <path fill-rule="evenodd" d="M17 8h-1v2.64c.212.25.45.515.71.8l.13.142c.312.343.649.711.974 1.092.731.857 1.488 1.866 1.89 2.99.182.511.296 1.06.296 1.635A4.702 4.702 0 0 1 15.299 22H8.7A4.702 4.702 0 0 1 4 17.299c0-.576.114-1.124.297-1.636.401-1.123 1.158-2.132 1.89-2.99.324-.38.66-.748.973-1.091l.13-.142c.26-.285.498-.55.71-.8V8H7V6h10v2Zm-7 3.35-.219.275c-.306.383-.662.777-1.013 1.163l-.131.143a41.44 41.44 0 0 0-.93 1.042c-.2.233-.387.464-.56.692.762-.101 1.637-.185 2.38-.165 1.135.03 2 .303 2.746.538l.027.008c.752.237 1.385.431 2.226.454.744.02 1.737-.093 2.582-.222l.16-.025c-.27-.42-.603-.845-.975-1.28a41.44 41.44 0 0 0-.93-1.042l-.13-.143a24.67 24.67 0 0 1-1.014-1.163L14 11.351V8h-4v3.35Z" clip-rule="evenodd"/>
  <path d="M10 3a1 1 0 1 1 0 2 1 1 0 0 1 0-2Zm3.5-2a1.5 1.5 0 1 1 0 3 1.5 1.5 0 0 1 0-3Z"/>
</svg>
