<svg xmlns="http://www.w3.org/2000/svg" width="24" height="24" fill="currentColor" viewBox="0 0 24 24">
  <path  fill-rule="evenodd" d="M12.632 3.442c2.101-1.19 4.817-1.698 8.44-1.44a1 1 0 0 1 .925.927c.26 3.622-.249 6.338-1.44 8.439-1.088 1.92-2.689 3.226-4.557 4.239v1.933a2 2 0 0 1-.698 1.519l-3.151 2.7a1 1 0 0 1-1.599-.44l-.002-.006-.01-.028a19.978 19.978 0 0 0-.2-.543 23.75 23.75 0 0 0-.6-1.425c-.526-1.142-1.215-2.378-1.947-3.11-.732-.732-1.968-1.421-3.11-1.948a24.12 24.12 0 0 0-1.968-.8l-.028-.01-.006-.001a1.002 1.002 0 0 1-.44-1.599l2.7-3.15A2 2 0 0 1 6.46 8h1.933c1.013-1.868 2.318-3.47 4.239-4.558ZM15.5 10.5a2 2 0 1 0 0-4 2 2 0 0 0 0 4Z" clip-rule="evenodd"/>
  <path  d="M5.207 16.793a1 1 0 0 1 0 1.414l-2.5 2.5a1 1 0 0 1-1.414-1.414l2.5-2.5a1 1 0 0 1 1.414 0Zm2 3.414a1 1 0 1 0-1.414-1.414l-1.5 1.5a1 1 0 1 0 1.414 1.414l1.5-1.5Z"/>
</svg>
