<svg xmlns="http://www.w3.org/2000/svg" width="24" height="24" fill="currentColor" viewBox="0 0 24 24">
  <path  d="M4.862 3.017C5.07 3 5.316 3 5.568 3h12.864c.252 0 .498 0 .706.017.229.019.499.063.77.201a2 2 0 0 1 .874.874c.138.271.182.541.201.77.017.208.017.454.017.706v12.864c0 .252 0 .498-.017.706a2.022 2.022 0 0 1-.201.77 2 2 0 0 1-.874.874 2.022 2.022 0 0 1-.77.201c-.208.017-.454.017-.706.017H5.568c-.252 0-.498 0-.706-.017a2.022 2.022 0 0 1-.77-.201 2 2 0 0 1-.874-.874 2.022 2.022 0 0 1-.201-.77C3 18.93 3 18.684 3 18.432V11h18V9H3V5.568c0-.252 0-.498.017-.706a2.03 2.03 0 0 1 .201-.77 2 2 0 0 1 .874-.874 2.03 2.03 0 0 1 .77-.201Z"/>
</svg>
