<svg xmlns="http://www.w3.org/2000/svg" width="24" height="24" fill="currentColor" viewBox="0 0 24 24">
  <path d="M6.464 9.122a5 5 0 0 1 7.072 0l.343.343a4.983 4.983 0 0 1 1.425 2.911l.124.992-1.984.25-.124-.993a2.985 2.985 0 0 0-.856-1.746l-.342-.343a3 3 0 0 0-4.243 0L4.536 13.88a3 3 0 0 0 0 4.243l.343.343a3 3 0 0 0 4.243 0l.878-.879L11.415 19l-.88.879a5 5 0 0 1-7.07 0l-.343-.343a5 5 0 0 1 0-7.071l3.342-3.343Z"/>
  <path d="M13.464 5.122a5 5 0 0 1 7.072 0l.342.343a5 5 0 0 1 0 7.071l-3.342 3.343a5 5 0 0 1-7.072 0l-.342-.343a4.984 4.984 0 0 1-1.426-2.91l-.124-.993 1.984-.25.124.993c.08.639.365 1.255.856 1.746l.343.343a3 3 0 0 0 4.243 0l3.343-3.343a3 3 0 0 0 0-4.243l-.343-.343a3 3 0 0 0-4.243 0l-.878.88L12.586 6l.878-.879Z"/>
</svg>
