<svg xmlns="http://www.w3.org/2000/svg" width="24" height="24" fill="currentColor" viewBox="0 0 24 24">
  <path  d="M6.65 8.444a5 5 0 0 1 6.886.177l.342.343.15.155a4.981 4.981 0 0 1 1.276 2.756 1 1 0 0 1-1.984.25 2.982 2.982 0 0 0-.68-1.557l-.176-.19-.342-.342a3 3 0 0 0-4.244 0l-3.342 3.342a3 3 0 0 0 0 4.243l.342.343a3 3 0 0 0 4.244 0l.17-.172a1.001 1.001 0 0 1 1.415 1.415l-.171.171a5 5 0 0 1-6.885.178l-.187-.178-.342-.343a5 5 0 0 1 0-7.07L6.464 8.62l.187-.177Z"/>
  <path  d="M13.65 4.444a5 5 0 0 1 6.885.177l.343.343.178.187a5 5 0 0 1-.178 6.885l-3.343 3.342a5 5 0 0 1-7.07 0l-.344-.342a4.984 4.984 0 0 1-1.425-2.912 1 1 0 0 1 1.984-.249c.08.639.365 1.255.856 1.746l.342.343a3 3 0 0 0 4.243 0l3.343-3.343a3 3 0 0 0 .107-4.13l-.107-.113-.343-.343a3 3 0 0 0-4.243 0l-.17.171a1 1 0 0 1-1.416-1.414l.172-.17.187-.178Z"/>
</svg>
