<svg xmlns="http://www.w3.org/2000/svg" width="24" height="24" fill="currentColor" viewBox="0 0 24 24">
  <path  fill-rule="evenodd" d="M5.29 11c.293-.146.723-.3 1.296-.444C7.933 10.22 9.848 10 12 10c2.152 0 4.067.22 5.414.556.573.143 1.004.298 1.296.444-.292.146-.723.301-1.296.444-1.347.337-3.262.556-5.414.556-2.152 0-4.067-.219-5.414-.556-.573-.143-1.003-.298-1.296-.444Zm.81-2.384C7.649 8.229 9.735 8 12 8c2.266 0 4.352.229 5.9.616.766.191 1.457.435 1.98.745.457.27 1.12.791 1.12 1.64 0 .847-.663 1.369-1.12 1.639a5.551 5.551 0 0 1-.88.41v6.273c0 .787-.472 1.563-1.295 1.843-1.546.528-3.547.834-5.705.834-2.157 0-4.159-.306-5.705-.834C5.472 20.886 5 20.11 5 19.323v-6.274a5.553 5.553 0 0 1-.88-.41C3.663 12.37 3 11.85 3 11c0-.848.663-1.37 1.12-1.64.523-.309 1.214-.553 1.98-.744Z" clip-rule="evenodd"/>
  <path  d="m13.075 2.851.478-.956a.5.5 0 0 1 .894 0l.479.956a.5.5 0 0 0 .223.224l.957.478a.5.5 0 0 1 0 .894l-.957.479a.5.5 0 0 0-.223.223l-.479.957a.5.5 0 0 1-.894 0l-.478-.957a.5.5 0 0 0-.224-.223l-.956-.479a.5.5 0 0 1 0-.894l.956-.478a.5.5 0 0 0 .224-.224ZM8.227 4.048l.415-.832a.4.4 0 0 1 .716 0l.416.832a.4.4 0 0 0 .179.178l.832.416a.4.4 0 0 1 0 .716l-.832.416a.4.4 0 0 0-.179.179l-.416.832a.4.4 0 0 1-.716 0l-.415-.832a.4.4 0 0 0-.18-.18l-.831-.415a.4.4 0 0 1 0-.716l.832-.416a.4.4 0 0 0 .179-.178Z"/>
</svg>
