<svg xmlns="http://www.w3.org/2000/svg" width="24" height="24" fill="currentColor" viewBox="0 0 24 24">
  <path fill-rule="evenodd" d="M12 8c2.266 0 4.352.229 5.9.616.766.191 1.456.435 1.98.745.457.27 1.12.792 1.12 1.64 0 .847-.664 1.368-1.12 1.638a5.558 5.558 0 0 1-.88.41v7.597l-.61.259C16.768 21.595 14.48 22 12 22c-2.48 0-4.767-.405-6.39-1.095L5 20.646v-7.597a5.559 5.559 0 0 1-.88-.41C3.664 12.37 3 11.85 3 11.001c0-.848.664-1.37 1.12-1.64.524-.31 1.214-.554 1.98-.745C7.649 8.229 9.735 8 12 8Zm0 2c-2.152 0-4.066.22-5.414.556-.572.143-1.003.298-1.296.445.293.146.724.3 1.296.443C7.934 11.78 9.848 12 12 12c2.152 0 4.067-.22 5.414-.556.572-.143 1.003-.298 1.296-.444-.293-.146-.724-.3-1.296-.444-1.348-.337-3.262-.555-5.414-.555Z" clip-rule="evenodd"/>
  <path d="m9.752 4.258 1.494.747-1.494.747-.747 1.495-.747-1.495-1.494-.747 1.494-.747.747-1.494.747 1.494Zm5.243-1.254L16.986 4l-1.99.996L14 6.986l-.995-1.99L11.014 4l1.99-.996.996-1.99.995 1.99Z"/>
</svg>
