<svg xmlns="http://www.w3.org/2000/svg" width="24" height="24" fill="currentColor" viewBox="0 0 24 24">
  <path  fill-rule="evenodd" d="M22.506 11.066C19.973 6.503 16.049 4.092 12 4.092c-4.048 0-7.972 2.411-10.505 6.974a1.93 1.93 0 0 0 0 1.868C4.028 17.497 7.952 19.908 12 19.908c4.049 0 7.973-2.412 10.506-6.974a1.93 1.93 0 0 0 0-1.868ZM11.557 8.93l-.802 1.605a.494.494 0 0 1-.22.22l-1.605.803a.494.494 0 0 0 0 .884l1.604.802a.495.495 0 0 1 .221.221l.802 1.605a.494.494 0 0 0 .885 0l.802-1.605a.494.494 0 0 1 .22-.22l1.605-.803a.494.494 0 0 0 0-.884l-1.604-.802a.494.494 0 0 1-.221-.221l-.802-1.605a.494.494 0 0 0-.885 0Z" clip-rule="evenodd"/>
</svg>
