<svg xmlns="http://www.w3.org/2000/svg" width="24" height="24" fill="currentColor" viewBox="0 0 24 24">
  <path d="M20.04 4.853A13.942 13.942 0 0 1 21.999 12a13.94 13.94 0 0 1-1.959 7.146l-.512.86-1.718-1.022.511-.86A11.939 11.939 0 0 0 20 12c0-2.24-.612-4.333-1.678-6.125l-.511-.86 1.718-1.022.512.86Z"/>
  <path d="M16.836 7.315A9.961 9.961 0 0 1 17.999 12c0 1.69-.42 3.286-1.163 4.685l-.469.882-1.766-.938.47-.883A7.96 7.96 0 0 0 15.998 12c0-1.356-.336-2.63-.929-3.747l-.47-.883 1.767-.938.469.883Zm-6.449 3.075-1.11 1.664L5.086 9.26A3.992 3.992 0 0 0 4 12c0 1.308.627 2.469 1.6 3.2l.8.6-1.202 1.6-.8-.601A5.992 5.992 0 0 1 2 12a5.99 5.99 0 0 1 2.398-4.8l.567-.425 5.422 3.615Z"/>
  <path d="M11.602 7.2A5.993 5.993 0 0 1 14 12a5.99 5.99 0 0 1-2.4 4.8l-.565.425-5.422-3.615 1.11-1.664 4.191 2.794A4.001 4.001 0 0 0 12 12c0-1.308-.627-2.47-1.6-3.201l-.8-.6 1.202-1.6.8.601Z"/>
</svg>
