<svg xmlns="http://www.w3.org/2000/svg" width="24" height="24" fill="currentColor" viewBox="0 0 24 24">
  <path fill-rule="evenodd" d="M12 2a7.853 7.853 0 0 1 7.784 6.815l.905 6.789A3 3 0 0 1 17.716 19h-1.07c-.904 1.748-2.608 3-4.646 3-2.039 0-3.742-1.252-4.647-3H6.284a3 3 0 0 1-2.974-3.396l.906-6.789A7.853 7.853 0 0 1 12 2ZM9.778 19c.61.637 1.399 1 2.222 1s1.613-.363 2.222-1H9.778Z" clip-rule="evenodd"/>
  <path d="M3.192 2.104a1 1 0 0 1 1.532 1.288 9.464 9.464 0 0 0-2.005 4.072 1 1 0 0 1-1.954-.427 11.464 11.464 0 0 1 2.427-4.933Zm16.206-.122a1 1 0 0 1 1.409.122 11.464 11.464 0 0 1 2.428 4.933 1 1 0 0 1-1.954.427 9.465 9.465 0 0 0-2.006-4.072 1 1 0 0 1 .123-1.41Z"/>
</svg>
