<svg xmlns="http://www.w3.org/2000/svg" width="24" height="24" fill="currentColor" viewBox="0 0 24 24">
  <path  d="M12.91 4.272c1.003 0 1.817.815 1.817 1.819V7H14a1 1 0 1 0 0 2h1a1 1 0 0 0 .996-1.09h2.367c1.004 0 1.819.813 1.819 1.818v8.181h.909a.91.91 0 0 1 0 1.819H2.909a.91.91 0 0 1 0-1.819h.91V6.091c0-1.004.814-1.819 1.818-1.819h7.272ZM14.726 11H14a1 1 0 1 0 0 2h.727v2H14a1 1 0 1 0 0 2h.727v.91h3.636V9.727h-3.636V11ZM9 15a1 1 0 1 0 0 2h1a1 1 0 1 0 0-2H9Zm0-4a1 1 0 0 0-.873 1.486.91.91 0 0 0 .236 1.787h1.819a.91.91 0 0 0 .57-1.617A1 1 0 0 0 10 11H9Zm0-4a1 1 0 0 0-.574 1.818h-.063a.91.91 0 0 0 0 1.819h1.819a.91.91 0 0 0 .305-1.765A.998.998 0 0 0 10 7H9Z"/>
</svg>
