<svg xmlns="http://www.w3.org/2000/svg" width="24" height="24" fill="currentColor" viewBox="0 0 24 24">  
<path d="M12 12.168C12.7475 12.168 13.3535 12.774 13.3535 13.5215C13.3534 14.2688 12.7474 14.875 12 14.875C11.2526 14.875 10.6466 14.2688 10.6465 13.5215C10.6465 12.774 11.2525 12.168 12 12.168Z" />
<path fill-rule="evenodd" clip-rule="evenodd" d="M17 2C18.1046 2 19 2.89543 19 4V20C19 21.1046 18.1046 22 17 22H7C5.89543 22 5 21.1046 5 20V4C5 2.89543 5.89543 2 7 2H17ZM12 11.042C10.631 11.042 9.52148 12.1525 9.52148 13.5215C9.52164 14.8903 10.6311 16 12 16C13.3689 16 14.4784 14.8904 14.4785 13.5215C14.4785 12.1525 13.369 11.042 12 11.042ZM10.1514 8.15332H11.3584V10.582H12.7061V7H10.5322L10.1514 8.15332Z" />
</svg>
