<svg xmlns="http://www.w3.org/2000/svg" width="24" height="24" fill="currentColor" viewBox="0 0 24 24">
  <path fill-rule="evenodd" d="M19 3a2 2 0 0 1 2 2v14a2 2 0 0 1-2 2H5a2 2 0 0 1-2-2V5a2 2 0 0 1 2-2h14ZM8 14.75a1.25 1.25 0 1 0 0 2.5 1.25 1.25 0 0 0 0-2.5Zm4 0a1.25 1.25 0 1 0 0 2.5 1.25 1.25 0 0 0 0-2.5Zm4 0a1.25 1.25 0 1 0 0 2.5 1.25 1.25 0 0 0 0-2.5Zm-8-4a1.25 1.25 0 1 0 0 2.5 1.25 1.25 0 0 0 0-2.5Zm4 0a1.25 1.25 0 1 0 0 2.5 1.25 1.25 0 0 0 0-2.5Zm4 0a1.25 1.25 0 1 0 0 2.5 1.25 1.25 0 0 0 0-2.5ZM8 7a1.25 1.25 0 1 0 0 2.5A1.25 1.25 0 0 0 8 7Zm4 0a1.25 1.25 0 1 0 0 2.5A1.25 1.25 0 0 0 12 7Zm4 0a1.25 1.25 0 1 0 0 2.5A1.25 1.25 0 0 0 16 7Z" clip-rule="evenodd"/>
</svg>
