<svg xmlns="http://www.w3.org/2000/svg" width="24" height="24" fill="currentColor" viewBox="0 0 24 24">
<path fill-rule="evenodd" clip-rule="evenodd" d="M20 4C21.1046 4 22 4.89543 22 6V18C22 19.1046 21.1046 20 20 20H4C2.89543 20 2 19.1046 2 18V6C2 4.89543 2.89543 4 4 4H20ZM7 14C6.44772 14 6 14.4477 6 15C6 15.5523 6.44772 16 7 16H11C11.5523 16 12 15.5523 12 15C12 14.4477 11.5523 14 11 14H7ZM7 10.5C6.44772 10.5 6 10.9477 6 11.5C6 12.0523 6.44772 12.5 7 12.5H8C8.55228 12.5 9 12.0523 9 11.5C9 10.9477 8.55228 10.5 8 10.5H7Z" />
</svg>
