<svg xmlns="http://www.w3.org/2000/svg" width="24" height="24" fill="currentColor" viewBox="0 0 24 24">  
<path d="M19 3C20.1046 3 21 3.89543 21 5V19C21 20.1046 20.1046 21 19 21H5C3.89543 21 3 20.1046 3 19V5C3 3.89543 3.89543 3 5 3H19ZM8 14.75C7.30964 14.75 6.75 15.3096 6.75 16C6.75 16.6904 7.30964 17.25 8 17.25C8.69036 17.25 9.25 16.6904 9.25 16C9.25 15.3096 8.69036 14.75 8 14.75ZM12 14.75C11.3096 14.75 10.75 15.3096 10.75 16C10.75 16.6904 11.3096 17.25 12 17.25C12.6904 17.25 13.25 16.6904 13.25 16C13.25 15.3096 12.6904 14.75 12 14.75ZM16 14.75C15.3096 14.75 14.75 15.3096 14.75 16C14.75 16.6904 15.3096 17.25 16 17.25C16.6904 17.25 17.25 16.6904 17.25 16C17.25 15.3096 16.6904 14.75 16 14.75ZM8 10.75C7.30964 10.75 6.75 11.3096 6.75 12C6.75 12.6904 7.30964 13.25 8 13.25C8.69036 13.25 9.25 12.6904 9.25 12C9.25 11.3096 8.69036 10.75 8 10.75ZM12 10.75C11.3096 10.75 10.75 11.3096 10.75 12C10.75 12.6904 11.3096 13.25 12 13.25C12.6904 13.25 13.25 12.6904 13.25 12C13.25 11.3096 12.6904 10.75 12 10.75ZM16 10.75C15.3096 10.75 14.75 11.3096 14.75 12C14.75 12.6904 15.3096 13.25 16 13.25C16.6904 13.25 17.25 12.6904 17.25 12C17.25 11.3096 16.6904 10.75 16 10.75ZM8 7C7.30964 7 6.75 7.55964 6.75 8.25C6.75 8.94036 7.30964 9.5 8 9.5C8.69036 9.5 9.25 8.94036 9.25 8.25C9.25 7.55964 8.69036 7 8 7ZM12 7C11.3096 7 10.75 7.55964 10.75 8.25C10.75 8.94036 11.3096 9.5 12 9.5C12.6904 9.5 13.25 8.94036 13.25 8.25C13.25 7.55964 12.6904 7 12 7ZM16 7C15.3096 7 14.75 7.55964 14.75 8.25C14.75 8.94036 15.3096 9.5 16 9.5C16.6904 9.5 17.25 8.94036 17.25 8.25C17.25 7.55964 16.6904 7 16 7Z" />
</svg>
