<svg xmlns="http://www.w3.org/2000/svg" width="24" height="24" fill="currentColor" viewBox="0 0 24 24">
  <path d="M8.003 10h3.002l-.006 10H2v-9c0-2.585 1.162-4.335 2.316-5.417a8.169 8.169 0 0 1 1.569-1.15 6.993 6.993 0 0 1 .69-.34l.048-.02.016-.006.006-.002h.001l.001-.002S6.65 4.063 7 5l-.353-.937L8 3.558 8.003 10ZM19 10h3v10h-9v-9c0-2.585 1.162-4.335 2.316-5.417a8.169 8.169 0 0 1 1.569-1.15 6.995 6.995 0 0 1 .688-.34l.05-.02.016-.006.006-.002h.002v-.002s.002 0 .353.937l-.352-.937L19 3.557V10Z"/>
</svg>
