<svg xmlns="http://www.w3.org/2000/svg" width="24" height="24" fill="currentColor" viewBox="0 0 24 24">
  <path  d="M8 3H5a2 2 0 0 0-2 2v14a2 2 0 0 0 2 2h8.713a3.001 3.001 0 0 1 .544-3.5 3 3 0 1 1 4.243-4.243 2.995 2.995 0 0 1 2.5-.854V5a2 2 0 0 0-2-2h-3v4a2 2 0 0 1-2 2h-4a2 2 0 0 1-2-2V3Z"/>
  <path  d="M14 3h-4v4h4V3Zm7.328 13.086a1 1 0 0 0-1.414-1.414L18.5 16.086l-1.414-1.414a1 1 0 1 0-1.414 1.414l1.414 1.414-1.414 1.414a1 1 0 1 0 1.414 1.414l1.414-1.414 1.414 1.414a1 1 0 0 0 1.414-1.414L19.914 17.5l1.414-1.414Z"/>
</svg>
