<svg xmlns="http://www.w3.org/2000/svg" width="24" height="24" fill="currentColor" viewBox="0 0 24 24">
  <path fill-rule="evenodd" d="M12 2.5c5.468 0 10 4.2 10 9.5 0 1.874-.505 3.22-1.651 3.934-1.048.652-2.352.57-3.373.438-.363-.047-.745-.11-1.104-.17a65.643 65.643 0 0 0-.47-.076 9.56 9.56 0 0 0-1.33-.14c-.774-.012-1.032.17-1.177.461-.083.166-.103.394.028.78.117.348.305.686.521 1.078l.118.215c.12.22.256.477.352.73.088.232.203.612.118 1.028-.104.511-.456.853-.866 1.03-.354.152-.765.192-1.166.192-5.468 0-10-4.2-10-9.5s4.532-9.5 10-9.5Zm-4.75 8.25a1.5 1.5 0 1 0 0 3 1.5 1.5 0 0 0 0-3ZM15.5 8a1.5 1.5 0 1 0 0 3 1.5 1.5 0 0 0 0-3Zm-5-1.5a1.5 1.5 0 1 0 0 3 1.5 1.5 0 0 0 0-3Z" clip-rule="evenodd"/>
</svg>
