<svg xmlns="http://www.w3.org/2000/svg" width="24" height="24" fill="currentColor" viewBox="0 0 24 24">
  <path  d="M13.844 1.014a.998.998 0 0 1 1.152.816v.002l.001.002c.041.246.064.496.079.745a6.85 6.85 0 0 1-.082 1.598c-.127.689-.447 1.308-.7 1.724a7.118 7.118 0 0 1-.512.729l-.001.001-.001.002a.999.999 0 0 1-1.534-1.28l.003-.003a4.69 4.69 0 0 0 .34-.489c.198-.325.378-.704.442-1.047.068-.37.071-.78.051-1.118a5.65 5.65 0 0 0-.054-.528v-.003a.998.998 0 0 1 .816-1.15Zm5.249 1.543a.998.998 0 0 1 .601 1.277l-.449 1.248a.998.998 0 0 1-1.879-.676l.45-1.248a.998.998 0 0 1 1.277-.601Zm2.801 4.486a.998.998 0 0 1-.446 1.34l-.999.499a.998.998 0 0 1-.893-1.786l.999-.5a.999.999 0 0 1 1.34.447Zm-4.68-.259a.998.998 0 0 1 0 1.412l-.998.998a.998.998 0 0 1-1.412-1.412l.998-.998a.998.998 0 0 1 1.412 0Zm-.205 4.158a.998.998 0 0 1 1.04-.956h.006c.185.01.37.03.554.054a7.1 7.1 0 0 1 1.199.263c.422.135.86.351 1.166.515.186.1.37.203.55.313l.002.002h.002a1 1 0 0 1-1.053 1.698 8.412 8.412 0 0 0-.442-.252 5.504 5.504 0 0 0-.834-.375 5.104 5.104 0 0 0-.855-.185 4.944 4.944 0 0 0-.38-.037h-.002a.999.999 0 0 1-.953-1.04ZM6.55 7.126a1.997 1.997 0 0 1 3.29-.73l7.765 7.765a1.997 1.997 0 0 1-.73 3.289L4.682 21.876c-1.592.578-3.136-.966-2.558-2.558L6.551 7.126Z"/>
</svg>
