<svg xmlns="http://www.w3.org/2000/svg" width="24" height="24" fill="currentColor" viewBox="0 0 24 24">
  <path d="M19.85 16.436 2 21.895 7.563 4.148 19.85 16.436Zm-2.809-6.477c.952.04 1.833.061 2.762.358.929.298 1.751.851 2.573 1.362l-1.056 1.698c-.668-.415-1.372-.913-2.127-1.154-.736-.236-1.474-.234-2.236-.266l.084-1.998Zm.872-2.459L15.5 9.914 14.085 8.5l2.414-2.414L17.913 7.5Zm4.427.447-2.79 1.395-.893-1.79 2.788-1.394.895 1.79ZM14.815.846c.1.58.214 1.147.248 1.735a6.76 6.76 0 0 1-.082 1.6c-.127.69-.447 1.311-.7 1.727-.336.55-.744 1.007-1.157 1.5L11.59 6.125c.573-.685 1.256-1.393 1.426-2.308.165-.895-.021-1.757-.171-2.634l1.97-.337Zm5.213 2.051L18.9 6.03l-1.88-.677 1.127-3.131 1.881.676Z"/>
</svg>
