<svg xmlns="http://www.w3.org/2000/svg" width="24" height="24" fill="currentColor" viewBox="0 0 24 24">
  <path  d="M9 12.5c4.43 0 8.261 2.88 8.907 6.844.205 1.263-.855 2.156-1.907 2.156H2c-1.051 0-2.112-.893-1.907-2.156C.738 15.379 4.571 12.5 9 12.5Zm8.058 1.175a1 1 0 0 1 1.276-.609c2.88 1.02 5.098 3.36 5.573 6.278.205 1.263-.855 2.156-1.907 2.156h-1.5a1 1 0 0 1 0-2h1.404c-.396-2.014-1.99-3.753-4.238-4.549a1 1 0 0 1-.608-1.276ZM9 2.5a4.5 4.5 0 1 1 0 9 4.5 4.5 0 0 1 0-9Zm6 0a4.5 4.5 0 1 1 0 9 1 1 0 0 1 0-2 2.5 2.5 0 1 0 0-5 1 1 0 0 1 0-2Z"/>
</svg>
