<svg xmlns="http://www.w3.org/2000/svg" width="24" height="24" fill="currentColor" viewBox="0 0 24 24">
  <path  d="M12.13 2.13a4.442 4.442 0 1 0 0 8.883 4.442 4.442 0 0 0 0-8.883ZM3.933 18.61C4.778 14.847 7.886 12 12.129 12c1.369 0 2.619.296 3.713.824-2.451.47-3.713 2.848-3.713 4.852 0 1.226.466 2.323 1.085 3.208H5.81c-1.12 0-2.164-1-1.878-2.274Z"/>
  <path  fill-rule="evenodd" d="M16.736 14.715c-.677 0-1.351.272-1.852.806-.505.538-.78 1.286-.78 2.155 0 1.41.984 2.487 1.746 3.116a7.9 7.9 0 0 0 1.156.79c.167.092.323.17.459.228.067.029.14.057.212.08l.003.001c.044.014.194.063.372.063s.328-.049.372-.063h.003a2.66 2.66 0 0 0 .212-.081 5.15 5.15 0 0 0 .459-.229 7.804 7.804 0 0 0 1.155-.79c.762-.628 1.747-1.705 1.747-3.115 0-.87-.276-1.617-.781-2.155a2.532 2.532 0 0 0-1.851-.806c-.542 0-.988.144-1.316.304a2.996 2.996 0 0 0-1.316-.304Z" clip-rule="evenodd"/>
</svg>
