<svg xmlns="http://www.w3.org/2000/svg" width="24" height="24" fill="currentColor" viewBox="0 0 24 24">
  <path d="M18.001 14.746a3.02 3.02 0 0 1 2.686.148c.946.54 1.566 1.575 1.566 2.796 0 1.653-1.142 2.816-2.024 3.48-.465.35-.924.612-1.263.786l-.965.421a10.68 10.68 0 0 1-.964-.42 8.836 8.836 0 0 1-1.263-.787c-.882-.664-2.024-1.827-2.024-3.48 0-1.222.62-2.256 1.565-2.796a3.018 3.018 0 0 1 2.686-.148Z"/>
  <path d="M12.001 12c1.208 0 2.325.227 3.324.638a4.702 4.702 0 0 0-2.2 1.326c-.937 1-1.376 2.314-1.376 3.678 0 1.376.55 2.503 1.194 3.358h-9.54l.102-1.094C3.917 15.521 7.243 12 12 12ZM12 2a4.5 4.5 0 1 1 0 9 4.5 4.5 0 0 1 0-9Z"/>
</svg>
