<svg xmlns="http://www.w3.org/2000/svg" width="24" height="24" fill="currentColor" viewBox="0 0 24 24">
  <path fill-rule="evenodd" d="M12 2a8 8 0 0 1 8 8c0 3.305-1.953 6.29-3.745 8.355a25.953 25.953 0 0 1-3.333 3.197c-.101.08-.181.142-.237.184l-.067.05-.018.014-.005.005h-.002L12 22.24l-.592-.434-.003-.001-.005-.005-.018-.014-.067-.05a23.339 23.339 0 0 1-1.066-.877 25.955 25.955 0 0 1-2.504-2.503C5.953 16.29 4 13.305 4 10a8 8 0 0 1 8-8Zm-.002 5.5a2.5 2.5 0 1 0 0 5 2.5 2.5 0 0 0 0-5Z" clip-rule="evenodd"/>
</svg>
