<svg xmlns="http://www.w3.org/2000/svg" width="24" height="24" fill="currentColor" viewBox="0 0 24 24">
  <path  d="M13.937 5.182a.976.976 0 1 0 0 1.952.976.976 0 0 0 0-1.952Z"/>
  <path  d="M11.008 6.158c0-.552.153-1.068.418-1.508l-4.157.712a13.654 13.654 0 0 0 4.876 8.47A3.907 3.907 0 0 1 19.277 13l1.246-7.27a1.952 1.952 0 0 0-2.254-2.254l-2.467.423a2.929 2.929 0 1 1-4.793 2.259Z"/>
  <path  d="m17.175 16.42.09-.09a1.952 1.952 0 1 0-3.328-1.386v.124a13.59 13.59 0 0 0 3.238 1.351Z"/>
  <path  d="M18.308 18.656c-6.655-1.054-11.91-6.31-12.964-12.964l-1.336.23c-1.057.18-1.824 1.214-1.55 2.329a18.085 18.085 0 0 0 4.795 8.496 18.085 18.085 0 0 0 8.496 4.795c1.115.274 2.148-.493 2.33-1.55l.229-1.336Z"/>
</svg>
