<svg xmlns="http://www.w3.org/2000/svg" width="24" height="24" fill="currentColor" viewBox="0 0 24 24">
  <path d="M5.198 5.523c1.08 6.816 6.464 12.2 13.28 13.279l-.578 3.366-.997-.185a18.528 18.528 0 0 1-9.75-5.136 18.527 18.527 0 0 1-5.136-9.75L1.832 6.1l3.366-.577Z"/>
  <path d="M16 13a2 2 0 0 1 1.41 3.42l-.093.09A13.921 13.921 0 0 1 14 15.128V15a2 2 0 0 1 2-2Z"/>
  <path d="M19.47 13.009a4.002 4.002 0 0 0-7.306.852A13.987 13.987 0 0 1 7.17 5.185l4.259-.73a3 3 0 1 0 4.482-.769l5.314-.91-1.754 10.233Z"/>
  <path d="M14 5a1 1 0 1 1 0 2 1 1 0 0 1 0-2Z"/>
</svg>
