<svg xmlns="http://www.w3.org/2000/svg" width="24" height="24" fill="currentColor" viewBox="0 0 24 24">
  <path  fill-rule="evenodd" d="M3 5a2 2 0 0 1 2-2h1a1 1 0 0 1 0 2H5v1a1 1 0 0 1-2 0V5Zm6.5-1a1 1 0 0 1 1-1h3a1 1 0 1 1 0 2h-3a1 1 0 0 1-1-1ZM17 4a1 1 0 0 1 1-1h1a2 2 0 0 1 2 2v1a1 1 0 1 1-2 0V5h-1a1 1 0 0 1-1-1ZM4 9.5a1 1 0 0 1 1 1v3a1 1 0 1 1-2 0v-3a1 1 0 0 1 1-1Zm16 0a1 1 0 0 1 1 1v3a1 1 0 1 1-2 0v-3a1 1 0 0 1 1-1ZM4 17a1 1 0 0 1 1 1v1h1a1 1 0 1 1 0 2H5a2 2 0 0 1-2-2v-1a1 1 0 0 1 1-1Zm16 0a1 1 0 0 1 1 1v1a2 2 0 0 1-2 2h-1a1 1 0 1 1 0-2h1v-1a1 1 0 0 1 1-1ZM9.5 20a1 1 0 0 1 1-1h3a1 1 0 1 1 0 2h-3a1 1 0 0 1-1-1Z" clip-rule="evenodd"/>
</svg>
