<svg xmlns="http://www.w3.org/2000/svg" width="24" height="24" fill="currentColor" viewBox="0 0 24 24">
<path d="M7 16C7.55228 16 8 16.4477 8 17C8 17.5523 7.55228 18 7 18C6.44772 18 6 17.5523 6 17C6 16.4477 6.44772 16 7 16Z"/>
<path fill-rule="evenodd" clip-rule="evenodd" d="M9 13C10.1046 13 11 13.8954 11 15V19C11 20.1046 10.1046 21 9 21H5C3.89543 21 3 20.1046 3 19V15C3 13.8954 3.89543 13 5 13H9ZM5 19H9V15H5V19Z"/>
<path d="M14 19C14.5523 19 15 19.4477 15 20C15 20.5523 14.5523 21 14 21C13.4477 21 13 20.5523 13 20C13 19.4477 13.4477 19 14 19Z"/>
<path d="M20 17C20.5523 17 21 17.4477 21 18C21 18.5523 20.5523 19 20 19H19V20C19 20.5523 18.5523 21 18 21C17.4477 21 17 20.5523 17 20V18C17 17.4477 17.4477 17 18 17H20Z"/>
<path d="M14 13C14.5523 13 15 13.4477 15 14V15H16C16.5523 15 17 15.4477 17 16C17 16.5523 16.5523 17 16 17H14C13.4477 17 13 16.5523 13 16V14C13 13.4477 13.4477 13 14 13Z"/>
<path d="M20 13C20.5523 13 21 13.4477 21 14C21 14.5523 20.5523 15 20 15H18C17.4477 15 17 14.5523 17 14C17 13.4477 17.4477 13 18 13H20Z"/>
<path d="M7 6C7.55228 6 8 6.44772 8 7C8 7.55228 7.55228 8 7 8C6.44772 8 6 7.55228 6 7C6 6.44772 6.44772 6 7 6Z"/>
<path fill-rule="evenodd" clip-rule="evenodd" d="M9 3C10.1046 3 11 3.89543 11 5V9C11 10.1046 10.1046 11 9 11H5C3.89543 11 3 10.1046 3 9V5C3 3.89543 3.89543 3 5 3H9ZM5 9H9V5H5V9Z"/>
<path d="M17 6C17.5523 6 18 6.44772 18 7C18 7.55228 17.5523 8 17 8C16.4477 8 16 7.55228 16 7C16 6.44772 16.4477 6 17 6Z"/>
<path fill-rule="evenodd" clip-rule="evenodd" d="M19 3C20.1046 3 21 3.89543 21 5V9C21 10.1046 20.1046 11 19 11H15C13.8954 11 13 10.1046 13 9V5C13 3.89543 13.8954 3 15 3H19ZM15 9H19V5H15V9Z"/>
</svg>
