<svg xmlns="http://www.w3.org/2000/svg" width="24" height="24" fill="currentColor" viewBox="0 0 24 24">
  <path  fill-rule="evenodd" d="M4.444 3.89A1.89 1.89 0 0 1 6.333 2h11.334a1.89 1.89 0 0 1 1.89 1.89v16.056a.945.945 0 0 1-1.56.717l-1.59-1.362-1.588 1.362a.945.945 0 0 1-1.23 0L12 19.301l-1.59 1.362a.945.945 0 0 1-1.229 0l-1.589-1.362-1.589 1.362a.945.945 0 0 1-1.56-.717V3.89Zm3.778 3.777c0-.521.423-.944.944-.944h5.668a.945.945 0 0 1 0 1.889H9.166a.945.945 0 0 1-.944-.945Zm0 3.778c0-.521.423-.944.944-.944h1.89a.945.945 0 1 1 0 1.889h-1.89a.944.944 0 0 1-.944-.945Z" clip-rule="evenodd"/>
</svg>
