<svg xmlns="http://www.w3.org/2000/svg" width="24" height="24" fill="currentColor" viewBox="0 0 24 24">
  <path  d="M7.614 6.542a4.462 4.462 0 1 1 8.924 0 4.462 4.462 0 0 1-8.924 0Zm4.462 5.454c-4.718 0-8.015 3.491-8.424 7.84a.991.991 0 0 0 .987 1.084h8.438a2.974 2.974 0 0 1 .741-2.975 2.975 2.975 0 0 1 2.08-5.078c-1.12-.557-2.407-.871-3.822-.871Zm4.667 3.264a.992.992 0 0 0-1.402 1.403l1.282 1.282-1.282 1.282a.991.991 0 1 0 1.402 1.402l1.282-1.282 1.282 1.282a.991.991 0 1 0 1.403-1.402l-1.282-1.282 1.282-1.282a.992.992 0 0 0-1.403-1.402l-1.282 1.282-1.282-1.282Z"/>
</svg>
