<svg xmlns="http://www.w3.org/2000/svg" width="24" height="24" fill="currentColor" viewBox="0 0 24 24">
  <path d="M18.432 3c.252 0 .499 0 .707.017.228.018.498.063.77.2a2 2 0 0 1 .873.875c.138.271.183.54.201.77.017.207.017.454.017.706V9a1 1 0 1 1-2 0V5.6c0-.297-.001-.459-.01-.576l-.002-.012-.012-.001A8.097 8.097 0 0 0 18.4 5H5.6c-.297 0-.459.001-.576.01l-.012.002-.001.012C5 5.141 5 5.304 5 5.6v12.8c0 .297.001.459.01.576l.002.012.012.001c.117.01.28.011.576.011H9a1 1 0 0 1 0 2H5.568c-.252 0-.499 0-.707-.017a2.023 2.023 0 0 1-.77-.2 2 2 0 0 1-.873-.875 2.022 2.022 0 0 1-.201-.77C3 18.932 3 18.685 3 18.433V5.568c0-.252 0-.499.017-.707.018-.228.063-.498.2-.77L5.6 3h12.832Z"/>
  <path d="M10.293 10.293a1 1 0 0 1 1.414 0L19 17.586V14a1 1 0 1 1 2 0v6a1 1 0 0 1-1 1h-6a1 1 0 1 1 0-2h3.586l-7.293-7.293a1 1 0 0 1 0-1.414ZM3.295 3.954a2 2 0 0 1 .797-.736c.271-.138.54-.183.77-.201C5.068 3 5.315 3 5.567 3l-2.273.954Z"/>
</svg>
