<svg xmlns="http://www.w3.org/2000/svg" width="24" height="24" fill="currentColor" viewBox="0 0 24 24">
  <path d="M13 2.05c5.053.502 9 4.765 9 9.95 0 5.523-4.477 10-10 10S2 17.523 2 12a9.972 9.972 0 0 1 2.929-7.071l1.414 1.414A7.972 7.972 0 0 0 4 12a8 8 0 1 0 9-7.938V6L9 3l4-3v2.05Z"/>
  <path d="M8.713 8.29c1.509 0 2.647.783 2.658 1.922.01 1.042-.768 1.563-1.321 1.639v.075c.709.048 1.53.6 1.54 1.76.012 1.365-1.374 2.198-2.947 2.198-1.88 0-2.756-1.063-2.772-2.261h1.622c.038.526.505.912 1.193.912.709 0 1.144-.413 1.138-.96 0-.522-.408-.94-1.16-.94h-.81v-1.312h.772c.617 0 1.021-.37 1.021-.88-.005-.472-.414-.833-1.004-.833-.65 0-1.005.468-1.02.909h-1.65C6.02 9.213 7 8.289 8.713 8.289Z"/>
  <path fill-rule="evenodd" d="M15.206 8.29c1.87 0 2.879 1.422 2.879 3.555v.466c0 1.982-.962 3.573-2.917 3.573-1.863 0-2.878-1.457-2.878-3.572v-.467c0-2.116 1.063-3.556 2.916-3.556Zm-.016 1.417c-.672 0-1.123.683-1.123 2.144v.456c0 1.46.451 2.159 1.123 2.159.665 0 1.123-.71 1.123-2.16v-.455c0-1.45-.457-2.144-1.123-2.144Z" clip-rule="evenodd"/>
</svg>
