<svg xmlns="http://www.w3.org/2000/svg" width="24" height="24" fill="currentColor" viewBox="0 0 24 24">
  <path d="M13 2.05c5.053.502 9 4.765 9 9.95 0 5.523-4.477 10-10 10S2 17.523 2 12a9.972 9.972 0 0 1 2.929-7.071l1.414 1.414A7.972 7.972 0 0 0 4 12a8 8 0 1 0 9-7.938V6L9 3l4-3v2.05Z"/>
  <path fill-rule="evenodd" d="M14.33 8.29c1.868 0 2.878 1.422 2.878 3.555v.466c0 1.982-.962 3.573-2.917 3.573-1.864 0-2.878-1.457-2.878-3.572v-.467c0-2.116 1.063-3.556 2.916-3.556Zm-.017 1.417c-.67 0-1.123.683-1.123 2.144v.456c0 1.46.452 2.159 1.123 2.159.666 0 1.122-.71 1.122-2.16v-.455c0-1.45-.456-2.144-1.122-2.144Z" clip-rule="evenodd"/>
  <path d="M10.307 8.418v7.331H8.55v-5.714h-.075l-.348.227c-.42.273-.899.586-1.307.869V9.567a39.25 39.25 0 0 1 1.751-1.149h1.736Z"/>
</svg>
