<svg xmlns="http://www.w3.org/2000/svg" width="24" height="24" fill="currentColor" viewBox="0 0 24 24">
  <path d="M13 21h-2v-3.5h2V21ZM9.5 9.75 6 12.25v-1.438c-.64.21-1.142.443-1.495.677-.238.158-.375.295-.445.393a.412.412 0 0 0-.055.097C4 11.992 4 12 4 12l.003.016a.306.306 0 0 0 .032.065c.043.07.13.173.291.3.33.261.87.54 1.626.792 1.502.5 3.64.827 6.048.827s4.546-.326 6.048-.827c.756-.252 1.296-.531 1.626-.791.162-.128.248-.232.29-.3a.305.305 0 0 0 .033-.066C20 12.006 20 12 20 12v-.004l-.001-.004a.603.603 0 0 0-.113-.179c-.13-.147-.365-.332-.74-.53-.75-.395-1.886-.748-3.31-.984l-.986-.164.327-1.973.986.163c1.54.255 2.905.657 3.914 1.189C21.001 10 22 10.803 22 12c0 .852-.519 1.504-1.088 1.953-.58.458-1.359.827-2.231 1.117-1.756.585-4.118.93-6.681.93-2.563 0-4.925-.345-6.68-.93-.873-.29-1.652-.66-2.232-1.117C2.518 13.504 2 12.852 2 12c0-.992.695-1.71 1.398-2.177.682-.453 1.583-.818 2.602-1.1V7.25l3.5 2.5Z"/>
  <path d="M13 12.5h-2V3h2v9.5Z"/>
</svg>
