<svg xmlns="http://www.w3.org/2000/svg" width="24" height="24" fill="currentColor" viewBox="0 0 24 24">
  <path  fill-rule="evenodd" d="M2 6a2 2 0 0 1 2-2h16a2 2 0 0 1 2 2v12a2 2 0 0 1-2 2H4a2 2 0 0 1-2-2V6Zm4 3a1 1 0 0 1 1-1h3a1 1 0 1 1 0 2H7a1 1 0 0 1-1-1Zm8-1a1 1 0 1 0 0 2h3a1 1 0 1 0 0-2h-3Zm-8 4a1 1 0 0 1 1-1h3a1 1 0 1 1 0 2H7a1 1 0 0 1-1-1Zm8-1a1 1 0 1 0 0 2h3a1 1 0 1 0 0-2h-3Zm-8 4a1 1 0 0 1 1-1h3a1 1 0 1 1 0 2H7a1 1 0 0 1-1-1Zm8-1a1 1 0 1 0 0 2h3a1 1 0 1 0 0-2h-3Z" clip-rule="evenodd"/>
</svg>
