<svg xmlns="http://www.w3.org/2000/svg" width="24" height="24" fill="currentColor" viewBox="0 0 24 24">
  <path fill-rule="evenodd" d="M11.352 2.224c.42-.145.876-.145 1.296 0l6.98 2.4a1.994 1.994 0 0 1 1.347 1.885v5.434c0 2.798-1.146 4.815-2.805 6.385-1.568 1.485-3.622 2.592-5.54 3.626l-.156.085a.998.998 0 0 1-.948 0l-.156-.085c-1.918-1.034-3.972-2.142-5.54-3.626-1.659-1.57-2.804-3.587-2.805-6.385V6.509c0-.852.542-1.609 1.347-1.886l6.98-2.4ZM12 13.25a1.25 1.25 0 1 0 0 2.5 1.25 1.25 0 0 0 0-2.5Zm.124-6.587c-1.39 0-2.5 1.135-2.5 2.515a1 1 0 0 0 2 0c0-.294.232-.515.5-.515.267 0 .5.222.5.515a.256.256 0 0 1-.012.085.174.174 0 0 1-.026.048c-.037.05-.11.119-.267.225-.508.346-1.127.925-1.286 1.979a1 1 0 1 0 1.978.297.76.76 0 0 1 .14-.359c.063-.086.154-.169.292-.262.437-.297 1.181-.886 1.181-2.013 0-1.38-1.11-2.515-2.5-2.515Z" clip-rule="evenodd"/>
</svg>
