<svg xmlns="http://www.w3.org/2000/svg" width="24" height="24" fill="currentColor" viewBox="0 0 24 24">
  <path  fill-rule="evenodd" d="M12.09 2.09a3.964 3.964 0 0 0-3.964 3.964v.991H7.49c-.978 0-1.81.714-1.959 1.68L3.854 19.628a1.982 1.982 0 0 0 1.959 2.283h8.01c-.94-.861-2.23-2.404-2.23-4.541 0-1.351.435-2.654 1.364-3.644a4.654 4.654 0 0 1 3.4-1.477c.533 0 1.013.081 1.432.202.41-.118.88-.2 1.402-.202l-.542-3.522a1.982 1.982 0 0 0-1.959-1.68h-.636v-.992A3.964 3.964 0 0 0 12.09 2.09Zm1.982 4.955v-.99a1.982 1.982 0 0 0-3.964 0v.99h3.964Z" clip-rule="evenodd"/>
  <path  fill-rule="evenodd" d="M16.357 14.23c.595 0 1.081.164 1.432.34a3.18 3.18 0 0 1 1.432-.34c.713 0 1.425.286 1.953.85.533.569.828 1.36.828 2.289 0 1.495-1.046 2.645-1.87 3.326-.44.362-.885.65-1.245.85-.18.1-.348.183-.492.245a3.14 3.14 0 0 1-.224.085h-.002c-.047.016-.2.065-.38.065s-.334-.05-.38-.064l-.003-.001a2.556 2.556 0 0 1-.223-.085 5.531 5.531 0 0 1-.492-.245c-.36-.2-.806-.488-1.245-.85-.824-.681-1.87-1.831-1.87-3.326 0-.928.294-1.72.827-2.289a2.672 2.672 0 0 1 1.954-.85Zm-.8 3.139c0-.504.154-.786.292-.933a.69.69 0 0 1 .508-.224 1.2 1.2 0 0 1 .745.26.991.991 0 0 0 1.373 0 1.085 1.085 0 0 1 .168-.113 1.21 1.21 0 0 1 .578-.147.69.69 0 0 1 .507.224c.138.147.292.429.292.933 0 .564-.431 1.203-1.15 1.798a6.42 6.42 0 0 1-1.081.718 6.425 6.425 0 0 1-1.08-.718c-.72-.595-1.151-1.234-1.151-1.798Z" clip-rule="evenodd"/>
</svg>
