<svg xmlns="http://www.w3.org/2000/svg" width="24" height="24" fill="currentColor" viewBox="0 0 24 24">
  <path fill-rule="evenodd" d="M17.118 13.001a4.988 4.988 0 0 1 3.42 1.464A4.988 4.988 0 0 1 22 18.116a4.987 4.987 0 0 1-1.463 3.42 4.988 4.988 0 0 1-3.419 1.463 4.99 4.99 0 0 1-3.652-1.464 4.987 4.987 0 0 1-1.463-3.419 4.988 4.988 0 0 1 1.463-3.651A4.99 4.99 0 0 1 17.118 13Zm-2.824 3.705a3.002 3.002 0 0 0 4 4.002l-4-4.002Zm2.777-1.705a3 3 0 0 0-1.363.291l4.001 4.002a2.998 2.998 0 0 0-.586-3.415A2.988 2.988 0 0 0 17.071 15Z" clip-rule="evenodd"/>
  <path fill-rule="evenodd" d="M12.002 2a4 4 0 0 1 4 4v1h2.357l.661 4.297a7.016 7.016 0 0 0-1.856-.295 6.988 6.988 0 0 0-5.112 2.048 6.99 6.99 0 0 0-2.05 5.113A6.994 6.994 0 0 0 11.257 22h-7.92L5.644 7h2.358V6a4 4 0 0 1 4-4Zm0 2a2 2 0 0 0-2 2v1h4V6a2 2 0 0 0-2-2Z" clip-rule="evenodd"/>
</svg>
