<svg xmlns="http://www.w3.org/2000/svg" width="24" height="24" fill="currentColor" viewBox="0 0 24 24">
  <path  fill-rule="evenodd" d="M8.124 6.057a3.962 3.962 0 0 1 7.924 0v.99h.636a1.98 1.98 0 0 1 1.957 1.68L19.146 12h-5.078a1.98 1.98 0 0 0-1.981 1.981v7.924H5.812a1.98 1.98 0 0 1-1.958-2.283L5.53 8.727a1.98 1.98 0 0 1 1.958-1.68h.636v-.99Zm5.943.99v-.99a1.98 1.98 0 1 0-3.962 0v.99h3.962Z" clip-rule="evenodd"/>
  <path  fill-rule="evenodd" d="M15.057 13.981a.99.99 0 0 0-.99.99v5.943a.99.99 0 0 0 1.5.85l1.966-1.18 1.967 1.18a.99.99 0 0 0 1.5-.85v-5.943a.99.99 0 0 0-.99-.99h-4.953Zm.99 5.184v-3.203h2.972v3.203l-.976-.586a.99.99 0 0 0-1.02 0l-.975.586Z" clip-rule="evenodd"/>
</svg>
