<svg xmlns="http://www.w3.org/2000/svg" width="24" height="24" fill="currentColor" viewBox="0 0 24 24">
  <path  fill-rule="evenodd" d="M5.994 3.032a1.993 1.993 0 0 0-1.99 1.87l-.871 13.952a1.993 1.993 0 0 0 1.99 2.117h7.725c-.694-.885-1.313-2.085-1.313-3.57 0-1.359.437-2.669 1.371-3.665a4.68 4.68 0 0 1 3.419-1.485c.536 0 1.02.082 1.44.203a5.19 5.19 0 0 1 1.44-.203c.449 0 .897.065 1.33.193l-.472-7.543a1.993 1.993 0 0 0-1.989-1.869H5.994Zm3.05 3.987c.55 0 .997.446.997.996a1.993 1.993 0 1 0 3.986 0 .997.997 0 0 1 1.993 0 3.986 3.986 0 1 1-7.972 0c0-.55.446-.996.996-.996Z" clip-rule="evenodd"/>
  <path  fill-rule="evenodd" d="M15.814 16.462c-.139.148-.293.432-.293.939 0 .567.434 1.21 1.157 1.808a6.461 6.461 0 0 0 1.087.722 6.467 6.467 0 0 0 1.087-.722c.723-.598 1.157-1.241 1.157-1.808 0-.507-.154-.79-.293-.939a.694.694 0 0 0-.511-.225 1.206 1.206 0 0 0-.75.262.997.997 0 0 1-1.38 0l-.023-.018a1.207 1.207 0 0 0-.727-.244.694.694 0 0 0-.51.225Zm1.95-1.876a3.196 3.196 0 0 0-1.44-.342c-.717 0-1.433.288-1.964.855-.536.572-.832 1.368-.832 2.302 0 1.503 1.052 2.66 1.88 3.345.442.364.89.654 1.253.855.18.1.35.184.495.246.071.031.148.061.224.086h.003c.046.015.2.065.382.065.181 0 .335-.05.382-.065h.003c.076-.025.153-.055.224-.086.145-.062.314-.146.495-.246.362-.201.81-.49 1.252-.855.829-.685 1.88-1.842 1.88-3.345 0-.934-.295-1.73-.831-2.302a2.687 2.687 0 0 0-1.965-.855c-.598 0-1.087.165-1.44.342Z" clip-rule="evenodd"/>
</svg>
