<svg xmlns="http://www.w3.org/2000/svg" width="24" height="24" fill="currentColor" viewBox="0 0 24 24">
  <path  fill-rule="evenodd" d="M8.125 6.06a3.963 3.963 0 0 1 7.925 0v.992h.636c.978 0 1.81.713 1.958 1.68l.613 3.984a4.599 4.599 0 0 0-3.823 1.315l-3.757 3.757a1.98 1.98 0 0 0-.58 1.401v2.722H5.812a1.981 1.981 0 0 1-1.958-2.283L5.53 8.732c.15-.967.98-1.68 1.959-1.68h.636V6.06Zm5.944.992V6.06a1.981 1.981 0 0 0-3.963 0v.99h3.963Z" clip-rule="evenodd"/>
  <path  fill-rule="evenodd" d="M20.548 15.432a2.625 2.625 0 0 0-3.713 0l-3.467 3.467a.99.99 0 0 0-.29.7v2.312c0 .547.443.99.99.99h2.312a.99.99 0 0 0 .7-.29l3.468-3.467a2.625 2.625 0 0 0 0-3.712Zm-2.312 1.4a.644.644 0 1 1 .91.911L15.97 20.92h-.91v-.91l3.176-3.177Z" clip-rule="evenodd"/>
</svg>
