<svg xmlns="http://www.w3.org/2000/svg" width="24" height="24" fill="currentColor" viewBox="0 0 24 24">
  <path fill-rule="evenodd" d="M19.197 14.25a2.7 2.7 0 0 1 1.971.857c.538.574.835 1.375.835 2.311 0 1.54-1.167 2.706-2.005 3.37a10.434 10.434 0 0 1-2.246 1.348 13.699 13.699 0 0 1-1.009-.513 10.463 10.463 0 0 1-1.237-.836c-.838-.663-2.005-1.829-2.005-3.369 0-.936.296-1.737.834-2.31a2.697 2.697 0 0 1 1.972-.858c.6 0 1.091.166 1.445.344a3.207 3.207 0 0 1 1.445-.344Zm0 2c-.655 0-1.031.348-1.453.77-.422-.422-.782-.77-1.437-.77a.696.696 0 0 0-.512.226c-.14.148-.294.434-.294.942 0 .537.458 1.177 1.246 1.8.358.284.72.515.997.675l.008.003c.277-.16.644-.392 1.005-.677.788-.624 1.246-1.264 1.246-1.801 0-.508-.155-.794-.294-.942a.696.696 0 0 0-.512-.226Z" clip-rule="evenodd"/>
  <path fill-rule="evenodd" d="M12.002 2a4 4 0 0 1 4 4v1h2.357l.808 5.25c-.527.003-1 .084-1.415.204a5.195 5.195 0 0 0-1.445-.204 4.697 4.697 0 0 0-3.431 1.49c-.937 1-1.375 2.315-1.375 3.678 0 2.156 1.3 3.713 2.25 4.582H3.336L5.644 7h2.358V6a4 4 0 0 1 4-4Zm0 2a2 2 0 0 0-2 2v1h4V6a2 2 0 0 0-2-2Z" clip-rule="evenodd"/>
</svg>
