<svg xmlns="http://www.w3.org/2000/svg" width="24" height="24" fill="currentColor" viewBox="0 0 24 24">
  <path  fill-rule="evenodd" d="M8.126 6.059a3.964 3.964 0 1 1 7.928 0v.99h.636c.979 0 1.81.714 1.96 1.681l.396 2.578a6.926 6.926 0 0 0-6.906 1.738 6.926 6.926 0 0 0-2.03 5.066 6.93 6.93 0 0 0 1.241 3.802H5.813a1.982 1.982 0 0 1-1.959-2.283l1.677-10.9A1.981 1.981 0 0 1 7.49 7.05h.636v-.991Zm5.946.99v-.99a1.982 1.982 0 0 0-3.964 0v.99h3.964Z" clip-rule="evenodd"/>
  <path  fill-rule="evenodd" d="M17.16 12.997a4.943 4.943 0 0 0-3.619 1.45 4.944 4.944 0 0 0-1.45 3.619 4.941 4.941 0 0 0 1.45 3.388 4.943 4.943 0 0 0 3.62 1.45 4.942 4.942 0 0 0 3.388-1.45 4.941 4.941 0 0 0 1.45-3.388 4.944 4.944 0 0 0-1.45-3.62 4.942 4.942 0 0 0-3.389-1.45Zm2.569 6.235-3.966-3.965a2.973 2.973 0 0 1 3.384.581 2.96 2.96 0 0 1 .87 2.172 2.97 2.97 0 0 1-.288 1.212Zm-5.367-2.564 3.965 3.966a2.97 2.97 0 0 1-1.213.288 2.961 2.961 0 0 1-2.171-.87 2.974 2.974 0 0 1-.581-3.384Z" clip-rule="evenodd"/>
</svg>
