<svg xmlns="http://www.w3.org/2000/svg" width="24" height="24" fill="currentColor" viewBox="0 0 24 24">
  <path fill-rule="evenodd" d="M16.794 15.46a2.65 2.65 0 0 1 3.748 3.747L16.749 23h-3.747v-3.747l3.792-3.793Zm2.334 1.414a.65.65 0 0 0-.919 0l-3.207 3.207V21h.919l3.207-3.207a.65.65 0 0 0 0-.919Z" clip-rule="evenodd"/>
  <path fill-rule="evenodd" d="M12.002 2a4 4 0 0 1 4 4v1h2.357l.88 5.719a4.642 4.642 0 0 0-3.86 1.326l-4.377 4.379V22H3.336L5.644 7h2.358V6a4 4 0 0 1 4-4Zm0 2a2 2 0 0 0-2 2v1h4V6a2 2 0 0 0-2-2Z" clip-rule="evenodd"/>
  <path d="M20.667 22h-.089l.077-.077.012.077Z"/>
</svg>
