<svg xmlns="http://www.w3.org/2000/svg" width="24" height="24" fill="currentColor" viewBox="0 0 24 24">
  <path fill-rule="evenodd" d="M19.197 14.25c.72 0 1.439.289 1.972.857.538.574.835 1.375.835 2.311 0 1.54-1.168 2.706-2.005 3.37a10.46 10.46 0 0 1-2.247 1.348 13.699 13.699 0 0 1-1.009-.513 10.442 10.442 0 0 1-1.237-.836c-.838-.663-2.005-1.829-2.005-3.369 0-.936.297-1.737.835-2.31a2.697 2.697 0 0 1 1.972-.858c.6 0 1.09.166 1.444.344a3.208 3.208 0 0 1 1.445-.344Zm0 2c-.655 0-1.03.348-1.452.77-.422-.422-.782-.77-1.437-.77a.697.697 0 0 0-.513.226c-.14.148-.294.434-.294.942 0 .537.458 1.177 1.246 1.8.358.284.721.515.998.675l.007.003c.277-.16.644-.392 1.005-.677.788-.624 1.247-1.264 1.247-1.801 0-.508-.155-.794-.294-.942a.697.697 0 0 0-.513-.226Z" clip-rule="evenodd"/>
  <path fill-rule="evenodd" d="m19.941 3 .59 9.443a4.69 4.69 0 0 0-1.334-.193c-.538 0-1.023.082-1.445.204a5.192 5.192 0 0 0-1.444-.204 4.697 4.697 0 0 0-3.431 1.49c-.937 1-1.376 2.315-1.376 3.678 0 1.49.621 2.694 1.318 3.582H2.937L4.063 3H19.94ZM8.002 7v1a4 4 0 0 0 8 0V7h-2v1a2 2 0 0 1-4 0V7h-2Z" clip-rule="evenodd"/>
</svg>
