<svg xmlns="http://www.w3.org/2000/svg" width="24" height="24" fill="currentColor" viewBox="0 0 24 24">
  <path  fill-rule="evenodd" d="M4 4a2 2 0 0 0-2 2v12a2 2 0 0 0 2 2h16a2 2 0 0 0 2-2V6a2 2 0 0 0-2-2H4Zm0 2h6v12H4V6Z" clip-rule="evenodd"/>
  <path  fill-rule="evenodd" d="M7 10a1.25 1.25 0 1 1 0-2.5A1.25 1.25 0 0 1 7 10Zm0 3.25a1.25 1.25 0 1 1 0-2.5 1.25 1.25 0 0 1 0 2.5Zm0 3.25A1.25 1.25 0 1 1 7 14a1.25 1.25 0 0 1 0 2.5Z" clip-rule="evenodd"/>
  <path  fill-rule="evenodd" d="M7 10a1.25 1.25 0 1 1 0-2.5A1.25 1.25 0 0 1 7 10Zm0 3.25a1.25 1.25 0 1 1 0-2.5 1.25 1.25 0 0 1 0 2.5Zm0 3.25A1.25 1.25 0 1 1 7 14a1.25 1.25 0 0 1 0 2.5Z" clip-rule="evenodd"/>
</svg>
