<svg xmlns="http://www.w3.org/2000/svg" width="24" height="24" fill="currentColor" viewBox="0 0 24 24">
  <path d="m7.05 5.636-.707.707A7.973 7.973 0 0 0 4 12c0 2.21.894 4.207 2.343 5.656l.707.708-1.414 1.414-.707-.707A9.972 9.972 0 0 1 2 12a9.972 9.972 0 0 1 2.929-7.071l.707-.707L7.05 5.636Zm12.021-.707A9.972 9.972 0 0 1 22 12a9.972 9.972 0 0 1-2.929 7.071l-.707.707-1.415-1.414.708-.708A7.971 7.971 0 0 0 20 12a7.97 7.97 0 0 0-2.343-5.657l-.708-.707 1.415-1.414.707.707Z"/>
  <path d="m9.879 8.464-.707.708A3.984 3.984 0 0 0 8 12c0 1.105.447 2.103 1.172 2.828l.707.707-1.414 1.414-.707-.707A5.984 5.984 0 0 1 6 12c0-1.657.673-3.158 1.758-4.243l.707-.707 1.414 1.414Zm6.363-.707A5.986 5.986 0 0 1 18 12a5.984 5.984 0 0 1-1.758 4.242l-.707.707-1.414-1.414.707-.707A3.984 3.984 0 0 0 16 12a3.984 3.984 0 0 0-1.172-2.828l-.707-.708 1.414-1.414.707.707ZM12 10a2 2 0 1 1 0 4 2 2 0 0 1 0-4Z"/>
</svg>
