<svg xmlns="http://www.w3.org/2000/svg" width="24" height="24" fill="currentColor" viewBox="0 0 24 24">
  <path  d="M15.557 10.293A4.514 4.514 0 0 0 19.095 12c.684 0 1.328-.15 1.905-.419V19a2 2 0 0 1-2 2h-4a1 1 0 0 1-1-1v-3a1.5 1.5 0 0 0-1.5-1.5h-1A1.5 1.5 0 0 0 10 17v3a1 1 0 0 1-1 1H5a2 2 0 0 1-2-2v-7.419c.576.268 1.22.419 1.904.419a4.514 4.514 0 0 0 3.538-1.707A4.548 4.548 0 0 0 12 12c1.445 0 2.724-.67 3.557-1.707ZM7.417 7.66a2.52 2.52 0 1 1-5.006-.535l.344-2.408A2 2 0 0 1 4.734 3H7.75l-.333 4.66Zm7.136-.403a2.56 2.56 0 1 1-5.107 0L9.75 3h4.5l.303 4.257ZM19.265 3a2 2 0 0 1 1.98 1.717l.343 2.408a2.519 2.519 0 1 1-5.005.535L16.25 3h3.015Z"/>
</svg>
