<svg xmlns="http://www.w3.org/2000/svg" width="24" height="24" fill="currentColor" viewBox="0 0 24 24">
  <path fill-rule="evenodd" d="M13 4.566a7.475 7.475 0 0 1 4.33 2.158A7.479 7.479 0 0 1 19.435 11H15v2h4.435a7.583 7.583 0 0 0 0-2H23v2h-3.565A7.505 7.505 0 0 1 13 19.434V23h-2v-3.566a7.478 7.478 0 0 1-4.479-2.312A7.475 7.475 0 0 1 4.566 13H1v-2h3.566A7.504 7.504 0 0 1 11 4.566V9h2V4.566ZM11 15v4.434a7.567 7.567 0 0 0 2 0V15h-2Zm-6.434-4a7.57 7.57 0 0 0 0 2H9v-2H4.566Z" clip-rule="evenodd"/>
  <path d="M13 4.566a7.567 7.567 0 0 0-2 0V1h2v3.566Z"/>
</svg>
