<svg xmlns="http://www.w3.org/2000/svg" width="24" height="24" fill="currentColor" viewBox="0 0 24 24">
  <path  d="M18.577 2.568a1.25 1.25 0 0 0-2.07-.488L13.586 5A2 2 0 0 0 13 6.416v3.171l-1.707 1.707a1 1 0 0 0 1.414 1.415L14.414 11h3.172A2 2 0 0 0 19 10.415l2.921-2.921a1.25 1.25 0 0 0-.488-2.07L19.29 4.71l-.714-2.142Z"/>
  <path  d="M4 12a8 8 0 0 1 8-8 1 1 0 1 0 0-2C6.477 2 2 6.477 2 12s4.477 10 10 10 10-4.477 10-10a1 1 0 1 0-2 0 8 8 0 1 1-16 0Z"/>
  <path  d="M10.8 8.183a1 1 0 1 0-.6-1.908A6.002 6.002 0 0 0 12 18a6.002 6.002 0 0 0 5.725-4.2 1 1 0 1 0-1.908-.6A4.002 4.002 0 0 1 8 12a4.002 4.002 0 0 1 2.8-3.817Z"/>
</svg>
