<svg xmlns="http://www.w3.org/2000/svg" width="24" height="24" fill="currentColor" viewBox="0 0 24 24">
  <path  fill-rule="evenodd" d="M2 6a2 2 0 0 1 2-2h16a2 2 0 0 1 2 2v3.25a1 1 0 0 1-.629.928c-1.662.665-1.662 2.979 0 3.643a1 1 0 0 1 .629.929V18a2 2 0 0 1-2 2H4a2 2 0 0 1-2-2v-3.25a1 1 0 0 1 .629-.928c1.661-.665 1.661-2.979 0-3.643A1 1 0 0 1 2 9.25V6Zm13 1a1 1 0 0 1 1 1v.01a1 1 0 1 1-2 0V8a1 1 0 0 1 1-1Zm0 4a1 1 0 0 1 1 1v.01a1 1 0 1 1-2 0V12a1 1 0 0 1 1-1Zm0 4a1 1 0 0 1 1 1v.01a1 1 0 1 1-2 0V16a1 1 0 0 1 1-1Z" clip-rule="evenodd"/>
</svg>
