<svg xmlns="http://www.w3.org/2000/svg" width="24" height="24" fill="currentColor" viewBox="0 0 24 24">
  <path d="M5.691 15.073a6.503 6.503 0 0 0 9.76 3.937l.846-.532 1.063 1.694-.846.532A8.504 8.504 0 0 1 3.75 15.556l-.24-.971 1.94-.483.241.971ZM17.416 3.95A8.484 8.484 0 0 1 20.5 10.5v3a8.47 8.47 0 0 1-.907 3.824l-.45.893-1.786-.902.45-.892c.443-.878.693-1.87.693-2.923v-3a6.486 6.486 0 0 0-2.36-5.01l-.769-.638 1.274-1.54.771.637Z"/>
  <path d="m9.044 9.874-.041.999A3.09 3.09 0 0 0 9 11v2a3 3 0 0 0 4.321 2.694l.898-.441.883 1.795-.898.441A5 5 0 0 1 7 13v-1.999c0-.07.001-.14.004-.209l.042-1 1.998.083ZM12 6a5 5 0 0 1 5 5v2c0 .07-.001.14-.004.209l-.042 1-1.998-.083.041-.999C15 13.085 15 13.042 15 13v-2a3 3 0 0 0-4.321-2.694l-.898.441-.883-1.795.898-.441A4.985 4.985 0 0 1 12 6Z"/>
  <path d="M13 14h-2v-4h2v4ZM12 2c.43 0 .852.032 1.266.094l.988.147-.295 1.979-.99-.149A6.5 6.5 0 0 0 5.5 10.5v1.792H3.501V10.5A8.5 8.5 0 0 1 12 2Z"/>
</svg>
