<svg xmlns="http://www.w3.org/2000/svg" width="24" height="24" fill="currentColor" viewBox="0 0 24 24">
  <path  d="M11.24 11.11a1 1 0 1 1 2 0 25.976 25.976 0 0 1-2.066 10.172 1 1 0 0 1-1.84-.784 23.974 23.974 0 0 0 1.905-9.389Zm3.542 5.071a1 1 0 1 1 1.967.36 29.76 29.76 0 0 1-1.226 4.595 1 1 0 0 1-1.886-.668 27.77 27.77 0 0 0 .683-2.214l.13-.512c.125-.515.236-1.036.332-1.56ZM6.2 17.488a1 1 0 0 1 1.896.637c-.161.48-.338.952-.531 1.416a1 1 0 0 1-1.848-.766c.175-.422.336-.851.483-1.287Zm13.04-6.378A7 7 0 0 0 9.177 4.813 1 1 0 0 1 8.3 3.015a8.97 8.97 0 0 1 3.94-.905 9 9 0 0 1 9 9c0 2.13-.197 4.217-.572 6.241a1 1 0 0 1-1.966-.365c.353-1.904.538-3.868.538-5.876Zm-16 0c0-1.957.625-3.77 1.686-5.247A1.001 1.001 0 0 1 6.551 7.03a6.964 6.964 0 0 0-1.311 4.08c0 1.466-.176 2.894-.508 4.26a1 1 0 0 1-1.943-.471c.294-1.214.45-2.483.45-3.79Zm12 0a3 3 0 0 0-6 0 22.14 22.14 0 0 1-.305 3.665 1 1 0 0 1-1.973-.33c.182-1.084.278-2.198.278-3.335a5 5 0 1 1 10 0c0 .637-.02 1.27-.06 1.898a1 1 0 0 1-1.996-.125c.037-.586.056-1.177.056-1.773Z"/>
</svg>
