<svg xmlns="http://www.w3.org/2000/svg" width="24" height="24" fill="currentColor" viewBox="0 0 24 24">
  <path d="M13 11a25.973 25.973 0 0 1-2.065 10.172l-.392.92-1.84-.783.39-.92A23.975 23.975 0 0 0 11 11v-1h2.001v1Zm3.556 5.17a29.842 29.842 0 0 1-1.274 4.856l-.334.944-1.885-.67.335-.942a27.853 27.853 0 0 0 1.187-4.529l1.97.342Zm-8.7 1.846c-.16.48-.338.952-.53 1.416l-.384.924-1.847-.768.384-.924a20.2 20.2 0 0 0 .482-1.286l1.895.638Z"/>
  <path d="M11.999 2a9 9 0 0 1 9 9c0 2.13-.196 4.217-.571 6.24l-.183.984-1.967-.365.183-.983c.353-1.904.538-3.868.538-5.876A7 7 0 0 0 8.937 4.703L8.06 2.905A8.968 8.968 0 0 1 11.999 2Z"/>
  <path d="M11.999 6a5 5 0 0 1 5 5c0 1.047-.053 2.082-.158 3.102l-1.99-.204c.098-.953.148-1.92.148-2.898a3 3 0 0 0-6 0 22.02 22.02 0 0 1-.684 5.462l-1.937-.495c.405-1.587.621-3.251.621-4.967a5 5 0 0 1 5-5Zm-5.083.188A6.973 6.973 0 0 0 4.999 11a18.02 18.02 0 0 1-.507 4.26l-.236.972-1.944-.471.237-.972A16.07 16.07 0 0 0 2.999 11c0-2.396.938-4.576 2.465-6.188l1.452 1.375Z"/>
</svg>
