<svg xmlns="http://www.w3.org/2000/svg" width="24" height="24" fill="currentColor" viewBox="0 0 24 24">
  <path d="m13 19.29 1.56-.878.981 1.743L12 22.148l-3.541-1.993.98-1.743L11 19.29V17h2v2.29Zm-8-4.522 1.964-1.134 1 1.732-1.944 1.122 1.6.9-.981 1.744L3 17.085V13h2v1.768Zm16 2.317-3.639 2.047-.98-1.743 1.6-.9-1.945-1.123 1-1.732L19 14.768V13h2v4.085Zm-5.902-5.719L13 12.577V15h-2v-2.423l-2.098-1.21 1-1.733L12 10.844l2.098-1.21 1 1.732ZM7.62 6.611l-1.6.9 1.944 1.123-1 1.732L5 9.233V11H3V6.915l3.639-2.047.98 1.743ZM21 6.915V11h-2V9.233l-1.964 1.133-1-1.732L17.98 7.51l-1.6-.9.981-1.743L21 6.915Zm-5.459-3.07-.98 1.743L13 4.71V7h-2V4.71l-1.56.878-.981-1.743L12 1.853l3.541 1.992Z"/>
</svg>
