<svg xmlns="http://www.w3.org/2000/svg" width="24" height="24" fill="currentColor" viewBox="0 0 24 24">
  <path  d="M2.133 1.963a1 1 0 0 1 1.404.17l14.5 18.5a1 1 0 0 1-1.574 1.234l-1.709-2.18c-.16.041-.33.063-.504.063h-10a2 2 0 0 1-2-2v-12c0-.52.199-.993.524-1.349l-.811-1.034a1 1 0 0 1 .17-1.404Z"/>
  <path  fill-rule="evenodd" d="M14.25 3.75a2 2 0 0 1 2 2v2.382l3.83-1.914a1.5 1.5 0 0 1 2.17 1.34v8.383a1.5 1.5 0 0 1-2.17 1.341l-3.499-1.749L7.346 3.75h6.904Zm2 6.618v2.764l4 2V8.368l-4 2Z" clip-rule="evenodd"/>
</svg>
