<svg xmlns="http://www.w3.org/2000/svg" width="24" height="24" fill="currentColor"
  viewBox="0 0 24 24">
  <g clip-path="url(#a)">
    <path d="m24.179 16.777-4.934 2.468-2.468 4.934-3.289-10.69 10.69 3.288Z" />
    <path d="M22 12h-2V6H4v13h8v2H2V4h20v8Z" />
    <path
      d="M6.75 7.5a1.25 1.25 0 1 1 0 2.5 1.25 1.25 0 0 1 0-2.5Zm3.5 0a1.25 1.25 0 1 1 0 2.5 1.25 1.25 0 0 1 0-2.5Zm3.5 0a1.25 1.25 0 1 1 0 2.5 1.25 1.25 0 0 1 0-2.5Z" />
  </g>
  <defs>
    <clipPath id="a">
      <path d="M0 0h24v24H0z" />
    </clipPath>
  </defs>
</svg>