<svg xmlns="http://www.w3.org/2000/svg" width="24" height="24" fill="currentColor" viewBox="0 0 24 24">
  <path  d="M13 4a1 1 0 0 0-1.555-.832L5.697 7H3a2 2 0 0 0-2 2v6a2 2 0 0 0 2 2h2.697l5.748 3.832A1 1 0 0 0 13 20V4Zm5.364.223a1 1 0 0 1 1.414 0A10.969 10.969 0 0 1 23 12c0 3.037-1.232 5.789-3.222 7.778a1 1 0 1 1-1.414-1.414A8.969 8.969 0 0 0 21 12a8.969 8.969 0 0 0-2.636-6.364 1 1 0 0 1 0-1.414Z"/>
  <path  d="M16.596 7.404a1 1 0 1 0-1.414 1.415A4.483 4.483 0 0 1 16.5 12a4.483 4.483 0 0 1-1.318 3.182 1 1 0 1 0 1.414 1.414A6.483 6.483 0 0 0 18.5 12a6.483 6.483 0 0 0-1.904-4.597Z"/>
</svg>
