<svg xmlns="http://www.w3.org/2000/svg" width="24" height="24" fill="currentColor" viewBox="0 0 24 24">
  <g clip-path="url(#a)">
    <path  d="M5.59 19.477c3.132 2.805 7.831 3.425 11.67 1.208 3.84-2.217 5.653-6.596 4.789-10.711a21.14 21.14 0 0 1-.906.81c-1.717 1.457-4.145 3.126-6.882 4.706-2.736 1.58-5.396 2.849-7.516 3.608-.385.138-.772.266-1.155.379ZM7.263 3.369A10.003 10.003 0 0 1 18.99 4.63c.515-.13.993-.214 1.407-.23.28-.012.588.005.88.094.297.091.652.284.875.67.269.466.198.951.09 1.276-.109.33-.303.644-.514.928-.429.574-1.084 1.22-1.878 1.893-1.6 1.358-3.923 2.96-6.588 4.499-2.666 1.539-5.214 2.749-7.19 3.456-.98.351-1.868.596-2.579.68-.351.041-.721.052-1.061-.018-.335-.07-.79-.25-1.06-.717a1.491 1.491 0 0 1-.142-1.093 2.66 2.66 0 0 1 .358-.81c.221-.35.532-.721.903-1.102-.902-4.136.908-8.555 4.772-10.786Z"/>
  </g>
  <defs>
    <clipPath id="a">
      <path fill="#fff" d="M0 0h24v24H0z"/>
    </clipPath>
  </defs>
</svg>
