<svg xmlns="http://www.w3.org/2000/svg" width="24" height="24" fill="currentColor" viewBox="0 0 24 24">
  <path fill-rule="evenodd" d="M12 2a9.96 9.96 0 0 1 6.33 2.257l1.448-1.45 1.414 1.415-1.449 1.449A9.96 9.96 0 0 1 22 12a9.969 9.969 0 0 1-2.9 7.042l-.057.058A9.97 9.97 0 0 1 12 22a9.96 9.96 0 0 1-6.33-2.257l-1.448 1.45-1.414-1.415 1.449-1.449A9.96 9.96 0 0 1 2 12C2 6.477 6.477 2 12 2ZM7.095 18.32A7.966 7.966 0 0 0 12 20a7.969 7.969 0 0 0 3.364-.74c-.267-.107-.539-.23-.811-.366-1.438-.718-3.07-1.89-4.661-3.371L7.095 18.32Zm4.212-4.213c1.466 1.359 2.924 2.39 4.14 2.998.713.357 1.292.542 1.71.591.204.025.34.012.418-.007a.287.287 0 0 0 .08-.03l.005-.005.006-.01a.3.3 0 0 0 .024-.07 1.21 1.21 0 0 0 .007-.418c-.05-.417-.234-.996-.59-1.709-.609-1.216-1.64-2.674-2.999-4.14l-2.801 2.8ZM4.74 8.635A7.972 7.972 0 0 0 4 12a7.97 7.97 0 0 0 1.68 4.905l2.798-2.797c-1.483-1.591-2.653-3.223-3.372-4.66-.136-.273-.26-.545-.366-.813ZM15.523 9.89c1.483 1.591 2.653 3.224 3.372 4.662.136.272.26.543.366.81A7.97 7.97 0 0 0 20 12c0-1.848-.627-3.55-1.68-4.905L15.523 9.89ZM6.845 6.304a1.238 1.238 0 0 0-.42.007.291.291 0 0 0-.069.024l-.012.008s-.004.004-.009.013a.293.293 0 0 0-.024.07 1.237 1.237 0 0 0-.007.418c.05.417.234.996.59 1.709.609 1.216 1.64 2.674 2.999 4.14l2.801-2.801c-1.466-1.358-2.924-2.39-4.14-2.997-.713-.357-1.292-.542-1.71-.591ZM12 4a7.97 7.97 0 0 0-3.364.74c.267.106.539.23.811.365 1.438.72 3.07 1.89 4.662 3.372l2.796-2.796A7.965 7.965 0 0 0 12 4Z" clip-rule="evenodd"/>
</svg>
