<svg xmlns="http://www.w3.org/2000/svg" width="24" height="24" fill="currentColor" viewBox="0 0 24 24">
  <path d="M7.65 2.398c.834 1.107 1.3 2.295 1.085 3.506-.203 1.147-.974 2.065-2.043 2.801.423.985.36 2.12.003 3.296l-.095.317c.642.636 1.051 1.518 1.29 2.533l.098.413c1.923.218 3.725 1.94 3.49 3.973-.127 1.105-.851 2.052-2.073 2.659l-.896.444-.889-1.791.896-.444c.604-.3.847-.639.936-.915-.734.457-1.532.688-2.382.598-1.089-.115-2.06-.739-2.918-1.646l-.67-.71.692-.688a6.13 6.13 0 0 1 .536-.474 3.531 3.531 0 0 1-1.18-.416c-1.069-.613-1.686-1.729-2.005-3.077l-.216-.917.902-.27c.254-.076.506-.139.755-.186a3.444 3.444 0 0 1-.547-.708c-.619-1.064-.59-2.34-.188-3.664l.272-.894.912.212c.25.058.492.126.724.206a3.532 3.532 0 0 1-.057-1.472c.215-1.21 1.061-2.167 2.225-2.923l.782-.508.561.745Zm10.04-.237c1.164.756 2.01 1.713 2.225 2.923.088.496.062.988-.057 1.472a7.53 7.53 0 0 1 .724-.206l.911-.212.273.894c.402 1.325.431 2.6-.188 3.664a3.44 3.44 0 0 1-.547.708c.249.047.5.11.754.186l.904.27-.217.917c-.319 1.348-.936 2.464-2.004 3.077-.37.212-.766.347-1.18.416.18.143.36.3.535.474l.693.688-.671.71c-.859.907-1.83 1.53-2.918 1.646-.85.09-1.648-.141-2.382-.598.089.276.332.614.936.915l.896.444-.889 1.79-.896-.444c-1.222-.606-1.946-1.553-2.073-2.658-.235-2.032 1.567-3.755 3.49-3.973l.097-.413c.24-1.015.649-1.897 1.291-2.533l-.096-.317c-.358-1.175-.42-2.311.003-3.296-1.069-.736-1.839-1.655-2.042-2.8-.216-1.212.25-2.4 1.085-3.507l.561-.745.782.508Z"/>
</svg>
