<svg width="18" height="18" viewBox="0 0 18 18" fill="none" xmlns="http://www.w3.org/2000/svg">
  <path d="M3.9375 16C3.39583 16 2.9375 15.816 2.5625 15.4479C2.1875 15.0799 2 14.6528 2 14.1667C2 13.8333 2.09722 13.5556 2.29167 13.3333C2.48611 13.1111 2.73611 13 3.04167 13C3.31944 13 3.54861 13.0868 3.72917 13.2604C3.90972 13.434 4 13.6528 4 13.9167C4 14 3.98958 14.0903 3.96875 14.1875C3.94792 14.2847 3.91667 14.3819 3.875 14.4792C3.90278 14.4931 3.92361 14.5 3.9375 14.5H4C4.13889 14.5 4.24653 14.4514 4.32292 14.3542C4.39931 14.2569 4.45833 14.1111 4.5 13.9167L5.79167 7.5H4.75C4.54167 7.5 4.36458 7.42708 4.21875 7.28125C4.07292 7.13542 4 6.95833 4 6.75C4 6.54167 4.07292 6.36458 4.21875 6.21875C4.36458 6.07292 4.54167 6 4.75 6H6.08333L6.52083 3.79167C6.63194 3.25 6.87847 2.81597 7.26042 2.48958C7.64236 2.16319 8.07639 2 8.5625 2C9.10417 2 9.5625 2.18403 9.9375 2.55208C10.3125 2.92014 10.5 3.34722 10.5 3.83333C10.5 4.16667 10.4028 4.44444 10.2083 4.66667C10.0139 4.88889 9.76389 5 9.45833 5C9.18056 5 8.95139 4.91319 8.77083 4.73958C8.59028 4.56597 8.5 4.34722 8.5 4.08333C8.5 4 8.51042 3.90972 8.53125 3.8125C8.55208 3.71528 8.58333 3.61806 8.625 3.52083C8.59722 3.50694 8.57639 3.5 8.5625 3.5H8.5C8.36111 3.5 8.25347 3.54861 8.17708 3.64583C8.10069 3.74306 8.04167 3.88889 8 4.08333L7.60417 6H10.25C10.4583 6 10.6354 6.07292 10.7812 6.21875C10.9271 6.36458 11 6.54167 11 6.75C11 6.94444 10.9444 7.10764 10.8333 7.23958C10.7222 7.37153 10.5764 7.45139 10.3958 7.47917L11.5 8.83333L12.6042 7.47917C12.4236 7.45139 12.2778 7.37153 12.1667 7.23958C12.0556 7.10764 12 6.94444 12 6.75C12 6.54167 12.0729 6.36458 12.2188 6.21875C12.3646 6.07292 12.5417 6 12.75 6H15.25C15.4583 6 15.6354 6.07292 15.7812 6.21875C15.9271 6.36458 16 6.54167 16 6.75C16 6.95833 15.9271 7.13542 15.7812 7.28125C15.6354 7.42708 15.4583 7.5 15.25 7.5H14.5625L12.4792 10L14.5625 12.5H15.25C15.4583 12.5 15.6354 12.5729 15.7812 12.7188C15.9271 12.8646 16 13.0417 16 13.25C16 13.4583 15.9271 13.6354 15.7812 13.7812C15.6354 13.9271 15.4583 14 15.25 14H12.75C12.5417 14 12.3646 13.9271 12.2188 13.7812C12.0729 13.6354 12 13.4583 12 13.25C12 13.0556 12.0556 12.8924 12.1667 12.7604C12.2778 12.6285 12.4236 12.5486 12.6042 12.5208L11.5 11.1667L10.3958 12.5208C10.5764 12.5486 10.7222 12.6285 10.8333 12.7604C10.9444 12.8924 11 13.0556 11 13.25C11 13.4583 10.9271 13.6354 10.7812 13.7812C10.6354 13.9271 10.4583 14 10.25 14H7.75C7.54167 14 7.36458 13.9271 7.21875 13.7812C7.07292 13.6354 7 13.4583 7 13.25C7 13.0417 7.07292 12.8646 7.21875 12.7188C7.36458 12.5729 7.54167 12.5 7.75 12.5H8.45833L10.5208 10L8.45833 7.5H7.3125L5.97917 14.2083C5.86806 14.75 5.62153 15.184 5.23958 15.5104C4.85764 15.8368 4.42361 16 3.9375 16Z" fill="currentColor"/>
</svg>
