<?xml version="1.0" encoding="UTF-8"?>
<svg id="Layer_1" xmlns="http://www.w3.org/2000/svg" version="1.1" viewBox="0 0 355.6 355.6">
  <!-- Generator: Adobe Illustrator 30.1.0, SVG Export Plug-In . SVG Version: 2.1.1 Build 136)  -->
  <defs>
    <style>
      .st0 {
        fill: #44d62c;
        fill-rule: evenodd;
      }
    </style>
  </defs>
  <path class="st0" d="M177.8,192.3c-16.5,0-29.8,13.4-29.8,29.8s13.4,29.8,29.8,29.8,29.8-13.4,29.8-29.8-13.4-29.8-29.8-29.8Z"/>
  <path class="st0" d="M177.8,0C55.1,0,0,55.1,0,177.8s55.1,177.8,177.8,177.8,177.8-55.1,177.8-177.8S300.5,0,177.8,0ZM145.6,78.7h47.8v78.8h-29.6v-53.2h-26.5l8.4-25.5ZM177.8,276.9c-30.1,0-54.4-24.6-54.4-54.7s24.4-54.4,54.4-54.4,54.4,24.6,54.4,54.7-24.4,54.4-54.4,54.4Z"/>
</svg>